<?xml version="1.0" encoding="UTF-8"?>
<svg width="22px" height="22px" viewBox="0 0 22 22" version="1.1" xmlns="http://www.w3.org/2000/svg" xmlns:xlink="http://www.w3.org/1999/xlink">
    <title>desktop</title>
    <g id="页面-1" stroke="none" stroke-width="1" fill="none" fill-rule="evenodd">
        <g id="desktop">
            <path d="M3.78125,4.125 C2.4481875,4.125 1.375,5.16280769 1.375,6.45192308 L1.375,16.9230769 C1.375,18.2121923 2.4481875,19.25 3.78125,19.25 L18.21875,19.25 C19.5518125,19.25 20.625,18.2121923 20.625,16.9230769 L20.625,6.45192308 C20.625,5.16280769 19.5518125,4.125 18.21875,4.125 L3.78125,4.125 Z M3.78125,5.28846154 L18.21875,5.28846154 C18.8852812,5.28846154 19.421875,5.80736538 19.421875,6.45192308 L2.578125,6.45192308 C2.578125,5.80736538 3.11471875,5.28846154 3.78125,5.28846154 Z M2.578125,7.61538462 L19.421875,7.61538462 L19.421875,16.9230769 C19.421875,17.5676346 18.8852812,18.0865385 18.21875,18.0865385 L3.78125,18.0865385 C3.11471875,18.0865385 2.578125,17.5676346 2.578125,16.9230769 L2.578125,7.61538462 Z M6.1875,14.5961538 C5.52096875,14.5961538 4.984375,15.1150577 4.984375,15.7596154 C4.984375,16.4041731 5.52096875,16.9230769 6.1875,16.9230769 L15.8125,16.9230769 C16.4790312,16.9230769 17.015625,16.4041731 17.015625,15.7596154 C17.015625,15.1150577 16.4790312,14.5961538 15.8125,14.5961538 L6.1875,14.5961538 Z" id="形状" fill="#000000" fill-rule="nonzero"></path>
            <rect id="矩形" x="0" y="0" width="22" height="22"></rect>
        </g>
    </g>
</svg>