<?xml version="1.0" encoding="UTF-8"?>
<svg width="22px" height="22px" viewBox="0 0 22 22" version="1.1" xmlns="http://www.w3.org/2000/svg" xmlns:xlink="http://www.w3.org/1999/xlink">
    <title>desktop</title>
    <g id="页面-1" stroke="none" stroke-width="1" fill="none" fill-rule="evenodd">
        <g id="desktop">
            <rect id="矩形" x="0" y="0" width="22" height="22"></rect>
            <g id="编组-11" transform="translate(4.125000, 5.500000)" fill="#000000">
                <path d="M13.7904412,0 C14.5274977,0 15.125,0.597502338 15.125,1.33455882 L15.125,9.34191176 C15.125,10.0789683 14.5274977,10.6764706 13.7904412,10.6764706 L1.33455882,10.6764706 C0.597502338,10.6764706 0,10.0789683 0,9.34191176 L0,1.33455882 C0,0.597502338 0.597502338,0 1.33455882,0 L13.7904412,0 Z M13.7904412,0.222426471 L1.33455882,0.222426471 C0.744913635,0.222426471 0.262446032,0.681308266 0.224792056,1.26143582 L0.222426471,1.33455882 L0.222426471,9.34191176 C0.222426471,9.93155695 0.681308266,10.4140246 1.26143582,10.4516785 L1.33455882,10.4540441 L13.7904412,10.4540441 C14.3800864,10.4540441 14.862554,9.99516232 14.9002079,9.41503477 L14.9025735,9.34191176 L14.9025735,1.33455882 C14.9025735,0.744913635 14.4436917,0.262446032 13.8635642,0.224792056 L13.7904412,0.222426471 Z" id="矩形" fill-rule="nonzero"></path>
                <path d="M0.111213235,2.44669118 L15.0137868,2.44669118 C15.0752081,2.44669118 15.125,2.49648304 15.125,2.55790441 C15.125,2.61932579 15.0752081,2.66911765 15.0137868,2.66911765 L0.111213235,2.66911765 C0.0497918615,2.66911765 7.52194889e-18,2.61932579 0,2.55790441 C1.97546205e-17,2.49648304 0.0497918615,2.44669118 0.111213235,2.44669118 Z" id="矩形"></path>
                <rect id="矩形" x="1.77941176" y="8.00735294" width="11.1213235" height="1.33455882" rx="0.667279412"></rect>
            </g>
        </g>
    </g>
</svg>