<?xml version="1.0" encoding="UTF-8"?>
<svg width="22px" height="18px" viewBox="0 0 22 18" version="1.1" xmlns="http://www.w3.org/2000/svg" xmlns:xlink="http://www.w3.org/1999/xlink">
    <title>desktop</title>
    <g id="页面-1" stroke="none" stroke-width="1" fill="none" fill-rule="evenodd">
        <g id="desktop" fill="#000000" fill-rule="nonzero">
            <path d="M2.75,0 C1.2265,0 0,1.2265 0,2.75 L0,15.125 C0,16.6485 1.2265,17.875 2.75,17.875 L19.25,17.875 C20.7735,17.875 22,16.6485 22,15.125 L22,2.75 C22,1.2265 20.7735,0 19.25,0 L2.75,0 Z M2.75,1.375 L19.25,1.375 C20.01175,1.375 20.625,1.98825 20.625,2.75 L1.375,2.75 C1.375,1.98825 1.98825,1.375 2.75,1.375 Z M1.375,4.125 L20.625,4.125 L20.625,15.125 C20.625,15.88675 20.01175,16.5 19.25,16.5 L2.75,16.5 C1.98825,16.5 1.375,15.88675 1.375,15.125 L1.375,4.125 Z M5.5,12.375 C4.73825,12.375 4.125,12.98825 4.125,13.75 C4.125,14.51175 4.73825,15.125 5.5,15.125 L16.5,15.125 C17.26175,15.125 17.875,14.51175 17.875,13.75 C17.875,12.98825 17.26175,12.375 16.5,12.375 L5.5,12.375 Z" id="形状"></path>
        </g>
    </g>
</svg>