<?xml version="1.0" encoding="UTF-8"?>
<svg width="14px" height="11px" viewBox="0 0 14 11" version="1.1" xmlns="http://www.w3.org/2000/svg" xmlns:xlink="http://www.w3.org/1999/xlink">
    <title>desktop</title>
    <g id="页面-1" stroke="none" stroke-width="1" fill="none" fill-rule="evenodd">
        <g id="desktop" fill="#000000" fill-rule="nonzero">
            <path d="M1.75,0 C0.7805,0 0,0.754769231 0,1.69230769 L0,9.30769231 C0,10.2452308 0.7805,11 1.75,11 L12.25,11 C13.2195,11 14,10.2452308 14,9.30769231 L14,1.69230769 C14,0.754769231 13.2195,0 12.25,0 L1.75,0 Z M1.75,0.846153846 L12.25,0.846153846 C12.73475,0.846153846 13.125,1.22353846 13.125,1.69230769 L0.875,1.69230769 C0.875,1.22353846 1.26525,0.846153846 1.75,0.846153846 Z M0.875,2.53846154 L13.125,2.53846154 L13.125,9.30769231 C13.125,9.77646154 12.73475,10.1538462 12.25,10.1538462 L1.75,10.1538462 C1.26525,10.1538462 0.875,9.77646154 0.875,9.30769231 L0.875,2.53846154 Z M3.5,7.61538462 C3.01525,7.61538462 2.625,7.99276923 2.625,8.46153846 C2.625,8.93030769 3.01525,9.30769231 3.5,9.30769231 L10.5,9.30769231 C10.98475,9.30769231 11.375,8.93030769 11.375,8.46153846 C11.375,7.99276923 10.98475,7.61538462 10.5,7.61538462 L3.5,7.61538462 Z" id="形状"></path>
        </g>
    </g>
</svg>