<?xml version="1.0" encoding="UTF-8"?>
<svg width="22px" height="22px" viewBox="0 0 22 22" version="1.1" xmlns="http://www.w3.org/2000/svg" xmlns:xlink="http://www.w3.org/1999/xlink">
    <title>folder-download</title>
    <g id="页面-1" stroke="none" stroke-width="1" fill="none" fill-rule="evenodd">
        <g id="folder-download" fill="#000000" fill-rule="nonzero">
            <path d="M11,0 C17.0751322,0 22,4.92486775 22,11 C22,17.0751322 17.0751322,22 11,22 C4.92486775,22 0,17.0751322 0,11 C0,4.92486775 4.92486775,0 11,0 Z M11,1.375 C5.68425928,1.375 1.375,5.68425928 1.375,11 C1.375,16.3157407 5.68425928,20.625 11,20.625 C16.3157407,20.625 20.625,16.3157407 20.625,11 C20.625,5.68425928 16.3157407,1.375 11,1.375 Z" id="椭圆形"></path>
            <path d="M11.0149519,4.125 C10.4339806,4.125 9.96301032,4.5959703 9.96301032,5.17694161 L9.96301032,5.17694161 L9.96286226,14.2841261 L7.29577661,11.6162131 C6.8849679,11.2054044 6.2189153,11.2054044 5.80810659,11.6162131 C5.3972978,12.027022 5.3972978,12.6930744 5.80810659,13.1038833 L5.80810659,13.1038833 L10.2711169,17.5668934 C10.4765211,17.7722979 10.7457364,17.875 11.0149519,17.875 L11.0149519,17.875 L11.2158662,17.8557434 C11.4147868,17.81723 11.6047335,17.7209468 11.7587869,17.5668934 L11.7587869,17.5668934 L16.2217973,13.1038833 C16.632606,12.6930744 16.632606,12.027022 16.2217973,11.6162131 C15.8109883,11.2054044 15.1449359,11.2054044 14.734127,11.6162131 L14.734127,11.6162131 L12.0667455,14.2814962 L12.0668935,5.17694161 C12.0668935,4.5959703 11.5959232,4.125 11.0149519,4.125 Z" id="形状结合-path"></path>
        </g>
    </g>
</svg>