<?xml version="1.0" encoding="UTF-8"?>
<svg width="22px" height="22px" viewBox="0 0 22 22" version="1.1" xmlns="http://www.w3.org/2000/svg" xmlns:xlink="http://www.w3.org/1999/xlink">
    <title>folder-txt</title>
    <g id="页面-1" stroke="none" stroke-width="1" fill="none" fill-rule="evenodd">
        <g id="folder-txt">
            <rect id="矩形" x="0" y="0" width="22" height="22" rx="1"></rect>
            <g id="编组-13" transform="translate(4.125000, 4.183860)" fill="#000000" fill-rule="nonzero" stroke="#000000" stroke-width="0.4">
                <path d="M7.86926626,0.0302677258 L7.79713238,0 L0.74729462,0.00059586844 C0.334579022,0.000595868079 0,0.33517489 0,0.747899031 L0,14.3188367 C0,14.7315609 0.334579022,15.0661399 0.747303162,15.0661399 L13.0257706,15.0661399 C13.4384947,15.0661399 13.7730738,14.7315609 13.7730738,14.3188367 L13.7730738,6.08588084 L13.7441311,6.01508053 L7.86926626,0.0302677258 Z M7.75474813,0.201895413 L13.5706071,6.12690785 L13.5709377,14.3188367 C13.5709377,14.6199242 13.3268581,14.8640038 13.0257706,14.8640038 L0.747303162,14.8640038 C0.44621569,14.8640038 0.202136069,14.6199242 0.202136069,14.3188367 L0.202136069,0.747899031 C0.202136069,0.446811558 0.44621569,0.202731937 0.747303162,0.202731937 L7.75474813,0.201895413 Z" id="路径"></path>
                <path d="M7.79714092,0.4123042 L8.04614092,0.6653042 L8.04633856,4.4037072 C8.04633856,5.05750102 8.64602003,5.71144357 9.28023405,5.78508598 C9.68987393,5.83265174 10.9729067,5.84533303 13.1293323,5.82312986 L13.3400205,6.03527735 L9.45912582,6.03527735 C8.54123691,6.03527735 7.79714092,5.29128767 7.79714092,4.37352988 L7.79714092,0.4123042 Z" id="形状结合"></path>
            </g>
        </g>
    </g>
</svg>