<?xml version="1.0" encoding="UTF-8"?>
<svg width="22px" height="22px" viewBox="0 0 22 22" version="1.1" xmlns="http://www.w3.org/2000/svg" xmlns:xlink="http://www.w3.org/1999/xlink">
    <title>folder-video</title>
    <g id="页面-1" stroke="none" stroke-width="1" fill="none" fill-rule="evenodd">
        <g id="folder-video">
            <rect id="矩形" x="0" y="0" width="22" height="22" rx="1"></rect>
            <g id="编组-12" transform="translate(4.125000, 4.125000)" fill="#000000" stroke="#000000">
                <path d="M7.08984375,0 C11.0054563,0 14.1796875,3.17423117 14.1796875,7.08984375 C14.1796875,11.0054563 11.0054563,14.1796875 7.08984375,14.1796875 C3.17423117,14.1796875 0,11.0054563 0,7.08984375 C0,3.17423117 3.17423117,0 7.08984375,0 Z M7.08984375,0.236328125 C3.30475159,0.236328125 0.236328125,3.30475159 0.236328125,7.08984375 C0.236328125,10.8749359 3.30475159,13.9433594 7.08984375,13.9433594 C10.8749359,13.9433594 13.9433594,10.8749359 13.9433594,7.08984375 C13.9433594,3.30475159 10.8749359,0.236328125 7.08984375,0.236328125 Z" id="椭圆形" stroke-width="0.4" fill-rule="nonzero"></path>
                <path d="" id="矩形" stroke-width="0.25"></path>
                <path d="M7.08984375,2.8359375 C7.87296627,2.8359375 8.5078125,3.47078373 8.5078125,4.25390625 C8.5078125,5.03702877 7.87296627,5.671875 7.08984375,5.671875 C6.30672123,5.671875 5.671875,5.03702877 5.671875,4.25390625 C5.671875,3.47078373 6.30672123,2.8359375 7.08984375,2.8359375 Z M7.08984375,3.07226562 C6.43724165,3.07226562 5.90820312,3.60130415 5.90820312,4.25390625 C5.90820312,4.90650835 6.43724165,5.43554687 7.08984375,5.43554687 C7.74244585,5.43554687 8.27148438,4.90650835 8.27148438,4.25390625 C8.27148438,3.60130415 7.74244585,3.07226562 7.08984375,3.07226562 Z" id="椭圆形" stroke-width="0.25" fill-rule="nonzero"></path>
                <path d="M4.25390625,5.671875 C5.03702877,5.671875 5.671875,6.30672123 5.671875,7.08984375 C5.671875,7.87296627 5.03702877,8.5078125 4.25390625,8.5078125 C3.47078373,8.5078125 2.8359375,7.87296627 2.8359375,7.08984375 C2.8359375,6.30672123 3.47078373,5.671875 4.25390625,5.671875 Z M4.25390625,5.90820312 C3.60130415,5.90820312 3.07226562,6.43724165 3.07226562,7.08984375 C3.07226562,7.74244585 3.60130415,8.27148437 4.25390625,8.27148437 C4.90650835,8.27148437 5.43554688,7.74244585 5.43554688,7.08984375 C5.43554688,6.43724165 4.90650835,5.90820312 4.25390625,5.90820312 Z" id="椭圆形备份-5" stroke-width="0.25" fill-rule="nonzero"></path>
                <path d="M9.92578125,5.671875 C10.7089038,5.671875 11.34375,6.30672123 11.34375,7.08984375 C11.34375,7.87296627 10.7089038,8.5078125 9.92578125,8.5078125 C9.14265873,8.5078125 8.5078125,7.87296627 8.5078125,7.08984375 C8.5078125,6.30672123 9.14265873,5.671875 9.92578125,5.671875 Z M9.92578125,5.90820312 C9.27317915,5.90820312 8.74414062,6.43724165 8.74414062,7.08984375 C8.74414062,7.74244585 9.27317915,8.27148437 9.92578125,8.27148437 C10.5783833,8.27148437 11.1074219,7.74244585 11.1074219,7.08984375 C11.1074219,6.43724165 10.5783833,5.90820312 9.92578125,5.90820312 Z" id="椭圆形备份-6" stroke-width="0.25" fill-rule="nonzero"></path>
                <path d="M7.08984375,8.5078125 C7.87296627,8.5078125 8.5078125,9.14265873 8.5078125,9.92578125 C8.5078125,10.7089038 7.87296627,11.34375 7.08984375,11.34375 C6.30672123,11.34375 5.671875,10.7089038 5.671875,9.92578125 C5.671875,9.14265873 6.30672123,8.5078125 7.08984375,8.5078125 Z M7.08984375,8.74414062 C6.43724165,8.74414062 5.90820312,9.27317915 5.90820312,9.92578125 C5.90820312,10.5783833 6.43724165,11.1074219 7.08984375,11.1074219 C7.74244585,11.1074219 8.27148438,10.5783833 8.27148438,9.92578125 C8.27148438,9.27317915 7.74244585,8.74414062 7.08984375,8.74414062 Z" id="椭圆形备份-4" stroke-width="0.25" fill-rule="nonzero"></path>
            </g>
        </g>
    </g>
</svg>