<?xml version="1.0" encoding="UTF-8"?>
<svg width="22px" height="22px" viewBox="0 0 22 22" version="1.1" xmlns="http://www.w3.org/2000/svg" xmlns:xlink="http://www.w3.org/1999/xlink">
    <title>folder-public</title>
    <g id="页面-1" stroke="none" stroke-width="1" fill="none" fill-rule="evenodd">
        <g id="folder-public">
            <rect id="矩形" x="0" y="0" width="22" height="22"></rect>
            <g id="编组-9" transform="translate(4.125000, 4.125000)" fill="#000000" fill-rule="nonzero">
                <path d="M7.00643381,0 C9.03333912,0 10.6764706,1.64313142 10.6764706,3.67003681 C10.6764706,5.11524508 9.8411248,6.36534793 8.62693249,6.96384619 C11.3252646,7.78868174 13.2967497,10.2781648 13.3446942,13.2352414 L13.3455882,13.3455882 L0,13.3455882 C0,10.1794609 2.20508236,7.52835816 5.16327207,6.84425504 C4.0707913,6.20865115 3.33639706,5.02510746 3.33639706,3.67003681 C3.33639706,1.64313142 4.9795285,0 7.00643381,0 Z M7.00643381,0.222426471 C5.10237123,0.222426471 3.55882353,1.76597418 3.55882353,3.67003681 C3.55882353,4.91211478 4.22096755,6.03869138 5.27512611,6.65199946 C5.44931557,6.75334266 5.40973058,7.01555639 5.2133872,7.06096224 C2.40718377,7.70991741 0.360324062,10.1593714 0.229120366,13.0501431 L0.226430147,13.1231618 L13.1187132,13.1231618 L13.1182251,13.091162 C13.0130285,10.3901809 11.2334038,8.05792421 8.70079404,7.22073204 L8.56191047,7.17655649 C8.36923385,7.11765843 8.34787606,6.85341838 8.52859215,6.76434002 C9.69783811,6.18799666 10.4540441,4.9969145 10.4540441,3.67003681 C10.4540441,1.76597419 8.9104964,0.222426471 7.00643381,0.222426471 Z" id="形状结合"></path>
                <path d="M8.78584557,-0.111213235 C10.8741723,-0.111213235 12.5670956,1.58171007 12.5670956,3.67003681 C12.5670956,4.99290106 11.8816164,6.19284346 10.7936845,6.87491041 L10.6867022,6.93881618 L10.7244906,6.95177792 C13.3147971,7.87105673 15.1234821,10.2887375 15.231136,13.0816351 L15.2353156,13.2343403 L15.2362133,13.3446872 C15.2367072,13.4061066 15.1873204,13.4563002 15.125901,13.4568015 C15.0732558,13.4572243 15.0288582,13.4210011 15.0169341,13.3719648 L15.0137904,13.3464892 L15.0129074,13.2370443 C14.9665165,10.3757945 13.0724304,7.89511792 10.3738332,7.07020134 C10.2774949,7.04075231 10.266816,6.90863229 10.3571741,6.8640931 C11.5640552,6.26919868 12.3446691,5.03967216 12.3446691,3.67003681 C12.3446691,1.70455281 10.7513295,0.111213235 8.78584557,0.111213235 C8.7244242,0.111213235 8.67463234,0.0614213738 8.67463234,-2.77555756e-17 C8.67463234,-0.0614213738 8.7244242,-0.111213235 8.78584557,-0.111213235 Z" id="路径"></path>
            </g>
        </g>
    </g>
</svg>