<?xml version="1.0" encoding="UTF-8"?>
<svg width="22px" height="22px" viewBox="0 0 22 22" version="1.1" xmlns="http://www.w3.org/2000/svg" xmlns:xlink="http://www.w3.org/1999/xlink">
    <title>folder-music</title>
    <g id="页面-1" stroke="none" stroke-width="1" fill="none" fill-rule="evenodd">
        <g id="folder-music">
            <rect id="矩形" x="0" y="0" width="22" height="22"></rect>
            <g id="编组-6" transform="translate(4.125000, 2.750000)">
                <path d="M5.5,4.46066858 C8.53756612,4.46066858 11,6.92310245 11,9.96066858 C11,12.9982347 8.53756612,15.4606686 5.5,15.4606686 C2.46243388,15.4606686 0,12.9982347 0,9.96066858 C0,6.92310245 2.46243388,4.46066858 5.5,4.46066858 Z M5.5,5.37733524 C2.9686949,5.37733524 0.916666667,7.42936347 0.916666667,9.96066858 C0.916666667,12.4919737 2.9686949,14.5440019 5.5,14.5440019 C8.0313051,14.5440019 10.0833333,12.4919737 10.0833333,9.96066858 C10.0833333,7.42936347 8.0313051,5.37733524 5.5,5.37733524 Z" id="形状" fill="#000000" fill-rule="nonzero"></path>
                <path d="M10.125,0.916267889 L10.5,8.84848106 L10.125,7.18555367 L10.125,0.916267889 Z" id="矩形" stroke="#000000"></path>
                <path d="" id="矩形备份" stroke="#000000" transform="translate(12.025765, 2.228718) rotate(-45.000000) translate(-12.025765, -2.228718) "></path>
            </g>
        </g>
    </g>
</svg>