<?xml version="1.0" encoding="UTF-8"?>
<svg width="22px" height="20px" viewBox="0 0 22 20" version="1.1" xmlns="http://www.w3.org/2000/svg" xmlns:xlink="http://www.w3.org/1999/xlink">
    <title>folder-templates</title>
    <g id="页面-1" stroke="none" stroke-width="1" fill="none" fill-rule="evenodd">
        <g id="folder-templates" fill="#000000" fill-rule="nonzero">
            <path d="M13.6845238,0 C14.4800769,0 15.125,0.615608469 15.125,1.375 L15.125,6.875 C15.125,7.63439153 14.4800769,8.25 13.6845238,8.25 L1.44047619,8.25 C0.644923158,8.25 0,7.63439153 0,6.875 L0,1.375 C0,0.615608469 0.644923158,0 1.44047619,0 L13.6845238,0 Z M12.9642857,1.375 L2.16071429,1.375 C1.79135038,1.375 1.48692639,1.64040263 1.44532176,1.98232298 L1.44047619,2.0625 L1.44047619,6.1875 C1.44047619,6.54007464 1.71851704,6.83066118 2.07671931,6.87037468 L2.16071429,6.875 L12.9642857,6.875 C13.3336496,6.875 13.6380736,6.60959736 13.6796782,6.26767703 L13.6845238,6.1875 L13.6845238,2.0625 C13.6845238,1.70992536 13.406483,1.41933883 13.0482807,1.37962531 L12.9642857,1.375 Z" id="形状"></path>
            <path d="M20.7777778,0 C21.4527925,0 22,0.615608469 22,1.375 L22,6.875 C22,7.63439153 21.4527925,8.25 20.7777778,8.25 L17.7222222,8.25 C17.0472075,8.25 16.5,7.63439153 16.5,6.875 L16.5,1.375 C16.5,0.615608469 17.0472075,0 17.7222222,0 L20.7777778,0 Z M20.1666667,1.375 L18.3333333,1.375 C18.0199337,1.375 17.7616345,1.64040263 17.7263336,1.98232298 L17.7222222,2.0625 L17.7222222,6.1875 C17.7222222,6.54007464 17.9581357,6.83066118 18.2620649,6.87037468 L18.3333333,6.875 L20.1666667,6.875 C20.4800663,6.875 20.7383655,6.60959736 20.7736664,6.26767703 L20.7777778,6.1875 L20.7777778,2.0625 C20.7777778,1.70992536 20.5418643,1.41933883 20.2379351,1.37962531 L20.1666667,1.375 Z" id="形状"></path>
            <path d="M11.3928571,9.625 L20.2321429,9.625 C21.2085034,9.625 22,10.4868519 22,11.55 L22,17.325 C22,18.3881481 21.2085034,19.25 20.2321429,19.25 L11.3928571,19.25 C10.4164966,19.25 9.625,18.3881481 9.625,17.325 L9.625,11.55 C9.625,10.4868519 10.4164966,9.625 11.3928571,9.625 Z" id="矩形"></path>
            <path d="M2.0625,9.625 L6.1875,9.625 C7.3265873,9.625 8.25,10.4868519 8.25,11.55 L8.25,17.325 C8.25,18.3881481 7.3265873,19.25 6.1875,19.25 L2.0625,19.25 C0.923412703,19.25 0,18.3881481 0,17.325 L0,11.55 C0,10.4868519 0.923412703,9.625 2.0625,9.625 Z" id="矩形备份-10"></path>
        </g>
    </g>
</svg>