<?xml version="1.0" encoding="UTF-8"?>
<svg width="22px" height="22px" viewBox="0 0 22 22" version="1.1" xmlns="http://www.w3.org/2000/svg" xmlns:xlink="http://www.w3.org/1999/xlink">
    <title>folder-music</title>
    <g id="页面-1" stroke="none" stroke-width="1" fill="none" fill-rule="evenodd">
        <g id="folder-music">
            <rect id="矩形" x="0" y="0" width="22" height="22"></rect>
            <g id="编组-15" transform="translate(5.500000, 4.125000)" fill="#000000" stroke="#000000" stroke-width="0.4">
                <path d="M4.5375,6.05 C7.04349205,6.05 9.075,8.08150795 9.075,10.5875 C9.075,13.0934921 7.04349205,15.125 4.5375,15.125 C2.03150795,15.125 0,13.0934921 0,10.5875 C0,8.08150795 2.03150795,6.05 4.5375,6.05 Z M4.5375,6.31691176 C2.17891924,6.31691176 0.266911765,8.22891924 0.266911765,10.5875 C0.266911765,12.9460808 2.17891924,14.8580882 4.5375,14.8580882 C6.89608076,14.8580882 8.80808824,12.9460808 8.80808824,10.5875 C8.80808824,8.22891924 6.89608076,6.31691176 4.5375,6.31691176 Z" id="椭圆形" fill-rule="nonzero"></path>
                <path d="M8.64484307,0.144032919 C8.64377559,0.0655604699 8.70652472,0.00108062121 8.78499717,1.31457526e-05 L8.78693001,0 C8.86679953,-1.46717942e-17 8.93184918,0.0641707799 8.93293556,0.144032919 L8.93258566,0.16 L11.0699755,3.62932409 C11.1088189,3.69238258 11.0891888,3.77499044 11.0261303,3.8138339 L11.0196195,3.81759684 C10.9496201,3.85547583 10.8622233,3.83210041 10.8204801,3.76433442 L8.94058566,0.713 L9.07304069,10.4434671 C9.07410817,10.5219395 9.01135904,10.5864194 8.93288659,10.5874869 L8.93095376,10.5875 C8.85108423,10.5875 8.78603458,10.5233292 8.7849482,10.4434671 L8.64459237,0.192410649 C8.64463159,0.189383448 8.64477319,0.186362022 8.64501589,0.183351729 L8.64484307,0.144032919 Z" id="形状结合"></path>
            </g>
        </g>
    </g>
</svg>