<?xml version="1.0" encoding="UTF-8"?>
<svg width="22px" height="22px" viewBox="0 0 22 22" version="1.1" xmlns="http://www.w3.org/2000/svg" xmlns:xlink="http://www.w3.org/1999/xlink">
    <title>folder-camera</title>
    <g id="页面-1" stroke="none" stroke-width="1" fill="none" fill-rule="evenodd">
        <g id="folder-camera">
            <rect id="矩形" x="0" y="0" width="22" height="22" rx="1"></rect>
            <g id="编组-18" transform="translate(4.125000, 5.500000)" fill="#000000">
                <path d="M14.5813456,1.25940924e-14 C14.848889,1.25940924e-14 15.0657758,0.21688679 15.0657758,0.484430204 L15.0657758,10.1730343 C15.0657758,10.4405777 14.848889,10.6574645 14.5813456,10.6574645 L0.532869713,10.6574645 C0.265326299,10.6574645 0.0484395093,10.4405777 0.0484395093,10.1730343 L0.0484395093,0.484430204 C0.0484395093,0.21688679 0.265326299,1.25940924e-14 0.532869713,1.25940924e-14 L14.5813456,1.25940924e-14 Z M14.5813456,0.242215102 L0.532869713,0.242215102 C0.413961529,0.242215102 0.315065839,0.327898772 0.294557021,0.440891733 L0.290654611,0.484430204 L0.290654611,10.1730343 C0.290654611,10.2919425 0.376338281,10.3908382 0.489331242,10.411347 L0.532869713,10.4152494 L14.5813456,10.4152494 C14.7002538,10.4152494 14.7991495,10.3295657 14.8196583,10.2165728 L14.8235607,10.1730343 L14.8235607,0.484430204 C14.8235607,0.36552202 14.7378771,0.266626329 14.6248841,0.246117511 L14.5813456,0.242215102 Z" id="矩形" fill-rule="nonzero"></path>
                <path d="M11.2754041,5.82590568 L14.4783694,9.84588998 C14.6504472,10.0618618 14.6148641,10.3764382 14.3988923,10.5485161 C14.310361,10.6190543 14.2005143,10.6574645 14.0873178,10.6574645 L5.86160196,10.6574645 L5.86160196,10.6574645 L9.71119784,5.82590568 C10.0553535,5.39396204 10.6845063,5.32279585 11.11645,5.66695153 C11.1752406,5.71379356 11.2285621,5.76711509 11.2754041,5.82590568 Z" id="三角形"></path>
                <path d="M4.48774977,7.18655318 L7.45537768,10.6574645 L7.45537768,10.6574645 L1.08534182,10.6574645 C0.809199442,10.6574645 0.585341817,10.4336069 0.585341817,10.1574645 C0.585341817,10.0383216 0.62788612,9.92309444 0.705311353,9.83253858 L2.96762791,7.18655318 C3.32653116,6.76678312 3.9577706,6.71744082 4.37754066,7.07634407 C4.41708829,7.11015728 4.45393655,7.14700554 4.48774977,7.18655318 Z" id="三角形备份"></path>
                <circle id="椭圆形" cx="3.43945094" cy="3.39101143" r="1.45329061"></circle>
            </g>
        </g>
    </g>
</svg>