<?xml version="1.0" encoding="UTF-8"?>
<svg width="22px" height="22px" viewBox="0 0 22 22" version="1.1" xmlns="http://www.w3.org/2000/svg" xmlns:xlink="http://www.w3.org/1999/xlink">
    <title>folder-html</title>
    <g id="页面-1" stroke="none" stroke-width="1" fill="none" fill-rule="evenodd">
        <g id="folder-html">
            <path d="M11,0 C17.0751322,0 22,4.92486775 22,11 C22,17.0751322 17.0751322,22 11,22 C4.92486775,22 0,17.0751322 0,11 C0,4.92486775 4.92486775,0 11,0 Z M11,1.375 C5.68425928,1.375 1.375,5.68425928 1.375,11 C1.375,16.3157407 5.68425928,20.625 11,20.625 C16.3157407,20.625 20.625,16.3157407 20.625,11 C20.625,5.68425928 16.3157407,1.375 11,1.375 Z" id="椭圆形" fill="#000000" fill-rule="nonzero"></path>
            <path d="M8.93830068,0.19319611 C14.0271788,1.15891433 17.875,5.63010376 17.875,11 C17.875,16.3698962 14.0271788,20.8410857 8.93830068,21.8068039 C3.84851733,20.8418945 0,16.3703819 0,11 C0,5.72724371 3.70986834,1.3209736 8.6617639,0.249030782 L8.93830068,0.19319611 Z M8.936125,1.596375 L8.61729071,1.67181297 C4.40005433,2.74411872 1.375,6.5640394 1.375,11 C1.375,15.5272416 4.52412919,19.4031565 8.85867669,20.386006 L8.938875,20.40225 L9.01762319,20.3859998 C13.240392,19.4276911 16.33776,15.7235999 16.4938231,11.3468894 L16.5,11 C16.5,6.4732538 13.3515175,2.59752756 9.01762319,1.61400022 L8.936125,1.596375 Z" id="形状结合" fill="#000000" fill-rule="nonzero"></path>
            <path d="M13.0633007,0.19319611 C18.1521788,1.15891433 22,5.63010376 22,11 C22,16.3698962 18.1521788,20.8410857 13.0633007,21.8068039 C7.97351733,20.8418945 4.125,16.3703819 4.125,11 C4.125,5.72724371 7.83486834,1.3209736 12.7867639,0.249030782 L13.0633007,0.19319611 Z M13.061125,1.596375 L12.7422907,1.67181297 C8.52505433,2.74411872 5.5,6.5640394 5.5,11 C5.5,15.5272416 8.64912919,19.4031565 12.9836767,20.386006 L13.063875,20.40225 L13.1426232,20.3859998 C17.365392,19.4276911 20.46276,15.7235999 20.6188231,11.3468894 L20.625,11 C20.625,6.4732538 17.4765175,2.59752756 13.1426232,1.61400022 L13.061125,1.596375 Z" id="形状结合" fill="#000000" fill-rule="nonzero"></path>
            <rect id="矩形" stroke="#000000" x="0.5" y="11.5" width="21" height="1" rx="0.5"></rect>
        </g>
    </g>
</svg>