<?xml version="1.0" encoding="UTF-8"?>
<svg width="22px" height="22px" viewBox="0 0 22 22" version="1.1" xmlns="http://www.w3.org/2000/svg" xmlns:xlink="http://www.w3.org/1999/xlink">
    <title>folder-html</title>
    <g id="页面-1" stroke="none" stroke-width="1" fill="none" fill-rule="evenodd">
        <g id="folder-html">
            <rect id="矩形" x="0" y="0" width="22" height="22"></rect>
            <g id="编组-16" transform="translate(4.812500, 4.125000)" stroke="#000000">
                <path d="M6.875,0 C10.6719577,0 13.75,3.07804235 13.75,6.875 C13.75,10.6719577 10.6719577,13.75 6.875,13.75 C3.07804235,13.75 0,10.6719577 0,6.875 C0,3.07804235 3.07804235,0 6.875,0 Z M6.875,0.229166667 C3.2046076,0.229166667 0.229166667,3.2046076 0.229166667,6.875 C0.229166667,10.5453924 3.2046076,13.5208333 6.875,13.5208333 C10.5453924,13.5208333 13.5208333,10.5453924 13.5208333,6.875 C13.5208333,3.2046076 10.5453924,0.229166667 6.875,0.229166667 Z" id="椭圆形" stroke-width="0.4" fill="#000000" fill-rule="nonzero"></path>
                <path d="M6.70228657,0.150149345 C8.88155278,1.63505501 10.3125,4.03903485 10.3125,6.875 C10.3125,9.72239495 8.86999523,12.1596301 6.67590082,13.6422798" id="形状" stroke-width="0.65" fill-rule="nonzero"></path>
                <path d="M3.95228657,0.113394529 C6.13155278,1.59830019 7.5625,4.03903485 7.5625,6.875 C7.5625,8.7732633 6.35030027,11.0290232 3.92590082,13.6422798" id="形状" stroke-width="0.65" fill-rule="nonzero" transform="translate(5.744200, 6.877837) scale(-1, 1) translate(-5.744200, -6.877837) "></path>
                <path d="M6.88152373,0.0966547728 C6.93954428,0.0966547728 6.98657923,0.143689725 6.98657923,0.201710278 L6.98657923,13.5482897 C6.98657923,13.6063103 6.93954428,13.6533452 6.88152373,13.6533452 C6.82350317,13.6533452 6.77646822,13.6063103 6.77646822,13.5482897 L6.77646822,0.201710278 C6.77646822,0.143689725 6.82350317,0.0966547728 6.88152373,0.0966547728 Z" id="矩形" stroke-width="0.4" fill="#000000" transform="translate(6.881524, 6.875000) rotate(-270.000000) translate(-6.881524, -6.875000) "></path>
            </g>
        </g>
    </g>
</svg>