<?xml version="1.0" encoding="UTF-8"?>
<svg width="22px" height="22px" viewBox="0 0 22 22" version="1.1" xmlns="http://www.w3.org/2000/svg" xmlns:xlink="http://www.w3.org/1999/xlink">
    <title>folder-html</title>
    <g id="页面-1" stroke="none" stroke-width="1" fill="none" fill-rule="evenodd">
        <g id="folder-html" transform="translate(11.000000, 11.000000) rotate(-360.000000) translate(-11.000000, -11.000000) ">
            <rect id="矩形" x="0" y="0" width="22" height="22"></rect>
            <g id="编组-7" transform="translate(4.125000, 4.125000)">
                <path d="M7.5625,0 C11.7391534,0 15.125,3.38584658 15.125,7.5625 C15.125,11.7391534 11.7391534,15.125 7.5625,15.125 C3.38584658,15.125 0,11.7391534 0,7.5625 C0,3.38584658 3.38584658,0 7.5625,0 Z M7.5625,0.9453125 C3.90792826,0.9453125 0.9453125,3.90792826 0.9453125,7.5625 C0.9453125,11.2170717 3.90792826,14.1796875 7.5625,14.1796875 C11.2170717,14.1796875 14.1796875,11.2170717 14.1796875,7.5625 C14.1796875,3.90792826 11.2170717,0.9453125 7.5625,0.9453125 Z" id="椭圆形" fill="#000000" fill-rule="nonzero"></path>
                <path d="M6.18805432,0 C9.71112376,0.675800553 12.375,3.80469698 12.375,7.5625 C12.375,11.320303 9.71112376,14.4491994 6.18805432,15.125 C2.66435815,14.4497655 0,11.3206429 0,7.5625 C0,3.8726746 2.56837039,0.789208107 5.99660577,0.0390725796 L6.18805432,0 Z M6.18654808,0.981931426 L5.96581664,1.03472221 C3.04619146,1.78511171 0.951923077,4.45825638 0.951923077,7.5625 C0.951923077,10.7306212 3.13208944,13.4429501 6.13293002,14.130739 L6.18845192,14.1421064 L6.2429699,14.1307346 C9.16642523,13.4601192 11.3107569,10.8680309 11.4188006,7.80524995 L11.4230769,7.5625 C11.4230769,4.39472547 9.24335826,1.6825286 6.2429699,0.994265389 L6.18654808,0.981931426 Z" id="形状结合" fill="#000000" fill-rule="nonzero"></path>
                <path d="M8.93805432,0 C12.4611238,0.675800553 15.125,3.80469698 15.125,7.5625 C15.125,11.320303 12.4611238,14.4491994 8.93805432,15.125 C5.41435815,14.4497655 2.75,11.3206429 2.75,7.5625 C2.75,3.8726746 5.31837039,0.789208107 8.74660577,0.0390725796 L8.93805432,0 Z M8.93654808,0.981931426 L8.71581664,1.03472221 C5.79619146,1.78511171 3.70192308,4.45825638 3.70192308,7.5625 C3.70192308,10.7306212 5.88208944,13.4429501 8.88293002,14.130739 L8.93845192,14.1421064 L8.9929699,14.1307346 C11.9164252,13.4601192 14.0607569,10.8680309 14.1688006,7.80524995 L14.1730769,7.5625 C14.1730769,4.39472547 11.9933583,1.6825286 8.9929699,0.994265389 L8.93654808,0.981931426 Z" id="形状结合" fill="#000000" fill-rule="nonzero"></path>
                <rect id="矩形" stroke="#000000" x="0.5" y="7.75" width="14.125" height="1" rx="0.5"></rect>
            </g>
        </g>
    </g>
</svg>