<?xml version="1.0" encoding="UTF-8"?>
<svg width="22px" height="22px" viewBox="0 0 22 22" version="1.1" xmlns="http://www.w3.org/2000/svg" xmlns:xlink="http://www.w3.org/1999/xlink">
    <title>folder-home</title>
    <g id="页面-1" stroke="none" stroke-width="1" fill="none" fill-rule="evenodd">
        <g id="folder-home">
            <rect id="矩形" x="0" y="0" width="22" height="22"></rect>
            <path d="M11.3259352,4.2727577 L4.26332348,11.4067473 C4.09635227,11.5753583 4.09635227,11.6229912 4.17983787,11.7077167 C4.26332348,11.7924421 4.42895621,11.6023967 4.96958465,11.0564589 C5.3300036,10.6925003 5.56867712,10.4514829 5.68560519,10.3334065 L5.68560519,17.2325546 C5.68560519,18.3502194 6.57663522,19.25 7.68343037,19.25 L15.6747311,19.25 C16.7815262,19.25 17.6725563,18.3502194 17.6725563,17.2325546 L17.6725563,10.2668324 C17.8192668,10.4149838 18.0579403,10.6560013 18.3885768,10.9898849 C18.8845316,11.4907103 19.0557688,11.7295934 19.1483657,11.6752709 C19.2409627,11.6209484 19.2036015,11.5320149 19.1212362,11.4488407 L12.0322263,4.2727577 C11.9344028,4.17396945 11.8067617,4.125 11.6790907,4.125 C11.5513997,4.125 11.4237687,4.17397349 11.3259352,4.2727577 Z M11.6790807,4.29066961 L17.5141843,10.1498729 L17.5141843,17.2783343 C17.5141843,18.2246662 16.6424983,19.1045076 15.809534,19.1045076 L13.8508756,19.1045076 L13.8508756,15.4334096 C13.8508756,14.2100211 12.8822551,13.2251271 11.6790807,13.2251271 C10.4759064,13.2251271 9.50728585,14.2100211 9.50728585,15.4334096 L9.50728585,19.1045076 L7.5578821,19.1045076 C6.7530029,19.1045076 5.87259697,18.2481547 5.87259697,17.4212755 L5.87259697,10.1498729 L11.6790807,4.29066961 Z" id="形状" fill="#000000" fill-rule="nonzero"></path>
        </g>
    </g>
</svg>