<?xml version="1.0" encoding="UTF-8"?>
<svg width="22px" height="22px" viewBox="0 0 22 22" version="1.1" xmlns="http://www.w3.org/2000/svg" xmlns:xlink="http://www.w3.org/1999/xlink">
    <title>folder-public</title>
    <g id="页面-1" stroke="none" stroke-width="1" fill="none" fill-rule="evenodd">
        <g id="folder-public">
            <rect id="矩形" x="0" y="0" width="22" height="22"></rect>
            <g id="编组-9" transform="translate(-0.000000, 1.000000)" fill="#000000" fill-rule="nonzero">
                <path d="M10.1062519,0 C13.0299099,0 15.400003,2.46243386 15.400003,5.5 C15.400003,7.66582182 14.1950797,9.5392542 12.443699,10.4361772 C16.3358394,11.6722944 19.1795579,15.4030899 19.2487142,19.8346317 L19.2500037,20 L0,20 C0,15.25517 3.18066488,11.2821676 7.44763025,10.2569552 C5.87180919,9.30442486 4.81250094,7.53073956 4.81250094,5.5 C4.81250094,2.46243386 7.18259402,0 10.1062519,0 Z M10.1062519,0.333333333 C7.35978539,0.333333333 5.13333433,2.6465288 5.13333433,5.50000007 C5.13333433,7.36140617 6.08842711,9.04971932 7.60897127,9.96883666 C7.86022642,10.1207119 7.80312804,10.5136713 7.51991754,10.5817175 C3.47218091,11.5542564 0.519740264,15.2250635 0.330488834,19.5572392 L0.326608397,19.6666667 L18.9227537,19.6666667 L18.9220496,19.6187112 C18.7703115,15.5709598 16.2033371,12.0757873 12.5502387,10.8211521 L12.3499096,10.7549497 C12.0719881,10.6666837 12.0411811,10.2706876 12.3018505,10.1371928 C13.9883995,9.27347158 15.0791696,7.48848895 15.0791696,5.50000007 C15.0791696,2.64652881 12.8527185,0.333333333 10.1062519,0.333333333 Z" id="形状结合"></path>
                <path d="M12.5381377,-1.26882631e-15 C15.6014397,-1.26882631e-15 18.0847367,2.49545943 18.0847367,5.57376466 C18.0847367,7.52373727 17.0792284,9.2925165 15.4833747,10.2979196 L15.3264456,10.3921201 L15.3818763,10.4112264 C19.181517,11.7662925 21.8346213,15.3300833 21.9925355,19.4469636 L21.9986663,19.6720592 L21.9999832,19.8347164 C22.0007077,19.9252519 21.9282637,19.9992399 21.8381695,19.9999789 C21.7609459,20.0006022 21.6958203,19.9472071 21.6783293,19.874925 L21.6737179,19.8373727 L21.6724226,19.676045 C21.6043733,15.4584098 18.8259968,11.80176 14.8675078,10.5857889 C14.7261921,10.5423795 14.7105276,10.3476275 14.843071,10.2819743 C16.6134077,9.40506817 17.7584662,7.59268037 17.7584662,5.57376466 C17.7584662,2.6765362 15.4212455,0.327868505 12.5381377,0.327868505 C12.4480406,0.327868505 12.3750024,0.25447264 12.3750024,0.163934253 C12.3750024,0.073395865 12.4480406,-1.26882631e-15 12.5381377,-1.26882631e-15 Z" id="路径"></path>
            </g>
        </g>
    </g>
</svg>