<?xml version="1.0" encoding="UTF-8"?>
<svg width="22px" height="22px" viewBox="0 0 22 22" version="1.1" xmlns="http://www.w3.org/2000/svg" xmlns:xlink="http://www.w3.org/1999/xlink">
    <title>folder-download</title>
    <g id="页面-1" stroke="none" stroke-width="1" fill="none" fill-rule="evenodd">
        <g id="folder-download">
            <rect id="矩形" x="0" y="0" width="22" height="22"></rect>
            <g id="编组-14" transform="translate(4.125000, 4.125000)" fill="#000000">
                <path d="M7.5625,0 C11.7391534,0 15.125,3.38584658 15.125,7.5625 C15.125,11.7391534 11.7391534,15.125 7.5625,15.125 C3.38584658,15.125 0,11.7391534 0,7.5625 C0,3.38584658 3.38584658,0 7.5625,0 Z M7.5625,0.252083333 C3.52506836,0.252083333 0.252083333,3.52506836 0.252083333,7.5625 C0.252083333,11.5999316 3.52506836,14.8729167 7.5625,14.8729167 C11.5999316,14.8729167 14.8729167,11.5999316 14.8729167,7.5625 C14.8729167,3.52506836 11.5999316,0.252083333 7.5625,0.252083333 Z" id="椭圆形" fill-rule="nonzero"></path>
                <path d="M7.66993777,2.8359375 C7.72927402,2.8359375 7.77737555,2.88403903 7.77737555,2.94337527 L7.77737555,2.94337527 L7.77673609,11.9189375 L10.469567,9.22789973 C10.5121988,9.18526795 10.5813185,9.18526795 10.6239503,9.22789973 C10.6665821,9.27053152 10.6665821,9.33965129 10.6239503,9.38228308 L7.7487419,12.2574915 C7.7264856,12.2797478 7.69701012,12.290385 7.66785313,12.2894031 C7.63616938,12.293109 7.60391019,12.2824965 7.57994641,12.2585327 L5.03999503,9.71858133 C4.99698311,9.67556942 4.99698311,9.60583332 5.03999503,9.56282141 C5.08300694,9.5198095 5.15274303,9.5198095 5.19575495,9.56282141 L7.56173609,11.9299375 L7.5625,2.94337527 C7.5625,2.89887309 7.58955711,2.86069043 7.62811814,2.84438049 Z" id="形状结合"></path>
            </g>
        </g>
    </g>
</svg>