<?xml version="1.0" encoding="UTF-8"?>
<svg width="22px" height="22px" viewBox="0 0 22 22" version="1.1" xmlns="http://www.w3.org/2000/svg" xmlns:xlink="http://www.w3.org/1999/xlink">
    <title>folder-videos</title>
    <g id="页面-1" stroke="none" stroke-width="1" fill="none" fill-rule="evenodd">
        <g id="folder-videos">
            <path d="M11,0 C17.0751322,0 22,4.92486775 22,11 C22,17.0751322 17.0751322,22 11,22 C4.92486775,22 0,17.0751322 0,11 C0,4.92486775 4.92486775,0 11,0 Z M11,1.57142857 C5.79274379,1.57142857 1.57142857,5.79274379 1.57142857,11 C1.57142857,16.2072562 5.79274379,20.4285714 11,20.4285714 C16.2072562,20.4285714 20.4285714,16.2072562 20.4285714,11 C20.4285714,5.79274379 16.2072562,1.57142857 11,1.57142857 Z" id="椭圆形" fill="#000000" fill-rule="nonzero"></path>
            <rect id="矩形" stroke="#000000" x="11.5" y="20.9285714" width="10" height="1" rx="0.5"></rect>
            <path d="M11,3.14285714 C12.7357521,3.14285714 14.1428571,4.54996221 14.1428571,6.28571429 C14.1428571,8.02146636 12.7357521,9.42857143 11,9.42857143 C9.26424793,9.42857143 7.85714286,8.02146636 7.85714286,6.28571429 C7.85714286,4.54996221 9.26424793,3.14285714 11,3.14285714 Z M11,4.71428571 C10.132124,4.71428571 9.42857143,5.41783825 9.42857143,6.28571429 C9.42857143,7.15359032 10.132124,7.85714286 11,7.85714286 C11.867876,7.85714286 12.5714286,7.15359032 12.5714286,6.28571429 C12.5714286,5.41783825 11.867876,4.71428571 11,4.71428571 Z" id="椭圆形" fill="#000000" fill-rule="nonzero"></path>
            <path d="M15.7142857,7.85714286 C17.4500378,7.85714286 18.8571429,9.26424793 18.8571429,11 C18.8571429,12.7357521 17.4500378,14.1428571 15.7142857,14.1428571 C13.9785336,14.1428571 12.5714286,12.7357521 12.5714286,11 C12.5714286,9.26424793 13.9785336,7.85714286 15.7142857,7.85714286 Z M15.7142857,9.42857143 C14.8464097,9.42857143 14.1428571,10.132124 14.1428571,11 C14.1428571,11.867876 14.8464097,12.5714286 15.7142857,12.5714286 C16.5821617,12.5714286 17.2857143,11.867876 17.2857143,11 C17.2857143,10.132124 16.5821617,9.42857143 15.7142857,9.42857143 Z" id="椭圆形备份" fill="#000000" fill-rule="nonzero"></path>
            <path d="M11,12.5714286 C12.7357521,12.5714286 14.1428571,13.9785336 14.1428571,15.7142857 C14.1428571,17.4500378 12.7357521,18.8571429 11,18.8571429 C9.26424793,18.8571429 7.85714286,17.4500378 7.85714286,15.7142857 C7.85714286,13.9785336 9.26424793,12.5714286 11,12.5714286 Z M11,14.1428571 C10.132124,14.1428571 9.42857143,14.8464097 9.42857143,15.7142857 C9.42857143,16.5821617 10.132124,17.2857143 11,17.2857143 C11.867876,17.2857143 12.5714286,16.5821617 12.5714286,15.7142857 C12.5714286,14.8464097 11.867876,14.1428571 11,14.1428571 Z" id="椭圆形备份-2" fill="#000000" fill-rule="nonzero"></path>
            <path d="M6.28571429,7.85714286 C8.02146636,7.85714286 9.42857143,9.26424793 9.42857143,11 C9.42857143,12.7357521 8.02146636,14.1428571 6.28571429,14.1428571 C4.54996221,14.1428571 3.14285714,12.7357521 3.14285714,11 C3.14285714,9.26424793 4.54996221,7.85714286 6.28571429,7.85714286 Z M6.28571429,9.42857143 C5.41783825,9.42857143 4.71428571,10.132124 4.71428571,11 C4.71428571,11.867876 5.41783825,12.5714286 6.28571429,12.5714286 C7.15359032,12.5714286 7.85714286,11.867876 7.85714286,11 C7.85714286,10.132124 7.15359032,9.42857143 6.28571429,9.42857143 Z" id="椭圆形备份-3" fill="#000000" fill-rule="nonzero"></path>
        </g>
    </g>
</svg>