<?xml version="1.0" encoding="UTF-8"?>
<svg width="22px" height="22px" viewBox="0 0 22 22" version="1.1" xmlns="http://www.w3.org/2000/svg" xmlns:xlink="http://www.w3.org/1999/xlink">
    <title>folder-Documents</title>
    <g id="页面-1" stroke="none" stroke-width="1" fill="none" fill-rule="evenodd">
        <g id="folder-Documents">
            <rect id="矩形" x="0" y="0" width="22" height="22"></rect>
            <g id="编组-4" transform="translate(4.000000, 3.000000)" fill="#000000" fill-rule="nonzero">
                <path d="M6.875,0 L7.82473121,0.9453125 L2.31194721,0.9453125 C1.61620449,0.9453125 1.04443863,1.46081264 0.979579468,2.11994845 L0.973452178,2.24512886 L0.973452178,12.8798845 C0.973452178,13.5555187 1.50428867,14.1107535 2.1830412,14.1737374 L2.31194721,14.1796875 L11.4380528,14.1796875 C12.133799,14.1796875 12.7055618,13.6641959 12.7704206,13.0050642 L12.7765478,12.8798845 L12.7765478,5.66253074 L13.75,6.6171875 L13.75,12.8798845 C13.75,14.0681632 12.7993668,15.040828 11.5963429,15.1198205 L11.4380528,15.125 L2.31194721,15.125 C1.08829624,15.125 0.0866775559,14.2018468 0.00533372647,13.0335989 L0,12.8798845 L0,2.24512886 C0,1.0568487 0.95063459,0.0841729321 2.15365728,0.00517960423 L2.31194721,0 L6.875,0 Z" id="路径"></path>
                <path d="M6.875,0 L13.75,6.875 L8.83956637,6.875 C7.75456632,6.875 6.875,5.99555933 6.875,4.91071429 L6.875,0 Z M11.3777861,5.89285714 L7.85728318,2.371875 L7.85728318,4.91071429 C7.85728318,5.41439234 8.23648397,5.82951596 8.7250114,5.88624955 L8.83956637,5.89285714 L11.3777861,5.89285714 Z" id="形状结合"></path>
            </g>
        </g>
    </g>
</svg>