<?xml version="1.0" encoding="UTF-8"?>
<svg width="22px" height="22px" viewBox="0 0 22 22" version="1.1" xmlns="http://www.w3.org/2000/svg" xmlns:xlink="http://www.w3.org/1999/xlink">
    <title>folder-templates</title>
    <g id="页面-1" stroke="none" stroke-width="1" fill="none" fill-rule="evenodd">
        <g id="folder-templates">
            <rect id="矩形" x="0" y="0" width="22" height="22"></rect>
            <g id="编组" transform="translate(2.000000, 3.000000)" fill="#000000" fill-rule="nonzero">
                <path d="M11.1964286,0 C11.8473356,0 12.375,0.513007057 12.375,1.14583333 L12.375,5.72916667 C12.375,6.36199294 11.8473356,6.875 11.1964286,6.875 L1.17857143,6.875 C0.527664402,6.875 0,6.36199294 0,5.72916667 L0,1.14583333 C0,0.513007057 0.527664402,0 1.17857143,0 L11.1964286,0 Z M10.6071429,1.14583333 L1.76785714,1.14583333 C1.46565031,1.14583333 1.21657614,1.36700219 1.18253599,1.65193581 L1.17857143,1.71875 L1.17857143,5.15625 C1.17857143,5.4500622 1.4060594,5.69221765 1.69913398,5.72531224 L1.76785714,5.72916667 L10.6071429,5.72916667 C10.9093497,5.72916667 11.1584239,5.5079978 11.192464,5.22306419 L11.1964286,5.15625 L11.1964286,1.71875 C11.1964286,1.4249378 10.9689406,1.18278236 10.675866,1.14968776 L10.6071429,1.14583333 Z" id="形状"></path>
                <path d="M16.9583333,0 C17.4645944,0 17.875,0.513007057 17.875,1.14583333 L17.875,5.72916667 C17.875,6.36199294 17.4645944,6.875 16.9583333,6.875 L14.6666667,6.875 C14.1604056,6.875 13.75,6.36199294 13.75,5.72916667 L13.75,1.14583333 C13.75,0.513007057 14.1604056,0 14.6666667,0 L16.9583333,0 Z M16.5,1.14583333 L15.125,1.14583333 C14.8899502,1.14583333 14.6962259,1.36700219 14.6697502,1.65193581 L14.6666667,1.71875 L14.6666667,5.15625 C14.6666667,5.4500622 14.8436017,5.69221765 15.0715487,5.72531224 L15.125,5.72916667 L16.5,5.72916667 C16.7350498,5.72916667 16.9287741,5.5079978 16.9552498,5.22306419 L16.9583333,5.15625 L16.9583333,1.71875 C16.9583333,1.4249378 16.7813983,1.18278236 16.5534513,1.14968776 L16.5,1.14583333 Z" id="形状"></path>
                <path d="M9.625,8.25 L16.5,8.25 C17.2593915,8.25 17.875,8.86560847 17.875,9.625 L17.875,13.75 C17.875,14.5093915 17.2593915,15.125 16.5,15.125 L9.625,15.125 C8.86560847,15.125 8.25,14.5093915 8.25,13.75 L8.25,9.625 C8.25,8.86560847 8.86560847,8.25 9.625,8.25 Z" id="矩形"></path>
                <path d="M1.71875,8.25 L5.15625,8.25 C6.10548941,8.25 6.875,8.86560847 6.875,9.625 L6.875,13.75 C6.875,14.5093915 6.10548941,15.125 5.15625,15.125 L1.71875,15.125 C0.769510586,15.125 0,14.5093915 0,13.75 L0,9.625 C0,8.86560847 0.769510586,8.25 1.71875,8.25 Z" id="矩形备份-10"></path>
            </g>
        </g>
    </g>
</svg>