<?xml version="1.0" encoding="UTF-8"?>
<svg width="22px" height="22px" viewBox="0 0 22 22" version="1.1" xmlns="http://www.w3.org/2000/svg" xmlns:xlink="http://www.w3.org/1999/xlink">
    <title>folder-public</title>
    <g id="页面-1" stroke="none" stroke-width="1" fill="none" fill-rule="evenodd">
        <g id="folder-public">
            <rect id="矩形" x="0" y="0" width="22" height="22"></rect>
            <g id="编组-8" transform="translate(1.833333, 3.666667)" fill="#000000" fill-rule="nonzero">
                <path d="M7.91153639,0 C5.46978493,0 3.49038375,1.97964918 3.49038375,4.42163383 L3.49822041,4.68613607 C3.56067288,5.73794153 3.99350438,6.71103782 4.69265737,7.45179878 L4.75855651,7.517125 L4.49816883,7.62773843 C1.8191675,8.81451503 0.000748807908,11.4946208 0,14.5431263 C0,14.8644632 0.26039387,15.125 0.581730625,15.125 L14.5432656,15.125 C14.8701577,15.125 15.1328722,14.8557322 15.1248197,14.5289392 L15.1162765,14.1822303 L15.095666,13.8825393 C14.8671736,11.3018243 13.3449386,9.06169477 11.1341653,7.87754341 L10.8422954,7.73003846 L10.8802474,7.69887444 C11.7863912,6.8776772 12.3326892,5.69858244 12.3326892,4.42163383 C12.3326892,1.9796492 10.3532879,0 7.91153639,0 Z M7.91153639,1.16346154 C9.71069342,1.16346154 11.1692279,2.62217872 11.1692279,4.42163383 C11.1692279,5.67664043 10.4536973,6.80286539 9.34740286,7.34720716 C8.87411374,7.5800846 8.93021555,8.27209765 9.43483639,8.42569546 L9.69691613,8.51171026 C11.9449539,9.30386961 13.5777874,11.2995627 13.9023365,13.6714546 L13.9347754,13.9615385 L1.19022086,13.9615385 L1.21414327,13.7379836 C1.5481729,11.0953937 3.50128025,8.9118892 6.11894485,8.30848739 C6.63386122,8.18979325 6.73658994,7.50148905 6.27877148,7.23761512 C5.2814236,6.66277132 4.653845,5.59763438 4.653845,4.42163383 C4.653845,2.62217868 6.1123794,1.16346154 7.91153639,1.16346154 Z" id="形状结合"></path>
                <path d="M11.6947966,0.013414172 C13.6839065,0.452742022 15.1247562,2.2559077 15.1247562,4.35847642 C15.1247562,5.64169142 14.5871837,6.8269216 13.6951082,7.65265326 L13.6538225,7.68821211 L13.6807174,7.70182733 C16.000554,8.85118761 17.6122079,11.1801504 17.8461234,13.8788229 L17.8664103,14.1801557 L17.8748248,14.5290281 C17.8825715,14.8502101 17.6324294,15.1169562 17.3161168,15.1248221 C17.03495,15.1318141 16.7961423,14.9319052 16.7411044,14.6618182 L16.7293556,14.5575131 L16.7214516,14.2227795 C16.5904191,11.4989339 14.7902166,9.16755197 12.269701,8.38375548 C11.774099,8.22963977 11.7187668,7.53969679 12.1832823,7.30619234 C13.2733117,6.75825207 13.9789434,5.6235832 13.9789434,4.35847642 C13.9789434,2.80479048 12.9152582,1.47363092 11.4512566,1.15028194 C11.1420789,1.08199492 10.9459591,0.772140831 11.0132108,0.458203465 C11.0729901,0.179148029 11.3207435,-0.00920248618 11.5922072,0.00034713119 L11.6947966,0.013414172 Z" id="路径"></path>
            </g>
        </g>
    </g>
</svg>