<?xml version="1.0" encoding="UTF-8"?>
<svg width="22px" height="22px" viewBox="0 0 22 22" version="1.1" xmlns="http://www.w3.org/2000/svg" xmlns:xlink="http://www.w3.org/1999/xlink">
    <title>folder-templates</title>
    <g id="页面-1" stroke="none" stroke-width="1" fill="none" fill-rule="evenodd">
        <g id="folder-templates">
            <rect id="矩形" x="0" y="0" width="22" height="22"></rect>
            <g id="编组-8" transform="translate(4.125000, 4.125000)" fill="#000000">
                <path d="M9.27016129,0 C9.5396228,0 9.75806452,0.218441715 9.75806452,0.487903226 L9.75806452,5.36693548 C9.75806452,5.63639699 9.5396228,5.85483871 9.27016129,5.85483871 L0.487903226,5.85483871 C0.218441715,5.85483871 0,5.63639699 0,5.36693548 L0,0.487903226 C0,0.218441715 0.218441715,0 0.487903226,0 L9.27016129,0 Z M9.27016129,0.243951613 L0.487903226,0.243951613 C0.368142554,0.243951613 0.268537852,0.330249574 0.247882,0.444052615 L0.243951613,0.487903226 L0.243951613,5.36693548 C0.243951613,5.48669616 0.330249574,5.58630086 0.444052615,5.60695671 L0.487903226,5.6108871 L9.27016129,5.6108871 C9.38992196,5.6108871 9.48952666,5.52458914 9.51018252,5.41078609 L9.5141129,5.36693548 L9.5141129,0.487903226 C9.5141129,0.368142554 9.42781494,0.268537852 9.3140119,0.247882 L9.27016129,0.243951613 Z" id="矩形" fill-rule="nonzero"></path>
                <rect id="矩形备份-5" x="0" y="6.83064516" width="5.85483871" height="5.85483871" rx="1"></rect>
                <rect id="矩形备份-6" x="6.83064516" y="6.83064516" width="8.29435484" height="5.85483871" rx="1"></rect>
                <path d="M14.6370968,0 C14.9065583,0 15.125,0.218441715 15.125,0.487903226 L15.125,5.36693548 C15.125,5.63639699 14.9065583,5.85483871 14.6370968,5.85483871 L11.2217742,5.85483871 C10.9523127,5.85483871 10.733871,5.63639699 10.733871,5.36693548 L10.733871,0.487903226 C10.733871,0.218441715 10.9523127,0 11.2217742,0 L14.6370968,0 Z M14.6370968,0.243951613 L11.2217742,0.243951613 C11.1020135,0.243951613 11.0024088,0.330249574 10.981753,0.444052615 L10.9778226,0.487903226 L10.9778226,5.36693548 C10.9778226,5.48669616 11.0641205,5.58630086 11.1779236,5.60695671 L11.2217742,5.6108871 L14.6370968,5.6108871 C14.7568574,5.6108871 14.8564621,5.52458914 14.877118,5.41078609 L14.8810484,5.36693548 L14.8810484,0.487903226 C14.8810484,0.368142554 14.7947504,0.268537852 14.6809474,0.247882 L14.6370968,0.243951613 Z" id="矩形备份-4" fill-rule="nonzero"></path>
            </g>
        </g>
    </g>
</svg>