<?xml version="1.0" encoding="UTF-8"?>
<svg width="22px" height="22px" viewBox="0 0 22 22" version="1.1" xmlns="http://www.w3.org/2000/svg" xmlns:xlink="http://www.w3.org/1999/xlink">
    <title>folder-home</title>
    <g id="页面-1" stroke="none" stroke-width="1" fill="none" fill-rule="evenodd">
        <g id="folder-home" fill="#000000" fill-rule="nonzero">
            <path d="M10.9999855,1.29049106e-15 C10.8142822,1.29049106e-15 10.628637,0.0705413908 10.4863337,0.212830132 L0.21344401,10.4886258 C-0.0711480032,10.7732178 -0.0711480032,11.2313227 0.21344401,11.5159147 C0.498036022,11.8005068 0.956140968,11.8005068 1.24073298,11.5159147 L2.28221741,10.4744303 L2.28221741,18.8801163 C2.28221741,20.4900001 3.57826109,21.7860438 5.18814494,21.7860438 L16.8118551,21.7860438 C18.4217389,21.7860438 19.7177826,20.4900001 19.7177826,18.8801163 L19.7177826,10.4744303 L20.759267,11.5159147 C21.043859,11.8005068 21.501964,11.8005068 21.786556,11.5159147 C22.071148,11.2313227 22.071148,10.7732178 21.786556,10.4886258 L11.5136663,0.212830132 C11.3713775,0.070535579 11.1857178,1.29049106e-15 11.0000145,1.29049106e-15 L10.9999855,1.29049106e-15 Z M10.9999855,1.75663319 L18.2648043,9.02145202 L18.2648043,18.8801018 C18.2648043,19.6850437 17.6167825,20.3330655 16.8118405,20.3330655 L13.905913,20.3330655 L13.905913,15.9741742 C13.905913,14.3642904 12.6098693,13.0682467 10.9999855,13.0682467 C9.39010162,13.0682467 8.09405794,14.3642904 8.09405794,15.9741742 L8.09405794,20.3330655 L5.18813041,20.3330655 C4.38318848,20.3330655 3.73516664,19.6850437 3.73516664,18.8801018 L3.73516664,9.02145202 L10.9999855,1.75663319 Z" id="形状"></path>
        </g>
    </g>
</svg>