<?xml version="1.0" encoding="UTF-8"?>
<svg width="22px" height="26px" viewBox="0 0 22 26" version="1.1" xmlns="http://www.w3.org/2000/svg" xmlns:xlink="http://www.w3.org/1999/xlink">
    <title>folder-Documents</title>
    <g id="页面-1" stroke="none" stroke-width="1" fill="none" fill-rule="evenodd">
        <g id="folder-Documents" fill="#000000" fill-rule="nonzero">
            <path d="M11,0 L12.5195699,1.57142857 L3.69911553,1.57142857 C2.58592718,1.57142857 1.6711018,2.42836386 1.56732715,3.52407015 L1.55752348,3.73216225 L1.55752348,21.4107171 C1.55752348,22.5338493 2.40686188,23.4568369 3.49286592,23.5615374 L3.69911553,23.5714286 L18.3008845,23.5714286 C19.4140785,23.5714286 20.3288989,22.7145076 20.4326729,21.618808 L20.4424765,21.4107171 L20.4424765,9.41303812 L22,11 L22,21.4107171 C22,23.3860376 20.4789868,25.0029349 18.5541486,25.134247 L18.3008845,25.1428571 L3.69911553,25.1428571 C1.74127398,25.1428571 0.138684089,23.6082648 0.00853396235,21.6662423 L0,21.4107171 L0,3.73216225 C0,1.7568394 1.52101534,0.139923835 3.44585165,0.00861025119 L3.69911553,0 L11,0 Z" id="路径"></path>
            <path d="M11,0 L21.9984286,11 L14.1428571,11 C12.4071051,11 11,9.59289493 11,7.85714286 L11,0 Z M18.2034286,9.42857143 L12.5714286,3.795 L12.5714286,7.85714286 C12.5714286,8.66302775 13.1780632,9.32722554 13.9595954,9.41799928 L14.1428571,9.42857143 L18.2034286,9.42857143 Z" id="形状结合"></path>
        </g>
    </g>
</svg>