<?xml version="1.0" encoding="UTF-8"?>
<svg width="22px" height="22px" viewBox="0 0 22 22" version="1.1" xmlns="http://www.w3.org/2000/svg" xmlns:xlink="http://www.w3.org/1999/xlink">
    <title>folder-txt</title>
    <g id="页面-1" stroke="none" stroke-width="1" fill="none" fill-rule="evenodd">
        <g id="folder-txt">
            <rect id="矩形" x="0" y="0" width="22" height="22" rx="1"></rect>
            <g id="编组-13" transform="translate(4.125000, 4.125000)" fill="#000000" fill-rule="nonzero">
                <path d="M7.86926626,0.0891278414 L7.79713238,0.0588601156 L0.74729462,0.059455984 C0.334579022,0.0594559837 -5.87724314e-15,0.394035006 -5.87724314e-15,0.806759146 L-5.87724314e-15,14.3776968 C-5.87724314e-15,14.790421 0.334579022,15.125 0.747303162,15.125 L13.0257706,15.125 C13.4384947,15.125 13.7730738,14.790421 13.7730738,14.3776968 L13.7730738,6.14474096 L13.7441311,6.07394065 L7.86926626,0.0891278414 Z M7.75474813,0.260755528 L13.5706071,6.18576797 L13.5709377,14.3776968 C13.5709377,14.6787843 13.3268581,14.9228639 13.0257706,14.9228639 L0.747303162,14.9228639 C0.44621569,14.9228639 0.202136069,14.6787843 0.202136069,14.3776968 L0.202136069,0.806759146 C0.202136069,0.505671674 0.44621569,0.261592052 0.747303162,0.261592052 L7.75474813,0.260755528 Z" id="路径"></path>
                <path d="M7.79714092,-3.35842465e-15 L13.8463207,6.09413747 L9.45912582,6.09413747 C8.54123691,6.09413747 7.79714092,5.35014778 7.79714092,4.43239 L7.79714092,-3.35842465e-15 Z M8.04633856,0.562007229 L8.04633856,4.46256732 C8.04633856,5.11636114 8.64602003,5.77030368 9.28023405,5.8439461 C9.53007594,5.87295675 10.1048073,5.88899088 11.0044283,5.89204849 L11.6791482,5.89209213 C12.163565,5.89073911 12.7171892,5.88662186 13.3400205,5.87974038 L8.04633856,0.562007229 Z" id="形状结合"></path>
            </g>
        </g>
    </g>
</svg>