<?xml version="1.0" encoding="UTF-8"?>
<svg width="24px" height="21px" viewBox="0 0 24 21" version="1.1" xmlns="http://www.w3.org/2000/svg" xmlns:xlink="http://www.w3.org/1999/xlink">
    <title>folder-public</title>
    <g id="页面-1" stroke="none" stroke-width="1" fill="none" fill-rule="evenodd">
        <g id="folder-public" transform="translate(1.000000, 1.000000)" fill="#000000" fill-rule="nonzero">
            <path d="M9.23999987,0.733333333 C6.16191241,0.733333333 3.66666667,3.22889109 3.66666667,6.30727174 L3.67654562,6.64070486 C3.75527359,7.9666172 4.30090375,9.19330828 5.18226046,10.127116 L5.26533333,10.2094667 L4.93708697,10.3489066 C1.55992081,11.8449644 -0.732389382,15.2235219 -0.733333334,19.0664865 C-0.733333334,19.4715657 -0.405079162,19.8 2.22044605e-16,19.8 L17.6,19.8 C18.0120823,19.8 18.3432618,19.4605594 18.3331108,19.0486021 L18.3223411,18.6115388 L18.2963594,18.2337465 C18.0083204,14.9804815 16.0893814,12.1565607 13.3024665,10.6638123 L12.9345333,10.4778667 L12.9823758,10.4385811 C14.1246665,9.4033749 14.8133333,7.91700089 14.8133333,6.30727174 C14.8133333,3.22889111 12.3180874,0.733333333 9.23999987,0.733333333 Z M9.23999987,2.2 C11.5080287,2.2 13.3466666,4.03886772 13.3466666,6.30727174 C13.3466666,7.88934066 12.4446642,9.30906667 11.0500623,9.9952672 C10.453431,10.2888339 10.5241533,11.1611898 11.1602816,11.3548161 L11.490661,11.4632469 C14.3245517,12.4618477 16.3829121,14.9776306 16.7920407,17.9676519 L16.8329333,18.3333333 L0.767066667,18.3333333 L0.797223411,18.0515187 C1.2183033,14.7202539 3.68040286,11.9677149 6.98024755,11.2070629 C7.6293544,11.0574363 7.75885488,10.1897559 7.18172601,9.85711482 C5.92446292,9.13246325 5.13333333,7.78974516 5.13333333,6.30727174 C5.13333333,4.03886767 6.9719711,2.2 9.23999987,2.2 Z" id="形状结合"></path>
            <path d="M14.8225351,-0.716577152 C17.3686416,-0.162753202 19.2129623,2.11034725 19.2129623,4.76088014 C19.2129623,6.37852219 18.5248571,7.87264295 17.3829799,8.91357392 L17.3301333,8.9584 L17.3645594,8.97556357 C20.3340037,10.4244661 22.3969578,13.3603951 22.696375,16.7623863 L22.7223427,17.1422514 L22.7331135,17.5820457 C22.7430294,17.9869331 22.4228418,18.3231976 22.0179543,18.3331135 C21.6580544,18.3419277 21.352375,18.0899192 21.2819252,17.7494432 L21.2668865,17.6179543 L21.2567692,17.1959837 C21.0890445,13.7622589 18.784744,10.8232803 15.5584259,9.83521346 C14.924044,9.64093266 14.8532174,8.77117912 15.4478079,8.47681956 C16.8430707,7.786077 17.7462956,6.35569466 17.7462956,4.76088014 C17.7462956,2.80227796 16.384754,1.12419622 14.5107983,0.716577152 C14.1150436,0.630493402 13.8640058,0.239886217 13.9500895,-0.155868417 C14.0266084,-0.507650313 14.3437384,-0.745088085 14.6912182,-0.73304968 L14.8225351,-0.716577152 Z" id="路径"></path>
        </g>
    </g>
</svg>