<?xml version="1.0" encoding="UTF-8"?>
<svg width="22px" height="22px" viewBox="0 0 22 22" version="1.1" xmlns="http://www.w3.org/2000/svg" xmlns:xlink="http://www.w3.org/1999/xlink">
    <title>folder-html</title>
    <g id="页面-1" stroke="none" stroke-width="1" fill="none" fill-rule="evenodd">
        <g id="folder-html">
            <rect id="矩形" x="0" y="0" width="22" height="22"></rect>
            <g id="编组-16" transform="translate(4.125000, 2.750000)" fill="#000000">
                <path d="M7.5625,8.39606162e-16 C11.7391534,8.39606162e-16 15.125,3.38584658 15.125,7.5625 C15.125,11.7391534 11.7391534,15.125 7.5625,15.125 C3.38584658,15.125 0,11.7391534 0,7.5625 C0,3.38584658 3.38584658,8.39606162e-16 7.5625,8.39606162e-16 Z M7.5625,0.252083333 C3.52506836,0.252083333 0.252083333,3.52506836 0.252083333,7.5625 C0.252083333,11.5999316 3.52506836,14.8729167 7.5625,14.8729167 C11.5999316,14.8729167 14.8729167,11.5999316 14.8729167,7.5625 C14.8729167,3.52506836 11.5999316,0.252083333 7.5625,0.252083333 Z" id="椭圆形" fill-rule="nonzero"></path>
                <path d="M11.5958333,7.5625 C11.5958333,10.7191363 9.98415541,13.4993451 7.53878213,15.1251438 C3.37275592,15.1118937 -6.7168493e-15,11.7310715 -6.7168493e-15,7.5625 C-6.7168493e-15,3.43871561 3.30067146,0.0858443465 7.40427831,0.00162228667 L7.53930833,-1.17544863e-14 L7.6910133,0.103303493 C10.0508221,1.74203654 11.5958333,4.47183992 11.5958333,7.5625 Z M7.54912899,0.311665798 L7.462675,0.2525875 L7.40945095,0.253652544 C3.43685766,0.335185694 0.252083333,3.58207879 0.252083333,7.5625 C0.252083333,11.538237 3.42633849,14.7740926 7.38098739,14.8708705 L7.462675,14.8719083 L7.55732376,14.8076437 C9.85641176,13.2069987 11.2795159,10.6073127 11.3416296,7.7572048 L11.34375,7.5625 C11.34375,4.69975466 9.97056937,2.06884075 7.70497833,0.422389493 L7.54912899,0.311665798 Z" id="形状结合" fill-rule="nonzero"></path>
                <path d="M8.06557373,0.016467104 C12.0076815,0.275369937 15.125,3.5548906 15.125,7.5625 C15.125,11.5699383 12.0079477,14.84935 8.06607862,15.1084997 C5.63414517,13.4805647 4.03333333,10.7084772 4.03333333,7.5625 C4.03333333,4.51028462 5.54014684,1.81000439 7.85047204,0.164961123 L8.06557373,0.016467104 Z M8.13372083,0.274266667 L7.98935471,0.375511412 C5.68538918,2.01890392 4.28541667,4.67214579 4.28541667,7.5625 C4.28541667,10.4787287 5.71072364,13.1526323 8.04906868,14.7913151 L8.13472917,14.8502292 L8.21078183,14.8445857 C11.9076344,14.5201079 14.7895539,11.4537817 14.87114,7.72503068 L14.8729167,7.5625 C14.8729167,3.7604942 11.9609461,0.609324305 8.21030272,0.280372252 L8.13372083,0.274266667 Z" id="形状结合" fill-rule="nonzero"></path>
                <path d="M7.56235215,0.586337233 C7.62617537,0.586337233 7.67791431,0.638076172 7.67791431,0.701899387 L7.67791431,15.4424075 C7.67791431,15.5062307 7.62617537,15.5579696 7.56235215,15.5579696 C7.49852893,15.5579696 7.44679,15.5062307 7.44679,15.4424075 L7.44679,0.701899387 C7.44679,0.638076172 7.49852893,0.586337233 7.56235215,0.586337233 Z" id="矩形" transform="translate(7.562352, 8.072153) rotate(-270.000000) translate(-7.562352, -8.072153) "></path>
            </g>
        </g>
    </g>
</svg>