<?xml version="1.0" encoding="UTF-8"?>
<svg width="22px" height="25px" viewBox="0 0 22 25" version="1.1" xmlns="http://www.w3.org/2000/svg" xmlns:xlink="http://www.w3.org/1999/xlink">
    <title>folder-music</title>
    <g id="页面-1" stroke="none" stroke-width="1" fill="none" fill-rule="evenodd">
        <g id="folder-music" transform="translate(0.000000, 0.814328)">
            <path d="M8.74813183,6.10280174 C13.5795916,6.10280174 17.4962637,10.0194738 17.4962637,14.8509336 C17.4962637,19.6823934 13.5795916,23.5990654 8.74813183,23.5990654 C3.91667203,23.5990654 0,19.6823934 0,14.8509336 C0,10.0194738 3.91667203,6.10280174 8.74813183,6.10280174 Z M8.74813183,7.56082371 C4.72191533,7.56082371 1.45802197,10.8247171 1.45802197,14.8509336 C1.45802197,18.8771501 4.72191533,22.1410434 8.74813183,22.1410434 C12.7743483,22.1410434 16.0382417,18.8771501 16.0382417,14.8509336 C16.0382417,10.8247171 12.7743483,7.56082371 8.74813183,7.56082371 Z" id="形状" fill="#000000" fill-rule="nonzero"></path>
            <rect id="矩形" stroke="#000000" x="16.5382417" y="0.770713852" width="1" height="13.5802197" rx="0.5"></rect>
            <path d="" id="矩形备份" stroke="#000000" transform="translate(18.907068, 3.092932) rotate(-45.000000) translate(-18.907068, -3.092932) "></path>
        </g>
    </g>
</svg>