<?xml version="1.0" encoding="UTF-8"?>
<svg width="22px" height="22px" viewBox="0 0 22 22" version="1.1" xmlns="http://www.w3.org/2000/svg" xmlns:xlink="http://www.w3.org/1999/xlink">
    <title>folder-pictures</title>
    <g id="页面-1" stroke="none" stroke-width="1" fill="none" fill-rule="evenodd">
        <g id="folder-pictures">
            <rect id="矩形" x="0" y="0" width="22" height="22"></rect>
            <g id="编组-3" transform="translate(0.000000, 3.000000)" fill="#000000" fill-rule="nonzero">
                <path d="M13.6424323,6.56536738 C14.0094494,6.11545072 14.712827,6.11546863 15.0798198,6.56540399 L15.0798198,6.56540399 L20.8853753,13.6830511 C21.3611174,14.2663138 20.9331236,15.125 20.1666667,15.125 L20.1666667,15.125 L2.75,15.125 C1.96906929,15.125 1.54578913,14.2378114 2.05093999,13.6597812 L2.05093999,13.6597812 L6.19776538,8.91468319 C6.56390178,8.4957234 7.22988257,8.49576553 7.59596269,8.91477164 L7.59596269,8.91477164 L9.73133333,11.358875 L13.6424323,6.56536738 Z" id="形状结合"></path>
                <path d="M20.1666667,0 C21.1791887,0 22,0.796669783 22,1.77941176 L22,13.3455882 C22,14.3283302 21.1791887,15.125 20.1666667,15.125 L1.83333333,15.125 C0.820811292,15.125 0,14.3283302 0,13.3455882 L0,1.77941176 C0,0.796669783 0.820811292,0 1.83333333,0 L20.1666667,0 Z M19.6770833,1.375 L2.32291667,1.375 C1.83679103,1.375 1.43613384,1.73095176 1.38137733,2.18952728 L1.375,2.29705881 L1.375,12.8279412 C1.375,13.300806 1.74093393,13.6905338 2.21236956,13.7437966 L2.32291667,13.75 L19.6770833,13.75 C20.163209,13.75 20.5638662,13.3940482 20.6186227,12.9354727 L20.625,12.8279412 L20.625,2.29705881 C20.625,1.82419401 20.2590661,1.43446619 19.7876304,1.38120336 L19.6770833,1.375 Z" id="形状"></path>
                <ellipse id="椭圆形" cx="5.5" cy="4.44852941" rx="2.29166667" ry="2.22426471"></ellipse>
            </g>
        </g>
    </g>
</svg>