<?xml version="1.0" encoding="UTF-8"?>
<svg width="22px" height="22px" viewBox="0 0 22 22" version="1.1" xmlns="http://www.w3.org/2000/svg" xmlns:xlink="http://www.w3.org/1999/xlink">
    <title>folder-download</title>
    <g id="页面-1" stroke="none" stroke-width="1" fill="none" fill-rule="evenodd">
        <g id="folder-download">
            <rect id="矩形" x="0" y="0" width="22" height="22"></rect>
            <g id="编组-14" transform="translate(4.125000, 4.125000)" fill="#000000" stroke="#000000" stroke-width="0.4">
                <path d="M6.875,0 C10.6719577,0 13.75,3.07804235 13.75,6.875 C13.75,10.6719577 10.6719577,13.75 6.875,13.75 C3.07804235,13.75 0,10.6719577 0,6.875 C0,3.07804235 3.07804235,0 6.875,0 Z M6.875,0.229166667 C3.2046076,0.229166667 0.229166667,3.2046076 0.229166667,6.875 C0.229166667,10.5453924 3.2046076,13.5208333 6.875,13.5208333 C10.5453924,13.5208333 13.5208333,10.5453924 13.5208333,6.875 C13.5208333,3.2046076 10.5453924,0.229166667 6.875,0.229166667 Z" id="椭圆形" fill-rule="nonzero"></path>
                <path d="M6.71735512,2.75 C6.7751346,2.75 6.82197411,2.79683952 6.82197411,2.854619 L6.82197411,2.854619 L6.82172966,10.681 L9.33024187,8.17356942 C9.36744008,8.13637121 9.4277503,8.13637121 9.46494851,8.17356942 C9.50214672,8.21076763 9.50214672,8.27107785 9.46494851,8.30827606 L6.64954893,11.1236756 C6.63094982,11.1422747 6.60657272,11.1515743 6.58219561,11.1515743 L6.52908084,11.1410429 C6.51617032,11.1358074 6.50407302,11.1279543 6.49360217,11.1174834 L4.29314223,8.91702349 C4.2512588,8.87514006 4.2512588,8.80723359 4.29314223,8.76535015 C4.33502567,8.72346672 4.40293214,8.72346672 4.44481558,8.76535015 L6.59106303,10.9123026 L6.62742275,10.8766489 C6.61809471,10.8609981 6.61273612,10.8427066 6.61273612,10.8231635 L6.61273612,10.8231635 L6.61273612,2.854619 C6.61273612,2.79683952 6.65957564,2.75 6.71735512,2.75 Z" id="形状结合"></path>
            </g>
        </g>
    </g>
</svg>