<?xml version="1.0" encoding="UTF-8"?>
<svg width="22px" height="22px" viewBox="0 0 22 22" version="1.1" xmlns="http://www.w3.org/2000/svg" xmlns:xlink="http://www.w3.org/1999/xlink">
    <title>folder-videos</title>
    <g id="页面-1" stroke="none" stroke-width="1" fill="none" fill-rule="evenodd">
        <g id="folder-videos">
            <rect id="矩形" x="0" y="0" width="22" height="22"></rect>
            <g id="编组-2" transform="translate(3.000000, 3.000000)">
                <path d="M7.5625,0 C11.7391534,0 15.125,3.38584658 15.125,7.5625 C15.125,11.7391534 11.7391534,15.125 7.5625,15.125 C3.38584658,15.125 0,11.7391534 0,7.5625 C0,3.38584658 3.38584658,0 7.5625,0 Z M7.5625,1.08035714 C3.98251135,1.08035714 1.08035714,3.98251135 1.08035714,7.5625 C1.08035714,11.1424886 3.98251135,14.0446429 7.5625,14.0446429 C11.1424886,14.0446429 14.0446429,11.1424886 14.0446429,7.5625 C14.0446429,3.98251135 11.1424886,1.08035714 7.5625,1.08035714 Z" id="椭圆形" fill="#000000" fill-rule="nonzero"></path>
                <path d="" id="矩形" stroke="#000000"></path>
                <path d="M7.5625,2.75 C8.7015873,2.75 9.625,3.6734127 9.625,4.8125 C9.625,5.9515873 8.7015873,6.875 7.5625,6.875 C6.4234127,6.875 5.5,5.9515873 5.5,4.8125 C5.5,3.6734127 6.4234127,2.75 7.5625,2.75 Z M7.5625,3.78125 C6.99295635,3.78125 6.53125,4.24295635 6.53125,4.8125 C6.53125,5.38204365 6.99295635,5.84375 7.5625,5.84375 C8.13204365,5.84375 8.59375,5.38204365 8.59375,4.8125 C8.59375,4.24295635 8.13204365,3.78125 7.5625,3.78125 Z" id="椭圆形" fill="#000000" fill-rule="nonzero"></path>
                <path d="M10.3125,5.5 C11.4515873,5.5 12.375,6.4234127 12.375,7.5625 C12.375,8.7015873 11.4515873,9.625 10.3125,9.625 C9.1734127,9.625 8.25,8.7015873 8.25,7.5625 C8.25,6.4234127 9.1734127,5.5 10.3125,5.5 Z M10.3125,6.53125 C9.74295635,6.53125 9.28125,6.99295635 9.28125,7.5625 C9.28125,8.13204365 9.74295635,8.59375 10.3125,8.59375 C10.8820436,8.59375 11.34375,8.13204365 11.34375,7.5625 C11.34375,6.99295635 10.8820436,6.53125 10.3125,6.53125 Z" id="椭圆形备份" fill="#000000" fill-rule="nonzero"></path>
                <path d="M7.5625,8.25 C8.7015873,8.25 9.625,9.1734127 9.625,10.3125 C9.625,11.4515873 8.7015873,12.375 7.5625,12.375 C6.4234127,12.375 5.5,11.4515873 5.5,10.3125 C5.5,9.1734127 6.4234127,8.25 7.5625,8.25 Z M7.5625,9.28125 C6.99295635,9.28125 6.53125,9.74295635 6.53125,10.3125 C6.53125,10.8820436 6.99295635,11.34375 7.5625,11.34375 C8.13204365,11.34375 8.59375,10.8820436 8.59375,10.3125 C8.59375,9.74295635 8.13204365,9.28125 7.5625,9.28125 Z" id="椭圆形备份-2" fill="#000000" fill-rule="nonzero"></path>
                <path d="M4.8125,5.5 C5.9515873,5.5 6.875,6.4234127 6.875,7.5625 C6.875,8.7015873 5.9515873,9.625 4.8125,9.625 C3.6734127,9.625 2.75,8.7015873 2.75,7.5625 C2.75,6.4234127 3.6734127,5.5 4.8125,5.5 Z M4.8125,6.53125 C4.24295635,6.53125 3.78125,6.99295635 3.78125,7.5625 C3.78125,8.13204365 4.24295635,8.59375 4.8125,8.59375 C5.38204365,8.59375 5.84375,8.13204365 5.84375,7.5625 C5.84375,6.99295635 5.38204365,6.53125 4.8125,6.53125 Z" id="椭圆形备份-3" fill="#000000" fill-rule="nonzero"></path>
            </g>
        </g>
    </g>
</svg>