<?xml version="1.0" encoding="UTF-8"?>
<svg width="22px" height="22px" viewBox="0 0 22 22" version="1.1" xmlns="http://www.w3.org/2000/svg" xmlns:xlink="http://www.w3.org/1999/xlink">
    <title>folder-camera</title>
    <g id="页面-1" stroke="none" stroke-width="1" fill="none" fill-rule="evenodd">
        <g id="folder-camera">
            <rect id="矩形" x="0" y="0" width="22" height="22" rx="1"></rect>
            <g id="编组-18" transform="translate(3.860062, 5.500000)" fill="#000000">
                <path d="M14.8462837,0 C15.1138272,0 15.3307139,0.21688679 15.3307139,0.484430204 L15.3307139,10.1730343 C15.3307139,10.4405777 15.1138272,10.6574645 14.8462837,10.6574645 L0.797807829,10.6574645 C0.530264415,10.6574645 0.313377625,10.4405777 0.313377625,10.1730343 L0.313377625,0.484430204 C0.313377625,0.21688679 0.530264415,0 0.797807829,0 L14.8462837,0 Z M14.8462837,0.242215102 L0.797807829,0.242215102 C0.678899645,0.242215102 0.580003955,0.327898772 0.559495137,0.440891733 L0.555592727,0.484430204 L0.555592727,10.1730343 C0.555592727,10.2919425 0.641276397,10.3908382 0.754269358,10.411347 L0.797807829,10.4152494 L14.8462837,10.4152494 C14.9651919,10.4152494 15.0640876,10.3295657 15.0845964,10.2165728 L15.0884988,10.1730343 L15.0884988,0.484430204 C15.0884988,0.36552202 15.0028152,0.266626329 14.8898222,0.246117511 L14.8462837,0.242215102 Z" id="矩形" stroke="#000000" stroke-width="0.4" fill-rule="nonzero"></path>
                <path d="M11.54285,5.79905968 L15.1995542,10.2487379 C15.2872165,10.3554101 15.2718059,10.5129494 15.1651336,10.6006117 C15.1204039,10.6373702 15.0643028,10.6574645 15.006407,10.6574645 L6.12654007,10.6574645 L6.12654007,10.6574645 L9.9881579,5.81081715 C10.3323136,5.37887351 10.9614664,5.30770732 11.39341,5.65186301 C11.4482459,5.69555402 11.4983347,5.74489093 11.54285,5.79905968 Z" id="三角形"></path>
                <path d="M4.72698479,7.15649106 L7.72031579,10.6574645 L7.72031579,10.6574645 L0.567931924,10.6574645 C0.429860737,10.6574645 0.317931924,10.5455357 0.317931924,10.4074645 C0.317931924,10.3449588 0.341346672,10.2847205 0.383560792,10.2386235 L3.22943933,7.13097885 C3.60243258,6.7236774 4.23498643,6.6958651 4.64228789,7.06885835 C4.6722756,7.09632011 4.70056041,7.12558535 4.72698479,7.15649106 Z" id="三角形备份"></path>
                <circle id="椭圆形" cx="3.70438905" cy="3.39101143" r="1.45329061"></circle>
            </g>
        </g>
    </g>
</svg>