<?xml version="1.0" encoding="UTF-8"?>
<svg width="22px" height="22px" viewBox="0 0 22 22" version="1.1" xmlns="http://www.w3.org/2000/svg" xmlns:xlink="http://www.w3.org/1999/xlink">
    <title>folder-public</title>
    <g id="页面-1" stroke="none" stroke-width="1" fill="none" fill-rule="evenodd">
        <g id="folder-public">
            <rect id="矩形" x="0" y="0" width="22" height="22"></rect>
            <g id="编组-9" transform="translate(4.125000, 4.125000)" fill="#000000" fill-rule="nonzero">
                <g id="yonghu">
                    <path d="M10.727292,7.38249386 C11.9796353,6.73190631 12.8360175,5.4215079 12.8360175,3.90983444 C12.8360175,1.75039749 11.0898542,0 8.93604265,0 C6.78212618,0 5.03597793,1.75047259 5.03597793,3.90983444 C5.03597793,5.40336175 5.87165257,6.70085656 7.09951233,7.35928542 C4.49136296,8.14131239 2.55740818,10.5852293 2.62215304,13.3638586 C2.62215304,13.9115478 3.3607029,13.8362443 3.3607029,13.3910177 C3.3607029,10.3141186 5.84878735,7.81974398 8.9180022,7.81974398 C11.9871271,7.81974398 14.4752266,10.3141937 14.4752266,13.3910177 C14.4752266,13.7643357 15.1235592,13.7079745 15.1235592,13.3638586 C15.1846929,10.6116073 13.2937116,8.1896821 10.727292,7.38250889 L10.727292,7.38249386 Z M8.87297598,7.09723278 C8.7976376,7.09723278 8.72291356,7.10032724 8.64811459,7.10309122 C7.01857002,6.96564314 5.73855177,5.59702083 5.73855177,3.92781535 C5.73855177,2.16741345 7.1620246,0.74041701 8.9180022,0.74041701 C10.6739798,0.74041701 12.1767767,2.16748855 12.1767767,3.92783037 C12.1767767,5.60486213 10.8127594,6.97842657 9.16541416,7.10486377 C9.06800852,7.10000783 8.97050172,7.09746846 8.87297598,7.0972478 L8.87297598,7.09723278 Z M4.93509223,7.54773199 C4.94015674,7.54773199 4.94513135,7.54810753 4.95013593,7.54810753 C5.40803985,7.54810753 5.41794412,6.80238788 4.93509223,6.80238788 C4.92274561,6.80238788 4.91054882,6.80169688 4.89818721,6.80153164 L4.89749796,6.78745636 C4.8332176,6.78745636 4.76968643,6.79016026 4.70624516,6.79260878 C3.34114909,6.68424262 2.20389617,5.61665412 2.20389617,4.22779765 C2.20389617,2.76188013 3.47056388,1.57360772 4.93509223,1.57360772 C5.41872327,1.57360772 5.29128633,0.956999125 4.79132299,0.956999125 C2.99476935,0.956999125 1.53845211,2.41469981 1.53845211,4.21271592 C1.53845211,5.40768798 2.2521439,6.486738 3.25798918,7.07672823 C1.2635749,7.80865801 -0.0508161022,9.84111697 0.00150721145,12.0850657 C0.00150721145,12.5413032 0.696798942,12.4784676 0.696798942,12.1076733 C0.696798942,9.54555103 2.37520558,7.54809251 4.93510721,7.54809251 L4.93510721,7.54771697 L4.93509223,7.54773199 Z" id="形状"></path>
                </g>
            </g>
        </g>
    </g>
</svg>