<?xml version="1.0" encoding="UTF-8"?>
<svg width="22px" height="22px" viewBox="0 0 22 22" version="1.1" xmlns="http://www.w3.org/2000/svg" xmlns:xlink="http://www.w3.org/1999/xlink">
    <title>folder-public</title>
    <g id="页面-1" stroke="none" stroke-width="1" fill="none" fill-rule="evenodd">
        <g id="folder-public">
            <rect id="矩形" x="0" y="0" width="22" height="22"></rect>
            <path d="M10.6615364,2.75 C8.21978493,2.75 6.24038375,4.72964918 6.24038375,7.17163383 L6.24822041,7.43613607 C6.31067288,8.48794153 6.74350438,9.46103782 7.44265737,10.2017988 L7.50855651,10.267125 L7.24816883,10.3777384 C4.5691675,11.564515 2.75074881,14.2446208 2.75,17.2931263 C2.75,17.6144632 3.01039387,17.875 3.33173062,17.875 L17.2932656,17.875 C17.6201577,17.875 17.8828722,17.6057322 17.8748197,17.2789392 L17.8662765,16.9322303 L17.845666,16.6325393 C17.6171736,14.0518243 16.0949386,11.8116948 13.8841653,10.6275434 L13.5922954,10.4800385 L13.6302474,10.4488744 C14.5363912,9.6276772 15.0826892,8.44858244 15.0826892,7.17163383 C15.0826892,4.7296492 13.1032879,2.75 10.6615364,2.75 Z M10.6615364,3.91346154 C12.4606934,3.91346154 13.9192279,5.37217872 13.9192279,7.17163383 C13.9192279,8.42664043 13.2036973,9.55286539 12.0974029,10.0972072 C11.6241137,10.3300846 11.6802155,11.0220977 12.1848364,11.1756955 L12.4469161,11.2617103 C14.6949539,12.0538696 16.3277874,14.0495627 16.6523365,16.4214546 L16.6847754,16.7115385 L3.94022086,16.7115385 L3.96414327,16.4879836 C4.2981729,13.8453937 6.25128025,11.6618892 8.86894485,11.0584874 C9.38386122,10.9397932 9.48658994,10.2514891 9.02877148,9.98761512 C8.0314236,9.41277132 7.403845,8.34763438 7.403845,7.17163383 C7.403845,5.37217868 8.8623794,3.91346154 10.6615364,3.91346154 Z" id="形状结合" fill="#000000" fill-rule="nonzero"></path>
            <path d="M14.4447966,2.76341417 C16.4339065,3.20274202 17.8747562,5.0059077 17.8747562,7.10847642 C17.8747562,8.39169142 17.3371837,9.5769216 16.4451082,10.4026533 L16.4038225,10.4382121 L16.4307174,10.4518273 C18.750554,11.6011876 20.3622079,13.9301504 20.5961234,16.6288229 L20.6164103,16.9301557 L20.6248248,17.2790281 C20.6325715,17.6002101 20.3824294,17.8669562 20.0661168,17.8748221 C19.78495,17.8818141 19.5461423,17.6819052 19.4911044,17.4118182 L19.4793556,17.3075131 L19.4714516,16.9727795 C19.3404191,14.2489339 17.5402166,11.917552 15.019701,11.1337555 C14.524099,10.9796398 14.4687668,10.2896968 14.9332823,10.0561923 C16.0233117,9.50825207 16.7289434,8.3735832 16.7289434,7.10847642 C16.7289434,5.55479048 15.6652582,4.22363092 14.2012566,3.90028194 C13.8920789,3.83199492 13.6959591,3.52214083 13.7632108,3.20820347 C13.8229901,2.92914803 14.0707435,2.74079751 14.3422072,2.75034713 L14.4447966,2.76341417 Z" id="路径" fill="#000000" fill-rule="nonzero"></path>
        </g>
    </g>
</svg>