<?xml version="1.0" encoding="UTF-8"?>
<svg width="22px" height="22px" viewBox="0 0 22 22" version="1.1" xmlns="http://www.w3.org/2000/svg" xmlns:xlink="http://www.w3.org/1999/xlink">
    <title>folder-home</title>
    <g id="页面-1" stroke="none" stroke-width="1" fill="none" fill-rule="evenodd">
        <g id="folder-home">
            <rect id="矩形" x="0" y="0" width="22" height="22"></rect>
            <g id="编组-10" transform="translate(3.139942, 3.534368)">
                <path d="M7.72188092,9.86232738 C8.73440296,9.86232738 9.55521425,10.6831387 9.55521425,11.6956607 L9.55521425,15.3623274 L9.55521425,15.3623274 L5.88854759,15.3623274 L5.88854759,11.6956607 C5.88854759,10.6831387 6.70935888,9.86232738 7.72188092,9.86232738 Z" id="矩形" fill="#000000"></path>
                <path d="M14.1376936,6.44168023 L14.1385476,12.6123274 C14.1385476,14.1311104 12.9073307,15.3623274 11.3885476,15.3623274 L4.05521425,15.3623274 C2.53643119,15.3623274 1.03814422,14.1311104 1.03814422,12.6123274 L1.03729021,6.61292843" id="路径" stroke="#000000" stroke-width="0.6"></path>
                <path d="M0.206499491,7.5625 C0.159259876,7.60973962 0.0826693265,7.60973962 0.0354297113,7.5625 C-0.0118099038,7.51526038 -0.0118099038,7.43866984 0.0354297113,7.39143022 L7.39143022,0.0354297113 C7.42685993,4.31876757e-14 7.47879954,-0.00885742784 7.52248421,0.00885742784 L7.5625,0.0354297114 L7.5625,0.0354297114 C7.60973962,-0.0118099038 7.68633016,-0.0118099038 7.73356978,0.0354297114 L15.0895703,7.39143022 C15.1368099,7.43866984 15.1368099,7.51526038 15.0895703,7.5625 C15.0423307,7.60973962 14.9657401,7.60973962 14.9185005,7.5625 L7.5625,0.206499491 L0.206499491,7.5625 Z" id="形状结合" stroke="#000000" stroke-width="0.4"></path>
            </g>
        </g>
    </g>
</svg>