<?xml version="1.0" encoding="UTF-8"?>
<svg width="22px" height="22px" viewBox="0 0 22 22" version="1.1" xmlns="http://www.w3.org/2000/svg" xmlns:xlink="http://www.w3.org/1999/xlink">
    <title>folder-home</title>
    <g id="页面-1" stroke="none" stroke-width="1" fill="none" fill-rule="evenodd">
        <g id="folder-home">
            <rect id="矩形" x="0" y="0" width="22" height="22"></rect>
            <path d="M10.31249,4.125 C10.184819,4.125 10.0571879,4.17397349 9.95935443,4.2727577 L2.89674276,11.4067473 C2.70108575,11.6043258 2.70108575,11.9223659 2.89674276,12.1199445 C3.09239977,12.317523 3.40734692,12.317523 3.60300392,12.1199445 L4.31902447,11.396892 L4.31902447,17.2325546 C4.31902447,18.3502194 5.2100545,19.25 6.31684965,19.25 L14.3081504,19.25 C15.4149455,19.25 16.3059755,18.3502194 16.3059755,17.2325546 L16.3059755,11.396892 L17.0219961,12.1199445 C17.2176531,12.317523 17.5326002,12.317523 17.7282572,12.1199445 C17.9239143,11.9223659 17.9239143,11.6043258 17.7282572,11.4067473 L10.6656456,4.2727577 C10.5678221,4.17396945 10.440181,4.125 10.31251,4.125 L10.31249,4.125 Z M10.31249,5.34454574 L15.307053,10.3881592 L15.307053,17.2325445 C15.307053,17.7913769 14.8615379,18.2412672 14.3081404,18.2412672 L12.3103152,18.2412672 L12.3103152,15.2150991 C12.3103152,14.0974344 11.4192852,13.1976537 10.31249,13.1976537 C9.20569486,13.1976537 8.31466483,14.0974344 8.31466483,15.2150991 L8.31466483,18.2412672 L6.31683966,18.2412672 C5.76344208,18.2412672 5.31792707,17.7913769 5.31792707,17.2325445 L5.31792707,10.3881592 L10.31249,5.34454574 Z" id="形状" fill="#000000" fill-rule="nonzero"></path>
        </g>
    </g>
</svg>