<?xml version="1.0" encoding="UTF-8"?>
<svg width="22px" height="22px" viewBox="0 0 22 22" version="1.1" xmlns="http://www.w3.org/2000/svg" xmlns:xlink="http://www.w3.org/1999/xlink">
    <title>folder-download</title>
    <g id="页面-1" stroke="none" stroke-width="1" fill="none" fill-rule="evenodd">
        <g id="folder-download">
            <rect id="矩形" x="0" y="0" width="22" height="22"></rect>
            <g id="编组-5" transform="translate(4.125000, 4.125000)" fill="#000000">
                <path d="M7.5625,0 C11.7391534,0 15.125,3.38584658 15.125,7.5625 C15.125,11.7391534 11.7391534,15.125 7.5625,15.125 C3.38584658,15.125 0,11.7391534 0,7.5625 C0,3.38584658 3.38584658,0 7.5625,0 Z M7.5625,0.9453125 C3.90792826,0.9453125 0.9453125,3.90792826 0.9453125,7.5625 C0.9453125,11.2170717 3.90792826,14.1796875 7.5625,14.1796875 C11.2170717,14.1796875 14.1796875,11.2170717 14.1796875,7.5625 C14.1796875,3.90792826 11.2170717,0.9453125 7.5625,0.9453125 Z" id="椭圆形" fill-rule="nonzero"></path>
                <path d="M7.75,2.75 C8.02614237,2.75 8.25,2.97385763 8.25,3.25 L8.24935965,9.703 L9.37994461,8.57486814 C9.57520675,8.37960599 9.89178924,8.37960599 10.0870514,8.57486814 L10.1048089,8.59262569 C10.3000711,8.78788783 10.3000711,9.10447032 10.1048089,9.29973247 L7.9124584,11.492083 C7.71719625,11.6873452 7.40061376,11.6873452 7.20535162,11.492083 L7.18759407,11.4743255 L7.17989577,11.4652129 L4.99660519,9.28141205 C4.80134305,9.0861499 4.80134305,8.76956741 4.99660519,8.57430526 L5.01436274,8.55654772 C5.20962489,8.36128557 5.52620738,8.36128557 5.72146952,8.55654772 L6.87435965,9.71 L6.875,3.25 C6.875,2.97385763 7.09885763,2.75 7.375,2.75 L7.75,2.75 Z" id="形状结合"></path>
            </g>
        </g>
    </g>
</svg>