<?xml version="1.0" encoding="UTF-8"?>
<svg width="22px" height="22px" viewBox="0 0 22 22" version="1.1" xmlns="http://www.w3.org/2000/svg" xmlns:xlink="http://www.w3.org/1999/xlink">
    <title>user-trash-full</title>
    <g id="页面-1" stroke="none" stroke-width="1" fill="none" fill-rule="evenodd">
        <g id="user-trash-full">
            <rect id="矩形" x="0" y="0" width="22" height="22"></rect>
            <g id="changyong_lajitong" transform="translate(3.666667, 2.750000)" fill="#000000" fill-rule="nonzero">
                <path d="M13.1413934,3.1625 C13.476127,3.1625 13.75,3.42767857 13.75,3.75178571 L13.75,14.3589286 C13.75,15.7633929 12.5632172,16.9125 11.1127049,16.9125 L4.01229508,16.9125 C2.56178279,16.9125 1.375,15.7633929 1.375,14.3589286 L1.375,3.75178571 C1.375,3.42767857 1.64887295,3.1625 1.98360656,3.1625 L13.1413934,3.1625 Z M12.925,3.9875 L2.2,3.9875 L2.2,14.3589286 C2.2,15.2427729 2.91329235,15.9886613 3.82702745,16.0784449 L4.01229508,16.0875 L11.1127049,16.0875 C12.0508864,16.0875 12.8228151,15.3968518 12.9156414,14.5337045 L12.925,14.3589286 L12.925,3.9875 Z" id="路径"></path>
                <path d="M7.09899691,7.50318627 C7.73636697,6.99880792 7.87445619,7.04266308 7.96926999,7.13849092 C8.06187395,7.23208531 8.11936728,7.3611769 8.11936728,7.50318627 L8.11936728,7.50318627 L8.11936728,12.2213235 C8.11936728,12.3633329 8.06187395,12.4924245 7.96926999,12.5860189 C7.87685805,12.6794192 7.7494232,12.7375 7.6091821,12.7375 C7.46894099,12.7375 7.34150614,12.6794192 7.24909421,12.5860189 C7.15649024,12.4924245 7.09899691,12.3633329 7.09899691,12.2213235 L7.09899691,12.2213235 Z M4.62484568,7.50318627 C5.26221574,6.99880792 5.40030496,7.04266308 5.49511875,7.13849092 C5.58772272,7.23208531 5.64521605,7.3611769 5.64521605,7.50318627 L5.64521605,7.50318627 L5.64521605,12.2213235 C5.64521605,12.3633329 5.58772272,12.4924245 5.49511875,12.5860189 C5.40270682,12.6794192 5.27527197,12.7375 5.13503086,12.7375 C4.99478976,12.7375 4.86735491,12.6794192 4.77494297,12.5860189 C4.68233901,12.4924245 4.62484568,12.3633329 4.62484568,12.2213235 L4.62484568,12.2213235 Z M9.57314815,7.50318627 C10.2105182,6.99880792 10.3486074,7.04266308 10.4434212,7.13849092 C10.5360252,7.23208531 10.5935185,7.3611769 10.5935185,7.50318627 L10.5935185,7.50318627 L10.5935185,12.2213235 C10.5935185,12.3633329 10.5360252,12.4924245 10.4434212,12.5860189 C10.3510093,12.6794192 10.2235744,12.7375 10.0833333,12.7375 C9.94309223,12.7375 9.81565738,12.6794192 9.72324544,12.5860189 C9.63064148,12.4924245 9.57314815,12.3633329 9.57314815,12.2213235 L9.57314815,12.2213235 Z" id="形状" stroke="#FFFFFF" stroke-width="0.1"></path>
                <path d="M14.5648148,4.29485294 L0.560185185,4.29485294 C0.252083333,4.29485294 0,4.04007353 0,3.72867647 C0,3.41727941 0.252083333,3.1625 0.560185185,3.1625 L14.5648148,3.1625 C14.8729167,3.1625 15.125,3.41727941 15.125,3.72867647 C15.125,4.04007353 14.8729167,4.29485294 14.5648148,4.29485294 Z" id="路径"></path>
                <path d="M10.3125,0 L4.8125,0 C4.20498678,0 3.7125,0.492486775 3.7125,1.1 L3.7125,4.14117647 L11.4125,4.14117647 L11.4125,1.1 C11.4125,0.492486775 10.9200132,0 10.3125,0 Z M10.3125,0.825 L10.3856059,0.834823266 C10.5019988,0.866839359 10.5875,0.973434745 10.5875,1.1 L10.5875,3.315125 L4.5375,3.315125 L4.5375,1.1 C4.5375,0.948121694 4.66062169,0.825 4.8125,0.825 L10.3125,0.825 Z" id="矩形"></path>
            </g>
        </g>
    </g>
</svg>