<?xml version="1.0" encoding="UTF-8"?>
<svg width="22px" height="24px" viewBox="0 0 22 24" version="1.1" xmlns="http://www.w3.org/2000/svg" xmlns:xlink="http://www.w3.org/1999/xlink">
    <title>user-trash</title>
    <g id="页面-1" stroke="none" stroke-width="1" fill="none" fill-rule="evenodd">
        <g id="user-trash" fill="#000000" fill-rule="nonzero">
            <path d="M8.80002347,-6.51332578e-16 C7.98748797,-6.51332578e-16 7.33335289,0.654135078 7.33335289,1.46667058 L7.33335289,2.93334116 L0.733335289,2.93334116 C0.327067539,2.93334116 0,3.26040869 0,3.66667644 C0,4.07294419 0.327067539,4.40001173 0.733335289,4.40001173 L1.46381057,4.40001173 L2.26590338,20.622855 C2.35566362,22.112259 3.59492692,23.4674626 5.19631119,23.4674626 L16.8036888,23.4674626 C18.4051464,23.4674626 19.6443364,22.112391 19.7340966,20.622855 L20.5361894,4.40001173 L21.2666647,4.40001173 C21.6729325,4.40001173 22,4.07294419 22,3.66667644 C22,3.26040869 21.6729325,2.93334116 21.2666647,2.93334116 L14.6666471,2.93334116 L14.6666471,1.46667058 C14.6666471,0.654135078 14.012512,-6.51332578e-16 13.1999765,-6.51332578e-16 L8.7999648,-6.51332578e-16 L8.80002347,-6.51332578e-16 Z M8.80002347,1.46667058 L13.2000352,1.46667058 L13.2000352,2.93334116 L8.80002347,2.93334116 L8.80002347,1.46667058 Z M2.93328249,4.40001173 L19.0667175,4.40001173 L18.2703594,20.5333881 C18.2214753,21.3444569 17.6162243,22.0000587 16.8036888,22.0000587 L5.19631119,22.0000587 C4.38377569,22.0000587 3.77852474,21.3444569 3.72964061,20.5333881 L2.93328249,4.40001173 L2.93328249,4.40001173 Z M6.6000176,7.33335289 C6.19374985,7.33335289 5.86668231,7.66042043 5.86668231,8.06668818 L5.86668231,18.3333822 C5.86668231,18.73965 6.19374985,19.0667175 6.6000176,19.0667175 C7.00628535,19.0667175 7.33335289,18.73965 7.33335289,18.3333822 L7.33335289,8.06668818 C7.33335289,7.66042043 7.00628535,7.33335289 6.6000176,7.33335289 Z M11.0000293,7.33335289 C10.5937616,7.33335289 10.266694,7.66042043 10.266694,8.06668818 L10.266694,18.3333822 C10.266694,18.73965 10.5937616,19.0667175 11.0000293,19.0667175 C11.4062971,19.0667175 11.7333646,18.73965 11.7333646,18.3333822 L11.7333646,8.06668818 C11.7333646,7.66042043 11.4062971,7.33335289 11.0000293,7.33335289 Z M15.4000411,7.33335289 C14.9937733,7.33335289 14.6667058,7.66042043 14.6667058,8.06668818 L14.6667058,18.3333822 C14.6667058,18.73965 14.9937733,19.0667175 15.4000411,19.0667175 C15.8063088,19.0667175 16.1333764,18.73965 16.1333764,18.3333822 L16.1333764,8.06668818 C16.1333764,7.66042043 15.8063088,7.33335289 15.4000411,7.33335289 Z" id="形状"></path>
        </g>
    </g>
</svg>