<?xml version="1.0" encoding="UTF-8"?>
<svg width="22px" height="22px" viewBox="0 0 22 22" version="1.1" xmlns="http://www.w3.org/2000/svg" xmlns:xlink="http://www.w3.org/1999/xlink">
    <title>user-trash-full</title>
    <g id="页面-1" stroke="none" stroke-width="1" fill="none" fill-rule="evenodd">
        <g id="user-trash-full">
            <rect id="矩形" x="0" y="0" width="22" height="22"></rect>
            <path d="M8.6625121,5.07028296 L8.6625121,6.67812603 L4.57875121,6.67812603 C4.32737304,6.67812603 4.125,6.62962364 4.125,6.81218906 C4.125,6.99475449 4.32737304,6.96084888 4.57875121,6.96084888 L5.03073279,6.96084888 L5.52702771,17.4166237 C5.58256686,18.3765585 6.34936103,19.25 7.34021755,19.25 L14.5222825,19.25 C15.5131843,19.25 16.2799331,18.3766436 16.3354723,17.4166237 L16.8317672,6.96084888 L17.2837488,6.96084888 C17.535127,6.96084888 17.7375,6.96828777 17.7375,6.81218906 C17.7375,6.65609035 17.535127,6.67812603 17.2837488,6.67812603 L13.1999879,6.67812603 L13.1999879,5.07028296 C13.1999879,4.5465962 12.7952418,4.125 12.2924855,4.125 L9.56997822,4.125 C9.06725818,4.125 8.6625121,4.5465962 8.6625121,5.07028296 Z M9.08667153,4.53575342 C9.17200668,4.46585278 9.28121099,4.35727399 9.54899131,4.33477691 C9.97827725,4.33477691 11.5798744,4.30912644 12.3746633,4.33477691 C12.5658502,4.34094715 12.7502779,4.42241808 12.827337,4.53575342 C12.9142022,4.66351116 12.9692892,4.81425815 12.9692892,5.0267873 C12.9692892,5.28576789 12.9692892,5.83630293 12.9692892,6.6783924 L8.87144414,6.6783924 C8.86144928,6.15065465 8.86144928,5.60778047 8.87144414,5.04976986 C8.87144414,4.85573722 8.94931747,4.64826435 9.08667153,4.53575342 Z M6.14170333,6.91998588 L16.594255,6.91998588 L16.0965343,17.476364 C16.0965343,18.2058443 15.3781566,19.038951 14.5906707,19.038951 C14.0656801,19.038951 11.6013042,19.038951 7.19754297,19.038951 C6.55826326,19.038951 5.81476881,18.2899865 5.77568358,17.6360912 L5.27796289,6.91998588 L6.14170333,6.91998588 Z M8.15833333,8.6625 C7.879025,8.6625 8.44201171,8.87330469 8.44201171,9.13515625 L8.44201171,15.7523438 C8.44201171,16.0141953 7.879025,16.225 8.15833333,16.225 C8.43764167,16.225 8.6625,16.0141953 8.6625,15.7523437 L8.6625,9.13515625 C8.6625,8.87330469 8.43764167,8.6625 8.15833333,8.6625 Z M11.1833333,8.6625 C10.904025,8.6625 11.4277939,8.87330469 11.4277939,9.13515625 L11.4277939,15.7523438 C11.4277939,16.0141953 10.904025,16.225 11.1833333,16.225 C11.4626417,16.225 11.6875,16.0141953 11.6875,15.7523437 L11.6875,9.13515625 C11.6875,8.87330469 11.4626417,8.6625 11.1833333,8.6625 Z M13.7041667,8.6625 C13.4248583,8.6625 13.9791154,8.87330469 13.9791154,9.13515625 L13.9791154,15.7523437 C13.9791154,16.0141953 13.4248583,16.225 13.7041667,16.225 C13.983475,16.225 14.2083333,16.0141953 14.2083333,15.7523437 L14.2083333,9.13515625 C14.2083333,8.87330469 13.983475,8.6625 13.7041667,8.6625 Z" id="形状" fill="#000000" fill-rule="nonzero"></path>
        </g>
    </g>
</svg>