<?xml version="1.0" encoding="UTF-8"?>
<svg width="22px" height="22px" viewBox="0 0 22 22" version="1.1" xmlns="http://www.w3.org/2000/svg" xmlns:xlink="http://www.w3.org/1999/xlink">
    <title>user-trash</title>
    <g id="页面-1" stroke="none" stroke-width="1" fill="none" fill-rule="evenodd">
        <g id="user-trash">
            <path d="M9.62501467,4.125 C9.11717998,4.125 8.70834556,4.5465962 8.70834556,5.07028296 L8.70834556,6.01556592 L4.58333456,6.01556592 C4.32941721,6.01556592 4.125,6.22636402 4.125,6.4882074 C4.125,6.75005078 4.32941721,6.96084888 4.58333456,6.96084888 L5.03988161,6.96084888 L5.54118961,17.4166237 C5.59728976,18.3765585 6.37182932,19.25 7.37269449,19.25 L14.6273055,19.25 C15.6282165,19.25 16.4027102,18.3766436 16.4588104,17.4166237 L16.9601184,6.96084888 L17.4166654,6.96084888 C17.6705828,6.96084888 17.875,6.75005078 17.875,6.4882074 C17.875,6.22636402 17.6705828,6.01556592 17.4166654,6.01556592 L13.2916544,6.01556592 L13.2916544,5.07028296 C13.2916544,4.5465962 12.88282,4.125 12.3749853,4.125 L9.624978,4.125 L9.62501467,4.125 Z M9.62501467,5.07028296 L12.375022,5.07028296 L12.375022,6.01556592 L9.62501467,6.01556592 L9.62501467,5.07028296 Z M5.95830156,6.96084888 L16.0416984,6.96084888 L15.5439746,17.3589614 C15.513422,17.8817029 15.1351402,18.3042444 14.6273055,18.3042444 L7.37269449,18.3042444 C6.86485981,18.3042444 6.48657796,17.8817029 6.45602538,17.3589614 L5.95830156,6.96084888 L5.95830156,6.96084888 Z M8.250011,8.8514148 C7.99609366,8.8514148 7.79167644,9.0622129 7.79167644,9.32405628 L7.79167644,15.941037 C7.79167644,16.2028804 7.99609366,16.4136785 8.250011,16.4136785 C8.50392834,16.4136785 8.70834556,16.2028804 8.70834556,15.941037 L8.70834556,9.32405628 C8.70834556,9.0622129 8.50392834,8.8514148 8.250011,8.8514148 Z M11.0000183,8.8514148 C10.746101,8.8514148 10.5416838,9.0622129 10.5416838,9.32405628 L10.5416838,15.941037 C10.5416838,16.2028804 10.746101,16.4136785 11.0000183,16.4136785 C11.2539357,16.4136785 11.4583529,16.2028804 11.4583529,15.941037 L11.4583529,9.32405628 C11.4583529,9.0622129 11.2539357,8.8514148 11.0000183,8.8514148 Z M13.7500257,8.8514148 C13.4961083,8.8514148 13.2916911,9.0622129 13.2916911,9.32405628 L13.2916911,15.941037 C13.2916911,16.2028804 13.4961083,16.4136785 13.7500257,16.4136785 C14.003943,16.4136785 14.2083602,16.2028804 14.2083602,15.941037 L14.2083602,9.32405628 C14.2083602,9.0622129 14.003943,8.8514148 13.7500257,8.8514148 Z" id="形状" fill="#000000" fill-rule="nonzero"></path>
            <rect id="矩形" x="0" y="0" width="22" height="22"></rect>
        </g>
    </g>
</svg>