<?xml version="1.0" encoding="UTF-8"?>
<svg width="24px" height="24px" viewBox="0 0 24 24" version="1.1" xmlns="http://www.w3.org/2000/svg" xmlns:xlink="http://www.w3.org/1999/xlink">
    <title>desktop</title>
    <g id="页面-1" stroke="none" stroke-width="1" fill="none" fill-rule="evenodd">
        <g id="desktop">
            <rect id="矩形" x="0" y="0" width="24" height="24"></rect>
            <g id="编组-11" transform="translate(4.500000, 6.000000)" fill="#000000">
                <path d="M15.0441176,0 C15.8481793,0 16.5,0.651820732 16.5,1.45588235 L16.5,10.1911765 C16.5,10.9952381 15.8481793,11.6470588 15.0441176,11.6470588 L1.45588235,11.6470588 C0.651820732,11.6470588 0,10.9952381 0,10.1911765 L0,1.45588235 C0,0.651820732 0.651820732,0 1.45588235,0 L15.0441176,0 Z M15.0441176,0.242647059 L1.45588235,0.242647059 C0.812633056,0.242647059 0.286304762,0.743245381 0.245227697,1.3761118 L0.242647059,1.45588235 L0.242647059,10.1911765 C0.242647059,10.8344258 0.743245381,11.3607541 1.3761118,11.4018311 L1.45588235,11.4044118 L15.0441176,11.4044118 C15.6873669,11.4044118 16.2136952,10.9038134 16.2547723,10.270947 L16.2573529,10.1911765 L16.2573529,1.45588235 C16.2573529,0.812633056 15.7567546,0.286304762 15.1238882,0.245227697 L15.0441176,0.242647059 Z" id="矩形" stroke="#000000" stroke-width="0.4" fill-rule="nonzero"></path>
                <path d="M0.121323529,2.66911765 L16.3786765,2.66911765 C16.4456816,2.66911765 16.5,2.72343604 16.5,2.79044118 C16.5,2.85744631 16.4456816,2.91176471 16.3786765,2.91176471 L0.121323529,2.91176471 C0.0543183943,2.91176471 8.20576242e-18,2.85744631 0,2.79044118 C2.15504951e-17,2.72343604 0.0543183943,2.66911765 0.121323529,2.66911765 Z" id="矩形" stroke="#000000" stroke-width="0.4"></path>
                <rect id="矩形" x="1.94117647" y="8.73529412" width="12.1323529" height="1.45588235" rx="0.727941176"></rect>
            </g>
        </g>
    </g>
</svg>