<?xml version="1.0" encoding="UTF-8"?>
<svg width="24px" height="24px" viewBox="0 0 24 24" version="1.1" xmlns="http://www.w3.org/2000/svg" xmlns:xlink="http://www.w3.org/1999/xlink">
    <title>desktop</title>
    <g id="页面-1" stroke="none" stroke-width="1" fill="none" fill-rule="evenodd">
        <g id="desktop">
            <path d="M4.125,4.5 C2.67075,4.5 1.5,5.63215385 1.5,7.03846154 L1.5,18.4615385 C1.5,19.8678462 2.67075,21 4.125,21 L19.875,21 C21.32925,21 22.5,19.8678462 22.5,18.4615385 L22.5,7.03846154 C22.5,5.63215385 21.32925,4.5 19.875,4.5 L4.125,4.5 Z M4.125,5.76923077 L19.875,5.76923077 C20.602125,5.76923077 21.1875,6.33530769 21.1875,7.03846154 L2.8125,7.03846154 C2.8125,6.33530769 3.397875,5.76923077 4.125,5.76923077 Z M2.8125,8.30769231 L21.1875,8.30769231 L21.1875,18.4615385 C21.1875,19.1646923 20.602125,19.7307692 19.875,19.7307692 L4.125,19.7307692 C3.397875,19.7307692 2.8125,19.1646923 2.8125,18.4615385 L2.8125,8.30769231 Z M6.75,15.9230769 C6.022875,15.9230769 5.4375,16.4891538 5.4375,17.1923077 C5.4375,17.8954615 6.022875,18.4615385 6.75,18.4615385 L17.25,18.4615385 C17.977125,18.4615385 18.5625,17.8954615 18.5625,17.1923077 C18.5625,16.4891538 17.977125,15.9230769 17.25,15.9230769 L6.75,15.9230769 Z" id="形状" fill="#000000" fill-rule="nonzero"></path>
            <rect id="矩形" x="0" y="0" width="24" height="24"></rect>
        </g>
    </g>
</svg>