<?xml version="1.0" encoding="UTF-8"?>
<svg width="24px" height="20px" viewBox="0 0 24 20" version="1.1" xmlns="http://www.w3.org/2000/svg" xmlns:xlink="http://www.w3.org/1999/xlink">
    <title>desktop</title>
    <g id="页面-1" stroke="none" stroke-width="1" fill="none" fill-rule="evenodd">
        <g id="desktop" fill="#000000" fill-rule="nonzero">
            <path d="M3,0 C1.338,0 0,1.338 0,3 L0,16.5 C0,18.162 1.338,19.5 3,19.5 L21,19.5 C22.662,19.5 24,18.162 24,16.5 L24,3 C24,1.338 22.662,0 21,0 L3,0 Z M3,1.5 L21,1.5 C21.831,1.5 22.5,2.169 22.5,3 L1.5,3 C1.5,2.169 2.169,1.5 3,1.5 Z M1.5,4.5 L22.5,4.5 L22.5,16.5 C22.5,17.331 21.831,18 21,18 L3,18 C2.169,18 1.5,17.331 1.5,16.5 L1.5,4.5 Z M6,13.5 C5.169,13.5 4.5,14.169 4.5,15 C4.5,15.831 5.169,16.5 6,16.5 L18,16.5 C18.831,16.5 19.5,15.831 19.5,15 C19.5,14.169 18.831,13.5 18,13.5 L6,13.5 Z" id="形状"></path>
        </g>
    </g>
</svg>