<?xml version="1.0" encoding="UTF-8"?>
<svg width="24px" height="21px" viewBox="0 0 24 21" version="1.1" xmlns="http://www.w3.org/2000/svg" xmlns:xlink="http://www.w3.org/1999/xlink">
    <title>folder-templates</title>
    <g id="页面-1" stroke="none" stroke-width="1" fill="none" fill-rule="evenodd">
        <g id="folder-templates" fill="#000000" fill-rule="nonzero">
            <path d="M14.9285714,0 C15.7964475,0 16.5,0.671572875 16.5,1.5 L16.5,7.5 C16.5,8.32842712 15.7964475,9 14.9285714,9 L1.57142857,9 C0.703552536,9 0,8.32842712 0,7.5 L0,1.5 C0,0.671572875 0.703552536,0 1.57142857,0 L14.9285714,0 Z M14.1428572,1.5 L2.35714286,1.5 C1.95420041,1.5 1.62210152,1.78953014 1.57671465,2.16253415 L1.57142857,2.25 L1.57142857,6.75 C1.57142857,7.13462688 1.87474586,7.45163038 2.26551197,7.4949542 L2.35714286,7.5 L14.1428572,7.5 C14.5457996,7.5 14.8778985,7.21046985 14.9232853,6.83746585 L14.9285714,6.75 L14.9285714,2.25 C14.9285714,1.86537312 14.6252541,1.54836963 14.234488,1.5050458 L14.1428572,1.5 Z" id="形状"></path>
            <path d="M22.6666667,0 C23.4030463,0 24,0.671572875 24,1.5 L24,7.5 C24,8.32842712 23.4030463,9 22.6666667,9 L19.3333333,9 C18.5969537,9 18,8.32842712 18,7.5 L18,1.5 C18,0.671572875 18.5969537,0 19.3333333,0 L22.6666667,0 Z M22,1.5 L20,1.5 C19.6581095,1.5 19.3763286,1.78953014 19.3378185,2.16253415 L19.3333333,2.25 L19.3333333,6.75 C19.3333333,7.13462688 19.5906934,7.45163038 19.9222526,7.4949542 L20,7.5 L22,7.5 C22.3418906,7.5 22.6236714,7.21046985 22.6621815,6.83746585 L22.6666667,6.75 L22.6666667,2.25 C22.6666667,1.86537312 22.4093066,1.54836963 22.0777474,1.5050458 L22,1.5 Z" id="形状"></path>
            <path d="M12.4285714,10.5 L22.0714286,10.5 C23.1365492,10.5 24,11.440202 24,12.6 L24,18.9 C24,20.059798 23.1365492,21 22.0714286,21 L12.4285714,21 C11.3634508,21 10.5,20.059798 10.5,18.9 L10.5,12.6 C10.5,11.440202 11.3634508,10.5 12.4285714,10.5 Z" id="矩形"></path>
            <path d="M2.25,10.5 L6.75,10.5 C7.99264069,10.5 9,11.440202 9,12.6 L9,18.9 C9,20.059798 7.99264069,21 6.75,21 L2.25,21 C1.00735931,21 0,20.059798 0,18.9 L0,12.6 C0,11.440202 1.00735931,10.5 2.25,10.5 Z" id="矩形备份-10"></path>
        </g>
    </g>
</svg>