<?xml version="1.0" encoding="UTF-8"?>
<svg width="24px" height="24px" viewBox="0 0 24 24" version="1.1" xmlns="http://www.w3.org/2000/svg" xmlns:xlink="http://www.w3.org/1999/xlink">
    <title>folder-html</title>
    <g id="页面-1" stroke="none" stroke-width="1" fill="none" fill-rule="evenodd">
        <g id="folder-html">
            <path d="M12,0 C18.627417,0 24,5.372583 24,12 C24,18.627417 18.627417,24 12,24 C5.372583,24 0,18.627417 0,12 C0,5.372583 5.372583,0 12,0 Z M12,1.5 C6.20101013,1.5 1.5,6.20101013 1.5,12 C1.5,17.7989899 6.20101013,22.5 12,22.5 C17.7989899,22.5 22.5,17.7989899 22.5,12 C22.5,6.20101013 17.7989899,1.5 12,1.5 Z" id="椭圆形" fill="#000000" fill-rule="nonzero"></path>
            <path d="M9.75087347,0.210759393 C15.3023768,1.26427018 19.5,6.14193138 19.5,12 C19.5,17.8580686 15.3023768,22.7357298 9.75087347,23.7892406 C4.19838255,22.7366122 0,17.8585985 0,12 C0,6.24790223 4.0471291,1.44106211 9.44919698,0.271669944 L9.75087347,0.210759393 Z M9.7485,1.7415 L9.40068077,1.82379596 C4.80005927,2.99358406 1.5,7.16077026 1.5,12 C1.5,16.9388091 4.93541366,21.1670798 9.66401094,22.2392793 L9.7515,22.257 L9.83740712,22.2392725 C14.444064,21.1938448 17.8230109,17.1530181 17.9932615,12.3784248 L18,12 C18,7.06173142 14.5652918,2.83366643 9.83740712,1.76072751 L9.7485,1.7415 Z" id="形状结合" fill="#000000" fill-rule="nonzero"></path>
            <path d="M14.2508735,0.210759393 C19.8023768,1.26427018 24,6.14193138 24,12 C24,17.8580686 19.8023768,22.7357298 14.2508735,23.7892406 C8.69838255,22.7366122 4.5,17.8585985 4.5,12 C4.5,6.24790223 8.5471291,1.44106211 13.949197,0.271669944 L14.2508735,0.210759393 Z M14.2485,1.7415 L13.9006808,1.82379596 C9.30005927,2.99358406 6,7.16077026 6,12 C6,16.9388091 9.43541366,21.1670798 14.1640109,22.2392793 L14.2515,22.257 L14.3374071,22.2392725 C18.944064,21.1938448 22.3230109,17.1530181 22.4932615,12.3784248 L22.5,12 C22.5,7.06173142 19.0652918,2.83366643 14.3374071,1.76072751 L14.2485,1.7415 Z" id="形状结合" fill="#000000" fill-rule="nonzero"></path>
            <rect id="矩形" stroke="#000000" x="0.5" y="12.5" width="23" height="1" rx="0.5"></rect>
        </g>
    </g>
</svg>