<?xml version="1.0" encoding="UTF-8"?>
<svg width="24px" height="17px" viewBox="0 0 24 17" version="1.1" xmlns="http://www.w3.org/2000/svg" xmlns:xlink="http://www.w3.org/1999/xlink">
    <title>folder-pictures</title>
    <g id="页面-1" stroke="none" stroke-width="1" fill="none" fill-rule="evenodd">
        <g id="folder-pictures" fill="#000000" fill-rule="nonzero">
            <path d="M14.8826534,7.16221896 C15.2830357,6.67140079 16.0503568,6.67142032 16.4507125,7.1622589 L16.4507125,7.1622589 L22.7840458,14.9269648 C23.3030372,15.5632514 22.8361348,16.5 22,16.5 L22,16.5 L3,16.5 C2.14807558,16.5 1.68631541,15.5321579 2.23738908,14.9015795 L2.23738908,14.9015795 L6.7611986,9.72510893 C7.16062012,9.26806189 7.88714462,9.26810785 8.28650475,9.72520543 L8.28650475,9.72520543 L10.616,12.3915 L14.8826534,7.16221896 Z" id="形状结合"></path>
            <path d="M22,0 C23.1045695,0 24,0.869094309 24,1.94117647 L24,14.5588235 C24,15.6309057 23.1045695,16.5 22,16.5 L2,16.5 C0.8954305,16.5 0,15.6309057 0,14.5588235 L0,1.94117647 C0,0.869094309 0.8954305,0 2,0 L22,0 Z M21.4659091,1.5 L2.53409091,1.5 C2.00377203,1.5 1.56669146,1.88831101 1.50695709,2.38857521 L1.5,2.50588234 L1.5,13.9941176 C1.5,14.5099702 1.89920065,14.9351278 2.41349407,14.9932327 L2.53409091,15 L21.4659091,15 C21.996228,15 22.4333086,14.611689 22.4930429,14.1114248 L22.5,13.9941176 L22.5,2.50588234 C22.5,1.99002983 22.1007994,1.56487221 21.5865059,1.5067673 L21.4659091,1.5 Z" id="形状"></path>
            <ellipse id="椭圆形" cx="6" cy="4.85294118" rx="2.5" ry="2.42647059"></ellipse>
        </g>
    </g>
</svg>