<?xml version="1.0" encoding="UTF-8"?>
<svg width="24px" height="24px" viewBox="0 0 24 24" version="1.1" xmlns="http://www.w3.org/2000/svg" xmlns:xlink="http://www.w3.org/1999/xlink">
    <title>folder-txt</title>
    <g id="页面-1" stroke="none" stroke-width="1" fill="none" fill-rule="evenodd">
        <g id="folder-txt">
            <rect id="矩形" x="0" y="0" width="24" height="24" rx="1"></rect>
            <g id="编组-13" transform="translate(4.500000, 4.564211)" fill="#000000" fill-rule="nonzero" stroke="#000000" stroke-width="0.4">
                <path d="M8.5846541,0.0330193372 L8.5059626,0 L0.815230494,0.000650038298 C0.364995297,0.000650037904 0,0.365645335 0,0.815889851 L0,15.6205492 C0,16.0707937 0.364995297,16.435789 0.815239814,16.435789 L14.2099316,16.435789 C14.6601761,16.435789 15.0251714,16.0707937 15.0251714,15.6205492 L15.0251714,6.63914273 L14.9935975,6.56190603 L8.5846541,0.0330193372 Z M8.45972524,0.220249541 L14.8042987,6.68389948 L14.8046593,15.6205492 C14.8046593,15.9490082 14.5383906,16.2152769 14.2099316,16.2152769 L0.815239814,16.2152769 C0.486780753,16.2152769 0.220512075,15.9490082 0.220512075,15.6205492 L0.220512075,0.815889851 C0.220512075,0.487430791 0.486780753,0.221162113 0.815239814,0.221162113 L8.45972524,0.220249541 Z" id="路径"></path>
                <path d="M8.50597192,0.4497864 L8.77697192,0.7247864 L8.77782388,4.80404422 C8.77782388,5.51727384 9.43202185,6.23066571 10.1238917,6.31100289 C10.570742,6.36288937 11.9702584,6.37672511 14.3224409,6.35251011 L14.5527497,6.58393893 L10.3190464,6.58393893 C9.31771299,6.58393893 8.50597192,5.77231382 8.50597192,4.7711235 L8.50597192,0.4497864 Z" id="形状结合"></path>
            </g>
        </g>
    </g>
</svg>