<?xml version="1.0" encoding="UTF-8"?>
<svg width="24px" height="28px" viewBox="0 0 24 28" version="1.1" xmlns="http://www.w3.org/2000/svg" xmlns:xlink="http://www.w3.org/1999/xlink">
    <title>folder-Documents</title>
    <g id="页面-1" stroke="none" stroke-width="1" fill="none" fill-rule="evenodd">
        <g id="folder-Documents" fill="#000000" fill-rule="nonzero">
            <path d="M12,0 L13.6577127,1.71428571 L4.03539876,1.71428571 C2.82101147,1.71428571 1.82302015,2.64912421 1.70981144,3.84444016 L1.69911653,4.07144973 L1.69911653,23.3571459 C1.69911653,24.5823811 2.6256675,25.5892767 3.81039919,25.7034954 L4.03539876,25.7142857 L19.9646012,25.7142857 C21.1789947,25.7142857 22.1769806,24.7794628 22.2901886,23.5841542 L22.3008835,23.3571459 L22.3008835,10.2687689 L24,12 L24,23.3571459 C24,25.512041 22.3407129,27.275929 20.2408894,27.4191785 L19.9646012,27.4285714 L4.03539876,27.4285714 C1.89957162,27.4285714 0.151291734,25.7544707 0.00930977711,23.6359007 L0,23.3571459 L0,4.07144973 C0,1.91655207 1.65928947,0.152644184 3.75911089,0.0093930013 L4.03539876,0 L12,0 Z" id="路径"></path>
            <path d="M12,0 L23.9982857,12 L15.4285714,12 C13.5350237,12 12,10.4649763 12,8.57142857 L12,0 Z M19.8582857,10.2857143 L13.7142857,4.14 L13.7142857,8.57142857 C13.7142857,9.45057572 14.3760689,10.1751551 15.2286495,10.274181 L15.4285714,10.2857143 L19.8582857,10.2857143 Z" id="形状结合"></path>
        </g>
    </g>
</svg>