<?xml version="1.0" encoding="UTF-8"?>
<svg width="24px" height="24px" viewBox="0 0 24 24" version="1.1" xmlns="http://www.w3.org/2000/svg" xmlns:xlink="http://www.w3.org/1999/xlink">
    <title>folder-html</title>
    <g id="页面-1" stroke="none" stroke-width="1" fill="none" fill-rule="evenodd">
        <g id="folder-html">
            <rect id="矩形" x="0" y="0" width="24" height="24"></rect>
            <g id="编组-16" transform="translate(5.250000, 4.500000)" stroke="#000000">
                <path d="M7.5,0 C11.6421356,0 15,3.35786438 15,7.5 C15,11.6421356 11.6421356,15 7.5,15 C3.35786438,15 0,11.6421356 0,7.5 C0,3.35786438 3.35786438,0 7.5,0 Z M7.5,0.25 C3.49593556,0.25 0.25,3.49593556 0.25,7.5 C0.25,11.5040644 3.49593556,14.75 7.5,14.75 C11.5040644,14.75 14.75,11.5040644 14.75,7.5 C14.75,3.49593556 11.5040644,0.25 7.5,0.25 Z" id="椭圆形" stroke-width="0.4" fill="#000000" fill-rule="nonzero"></path>
                <path d="M7.31158535,0.163799286 C9.68896667,1.78369637 11.25,4.40621984 11.25,7.5 C11.25,10.606249 9.67635843,13.265051 7.2828009,14.8824871" id="形状" stroke-width="0.65" fill-rule="nonzero"></path>
                <path d="M4.31158535,0.123703122 C6.68896667,1.74360021 8.25,4.40621984 8.25,7.5 C8.25,9.57083269 6.9276003,12.0316617 4.2828009,14.8824871" id="形状" stroke-width="0.65" fill-rule="nonzero" transform="translate(6.266400, 7.503095) scale(-1, 1) translate(-6.266400, -7.503095) "></path>
                <path d="M7.50711679,0.10544157 C7.57041194,0.10544157 7.6217228,0.156752427 7.6217228,0.220047576 L7.6217228,14.7799524 C7.6217228,14.8432476 7.57041194,14.8945584 7.50711679,14.8945584 C7.44382165,14.8945584 7.39251079,14.8432476 7.39251079,14.7799524 L7.39251079,0.220047576 C7.39251079,0.156752427 7.44382165,0.10544157 7.50711679,0.10544157 Z" id="矩形" stroke-width="0.4" fill="#000000" transform="translate(7.507117, 7.500000) rotate(-270.000000) translate(-7.507117, -7.500000) "></path>
            </g>
        </g>
    </g>
</svg>