<?xml version="1.0" encoding="UTF-8"?>
<svg width="13px" height="11px" viewBox="0 0 13 11" version="1.1" xmlns="http://www.w3.org/2000/svg" xmlns:xlink="http://www.w3.org/1999/xlink">
    <title>folder-templates</title>
    <g id="页面-1" stroke="none" stroke-width="1" fill="none" fill-rule="evenodd">
        <g id="folder-templates" fill="#000000" fill-rule="nonzero">
            <path d="M8.14285714,0 C8.61624408,0 9,0.373096042 9,0.833333333 L9,4.16666667 C9,4.62690396 8.61624408,5 8.14285714,5 L0.857142858,5 C0.383755929,5 0,4.62690396 0,4.16666667 L0,0.833333333 C0,0.373096042 0.383755929,0 0.857142858,0 L8.14285714,0 Z M7.71428572,0.833333333 L1.28571429,0.833333333 C1.0659275,0.833333333 0.884782645,0.994183412 0.860026171,1.20140786 L0.857142858,1.25 L0.857142858,3.75 C0.857142858,3.9636816 1.02258865,4.13979465 1.2357338,4.16386344 L1.28571429,4.16666667 L7.71428572,4.16666667 C7.9340725,4.16666667 8.11521735,4.00581658 8.13997382,3.79859214 L8.14285714,3.75 L8.14285714,1.25 C8.14285714,1.0363184 7.97741135,0.86020535 7.76426619,0.836136554 L7.71428572,0.833333333 Z" id="形状"></path>
            <path d="M12.3333333,0 C12.7015232,0 13,0.373096042 13,0.833333333 L13,4.16666667 C13,4.62690396 12.7015232,5 12.3333333,5 L10.6666667,5 C10.2984768,5 10,4.62690396 10,4.16666667 L10,0.833333333 C10,0.373096042 10.2984768,0 10.6666667,0 L12.3333333,0 Z M12,0.833333333 L11,0.833333333 C10.8290547,0.833333333 10.6881643,0.994183412 10.6689092,1.20140786 L10.6666667,1.25 L10.6666667,3.75 C10.6666667,3.9636816 10.7953467,4.13979465 10.9611263,4.16386344 L11,4.16666667 L12,4.16666667 C12.1709453,4.16666667 12.3118357,4.00581658 12.3310908,3.79859214 L12.3333333,3.75 L12.3333333,1.25 C12.3333333,1.0363184 12.2046533,0.86020535 12.0388737,0.836136554 L12,0.833333333 Z" id="形状"></path>
            <path d="M7,6 L12,6 C12.5522847,6 13,6.44771525 13,7 L13,10 C13,10.5522848 12.5522847,11 12,11 L7,11 C6.44771525,11 6,10.5522848 6,10 L6,7 C6,6.44771525 6.44771525,6 7,6 Z" id="矩形"></path>
            <path d="M1.25,6 L3.75,6 C4.44035594,6 5,6.44771525 5,7 L5,10 C5,10.5522848 4.44035594,11 3.75,11 L1.25,11 C0.559644062,11 0,10.5522848 0,10 L0,7 C0,6.44771525 0.559644062,6 1.25,6 Z" id="矩形备份-10"></path>
        </g>
    </g>
</svg>