<?xml version="1.0" encoding="UTF-8"?>
<svg width="24px" height="24px" viewBox="0 0 24 24" version="1.1" xmlns="http://www.w3.org/2000/svg" xmlns:xlink="http://www.w3.org/1999/xlink">
    <title>folder-html</title>
    <g id="页面-1" stroke="none" stroke-width="1" fill="none" fill-rule="evenodd">
        <g id="folder-html" transform="translate(12.000000, 12.000000) rotate(-360.000000) translate(-12.000000, -12.000000) ">
            <rect id="矩形" x="0" y="0" width="24" height="24"></rect>
            <g id="编组-7" transform="translate(4.500000, 4.500000)">
                <path d="M8.25,0 C12.8063492,0 16.5,3.69365081 16.5,8.25 C16.5,12.8063492 12.8063492,16.5 8.25,16.5 C3.69365081,16.5 0,12.8063492 0,8.25 C0,3.69365081 3.69365081,0 8.25,0 Z M8.25,1.03125 C4.26319446,1.03125 1.03125,4.26319446 1.03125,8.25 C1.03125,12.2368055 4.26319446,15.46875 8.25,15.46875 C12.2368055,15.46875 15.46875,12.2368055 15.46875,8.25 C15.46875,4.26319446 12.2368055,1.03125 8.25,1.03125 Z" id="椭圆形" fill="#000000" fill-rule="nonzero"></path>
                <path d="M6.75060471,0 C10.5939532,0.737236966 13.5,4.15057852 13.5,8.25 C13.5,12.3494215 10.5939532,15.762763 6.75060471,16.5 C2.90657253,15.7633805 0,12.3497923 0,8.25 C0,4.22473593 2.80185861,0.860954298 6.54175175,0.0426246323 L6.75060471,0 Z M6.74896154,1.07119792 L6.50816361,1.12878786 C3.32311796,1.9473946 1.03846154,4.86355241 1.03846154,8.25 C1.03846154,11.7061323 3.41682484,14.6650365 6.69046911,15.4153516 L6.75103846,15.4277524 L6.81051262,15.4153468 C9.99973661,14.6837664 12.3390075,11.8560337 12.4568734,8.51481813 L12.4615385,8.25 C12.4615385,4.79424596 10.0836636,1.83548574 6.81051262,1.08465315 L6.74896154,1.07119792 Z" id="形状结合" fill="#000000" fill-rule="nonzero"></path>
                <path d="M9.75060471,0 C13.5939532,0.737236966 16.5,4.15057852 16.5,8.25 C16.5,12.3494215 13.5939532,15.762763 9.75060471,16.5 C5.90657253,15.7633805 3,12.3497923 3,8.25 C3,4.22473593 5.80185861,0.860954298 9.54175175,0.0426246323 L9.75060471,0 Z M9.74896154,1.07119792 L9.50816361,1.12878786 C6.32311796,1.9473946 4.03846154,4.86355241 4.03846154,8.25 C4.03846154,11.7061323 6.41682484,14.6650365 9.69046911,15.4153516 L9.75103846,15.4277524 L9.81051262,15.4153468 C12.9997366,14.6837664 15.3390075,11.8560337 15.4568734,8.51481813 L15.4615385,8.25 C15.4615385,4.79424596 13.0836636,1.83548574 9.81051262,1.08465315 L9.74896154,1.07119792 Z" id="形状结合" fill="#000000" fill-rule="nonzero"></path>
                <rect id="矩形" stroke="#000000" x="0.5" y="8.40909091" width="15.5" height="1" rx="0.5"></rect>
            </g>
        </g>
    </g>
</svg>