<?xml version="1.0" encoding="UTF-8"?>
<svg width="11px" height="12px" viewBox="0 0 11 12" version="1.1" xmlns="http://www.w3.org/2000/svg" xmlns:xlink="http://www.w3.org/1999/xlink">
    <title>folder-music</title>
    <g id="页面-1" stroke="none" stroke-width="1" fill="none" fill-rule="evenodd">
        <g id="folder-music" transform="translate(0.000000, 0.755877)">
            <path d="M4,3.2441226 C6.209139,3.2441226 8,5.0349836 8,7.2441226 C8,9.4532616 6.209139,11.2441226 4,11.2441226 C1.790861,11.2441226 0,9.4532616 0,7.2441226 C0,5.0349836 1.790861,3.2441226 4,3.2441226 Z M4,3.91078927 C2.15905083,3.91078927 0.666666667,5.40317343 0.666666667,7.2441226 C0.666666667,9.08507177 2.15905083,10.5774559 4,10.5774559 C5.84094917,10.5774559 7.33333333,9.08507177 7.33333333,7.2441226 C7.33333333,5.40317343 5.84094917,3.91078927 4,3.91078927 Z" id="形状" fill="#000000" fill-rule="nonzero"></path>
            <path d="" id="矩形" stroke="#000000"></path>
            <path d="" id="矩形备份" stroke="#000000" transform="translate(8.746011, 1.620886) rotate(-45.000000) translate(-8.746011, -1.620886) "></path>
        </g>
    </g>
</svg>