<?xml version="1.0" encoding="UTF-8"?>
<svg width="24px" height="24px" viewBox="0 0 24 24" version="1.1" xmlns="http://www.w3.org/2000/svg" xmlns:xlink="http://www.w3.org/1999/xlink">
    <title>folder-music</title>
    <g id="页面-1" stroke="none" stroke-width="1" fill="none" fill-rule="evenodd">
        <g id="folder-music">
            <rect id="矩形" x="0" y="0" width="24" height="24"></rect>
            <g id="编组-15" transform="translate(6.000000, 4.500000)" fill="#000000" stroke="#000000" stroke-width="0.4">
                <path d="M4.95,6.6 C7.68380951,6.6 9.9,8.81619049 9.9,11.55 C9.9,14.2838095 7.68380951,16.5 4.95,16.5 C2.21619049,16.5 0,14.2838095 0,11.55 C0,8.81619049 2.21619049,6.6 4.95,6.6 Z M4.95,6.89117647 C2.37700281,6.89117647 0.291176471,8.97700281 0.291176471,11.55 C0.291176471,14.1229972 2.37700281,16.2088235 4.95,16.2088235 C7.52299719,16.2088235 9.60882353,14.1229972 9.60882353,11.55 C9.60882353,8.97700281 7.52299719,6.89117647 4.95,6.89117647 Z" id="椭圆形" fill-rule="nonzero"></path>
                <path d="M9.58574182,0 C9.67287222,-1.60055937e-17 9.74383547,0.0700044871 9.74502061,0.157126821 L9.74445708,0.175 L12.0763369,3.95926265 C12.1187116,4.02805373 12.0972968,4.11817139 12.0285057,4.16054607 L12.0214031,4.16465109 C11.9450402,4.20597363 11.8496981,4.18047317 11.8041601,4.10654664 L9.75245708,0.777 L9.89786257,11.3928732 C9.89902709,11.4784795 9.8305735,11.5488211 9.74496719,11.5499857 C9.74426438,11.5499952 9.74356152,11.55 9.74285864,11.55 C9.65572825,11.55 9.584765,11.4799955 9.58357986,11.3928732 L9.43045415,0.211028025 C9.43047713,0.206664914 9.43069517,0.202311635 9.43110508,0.197981649 L9.43073789,0.157126821 C9.42957337,0.0715205127 9.49802697,0.0011788595 9.58363328,1.4340821e-05 L9.58574182,0 Z" id="形状结合"></path>
            </g>
        </g>
    </g>
</svg>