<?xml version="1.0" encoding="UTF-8"?>
<svg width="24px" height="24px" viewBox="0 0 24 24" version="1.1" xmlns="http://www.w3.org/2000/svg" xmlns:xlink="http://www.w3.org/1999/xlink">
    <title>folder-home</title>
    <g id="页面-1" stroke="none" stroke-width="1" fill="none" fill-rule="evenodd">
        <g id="folder-home">
            <rect id="矩形" x="0" y="0" width="24" height="24"></rect>
            <path d="M11.2499891,4.5 C11.1107116,4.5 10.9714777,4.55342562 10.8647503,4.66119022 L3.16008301,12.4437243 C2.946639,12.6592645 2.946639,13.0062174 3.16008301,13.2217576 C3.37352702,13.4372978 3.71710573,13.4372978 3.93054974,13.2217576 L4.71166306,12.4329731 L4.71166306,18.7991505 C4.71166306,20.0184211 5.68369581,21 6.8911087,21 L15.6088913,21 C16.8163042,21 17.7883369,20.0184211 17.7883369,18.7991505 L17.7883369,12.4329731 L18.5694503,13.2217576 C18.7828943,13.4372978 19.126473,13.4372978 19.339917,13.2217576 C19.553361,13.0062174 19.553361,12.6592645 19.339917,12.4437243 L11.6352497,4.66119022 C11.5285332,4.55342122 11.3892884,4.5 11.2500109,4.5 L11.2499891,4.5 Z M11.2499891,5.83041354 L16.6986032,11.3325374 L16.6986032,18.7991395 C16.6986032,19.4087748 16.2125868,19.8995642 15.6088804,19.8995642 L13.4294348,19.8995642 L13.4294348,16.5982899 C13.4294348,15.3790193 12.457402,14.3974404 11.2499891,14.3974404 C10.0425762,14.3974404 9.07054345,15.3790193 9.07054345,16.5982899 L9.07054345,19.8995642 L6.89109781,19.8995642 C6.28739136,19.8995642 5.80137498,19.4087748 5.80137498,18.7991395 L5.80137498,11.3325374 L11.2499891,5.83041354 Z" id="形状" fill="#000000" fill-rule="nonzero"></path>
        </g>
    </g>
</svg>