<?xml version="1.0" encoding="UTF-8"?>
<svg width="24px" height="24px" viewBox="0 0 24 24" version="1.1" xmlns="http://www.w3.org/2000/svg" xmlns:xlink="http://www.w3.org/1999/xlink">
    <title>folder-public</title>
    <g id="页面-1" stroke="none" stroke-width="1" fill="none" fill-rule="evenodd">
        <g id="folder-public">
            <rect id="矩形" x="0" y="0" width="24" height="24"></rect>
            <g id="编组-9" transform="translate(-0.000000, 1.000000)" fill="#000000" fill-rule="nonzero">
                <path d="M11.0250026,0 C14.2144477,0 16.800004,2.70867725 16.800004,6.05000007 C16.800004,8.432404 15.4855422,10.4931796 13.5749449,11.4797949 C17.8209165,12.8395238 20.9231549,16.9433989 20.9985982,21.8180948 L21,22 L0,22 C0,16.780687 3.46981638,12.4103844 8.1246879,11.2826507 C6.40561031,10.2348674 5.25000125,8.28381351 5.25000125,6.05000007 C5.25000125,2.70867725 7.83555745,0 11.0250026,0 Z M11.0250026,0.366666667 C8.02885713,0.366666667 5.60000133,2.91118168 5.60000133,6.05000007 C5.60000133,8.09754679 6.64192077,9.95469125 8.30069629,10.9657203 C8.57479282,11.1327831 8.51250369,11.5650384 8.20354677,11.6398893 C3.78783388,12.709682 0.566989403,16.7475698 0.360533289,21.5129631 L0.356300085,21.6333333 L20.6430049,21.6333333 L20.6422368,21.5805823 C20.4767043,17.1280558 17.6763685,13.283366 13.6911701,11.9032674 L13.4726293,11.8304446 C13.1694422,11.7333521 13.1358345,11.2977564 13.4202011,11.150912 C15.2600729,10.2008187 16.4500039,8.23733784 16.4500039,6.05000007 C16.4500039,2.91118169 14.0211481,0.366666667 11.0250026,0.366666667 Z" id="形状结合"></path>
                <path d="M13.677969,-1.39570895e-15 C17.0197532,-1.39570895e-15 19.7288045,2.74500537 19.7288045,6.13114113 C19.7288045,8.27611099 18.6318864,10.2217681 16.890955,11.3277116 L16.7197596,11.4313322 L16.7802294,11.4523491 C20.9252922,12.9429218 23.8195879,16.8630916 23.9918579,21.3916599 L23.9985461,21.6392652 L23.9999827,21.8181881 C24.000773,21.917777 23.9217432,21.9991639 23.8234587,21.9999768 C23.7392148,22.0006624 23.6681687,21.9419279 23.6490876,21.8624175 L23.6440569,21.82111 L23.6426438,21.6436495 C23.5684083,17.0042508 20.537452,12.981936 16.2191001,11.6443678 C16.0649376,11.5966174 16.047849,11.3823902 16.1924418,11.3101718 C18.1237182,10.345575 19.372873,8.35194841 19.372873,6.13114113 C19.372873,2.94418982 16.8231776,0.360655356 13.677969,0.360655356 C13.5796812,0.360655356 13.5000032,0.279919905 13.5000032,0.180327678 C13.5000032,0.0807354515 13.5796812,-1.39570895e-15 13.677969,-1.39570895e-15 Z" id="路径"></path>
            </g>
        </g>
    </g>
</svg>