<?xml version="1.0" encoding="UTF-8"?>
<svg width="24px" height="24px" viewBox="0 0 24 24" version="1.1" xmlns="http://www.w3.org/2000/svg" xmlns:xlink="http://www.w3.org/1999/xlink">
    <title>folder-download</title>
    <g id="页面-1" stroke="none" stroke-width="1" fill="none" fill-rule="evenodd">
        <g id="folder-download">
            <rect id="矩形" x="0" y="0" width="24" height="24"></rect>
            <g id="编组-5" transform="translate(4.500000, 4.500000)" fill="#000000">
                <path d="M8.25,0 C12.8063492,0 16.5,3.69365081 16.5,8.25 C16.5,12.8063492 12.8063492,16.5 8.25,16.5 C3.69365081,16.5 0,12.8063492 0,8.25 C0,3.69365081 3.69365081,0 8.25,0 Z M8.25,1.03125 C4.26319446,1.03125 1.03125,4.26319446 1.03125,8.25 C1.03125,12.2368055 4.26319446,15.46875 8.25,15.46875 C12.2368055,15.46875 15.46875,12.2368055 15.46875,8.25 C15.46875,4.26319446 12.2368055,1.03125 8.25,1.03125 Z" id="椭圆形" fill-rule="nonzero"></path>
                <path d="M8.5,3 C8.77614237,3 9,3.22385763 9,3.5 L8.99975598,10.586 L10.2648081,9.32226039 C10.4600702,9.12699824 10.7766527,9.12699824 10.9719148,9.32226039 L11.0555691,9.40591469 C11.2508313,9.60117684 11.2508313,9.91775933 11.0555691,10.1130215 L8.59963158,12.568959 C8.40436944,12.7642212 8.08778695,12.7642212 7.8925248,12.568959 L7.80887049,12.4853047 L7.80130803,12.4763281 L5.41870081,10.0930356 C5.22343867,9.89777341 5.22343867,9.58119092 5.41870081,9.38592878 L5.50235512,9.30227447 C5.69761727,9.10701233 6.01419975,9.10701233 6.2094619,9.30227447 L7.49975598,10.594 L7.5,3.5 C7.5,3.22385763 7.72385763,3 8,3 L8.5,3 Z" id="形状结合"></path>
            </g>
        </g>
    </g>
</svg>