<?xml version="1.0" encoding="UTF-8"?>
<svg width="24px" height="24px" viewBox="0 0 24 24" version="1.1" xmlns="http://www.w3.org/2000/svg" xmlns:xlink="http://www.w3.org/1999/xlink">
    <title>folder-home</title>
    <g id="页面-1" stroke="none" stroke-width="1" fill="none" fill-rule="evenodd">
        <g id="folder-home">
            <rect id="矩形" x="0" y="0" width="24" height="24"></rect>
            <path d="M12.3555656,4.66119022 L4.65089834,12.4437243 C4.46874793,12.6276635 4.46874793,12.6796268 4.55982314,12.7720545 C4.65089834,12.8644822 4.83158859,12.6571601 5.42136507,12.0615915 C5.81454939,11.6645458 6.07492049,11.4016177 6.20247839,11.2728071 L6.20247839,18.7991505 C6.20247839,20.0184211 7.17451115,21 8.38192404,21 L17.0997066,21 C18.3071195,21 19.2791523,20.0184211 19.2791523,18.7991505 L19.2791523,11.2001808 C19.4392001,11.3618005 19.6995712,11.6247287 20.0602656,11.9889653 C20.6013071,12.5353203 20.7881114,12.7959201 20.8891262,12.7366592 C20.9901411,12.6773983 20.9493835,12.5803799 20.8595304,12.4896444 L13.126065,4.66119022 C13.0193485,4.55342122 12.8801037,4.5 12.7408262,4.5 C12.601527,4.5 12.4622931,4.55342562 12.3555656,4.66119022 Z M12.7408153,4.68073049 L19.1063828,11.0725886 L19.1063828,18.849092 C19.1063828,19.881454 18.1554527,20.841281 17.2467644,20.841281 L15.1100461,20.841281 L15.1100461,16.8364468 C15.1100461,15.5018412 14.0533692,14.4274114 12.7408153,14.4274114 C11.4282615,14.4274114 10.3715846,15.5018412 10.3715846,16.8364468 L10.3715846,20.841281 L8.24496229,20.841281 C7.36691225,20.841281 6.40646942,19.9070779 6.40646942,19.0050279 L6.40646942,11.0725886 L12.7408153,4.68073049 Z" id="形状" fill="#000000" fill-rule="nonzero"></path>
        </g>
    </g>
</svg>