<?xml version="1.0" encoding="UTF-8"?>
<svg width="24px" height="24px" viewBox="0 0 24 24" version="1.1" xmlns="http://www.w3.org/2000/svg" xmlns:xlink="http://www.w3.org/1999/xlink">
    <title>folder-music</title>
    <g id="页面-1" stroke="none" stroke-width="1" fill="none" fill-rule="evenodd">
        <g id="folder-music">
            <rect id="矩形" x="0" y="0" width="24" height="24"></rect>
            <g id="编组-6" transform="translate(4.500000, 3.000000)">
                <path d="M6,4.8661839 C9.3137085,4.8661839 12,7.5524754 12,10.8661839 C12,14.1798924 9.3137085,16.8661839 6,16.8661839 C2.6862915,16.8661839 0,14.1798924 0,10.8661839 C0,7.5524754 2.6862915,4.8661839 6,4.8661839 Z M6,5.8661839 C3.23857625,5.8661839 1,8.10476015 1,10.8661839 C1,13.6276077 3.23857625,15.8661839 6,15.8661839 C8.76142375,15.8661839 11,13.6276077 11,10.8661839 C11,8.10476015 8.76142375,5.8661839 6,5.8661839 Z" id="形状" fill="#000000" fill-rule="nonzero"></path>
                <path d="M11.0005343,1.17493375 L11.3832798,8.63797753 L11.0120564,7.84250256 L11.0005343,1.17493375 Z" id="矩形" stroke="#000000"></path>
                <path d="" id="矩形备份" stroke="#000000" transform="translate(13.119016, 2.431329) rotate(-45.000000) translate(-13.119016, -2.431329) "></path>
            </g>
        </g>
    </g>
</svg>