<?xml version="1.0" encoding="UTF-8"?>
<svg width="24px" height="24px" viewBox="0 0 24 24" version="1.1" xmlns="http://www.w3.org/2000/svg" xmlns:xlink="http://www.w3.org/1999/xlink">
    <title>folder-camera</title>
    <g id="页面-1" stroke="none" stroke-width="1" fill="none" fill-rule="evenodd">
        <g id="folder-camera">
            <rect id="矩形" x="0" y="0" width="24" height="24" rx="1"></rect>
            <g id="编组-18" transform="translate(4.500000, 6.000000)" fill="#000000">
                <path d="M15.9069225,1.37390099e-14 C16.198788,1.37390099e-14 16.4353918,0.236603771 16.4353918,0.528469313 L16.4353918,11.0978556 C16.4353918,11.3897211 16.198788,11.6263249 15.9069225,11.6263249 L0.581312414,11.6263249 C0.289446872,11.6263249 0.052843101,11.3897211 0.052843101,11.0978556 L0.052843101,0.528469313 C0.052843101,0.236603771 0.289446872,1.37390099e-14 0.581312414,1.37390099e-14 L15.9069225,1.37390099e-14 Z M15.9069225,0.264234657 L0.581312414,0.264234657 C0.451594395,0.264234657 0.343708188,0.357707751 0.321334932,0.4809728 L0.317077758,0.528469313 L0.317077758,11.0978556 C0.317077758,11.2275736 0.410550852,11.3354598 0.533815901,11.3578331 L0.581312414,11.3620902 L15.9069225,11.3620902 C16.0366405,11.3620902 16.1445267,11.2686171 16.1669,11.1453521 L16.1711572,11.0978556 L16.1711572,0.528469313 C16.1711572,0.398751294 16.0776841,0.290865087 15.954419,0.268491831 L15.9069225,0.264234657 Z" id="矩形" fill-rule="nonzero"></path>
                <path d="M12.2293406,6.26629677 L15.8533694,10.8147504 C16.0254472,11.0307222 15.9898641,11.3452986 15.7738923,11.5173765 C15.685361,11.5879147 15.5755143,11.6263249 15.4623178,11.6263249 L6.39447486,11.6263249 L6.39447486,11.6263249 L10.6651343,6.26629677 C11.00929,5.83435313 11.6384428,5.76318694 12.0703864,6.10734263 C12.129177,6.15418465 12.1824985,6.20750618 12.2293406,6.26629677 Z" id="三角形"></path>
                <path d="M4.82663057,7.7590616 L8.13313928,11.6263249 L8.13313928,11.6263249 L1.08534182,11.6263249 C0.809199442,11.6263249 0.585341817,11.4024673 0.585341817,11.1263249 C0.585341817,11.007182 0.62788612,10.8919548 0.705311353,10.801399 L3.30650871,7.7590616 C3.66541196,7.33929154 4.2966514,7.28994924 4.71642146,7.64885249 C4.7559691,7.6826657 4.79281736,7.71951396 4.82663057,7.7590616 Z" id="三角形备份"></path>
                <circle id="椭圆形" cx="3.75212829" cy="3.69928519" r="1.58540794"></circle>
            </g>
        </g>
    </g>
</svg>