<?xml version="1.0" encoding="UTF-8"?>
<svg width="26px" height="23px" viewBox="0 0 26 23" version="1.1" xmlns="http://www.w3.org/2000/svg" xmlns:xlink="http://www.w3.org/1999/xlink">
    <title>folder-public</title>
    <g id="页面-1" stroke="none" stroke-width="1" fill="none" fill-rule="evenodd">
        <g id="folder-public" transform="translate(1.000000, 1.000000)" fill="#000000" fill-rule="nonzero">
            <path d="M10.0799999,0.8 C6.72208627,0.8 4,3.52242664 4,6.88066008 L4.01077704,7.2444053 C4.0966621,8.69085513 4.691895,10.0290636 5.65337504,11.0477629 L5.744,11.1376 L5.38591306,11.2897163 C1.70173179,12.9217793 -0.798970235,16.6074785 -0.800000001,20.7998035 C-0.800000001,21.241708 -0.44190454,21.6 1.11022302e-16,21.6 L19.2,21.6 C19.6495443,21.6 20.0108311,21.2297011 19.9997572,20.7802932 L19.9880085,20.3034969 L19.9596648,19.8913598 C19.6454405,16.3423434 17.5520524,13.2617026 14.5117816,11.6332498 L14.1104,11.4304 L14.1625918,11.387543 C15.4087271,10.2582272 16.1599999,8.63672825 16.1599999,6.88066008 C16.1599999,3.52242667 13.4379135,0.8 10.0799999,0.8 Z M10.0799999,2.4 C12.5542131,2.4 14.5599999,4.40603751 14.5599999,6.88066008 C14.5599999,8.60655345 13.5759973,10.1553455 12.0546134,10.9039279 C11.4037429,11.2241825 11.4808945,12.1758434 12.1748526,12.3870721 L12.5352665,12.5053602 C15.6267837,13.594743 17.8722677,16.3392334 18.3185899,19.6010748 L18.3632,20 L0.8368,20 L0.869698267,19.6925659 C1.32905814,16.0584588 4.01498494,13.0556889 7.61481551,12.2258868 C8.32293208,12.0626578 8.46420533,11.1160973 7.8346102,10.7532162 C6.46305046,9.96268718 5.6,8.49790381 5.6,6.88066008 C5.6,4.40603746 7.60578665,2.4 10.0799999,2.4 Z" id="形状结合"></path>
            <path d="M16.1700383,-0.781720529 C18.947609,-0.177548948 20.9595952,2.302197 20.9595952,5.19368743 C20.9595952,6.95838784 20.2089351,8.58833776 18.9632508,9.72389882 L18.9056,9.7728 L18.9431557,9.79152389 C22.1825495,11.3721449 24.4330448,14.5749765 24.7596818,18.2862396 L24.7880102,18.7006379 L24.7997602,19.1804134 C24.8105775,19.6221088 24.4612819,19.9889428 24.0195866,19.9997602 C23.6269685,20.0093756 23.2935001,19.7344573 23.2166457,19.3630289 L23.2002398,19.2195866 L23.1892027,18.759255 C23.0062304,15.0133733 20.492448,11.8072149 16.9728282,10.7293238 C16.2807753,10.5173811 16.2035099,9.56855904 16.8521541,9.24743951 C18.3742589,8.49390219 19.3595952,6.93348509 19.3595952,5.19368743 C19.3595952,3.0570305 17.8742771,1.22639588 15.8299617,0.781720529 C15.3982294,0.687810984 15.1243699,0.261694054 15.2182795,-0.170038273 C15.3017546,-0.553800341 15.6477146,-0.812823365 16.0267835,-0.799690559 L16.1700383,-0.781720529 Z" id="路径"></path>
        </g>
    </g>
</svg>