<?xml version="1.0" encoding="UTF-8"?>
<svg width="24px" height="24px" viewBox="0 0 24 24" version="1.1" xmlns="http://www.w3.org/2000/svg" xmlns:xlink="http://www.w3.org/1999/xlink">
    <title>folder-templates</title>
    <g id="页面-1" stroke="none" stroke-width="1" fill="none" fill-rule="evenodd">
        <g id="folder-templates">
            <rect id="矩形" x="0" y="0" width="24" height="24"></rect>
            <g id="编组" transform="translate(2.181818, 3.272727)" fill="#000000" fill-rule="nonzero">
                <path d="M12.2142857,0 C12.9243661,0 13.5,0.559644062 13.5,1.25 L13.5,6.25 C13.5,6.94035594 12.9243661,7.5 12.2142857,7.5 L1.28571429,7.5 C0.575633893,7.5 0,6.94035594 0,6.25 L0,1.25 C0,0.559644062 0.575633893,0 1.28571429,0 L12.2142857,0 Z M11.5714286,1.25 L1.92857143,1.25 C1.59889125,1.25 1.32717397,1.49127512 1.29003926,1.8021118 L1.28571429,1.875 L1.28571429,5.625 C1.28571429,5.9455224 1.53388298,6.20969198 1.85360071,6.24579517 L1.92857143,6.25 L11.5714286,6.25 C11.9011087,6.25 12.172826,6.00872488 12.2099607,5.69788821 L12.2142857,5.625 L12.2142857,1.875 C12.2142857,1.5544776 11.966117,1.29030803 11.6463993,1.25420483 L11.5714286,1.25 Z" id="形状"></path>
                <path d="M18.5,0 C19.0522847,0 19.5,0.559644062 19.5,1.25 L19.5,6.25 C19.5,6.94035594 19.0522847,7.5 18.5,7.5 L16,7.5 C15.4477153,7.5 15,6.94035594 15,6.25 L15,1.25 C15,0.559644062 15.4477153,0 16,0 L18.5,0 Z M18,1.25 L16.5,1.25 C16.2435821,1.25 16.0322464,1.49127512 16.0033639,1.8021118 L16,1.875 L16,5.625 C16,5.9455224 16.1930201,6.20969198 16.4416894,6.24579517 L16.5,6.25 L18,6.25 C18.2564179,6.25 18.4677536,6.00872488 18.4966361,5.69788821 L18.5,5.625 L18.5,1.875 C18.5,1.5544776 18.3069799,1.29030802 18.0583106,1.25420483 L18,1.25 Z" id="形状"></path>
                <path d="M10.5,9 L18,9 C18.8284271,9 19.5,9.67157287 19.5,10.5 L19.5,15 C19.5,15.8284271 18.8284271,16.5 18,16.5 L10.5,16.5 C9.67157288,16.5 9,15.8284271 9,15 L9,10.5 C9,9.67157287 9.67157288,9 10.5,9 Z" id="矩形"></path>
                <path d="M1.875,9 L5.625,9 C6.66053391,9 7.5,9.67157287 7.5,10.5 L7.5,15 C7.5,15.8284271 6.66053391,16.5 5.625,16.5 L1.875,16.5 C0.839466094,16.5 0,15.8284271 0,15 L0,10.5 C0,9.67157287 0.839466094,9 1.875,9 Z" id="矩形备份-10"></path>
            </g>
        </g>
    </g>
</svg>