<?xml version="1.0" encoding="UTF-8"?>
<svg width="24px" height="24px" viewBox="0 0 24 24" version="1.1" xmlns="http://www.w3.org/2000/svg" xmlns:xlink="http://www.w3.org/1999/xlink">
    <title>folder-public</title>
    <g id="页面-1" stroke="none" stroke-width="1" fill="none" fill-rule="evenodd">
        <g id="folder-public">
            <rect id="矩形" x="0" y="0" width="24" height="24"></rect>
            <g id="编组-9" transform="translate(4.500000, 4.500000)" fill="#000000" fill-rule="nonzero">
                <path d="M7.64338234,0 C9.85455177,0 11.6470588,1.792507 11.6470588,4.00367652 C11.6470588,5.58026735 10.7357725,6.94401593 9.41119908,7.59692311 C12.3548341,8.49674371 14.5055451,11.2125434 14.5578482,14.4384451 L14.5588235,14.5588235 L0,14.5588235 C0,11.1048664 2.4055444,8.21275435 5.63266044,7.46646005 C4.44086323,6.77307398 3.63970588,5.48193541 3.63970588,4.00367652 C3.63970588,1.792507 5.43221291,0 7.64338234,0 Z M7.64338234,0.242647059 C5.56622316,0.242647059 3.88235294,1.92651729 3.88235294,4.00367652 C3.88235294,5.35867067 4.60469188,6.58766333 5.75468303,7.25672669 C5.9447079,7.36728291 5.90152426,7.65333424 5.68733149,7.70286789 C2.62601866,8.41081899 0.393080795,11.0829506 0.24994949,14.2365197 L0.247014706,14.3161765 L14.3113235,14.3161765 L14.310791,14.2812677 C14.1960311,11.3347428 12.2546223,8.79046278 9.49177532,7.87716222 L9.34026597,7.82897071 C9.13007329,7.76471828 9.10677388,7.47645642 9.3039187,7.37928002 C10.5794598,6.75054181 11.4044118,5.45117946 11.4044118,4.00367652 C11.4044118,1.9265173 9.72054152,0.242647059 7.64338234,0.242647059 Z" id="形状结合"></path>
                <path d="M9.58455881,-0.121323529 C11.8627334,-0.121323529 13.7095588,1.72550189 13.7095588,4.00367652 C13.7095588,5.44680116 12.9617634,6.75582923 11.7749286,7.49990226 L11.6582206,7.56961765 L11.6994443,7.58375773 C14.5252332,8.58660734 16.4983441,11.2240773 16.6157848,14.2708747 L16.6203442,14.4374622 L16.6213236,14.5578406 C16.6218624,14.6248435 16.5679859,14.6796002 16.5009829,14.6801471 C16.4435518,14.6806084 16.395118,14.6410921 16.38211,14.587598 L16.3786805,14.5598065 L16.3777171,14.4404119 C16.327109,11.3190485 14.2608332,8.61285591 11.316909,7.71294691 C11.2118127,7.6808207 11.200163,7.53668977 11.2987354,7.48810157 C12.6153329,6.83912583 13.4669118,5.49782418 13.4669118,4.00367652 C13.4669118,1.85951216 11.7287231,0.121323529 9.58455881,0.121323529 C9.51755367,0.121323529 9.46323528,0.0670051351 9.46323528,-4.16333634e-17 C9.46323528,-0.0670051351 9.51755367,-0.121323529 9.58455881,-0.121323529 Z" id="路径"></path>
            </g>
        </g>
    </g>
</svg>