<?xml version="1.0" encoding="UTF-8"?>
<svg width="24px" height="24px" viewBox="0 0 24 24" version="1.1" xmlns="http://www.w3.org/2000/svg" xmlns:xlink="http://www.w3.org/1999/xlink">
    <title>folder-download</title>
    <g id="页面-1" stroke="none" stroke-width="1" fill="none" fill-rule="evenodd">
        <g id="folder-download" fill="#000000" fill-rule="nonzero">
            <path d="M12,0 C18.627417,0 24,5.372583 24,12 C24,18.627417 18.627417,24 12,24 C5.372583,24 0,18.627417 0,12 C0,5.372583 5.372583,0 12,0 Z M12,1.5 C6.20101013,1.5 1.5,6.20101013 1.5,12 C1.5,17.7989899 6.20101013,22.5 12,22.5 C17.7989899,22.5 22.5,17.7989899 22.5,12 C22.5,6.20101013 17.7989899,1.5 12,1.5 Z" id="椭圆形"></path>
            <path d="M12.0163112,4.5 C11.3825243,4.5 10.8687385,5.01378578 10.8687385,5.64757266 L10.8687385,5.64757266 L10.868577,15.582683 L7.95902903,12.6722324 C7.51087408,12.2240775 6.78427123,12.2240775 6.33611628,12.6722324 C5.88796124,13.1203877 5.88796124,13.8469902 6.33611628,14.2951455 L6.33611628,14.2951455 L11.2048548,19.1638837 C11.4289321,19.3879613 11.7226215,19.5 12.0163112,19.5 L12.0163112,19.5 L12.2354904,19.4789928 C12.4524947,19.4369782 12.6597093,19.331942 12.8277676,19.1638837 L12.8277676,19.1638837 L17.6965061,14.2951455 C18.1446611,13.8469902 18.1446611,13.1203877 17.6965061,12.6722324 C17.2483509,12.2240775 16.5217483,12.2240775 16.0735931,12.6722324 L16.0735931,12.6722324 L13.1637223,15.579814 L13.1638838,5.64757266 C13.1638838,5.01378578 12.6500981,4.5 12.0163112,4.5 Z" id="形状结合-path"></path>
        </g>
    </g>
</svg>