<?xml version="1.0" encoding="UTF-8"?>
<svg width="24px" height="24px" viewBox="0 0 24 24" version="1.1" xmlns="http://www.w3.org/2000/svg" xmlns:xlink="http://www.w3.org/1999/xlink">
    <title>folder-txt</title>
    <g id="页面-1" stroke="none" stroke-width="1" fill="none" fill-rule="evenodd">
        <g id="folder-txt">
            <rect id="矩形" x="0" y="0" width="24" height="24" rx="1"></rect>
            <g id="编组-13" transform="translate(4.500000, 4.500000)" fill="#000000" fill-rule="nonzero">
                <path d="M8.5846541,0.0972303724 L8.5059626,0.0642110352 L0.815230494,0.0648610735 C0.364995297,0.0648610731 -6.41153797e-15,0.42985637 -6.41153797e-15,0.880100887 L-6.41153797e-15,15.6847602 C-6.41153797e-15,16.1350047 0.364995297,16.5 0.815239814,16.5 L14.2099316,16.5 C14.6601761,16.5 15.0251714,16.1350047 15.0251714,15.6847602 L15.0251714,6.70335377 L14.9935975,6.62611707 L8.5846541,0.0972303724 Z M8.45972524,0.284460576 L14.8042987,6.74811051 L14.8046593,15.6847602 C14.8046593,16.0132192 14.5383906,16.2794879 14.2099316,16.2794879 L0.815239814,16.2794879 C0.486780753,16.2794879 0.220512075,16.0132192 0.220512075,15.6847602 L0.220512075,0.880100887 C0.220512075,0.551641826 0.486780753,0.285373148 0.815239814,0.285373148 L8.45972524,0.284460576 Z" id="路径"></path>
                <path d="M8.50597192,-3.66373598e-15 L15.1050771,6.64814996 L10.3190464,6.64814996 C9.31771299,6.64814996 8.50597192,5.83652485 8.50597192,4.83533454 L8.50597192,-3.66373598e-15 Z M8.77782388,0.613098795 L8.77782388,4.86825526 C8.77782388,5.58148488 9.43202185,6.29487674 10.1238917,6.37521392 C10.5851383,6.42877205 12.0614242,6.44178815 14.5527497,6.41426224 L8.77782388,0.613098795 Z" id="形状结合"></path>
            </g>
        </g>
    </g>
</svg>