<?xml version="1.0" encoding="UTF-8"?>
<svg width="24px" height="24px" viewBox="0 0 24 24" version="1.1" xmlns="http://www.w3.org/2000/svg" xmlns:xlink="http://www.w3.org/1999/xlink">
    <title>folder-home</title>
    <g id="页面-1" stroke="none" stroke-width="1" fill="none" fill-rule="evenodd">
        <g id="folder-home">
            <rect id="矩形" x="0" y="0" width="24" height="24"></rect>
            <g id="编组-10" transform="translate(3.425391, 3.855675)">
                <path d="M8.4238701,10.7589026 C9.5284396,10.7589026 10.4238701,11.6543331 10.4238701,12.7589026 L10.4238701,16.7589026 L10.4238701,16.7589026 L6.4238701,16.7589026 L6.4238701,12.7589026 C6.4238701,11.6543331 7.3193006,10.7589026 8.4238701,10.7589026 Z" id="矩形" fill="#000000"></path>
                <path d="M15.4229385,7.02728753 L15.4238701,13.7589026 C15.4238701,15.4157568 14.0807243,16.7589026 12.4238701,16.7589026 L4.4238701,16.7589026 C2.76701585,16.7589026 1.13252097,15.4157568 1.13252097,13.7589026 L1.13158932,7.21410374" id="路径" stroke="#000000" stroke-width="0.6"></path>
                <path d="M0.225272172,8.25 C0.173738046,8.30153413 0.0901847198,8.30153413 0.0386505942,8.25 C-0.0128835314,8.19846587 -0.0128835314,8.11491255 0.0386505942,8.06337842 L8.06337842,0.0386505942 C8.11491255,-0.0128835314 8.19846587,-0.0128835314 8.25,0.0386505942 C8.24941605,0.0392372429 8.24970719,0.0389434017 8.25,0.0386505942 C8.30153413,-0.0128835314 8.38508745,-0.0128835314 8.43662158,0.0386505942 L16.4613494,8.06337842 C16.5128835,8.11491255 16.5128835,8.19846587 16.4613494,8.25 C16.4098153,8.30153413 16.326262,8.30153413 16.2747278,8.25 L8.25,0.225272172 L8.25087343,0.22439066 L0.225272172,8.25 Z" id="形状结合" stroke="#000000" stroke-width="0.4"></path>
            </g>
        </g>
    </g>
</svg>