<?xml version="1.0" encoding="UTF-8"?>
<svg width="24px" height="24px" viewBox="0 0 24 24" version="1.1" xmlns="http://www.w3.org/2000/svg" xmlns:xlink="http://www.w3.org/1999/xlink">
    <title>folder-download</title>
    <g id="页面-1" stroke="none" stroke-width="1" fill="none" fill-rule="evenodd">
        <g id="folder-download">
            <rect id="矩形" x="0" y="0" width="24" height="24"></rect>
            <g id="编组-14" transform="translate(4.500000, 4.500000)" fill="#000000" stroke="#000000" stroke-width="0.4">
                <path d="M7.5,0 C11.6421356,0 15,3.35786438 15,7.5 C15,11.6421356 11.6421356,15 7.5,15 C3.35786438,15 0,11.6421356 0,7.5 C0,3.35786438 3.35786438,0 7.5,0 Z M7.5,0.25 C3.49593556,0.25 0.25,3.49593556 0.25,7.5 C0.25,11.5040644 3.49593556,14.75 7.5,14.75 C11.5040644,14.75 14.75,11.5040644 14.75,7.5 C14.75,3.49593556 11.5040644,0.25 7.5,0.25 Z" id="椭圆形" fill-rule="nonzero"></path>
                <path d="M7.32802377,3 C7.39105592,3 7.44215358,3.05109766 7.44215358,3.11412981 L7.44215358,3.11412981 L7.44115963,11.652 L10.1784457,8.91662119 C10.2190255,8.87604132 10.2848185,8.87604132 10.3253984,8.91662119 C10.3659782,8.95720105 10.3659782,9.02299402 10.3253984,9.06357388 L7.25405337,12.1349189 C7.2279224,12.1610499 7.19133662,12.1703541 7.15776055,12.1628315 C7.13125044,12.1602259 7.10466633,12.1489004 7.08392963,12.1281637 L4.68342789,9.72766199 C4.63773687,9.68197097 4.63773687,9.60789119 4.68342789,9.56220017 C4.72911891,9.51650914 4.8031987,9.51650914 4.84888972,9.56220017 L7.19012201,11.9048444 L7.22909473,11.8640351 C7.2194259,11.8472747 7.21389395,11.8278271 7.21389395,11.8070875 L7.21389395,11.8070875 L7.21389395,3.11412981 C7.21389395,3.05109766 7.26499161,3 7.32802377,3 Z" id="形状结合"></path>
            </g>
        </g>
    </g>
</svg>