<?xml version="1.0" encoding="UTF-8"?>
<svg width="24px" height="24px" viewBox="0 0 24 24" version="1.1" xmlns="http://www.w3.org/2000/svg" xmlns:xlink="http://www.w3.org/1999/xlink">
    <title>folder-templates</title>
    <g id="页面-1" stroke="none" stroke-width="1" fill="none" fill-rule="evenodd">
        <g id="folder-templates">
            <rect id="矩形" x="0" y="0" width="24" height="24"></rect>
            <g id="编组-8" transform="translate(4.500000, 4.500000)" fill="#000000">
                <path d="M10.1129032,0 C10.4068612,0 10.6451613,0.238300053 10.6451613,0.532258065 L10.6451613,5.85483871 C10.6451613,6.14879672 10.4068612,6.38709677 10.1129032,6.38709677 L0.532258065,6.38709677 C0.238300053,6.38709677 0,6.14879672 0,5.85483871 L0,0.532258065 C0,0.238300053 0.238300053,0 0.532258065,0 L10.1129032,0 Z M10.1129032,0.266129032 L0.532258065,0.266129032 C0.401610059,0.266129032 0.292950384,0.360272263 0.270416727,0.484421034 L0.266129032,0.532258065 L0.266129032,5.85483871 C0.266129032,5.98548672 0.360272263,6.09414639 0.484421034,6.11668005 L0.532258065,6.12096774 L10.1129032,6.12096774 C10.2435512,6.12096774 10.3522109,6.02682451 10.3747446,5.90267574 L10.3790323,5.85483871 L10.3790323,0.532258065 C10.3790323,0.401610059 10.284889,0.292950384 10.1607403,0.270416727 L10.1129032,0.266129032 Z" id="矩形" fill-rule="nonzero"></path>
                <rect id="矩形备份-5" x="0" y="7.4516129" width="6.38709677" height="6.38709677" rx="1"></rect>
                <rect id="矩形备份-6" x="7.4516129" y="7.4516129" width="9.0483871" height="6.38709677" rx="1"></rect>
                <path d="M15.9677419,0 C16.2616999,0 16.5,0.238300053 16.5,0.532258065 L16.5,5.85483871 C16.5,6.14879672 16.2616999,6.38709677 15.9677419,6.38709677 L12.2419355,6.38709677 C11.9479775,6.38709677 11.7096774,6.14879672 11.7096774,5.85483871 L11.7096774,0.532258065 C11.7096774,0.238300053 11.9479775,0 12.2419355,0 L15.9677419,0 Z M15.9677419,0.266129032 L12.2419355,0.266129032 C12.1112875,0.266129032 12.0026278,0.360272263 11.9800941,0.484421034 L11.9758065,0.532258065 L11.9758065,5.85483871 C11.9758065,5.98548672 12.0699497,6.09414639 12.1940985,6.11668005 L12.2419355,6.12096774 L15.9677419,6.12096774 C16.0983899,6.12096774 16.2070496,6.02682451 16.2295833,5.90267574 L16.233871,5.85483871 L16.233871,0.532258065 C16.233871,0.401610059 16.1397277,0.292950384 16.015579,0.270416727 L15.9677419,0.266129032 Z" id="矩形备份-4" fill-rule="nonzero"></path>
            </g>
        </g>
    </g>
</svg>