<?xml version="1.0" encoding="UTF-8"?>
<svg width="24px" height="24px" viewBox="0 0 24 24" version="1.1" xmlns="http://www.w3.org/2000/svg" xmlns:xlink="http://www.w3.org/1999/xlink">
    <title>folder-videos</title>
    <g id="页面-1" stroke="none" stroke-width="1" fill="none" fill-rule="evenodd">
        <g id="folder-videos">
            <rect id="矩形" x="0" y="0" width="24" height="24"></rect>
            <g id="编组-2" transform="translate(3.272727, 3.272727)">
                <path d="M8.25,0 C12.8063492,0 16.5,3.69365081 16.5,8.25 C16.5,12.8063492 12.8063492,16.5 8.25,16.5 C3.69365081,16.5 0,12.8063492 0,8.25 C0,3.69365081 3.69365081,0 8.25,0 Z M8.25,1.17857143 C4.34455784,1.17857143 1.17857143,4.34455784 1.17857143,8.25 C1.17857143,12.1554422 4.34455784,15.3214286 8.25,15.3214286 C12.1554422,15.3214286 15.3214286,12.1554422 15.3214286,8.25 C15.3214286,4.34455784 12.1554422,1.17857143 8.25,1.17857143 Z" id="椭圆形" fill="#000000" fill-rule="nonzero"></path>
                <path d="" id="矩形" stroke="#000000"></path>
                <path d="M8.25,3 C9.49264069,3 10.5,4.00735931 10.5,5.25 C10.5,6.49264069 9.49264069,7.5 8.25,7.5 C7.00735931,7.5 6,6.49264069 6,5.25 C6,4.00735931 7.00735931,3 8.25,3 Z M8.25,4.125 C7.62867966,4.125 7.125,4.62867966 7.125,5.25 C7.125,5.87132034 7.62867966,6.375 8.25,6.375 C8.87132034,6.375 9.375,5.87132034 9.375,5.25 C9.375,4.62867966 8.87132034,4.125 8.25,4.125 Z" id="椭圆形" fill="#000000" fill-rule="nonzero"></path>
                <path d="M11.25,6 C12.4926407,6 13.5,7.00735931 13.5,8.25 C13.5,9.49264069 12.4926407,10.5 11.25,10.5 C10.0073593,10.5 9,9.49264069 9,8.25 C9,7.00735931 10.0073593,6 11.25,6 Z M11.25,7.125 C10.6286797,7.125 10.125,7.62867966 10.125,8.25 C10.125,8.87132034 10.6286797,9.375 11.25,9.375 C11.8713203,9.375 12.375,8.87132034 12.375,8.25 C12.375,7.62867966 11.8713203,7.125 11.25,7.125 Z" id="椭圆形备份" fill="#000000" fill-rule="nonzero"></path>
                <path d="M8.25,9 C9.49264069,9 10.5,10.0073593 10.5,11.25 C10.5,12.4926407 9.49264069,13.5 8.25,13.5 C7.00735931,13.5 6,12.4926407 6,11.25 C6,10.0073593 7.00735931,9 8.25,9 Z M8.25,10.125 C7.62867966,10.125 7.125,10.6286797 7.125,11.25 C7.125,11.8713203 7.62867966,12.375 8.25,12.375 C8.87132034,12.375 9.375,11.8713203 9.375,11.25 C9.375,10.6286797 8.87132034,10.125 8.25,10.125 Z" id="椭圆形备份-2" fill="#000000" fill-rule="nonzero"></path>
                <path d="M5.25,6 C6.49264069,6 7.5,7.00735931 7.5,8.25 C7.5,9.49264069 6.49264069,10.5 5.25,10.5 C4.00735931,10.5 3,9.49264069 3,8.25 C3,7.00735931 4.00735931,6 5.25,6 Z M5.25,7.125 C4.62867966,7.125 4.125,7.62867966 4.125,8.25 C4.125,8.87132034 4.62867966,9.375 5.25,9.375 C5.87132034,9.375 6.375,8.87132034 6.375,8.25 C6.375,7.62867966 5.87132034,7.125 5.25,7.125 Z" id="椭圆形备份-3" fill="#000000" fill-rule="nonzero"></path>
            </g>
        </g>
    </g>
</svg>