<?xml version="1.0" encoding="UTF-8"?>
<svg width="24px" height="24px" viewBox="0 0 24 24" version="1.1" xmlns="http://www.w3.org/2000/svg" xmlns:xlink="http://www.w3.org/1999/xlink">
    <title>folder-html</title>
    <g id="页面-1" stroke="none" stroke-width="1" fill="none" fill-rule="evenodd">
        <g id="folder-html">
            <rect id="矩形" x="0" y="0" width="24" height="24"></rect>
            <g id="编组-16" transform="translate(4.500000, 3.000000)" fill="#000000">
                <path d="M8.25,9.15933995e-16 C12.8063492,9.15933995e-16 16.5,3.69365081 16.5,8.25 C16.5,12.8063492 12.8063492,16.5 8.25,16.5 C3.69365081,16.5 0,12.8063492 0,8.25 C0,3.69365081 3.69365081,9.15933995e-16 8.25,9.15933995e-16 Z M8.25,0.275 C3.84552912,0.275 0.275,3.84552912 0.275,8.25 C0.275,12.6544709 3.84552912,16.225 8.25,16.225 C12.6544709,16.225 16.225,12.6544709 16.225,8.25 C16.225,3.84552912 12.6544709,0.275 8.25,0.275 Z" id="椭圆形" fill-rule="nonzero"></path>
                <path d="M12.65,8.25 C12.65,11.6936033 10.8918059,14.7265583 8.22412596,16.5001569 C3.6793701,16.4857022 -7.32747196e-15,12.7975326 -7.32747196e-15,8.25 C-7.32747196e-15,3.75132612 3.6007325,0.093648378 8.07739452,0.00176976728 L8.2247,-1.28230759e-14 L8.39019633,0.11269472 C10.9645332,1.9004035 12.65,4.87837082 12.65,8.25 Z M8.23541344,0.339999052 L8.1411,0.27555 L8.0830374,0.276711866 C3.74929926,0.36565712 0.275,3.90772232 0.275,8.25 C0.275,12.5871676 3.73782381,16.1171919 8.05198625,16.2227678 L8.1411,16.2239 L8.2443532,16.1537931 C10.7524492,14.407635 12.3049265,11.5716139 12.3726869,8.46240524 L12.375,8.25 C12.375,5.12700509 10.8769848,2.25691719 8.40543091,0.460788538 L8.23541344,0.339999052 Z" id="形状结合" fill-rule="nonzero"></path>
                <path d="M8.7988077,0.0179641135 C13.099289,0.300403567 16.5,3.87806247 16.5,8.25 C16.5,12.6217509 13.0995793,16.1992909 8.7993585,16.4819997 C6.14634018,14.7060706 4.4,11.6819751 4.4,8.25 C4.4,4.9203105 6.04379655,1.97455025 8.56415132,0.179957588 L8.7988077,0.0179641135 Z M8.87315,0.2992 L8.71565968,0.409648813 C6.20224274,2.20244064 4.675,5.09688632 4.675,8.25 C4.675,11.4313405 6.22988033,14.3483261 8.7808022,16.1359802 L8.87425,16.20025 L8.95721654,16.1940935 C12.9901466,15.8401178 16.1340588,12.4950345 16.2230619,8.4273062 L16.225,8.25 C16.225,4.10235731 13.0483048,0.664717424 8.95669388,0.305860638 L8.87315,0.2992 Z" id="形状结合" fill-rule="nonzero"></path>
                <path d="M8.24983871,0.639640617 C8.31946404,0.639640617 8.37590652,0.696083096 8.37590652,0.765708423 L8.37590652,16.8462627 C8.37590652,16.915888 8.31946404,16.9723305 8.24983871,16.9723305 C8.18021338,16.9723305 8.1237709,16.915888 8.1237709,16.8462627 L8.1237709,0.765708423 C8.1237709,0.696083096 8.18021338,0.639640617 8.24983871,0.639640617 Z" id="矩形" transform="translate(8.249839, 8.805986) rotate(-270.000000) translate(-8.249839, -8.805986) "></path>
            </g>
        </g>
    </g>
</svg>