<?xml version="1.0" encoding="UTF-8"?>
<svg width="24px" height="24px" viewBox="0 0 24 24" version="1.1" xmlns="http://www.w3.org/2000/svg" xmlns:xlink="http://www.w3.org/1999/xlink">
    <title>folder-public</title>
    <g id="页面-1" stroke="none" stroke-width="1" fill="none" fill-rule="evenodd">
        <g id="folder-public">
            <rect id="矩形" x="0" y="0" width="24" height="24"></rect>
            <g id="编组-9" transform="translate(4.500000, 4.500000)" fill="#000000" fill-rule="nonzero">
                <g id="yonghu">
                    <path d="M11.7025004,8.05362967 C13.068693,7.34389779 14.0029282,5.91437225 14.0029282,4.26527393 C14.0029282,1.90952453 12.0980228,0 9.74841017,0 C7.3986831,0 5.49379411,1.90960647 5.49379411,4.26527393 C5.49379411,5.89457645 6.40543917,7.31002534 7.74492254,8.02831137 C4.89966868,8.8814317 2.78989984,11.5475229 2.86053059,14.5787548 C2.86053059,15.176234 3.66622135,15.0940847 3.66622135,14.608383 C3.66622135,11.2517658 6.38049529,8.5306298 9.72872967,8.5306298 C13.076866,8.5306298 15.7911563,11.2518477 15.7911563,14.608383 C15.7911563,15.0156389 16.4984282,14.954154 16.4984282,14.5787548 C16.5651196,11.5762989 14.5022309,8.93419865 11.7025004,8.05364606 L11.7025004,8.05362967 Z M9.67961016,7.74243576 C9.59742284,7.74243576 9.5159057,7.74581153 9.43430683,7.74882678 C7.65662184,7.59888343 6.2602383,6.10584091 6.2602383,4.28488947 C6.2602383,2.36445103 7.81311775,0.807727647 9.72872967,0.807727647 C11.6443416,0.807727647 13.2837564,2.36453297 13.2837564,4.28490586 C13.2837564,6.11439505 11.7957376,7.61282898 9.99863362,7.75076048 C9.89237294,7.74546309 9.78600188,7.74269286 9.67961016,7.74245214 L9.67961016,7.74243576 Z M5.38373698,8.23388944 C5.3892619,8.23388944 5.39468875,8.23429912 5.40014829,8.23429912 C5.89967983,8.23429912 5.91048449,7.42078678 5.38373698,7.42078678 C5.37026793,7.42078678 5.35696235,7.42003296 5.34347696,7.4198527 L5.34272505,7.40449785 C5.27260102,7.40449785 5.20329429,7.40744755 5.13408563,7.41011867 C3.64488991,7.29190104 2.40425037,6.12725904 2.40425037,4.61214289 C2.40425037,3.01296014 3.78606969,1.71666296 5.38373698,1.71666296 C5.91133448,1.71666296 5.77231237,1.04399905 5.22689781,1.04399905 C3.26702111,1.04399905 1.67831139,2.63421797 1.67831139,4.59569009 C1.67831139,5.89929598 2.45688426,7.07644145 3.55417002,7.72006716 C1.37844535,8.51853601 -0.0554357478,10.735764 0.00164423067,13.183708 C0.00164423067,13.6814217 0.7601443,13.6128738 0.7601443,13.2083709 C0.7601443,10.4133284 2.59113336,8.23428274 5.38375332,8.23428274 L5.38375332,8.23387305 L5.38373698,8.23388944 Z" id="形状"></path>
                </g>
            </g>
        </g>
    </g>
</svg>