<?xml version="1.0" encoding="UTF-8"?>
<svg width="24px" height="27px" viewBox="0 0 24 27" version="1.1" xmlns="http://www.w3.org/2000/svg" xmlns:xlink="http://www.w3.org/1999/xlink">
    <title>folder-music</title>
    <g id="页面-1" stroke="none" stroke-width="1" fill="none" fill-rule="evenodd">
        <g id="folder-music" transform="translate(0.000000, 0.814328)">
            <path d="M9.54341654,6.6576019 C14.8141,6.6576019 19.0868331,10.930335 19.0868331,16.2010184 C19.0868331,21.4717019 14.8141,25.744435 9.54341654,25.744435 C4.27273312,25.744435 0,21.4717019 0,16.2010184 C0,10.930335 4.27273312,6.6576019 9.54341654,6.6576019 Z M9.54341654,8.24817132 C5.15118036,8.24817132 1.59056942,11.8087823 1.59056942,16.2010184 C1.59056942,20.5932546 5.15118036,24.1538656 9.54341654,24.1538656 C13.9356527,24.1538656 17.4962637,20.5932546 17.4962637,16.2010184 C17.4962637,11.8087823 13.9356527,8.24817132 9.54341654,8.24817132 Z" id="形状" fill="#000000" fill-rule="nonzero"></path>
            <rect id="矩形" stroke="#000000" x="17.9962637" y="0.795324202" width="1" height="14.9056942" rx="0.5"></rect>
            <path d="M20.3525787,0.208418184 L20.8992068,6.53979637 L20.7809776,6.59400163 L20.3525787,0.208418184 Z" id="矩形备份" stroke="#000000" transform="translate(20.625893, 3.374107) rotate(-45.000000) translate(-20.625893, -3.374107) "></path>
        </g>
    </g>
</svg>