<?xml version="1.0" encoding="UTF-8"?>
<svg width="24px" height="24px" viewBox="0 0 24 24" version="1.1" xmlns="http://www.w3.org/2000/svg" xmlns:xlink="http://www.w3.org/1999/xlink">
    <title>folder-camera</title>
    <g id="页面-1" stroke="none" stroke-width="1" fill="none" fill-rule="evenodd">
        <g id="folder-camera">
            <rect id="矩形" x="0" y="0" width="24" height="24" rx="1"></rect>
            <g id="编组-18" transform="translate(4.210977, 6.000000)" fill="#000000">
                <path d="M16.1959459,0 C16.4878114,0 16.7244152,0.236603771 16.7244152,0.528469313 L16.7244152,11.0978556 C16.7244152,11.3897211 16.4878114,11.6263249 16.1959459,11.6263249 L0.870335814,11.6263249 C0.578470271,11.6263249 0.3418665,11.3897211 0.3418665,11.0978556 L0.3418665,0.528469313 C0.3418665,0.236603771 0.578470271,0 0.870335814,0 L16.1959459,0 Z M16.1959459,0.264234657 L0.870335814,0.264234657 C0.740617795,0.264234657 0.632731587,0.357707751 0.610358331,0.4809728 L0.606101157,0.528469313 L0.606101157,11.0978556 C0.606101157,11.2275736 0.699574252,11.3354598 0.8228393,11.3578331 L0.870335814,11.3620902 L16.1959459,11.3620902 C16.3256639,11.3620902 16.4335501,11.2686171 16.4559234,11.1453521 L16.4601806,11.0978556 L16.4601806,0.528469313 C16.4601806,0.398751294 16.3667075,0.290865087 16.2434424,0.268491831 L16.1959459,0.264234657 Z" id="矩形" stroke="#000000" stroke-width="0.4" fill-rule="nonzero"></path>
                <path d="M12.5208718,6.23945078 L16.6118671,11.2175983 C16.6995294,11.3242706 16.6841188,11.4818099 16.5774465,11.5694721 C16.5327168,11.6062306 16.4766157,11.6263249 16.4187199,11.6263249 L6.68349826,11.6263249 L6.68349826,11.6263249 L10.9661796,6.25120824 C11.3103353,5.8192646 11.9394881,5.74809841 12.3714318,6.0922541 C12.4262676,6.13594512 12.4763564,6.18528203 12.5208718,6.23945078 Z" id="三角形"></path>
                <path d="M5.08995087,7.72899949 L8.42216268,11.6263249 L8.42216268,11.6263249 L0.567931924,11.6263249 C0.429860737,11.6263249 0.317931924,11.5143961 0.317931924,11.3763249 C0.317931924,11.3138192 0.341346672,11.2535809 0.383560792,11.2074839 L3.59240542,7.70348728 C3.96539867,7.29618582 4.59795252,7.26837352 5.00525397,7.64136678 C5.03524168,7.66882853 5.0635265,7.69809377 5.08995087,7.72899949 Z" id="三角形备份"></path>
                <circle id="椭圆形" cx="4.04115169" cy="3.69928519" r="1.58540794"></circle>
            </g>
        </g>
    </g>
</svg>