<?xml version="1.0" encoding="UTF-8"?>
<svg width="24px" height="24px" viewBox="0 0 24 24" version="1.1" xmlns="http://www.w3.org/2000/svg" xmlns:xlink="http://www.w3.org/1999/xlink">
    <title>folder-video</title>
    <g id="页面-1" stroke="none" stroke-width="1" fill="none" fill-rule="evenodd">
        <g id="folder-video">
            <rect id="矩形" x="0" y="0" width="24" height="24" rx="1"></rect>
            <g id="编组-12" transform="translate(4.500000, 4.500000)" fill="#000000">
                <path d="M7.734375,0 C12.0059524,0 15.46875,3.46279764 15.46875,7.734375 C15.46875,12.0059524 12.0059524,15.46875 7.734375,15.46875 C3.46279764,15.46875 0,12.0059524 0,7.734375 C0,3.46279764 3.46279764,0 7.734375,0 Z M7.734375,0.2578125 C3.60518355,0.2578125 0.2578125,3.60518355 0.2578125,7.734375 C0.2578125,11.8635664 3.60518355,15.2109375 7.734375,15.2109375 C11.8635664,15.2109375 15.2109375,11.8635664 15.2109375,7.734375 C15.2109375,3.60518355 11.8635664,0.2578125 7.734375,0.2578125 Z" id="椭圆形" fill-rule="nonzero"></path>
                <path d="M7.86328125,15.2109375 L16.3710938,15.2109375 C16.4422867,15.2109375 16.5,15.2686508 16.5,15.3398437 C16.5,15.4110367 16.4422867,15.46875 16.3710938,15.46875 L7.86328125,15.46875 C7.79208829,15.46875 7.734375,15.4110367 7.734375,15.3398437 C7.734375,15.2686508 7.79208829,15.2109375 7.86328125,15.2109375 Z" id="矩形"></path>
                <path d="M7.734375,3.09375 C8.58869047,3.09375 9.28125,3.78630953 9.28125,4.640625 C9.28125,5.49494047 8.58869047,6.1875 7.734375,6.1875 C6.88005953,6.1875 6.1875,5.49494047 6.1875,4.640625 C6.1875,3.78630953 6.88005953,3.09375 7.734375,3.09375 Z M7.734375,3.3515625 C7.02244544,3.3515625 6.4453125,3.92869544 6.4453125,4.640625 C6.4453125,5.35255456 7.02244544,5.9296875 7.734375,5.9296875 C8.44630456,5.9296875 9.0234375,5.35255456 9.0234375,4.640625 C9.0234375,3.92869544 8.44630456,3.3515625 7.734375,3.3515625 Z" id="椭圆形" fill-rule="nonzero"></path>
                <path d="M4.640625,6.1875 C5.49494047,6.1875 6.1875,6.88005953 6.1875,7.734375 C6.1875,8.58869047 5.49494047,9.28125 4.640625,9.28125 C3.78630953,9.28125 3.09375,8.58869047 3.09375,7.734375 C3.09375,6.88005953 3.78630953,6.1875 4.640625,6.1875 Z M4.640625,6.4453125 C3.92869544,6.4453125 3.3515625,7.02244544 3.3515625,7.734375 C3.3515625,8.44630456 3.92869544,9.0234375 4.640625,9.0234375 C5.35255456,9.0234375 5.9296875,8.44630456 5.9296875,7.734375 C5.9296875,7.02244544 5.35255456,6.4453125 4.640625,6.4453125 Z" id="椭圆形备份-5" fill-rule="nonzero"></path>
                <path d="M10.828125,6.1875 C11.6824405,6.1875 12.375,6.88005953 12.375,7.734375 C12.375,8.58869047 11.6824405,9.28125 10.828125,9.28125 C9.97380953,9.28125 9.28125,8.58869047 9.28125,7.734375 C9.28125,6.88005953 9.97380953,6.1875 10.828125,6.1875 Z M10.828125,6.4453125 C10.1161954,6.4453125 9.5390625,7.02244544 9.5390625,7.734375 C9.5390625,8.44630456 10.1161954,9.0234375 10.828125,9.0234375 C11.5400546,9.0234375 12.1171875,8.44630456 12.1171875,7.734375 C12.1171875,7.02244544 11.5400546,6.4453125 10.828125,6.4453125 Z" id="椭圆形备份-6" fill-rule="nonzero"></path>
                <path d="M7.734375,9.28125 C8.58869047,9.28125 9.28125,9.97380953 9.28125,10.828125 C9.28125,11.6824405 8.58869047,12.375 7.734375,12.375 C6.88005953,12.375 6.1875,11.6824405 6.1875,10.828125 C6.1875,9.97380953 6.88005953,9.28125 7.734375,9.28125 Z M7.734375,9.5390625 C7.02244544,9.5390625 6.4453125,10.1161954 6.4453125,10.828125 C6.4453125,11.5400546 7.02244544,12.1171875 7.734375,12.1171875 C8.44630456,12.1171875 9.0234375,11.5400546 9.0234375,10.828125 C9.0234375,10.1161954 8.44630456,9.5390625 7.734375,9.5390625 Z" id="椭圆形备份-4" fill-rule="nonzero"></path>
            </g>
        </g>
    </g>
</svg>