<?xml version="1.0" encoding="UTF-8"?>
<svg width="24px" height="24px" viewBox="0 0 24 24" version="1.1" xmlns="http://www.w3.org/2000/svg" xmlns:xlink="http://www.w3.org/1999/xlink">
    <title>folder-public</title>
    <g id="页面-1" stroke="none" stroke-width="1" fill="none" fill-rule="evenodd">
        <g id="folder-public">
            <rect id="矩形" x="0" y="0" width="24" height="24"></rect>
            <g id="编组-8" transform="translate(2.000000, 4.000000)" fill="#000000" fill-rule="nonzero">
                <path d="M8.63076697,0 C5.9670381,0 3.80769136,2.15961729 3.80769136,4.82360055 L3.81624045,5.11214844 C3.88437041,6.25957258 4.35655024,7.32113217 5.11926258,8.12923503 L5.19115255,8.2005 L4.90709327,8.3211692 C1.98454636,9.61583458 0.000816881355,12.5395863 0,15.8652287 C0,16.215778 0.28406604,16.5 0.634615227,16.5 L15.8653807,16.5 C16.2219903,16.5 16.5085879,16.2062533 16.4998033,15.8497518 L16.4904834,15.471524 L16.4679992,15.1445883 C16.2187348,12.3292628 14.5581149,9.88548521 12.1463622,8.59368372 L11.8279586,8.43276923 L11.8693608,8.39877212 C12.8578813,7.50292059 13.4538428,6.21663539 13.4538428,4.82360055 C13.4538428,2.15961731 11.2944959,0 8.63076697,0 Z M8.63076697,1.26923077 C10.5934837,1.26923077 12.1846123,2.8605586 12.1846123,4.82360055 C12.1846123,6.19269865 11.4040335,7.42130769 10.1971668,8.01513508 C9.68085135,8.2691832 9.74205333,9.02410653 10.2925488,9.19166777 L10.578454,9.2855021 C13.0308588,10.1496759 14.8121318,12.3267957 15.1661853,14.9143141 L15.2015731,15.2307692 L1.29842275,15.2307692 L1.32451993,14.9868912 C1.68891589,12.1040659 3.81957845,9.72206094 6.67521256,9.06380443 C7.23693951,8.9343199 7.3490072,8.1834426 6.84956888,7.89558013 C5.76155302,7.26847781 5.07692181,6.10651023 5.07692181,4.82360055 C5.07692181,2.86055856 6.66805025,1.26923077 8.63076697,1.26923077 Z" id="形状结合"></path>
                <path d="M12.75796,0.0146336422 C14.927898,0.493900387 16.499734,2.46099021 16.499734,4.75470155 C16.499734,6.15457246 15.9132913,7.44755084 14.940118,8.34834901 L14.8950791,8.38714049 L14.9244189,8.40199345 C17.4551499,9.65584102 19.2133177,12.1965277 19.4684983,15.1405341 L19.4906294,15.4692608 L19.4998089,15.8498488 C19.5082598,16.2002292 19.2353775,16.4912249 18.8903092,16.499806 C18.5835818,16.5074335 18.3230643,16.2893511 18.263023,15.9947108 L18.2502061,15.8809234 L18.2415835,15.5157595 C18.098639,12.5442915 16.1347818,10.0009658 13.3851283,9.14591507 C12.8444717,8.97778884 12.7841092,8.22512377 13.2908534,7.97039164 C14.4799764,7.37263863 15.2497565,6.13481804 15.2497565,4.75470155 C15.2497565,3.05977143 14.0893726,1.60759737 12.4922799,1.25485303 C12.1549951,1.18035809 11.9410463,0.842335452 12.0144118,0.499858325 C12.0796256,0.195434213 12.349902,-0.0100390758 12.6460442,0.000378688571 L12.75796,0.0146336422 Z" id="路径"></path>
            </g>
        </g>
    </g>
</svg>