<?xml version="1.0" encoding="UTF-8"?>
<svg width="24px" height="24px" viewBox="0 0 24 24" version="1.1" xmlns="http://www.w3.org/2000/svg" xmlns:xlink="http://www.w3.org/1999/xlink">
    <title>folder-videos</title>
    <g id="页面-1" stroke="none" stroke-width="1" fill="none" fill-rule="evenodd">
        <g id="folder-videos">
            <path d="M12,0 C18.627417,0 24,5.372583 24,12 C24,18.627417 18.627417,24 12,24 C5.372583,24 0,18.627417 0,12 C0,5.372583 5.372583,0 12,0 Z M12,1.71428571 C6.31935686,1.71428571 1.71428571,6.31935686 1.71428571,12 C1.71428571,17.6806431 6.31935686,22.2857143 12,22.2857143 C17.6806431,22.2857143 22.2857143,17.6806431 22.2857143,12 C22.2857143,6.31935686 17.6806431,1.71428571 12,1.71428571 Z" id="椭圆形" fill="#000000" fill-rule="nonzero"></path>
            <rect id="矩形" stroke="#000000" x="12.5" y="22.7857143" width="11" height="1" rx="0.5"></rect>
            <path d="M12,3.42857143 C13.8935477,3.42857143 15.4285714,4.96359514 15.4285714,6.85714286 C15.4285714,8.75069057 13.8935477,10.2857143 12,10.2857143 C10.1064523,10.2857143 8.57142857,8.75069057 8.57142857,6.85714286 C8.57142857,4.96359514 10.1064523,3.42857143 12,3.42857143 Z M12,5.14285714 C11.0532261,5.14285714 10.2857143,5.910369 10.2857143,6.85714286 C10.2857143,7.80391671 11.0532261,8.57142857 12,8.57142857 C12.9467739,8.57142857 13.7142857,7.80391671 13.7142857,6.85714286 C13.7142857,5.910369 12.9467739,5.14285714 12,5.14285714 Z" id="椭圆形" fill="#000000" fill-rule="nonzero"></path>
            <path d="M17.1428571,8.57142857 C19.0364049,8.57142857 20.5714286,10.1064523 20.5714286,12 C20.5714286,13.8935477 19.0364049,15.4285714 17.1428571,15.4285714 C15.2493094,15.4285714 13.7142857,13.8935477 13.7142857,12 C13.7142857,10.1064523 15.2493094,8.57142857 17.1428571,8.57142857 Z M17.1428571,10.2857143 C16.1960833,10.2857143 15.4285714,11.0532261 15.4285714,12 C15.4285714,12.9467739 16.1960833,13.7142857 17.1428571,13.7142857 C18.089631,13.7142857 18.8571429,12.9467739 18.8571429,12 C18.8571429,11.0532261 18.089631,10.2857143 17.1428571,10.2857143 Z" id="椭圆形备份" fill="#000000" fill-rule="nonzero"></path>
            <path d="M12,13.7142857 C13.8935477,13.7142857 15.4285714,15.2493094 15.4285714,17.1428571 C15.4285714,19.0364049 13.8935477,20.5714286 12,20.5714286 C10.1064523,20.5714286 8.57142857,19.0364049 8.57142857,17.1428571 C8.57142857,15.2493094 10.1064523,13.7142857 12,13.7142857 Z M12,15.4285714 C11.0532261,15.4285714 10.2857143,16.1960833 10.2857143,17.1428571 C10.2857143,18.089631 11.0532261,18.8571429 12,18.8571429 C12.9467739,18.8571429 13.7142857,18.089631 13.7142857,17.1428571 C13.7142857,16.1960833 12.9467739,15.4285714 12,15.4285714 Z" id="椭圆形备份-2" fill="#000000" fill-rule="nonzero"></path>
            <path d="M6.85714286,8.57142857 C8.75069057,8.57142857 10.2857143,10.1064523 10.2857143,12 C10.2857143,13.8935477 8.75069057,15.4285714 6.85714286,15.4285714 C4.96359514,15.4285714 3.42857143,13.8935477 3.42857143,12 C3.42857143,10.1064523 4.96359514,8.57142857 6.85714286,8.57142857 Z M6.85714286,10.2857143 C5.910369,10.2857143 5.14285714,11.0532261 5.14285714,12 C5.14285714,12.9467739 5.910369,13.7142857 6.85714286,13.7142857 C7.80391671,13.7142857 8.57142857,12.9467739 8.57142857,12 C8.57142857,11.0532261 7.80391671,10.2857143 6.85714286,10.2857143 Z" id="椭圆形备份-3" fill="#000000" fill-rule="nonzero"></path>
        </g>
    </g>
</svg>