<?xml version="1.0" encoding="UTF-8"?>
<svg width="24px" height="24px" viewBox="0 0 24 24" version="1.1" xmlns="http://www.w3.org/2000/svg" xmlns:xlink="http://www.w3.org/1999/xlink">
    <title>folder-home</title>
    <g id="页面-1" stroke="none" stroke-width="1" fill="none" fill-rule="evenodd">
        <g id="folder-home" fill="#000000" fill-rule="nonzero">
            <path d="M11.9999841,1.40780843e-15 C11.7973987,1.40780843e-15 11.5948767,0.0769542445 11.4396368,0.232178326 L0.23284801,11.4421372 C-0.0776160035,11.7526012 -0.0776160035,12.2523521 0.23284801,12.5628161 C0.543312024,12.8732801 1.04306287,12.8732801 1.35352689,12.5628161 L2.48969172,11.4266513 L2.48969172,20.5964905 C2.48969172,22.3527274 3.90355755,23.7665933 5.65979448,23.7665933 L18.3402055,23.7665933 C20.0964425,23.7665933 21.5103083,22.3527274 21.5103083,20.5964905 L21.5103083,11.4266513 L22.6464731,12.5628161 C22.9569371,12.8732801 23.456688,12.8732801 23.767152,12.5628161 C24.077616,12.2523521 24.077616,11.7526012 23.767152,11.4421372 L12.5603632,0.232178326 C12.4051391,0.0769479043 12.2026013,1.40780843e-15 12.0000159,1.40780843e-15 L11.9999841,1.40780843e-15 Z M11.9999841,1.91632712 L19.9252411,9.84158402 L19.9252411,20.5964746 C19.9252411,21.4745931 19.2183081,22.181526 18.3401897,22.181526 L15.1700869,22.181526 L15.1700869,17.4263719 C15.1700869,15.670135 13.7562211,14.2562691 11.9999841,14.2562691 C10.2437472,14.2562691 8.82988139,15.670135 8.82988139,17.4263719 L8.82988139,22.181526 L5.65977863,22.181526 C4.78166016,22.181526 4.07472725,21.4745931 4.07472725,20.5964746 L4.07472725,9.84158402 L11.9999841,1.91632712 Z" id="形状"></path>
        </g>
    </g>
</svg>