<?xml version="1.0" encoding="UTF-8"?>
<svg width="24px" height="24px" viewBox="0 0 24 24" version="1.1" xmlns="http://www.w3.org/2000/svg" xmlns:xlink="http://www.w3.org/1999/xlink">
    <title>folder-download</title>
    <g id="页面-1" stroke="none" stroke-width="1" fill="none" fill-rule="evenodd">
        <g id="folder-download">
            <rect id="矩形" x="0" y="0" width="24" height="24"></rect>
            <g id="编组-14" transform="translate(4.500000, 4.500000)" fill="#000000">
                <path d="M8.25,0 C12.8063492,0 16.5,3.69365081 16.5,8.25 C16.5,12.8063492 12.8063492,16.5 8.25,16.5 C3.69365081,16.5 0,12.8063492 0,8.25 C0,3.69365081 3.69365081,0 8.25,0 Z M8.25,0.275 C3.84552912,0.275 0.275,3.84552912 0.275,8.25 C0.275,12.6544709 3.84552912,16.225 8.25,16.225 C12.6544709,16.225 16.225,12.6544709 16.225,8.25 C16.225,3.84552912 12.6544709,0.275 8.25,0.275 Z" id="椭圆形" fill-rule="nonzero"></path>
                <path d="M8.36720484,3.09375 C8.43193529,3.09375 8.48440969,3.1462244 8.48440969,3.21095484 L8.48440969,3.21095484 L8.48398483,13.00175 L11.4213458,10.0667997 C11.4678532,10.0202923 11.5432566,10.0202923 11.589764,10.0667997 C11.6362714,10.1133071 11.6362714,10.1887105 11.589764,10.2352179 L8.45317298,13.3718089 C8.43135028,13.3936316 8.40316532,13.4052144 8.37458885,13.4065574 C8.33740011,13.4128074 8.29775445,13.4016668 8.26903245,13.3729448 L5.49817639,10.6020887 C5.45125431,10.5551666 5.45125431,10.4790909 5.49817639,10.4321688 C5.54509848,10.3852467 5.62117422,10.3852467 5.66809631,10.4321688 L8.24998483,13.01375 L8.25,3.21095484 C8.25,3.15917049 8.28358361,3.11523 8.33015905,3.09972518 Z" id="形状结合"></path>
            </g>
        </g>
    </g>
</svg>