<?xml version="1.0" encoding="UTF-8"?>
<svg width="24px" height="24px" viewBox="0 0 24 24" version="1.1" xmlns="http://www.w3.org/2000/svg" xmlns:xlink="http://www.w3.org/1999/xlink">
    <title>folder-Documents</title>
    <g id="页面-1" stroke="none" stroke-width="1" fill="none" fill-rule="evenodd">
        <g id="folder-Documents">
            <rect id="矩形" x="0" y="0" width="24" height="24"></rect>
            <g id="编组-4" transform="translate(4.363636, 3.272727)" fill="#000000" fill-rule="nonzero">
                <path d="M7.5,0 L8.53607041,1.03125 L2.52212423,1.03125 C1.76313217,1.03125 1.13938759,1.59361379 1.06863215,2.31267103 L1.06194783,2.44923148 L1.06194783,14.0507831 C1.06194783,14.7878386 1.64104219,15.3935492 2.38149949,15.4622589 L2.52212423,15.46875 L12.4778758,15.46875 C13.2368717,15.46875 13.8606129,14.9063956 13.9313679,14.1873427 L13.9380522,14.0507831 L13.9380522,6.17730626 L15,7.21875 L15,14.0507831 C15,15.3470872 13.9629456,16.408176 12.6505559,16.4943496 L12.4778758,16.5 L2.52212423,16.5 C1.18723226,16.5 0.0945573337,15.4929238 0.00581861069,14.2184715 L0,14.0507831 L0,2.44923148 C0,1.15292586 1.03705592,0.0918250168 2.34944431,0.00565047734 L2.52212423,0 L7.5,0 Z" id="路径"></path>
                <path d="M7.5,0 L15,7.5 L9.64316331,7.5 C8.4595269,7.5 7.5,6.54061018 7.5,5.35714286 L7.5,0 Z M12.4121303,6.42857143 L8.57158165,2.5875 L8.57158165,5.35714286 C8.57158165,5.90660983 8.98525524,6.35947196 9.51819425,6.42136315 L9.64316331,6.42857143 L12.4121303,6.42857143 Z" id="形状结合"></path>
            </g>
        </g>
    </g>
</svg>