<?xml version="1.0" encoding="UTF-8"?>
<svg width="11px" height="11px" viewBox="0 0 11 11" version="1.1" xmlns="http://www.w3.org/2000/svg" xmlns:xlink="http://www.w3.org/1999/xlink">
    <title>folder-home</title>
    <g id="页面-1" stroke="none" stroke-width="1" fill="none" fill-rule="evenodd">
        <g id="folder-home" transform="translate(0.000000, 0.000000)" fill="#000000" fill-rule="nonzero">
            <path d="M5.5,0 C5.40714109,0 5.3143185,0.0356170815 5.24316686,0.107460146 L0.106722005,5.29581619 C-0.0355740016,5.43950965 -0.0355740016,5.6708116 0.106722005,5.81450507 C0.249018011,5.95819853 0.478070484,5.95819853 0.62036649,5.81450507 L1.1411087,5.28864875 L1.1411087,9.53276698 C1.1411087,10.3456141 1.78913054,11 2.59407247,11 L8.40592753,11 C9.21086946,11 9.8588913,10.3456141 9.8588913,9.53276698 L9.8588913,5.28864875 L10.3796335,5.81450507 C10.5219295,5.95819853 10.750982,5.95819853 10.893278,5.81450507 C11.035574,5.6708116 11.035574,5.43950965 10.893278,5.29581619 L5.75683314,0.107460146 C5.68568877,0.0356141471 5.59285891,0 5.5,0 L5.5,0 Z M5.49999274,0.88694236 L9.13240215,4.55502491 L9.13240215,9.53275965 C9.13240215,9.93918319 8.80839123,10.2663762 8.40592027,10.2663762 L6.9529565,10.2663762 L6.9529565,8.06552663 C6.9529565,7.25267953 6.30493466,6.59829361 5.49999274,6.59829361 C4.69505081,6.59829361 4.04702897,7.25267953 4.04702897,8.06552663 L4.04702897,10.2663762 L2.5940652,10.2663762 C2.19159424,10.2663762 1.86758332,9.93918319 1.86758332,9.53275965 L1.86758332,4.55502491 L5.49999274,0.88694236 Z" id="形状"></path>
        </g>
    </g>
</svg>