<?xml version="1.0" encoding="UTF-8"?>
<svg width="24px" height="24px" viewBox="0 0 24 24" version="1.1" xmlns="http://www.w3.org/2000/svg" xmlns:xlink="http://www.w3.org/1999/xlink">
    <title>folder-public</title>
    <g id="页面-1" stroke="none" stroke-width="1" fill="none" fill-rule="evenodd">
        <g id="folder-public">
            <rect id="矩形" x="0" y="0" width="24" height="24"></rect>
            <path d="M11.630767,3 C8.9670381,3 6.80769136,5.15961729 6.80769136,7.82360055 L6.81624045,8.11214844 C6.88437041,9.25957258 7.35655024,10.3211322 8.11926258,11.129235 L8.19115255,11.2005 L7.90709327,11.3211692 C4.98454636,12.6158346 3.00081688,15.5395863 3,18.8652287 C3,19.215778 3.28406604,19.5 3.63461523,19.5 L18.8653807,19.5 C19.2219903,19.5 19.5085879,19.2062533 19.4998033,18.8497518 L19.4904834,18.471524 L19.4679992,18.1445883 C19.2187348,15.3292628 17.5581149,12.8854852 15.1463622,11.5936837 L14.8279586,11.4327692 L14.8693608,11.3987721 C15.8578813,10.5029206 16.4538428,9.21663539 16.4538428,7.82360055 C16.4538428,5.15961731 14.2944959,3 11.630767,3 Z M11.630767,4.26923077 C13.5934837,4.26923077 15.1846123,5.8605586 15.1846123,7.82360055 C15.1846123,9.19269865 14.4040335,10.4213077 13.1971668,11.0151351 C12.6808514,11.2691832 12.7420533,12.0241065 13.2925488,12.1916678 L13.578454,12.2855021 C16.0308588,13.1496759 17.8121318,15.3267957 18.1661853,17.9143141 L18.2015731,18.2307692 L4.29842275,18.2307692 L4.32451993,17.9868912 C4.68891589,15.1040659 6.81957845,12.7220609 9.67521256,12.0638044 C10.2369395,11.9343199 10.3490072,11.1834426 9.84956888,10.8955801 C8.76155302,10.2684778 8.07692181,9.10651023 8.07692181,7.82360055 C8.07692181,5.86055856 9.66805025,4.26923077 11.630767,4.26923077 Z" id="形状结合" fill="#000000" fill-rule="nonzero"></path>
            <path d="M15.75796,3.01463364 C17.927898,3.49390039 19.499734,5.46099021 19.499734,7.75470155 C19.499734,9.15457246 18.9132913,10.4475508 17.940118,11.348349 L17.8950791,11.3871405 L17.9244189,11.4019935 C20.4551499,12.655841 22.2133177,15.1965277 22.4684983,18.1405341 L22.4906294,18.4692608 L22.4998089,18.8498488 C22.5082598,19.2002292 22.2353775,19.4912249 21.8903092,19.499806 C21.5835818,19.5074335 21.3230643,19.2893511 21.263023,18.9947108 L21.2502061,18.8809234 L21.2415835,18.5157595 C21.098639,15.5442915 19.1347818,13.0009658 16.3851283,12.1459151 C15.8444717,11.9777888 15.7841092,11.2251238 16.2908534,10.9703916 C17.4799764,10.3726386 18.2497565,9.13481804 18.2497565,7.75470155 C18.2497565,6.05977143 17.0893726,4.60759737 15.4922799,4.25485303 C15.1549951,4.18035809 14.9410463,3.84233545 15.0144118,3.49985833 C15.0796256,3.19543421 15.349902,2.98996092 15.6460442,3.00037869 L15.75796,3.01463364 Z" id="路径" fill="#000000" fill-rule="nonzero"></path>
        </g>
    </g>
</svg>