<?xml version="1.0" encoding="UTF-8"?>
<svg width="24px" height="24px" viewBox="0 0 24 24" version="1.1" xmlns="http://www.w3.org/2000/svg" xmlns:xlink="http://www.w3.org/1999/xlink">
    <title>user-trash-full</title>
    <g id="页面-1" stroke="none" stroke-width="1" fill="none" fill-rule="evenodd">
        <g id="user-trash-full">
            <rect id="矩形" x="0" y="0" width="24" height="24"></rect>
            <g id="changyong_lajitong" transform="translate(4.000000, 3.000000)" fill="#000000" fill-rule="nonzero">
                <path d="M14.3360656,3.45 C14.7012295,3.45 15,3.73928571 15,4.09285714 L15,15.6642857 C15,17.1964286 13.7053279,18.45 12.1229508,18.45 L4.37704918,18.45 C2.79467213,18.45 1.5,17.1964286 1.5,15.6642857 L1.5,4.09285714 C1.5,3.73928571 1.79877049,3.45 2.16393443,3.45 L14.3360656,3.45 Z M14.1,4.35 L2.4,4.35 L2.4,15.6642857 C2.4,16.6284796 3.17813711,17.442176 4.17493903,17.5401217 L4.37704918,17.55 L12.1229508,17.55 C13.1464215,17.55 13.9885255,16.7965657 14.0897906,15.8549504 L14.1,15.6642857 L14.1,4.35 Z" id="路径"></path>
                <path d="M7.73981481,8.18529412 C8.44208539,7.62946217 8.59292957,7.67908414 8.69698025,7.78424766 C8.79881454,7.88717109 8.86203704,8.02913033 8.86203704,8.18529412 L8.86203704,8.18529412 L8.86203704,13.3323529 C8.86203704,13.4885167 8.79881454,13.630476 8.69698025,13.7333994 C8.59533799,13.8361287 8.45517166,13.9 8.30092593,13.9 C8.14668019,13.9 8.00651386,13.8361287 7.9048716,13.7333994 C7.80303731,13.630476 7.73981481,13.4885167 7.73981481,13.3323529 L7.73981481,13.3323529 Z M5.04074074,8.18529412 C5.74301132,7.62946217 5.89385549,7.67908414 5.99790618,7.78424766 C6.09974047,7.88717109 6.16296296,8.02913033 6.16296296,8.18529412 L6.16296296,8.18529412 L6.16296296,13.3323529 C6.16296296,13.4885167 6.09974047,13.630476 5.99790618,13.7333994 C5.89626392,13.8361287 5.75609759,13.9 5.60185185,13.9 C5.44760612,13.9 5.30743979,13.8361287 5.20579753,13.7333994 C5.10396324,13.630476 5.04074074,13.4885167 5.04074074,13.3323529 L5.04074074,13.3323529 Z M10.4388889,8.18529412 C11.1411595,7.62946217 11.2920036,7.67908414 11.3960543,7.78424766 C11.4978886,7.88717109 11.5611111,8.02913033 11.5611111,8.18529412 L11.5611111,8.18529412 L11.5611111,13.3323529 C11.5611111,13.4885167 11.4978886,13.630476 11.3960543,13.7333994 C11.2944121,13.8361287 11.1542457,13.9 11,13.9 C10.8457543,13.9 10.7055879,13.8361287 10.6039457,13.7333994 C10.5021114,13.630476 10.4388889,13.4885167 10.4388889,13.3323529 L10.4388889,13.3323529 Z" id="形状" stroke="#FFFFFF" stroke-width="0.1"></path>
                <path d="M15.8888889,4.68529412 L0.611111111,4.68529412 C0.275,4.68529412 0,4.40735294 0,4.06764706 C0,3.72794118 0.275,3.45 0.611111111,3.45 L15.8888889,3.45 C16.225,3.45 16.5,3.72794118 16.5,4.06764706 C16.5,4.40735294 16.225,4.68529412 15.8888889,4.68529412 Z" id="路径"></path>
                <path d="M11.25,0 L5.25,0 C4.5872583,0 4.05,0.5372583 4.05,1.2 L4.05,4.51764706 L12.45,4.51764706 L12.45,1.2 C12.45,0.5372583 11.9127417,0 11.25,0 Z M11.25,0.9 L11.3297519,0.91071629 C11.456726,0.945642938 11.55,1.06192881 11.55,1.2 L11.55,3.6165 L4.95,3.6165 L4.95,1.2 C4.95,1.03431458 5.08431458,0.9 5.25,0.9 L11.25,0.9 Z" id="矩形"></path>
            </g>
        </g>
    </g>
</svg>