<?xml version="1.0" encoding="UTF-8"?>
<svg width="24px" height="24px" viewBox="0 0 24 24" version="1.1" xmlns="http://www.w3.org/2000/svg" xmlns:xlink="http://www.w3.org/1999/xlink">
    <title>user-trash-full</title>
    <g id="页面-1" stroke="none" stroke-width="1" fill="none" fill-rule="evenodd">
        <g id="user-trash-full">
            <rect id="矩形" x="0" y="0" width="24" height="24"></rect>
            <path d="M9.4500132,5.53121777 L9.4500132,7.2852284 L4.99500132,7.2852284 C4.72077059,7.2852284 4.5,7.2323167 4.5,7.43147898 C4.5,7.63064126 4.72077059,7.59365332 4.99500132,7.59365332 L5.48807213,7.59365332 L6.02948478,18.9999531 C6.09007294,20.0471548 6.92657567,21 8.00751005,21 L15.8424899,21 C16.9234738,21 17.7599271,20.0472476 17.8205152,18.9999531 L18.3619279,7.59365332 L18.8549987,7.59365332 C19.1292294,7.59365332 19.35,7.60176848 19.35,7.43147898 C19.35,7.26118947 19.1292294,7.2852284 18.8549987,7.2852284 L14.3999868,7.2852284 L14.3999868,5.53121777 C14.3999868,4.95992313 13.9584456,4.5 13.4099842,4.5 L10.4399762,4.5 C9.89155438,4.5 9.4500132,4.95992313 9.4500132,5.53121777 Z M9.91273258,4.94809464 C10.0058255,4.8718394 10.1249574,4.75338981 10.4170814,4.72884754 C10.8853934,4.72884754 12.6325902,4.70086521 13.4996326,4.72884754 C13.7082002,4.73557871 13.9093941,4.82445609 13.9934586,4.94809464 C14.0882205,5.08746672 14.1483155,5.25191798 14.1483155,5.48376796 C14.1483155,5.76629225 14.1483155,6.36687592 14.1483155,7.28551898 L9.67793906,7.28551898 C9.66703558,6.70980508 9.66703558,6.1175787 9.67793906,5.50883985 C9.67793906,5.29716787 9.76289178,5.07083384 9.91273258,4.94809464 Z M6.70004,7.54907551 L18.1028236,7.54907551 L17.5598556,19.0651243 C17.5598556,19.8609211 16.7761708,20.7697647 15.9170953,20.7697647 C15.3443783,20.7697647 12.6559682,20.7697647 7.85186506,20.7697647 C7.15446901,20.7697647 6.34338416,19.9527125 6.30074573,19.2393723 L5.7577777,7.54907551 L6.70004,7.54907551 Z M8.9,9.45 C8.5953,9.45 9.20946732,9.67996875 9.20946732,9.965625 L9.20946732,17.184375 C9.20946732,17.4700313 8.5953,17.7 8.9,17.7 C9.2047,17.7 9.45,17.4700312 9.45,17.184375 L9.45,9.965625 C9.45,9.67996875 9.2047,9.45 8.9,9.45 Z M12.2,9.45 C11.8953,9.45 12.4666842,9.67996875 12.4666842,9.965625 L12.4666842,17.184375 C12.4666842,17.4700313 11.8953,17.7 12.2,17.7 C12.5047,17.7 12.75,17.4700312 12.75,17.184375 L12.75,9.965625 C12.75,9.67996875 12.5047,9.45 12.2,9.45 Z M14.95,9.45 C14.6453,9.45 15.2499441,9.67996875 15.2499441,9.965625 L15.2499441,17.184375 C15.2499441,17.4700312 14.6453,17.7 14.95,17.7 C15.2547,17.7 15.5,17.4700312 15.5,17.184375 L15.5,9.965625 C15.5,9.67996875 15.2547,9.45 14.95,9.45 Z" id="形状" fill="#000000" fill-rule="nonzero"></path>
        </g>
    </g>
</svg>