<?xml version="1.0" encoding="UTF-8"?>
<svg width="24px" height="26px" viewBox="0 0 24 26" version="1.1" xmlns="http://www.w3.org/2000/svg" xmlns:xlink="http://www.w3.org/1999/xlink">
    <title>user-trash</title>
    <g id="页面-1" stroke="none" stroke-width="1" fill="none" fill-rule="evenodd">
        <g id="user-trash" fill="#000000" fill-rule="nonzero">
            <path d="M9.6000256,-7.10544631e-16 C8.71362324,-7.10544631e-16 8.00002133,0.713601903 8.00002133,1.60000427 L8.00002133,3.20000853 L0.800002133,3.20000853 C0.356800951,3.20000853 0,3.55680948 0,4.00001067 C0,4.44321185 0.356800951,4.8000128 0.800002133,4.8000128 L1.59688426,4.8000128 L2.47189459,22.49766 C2.56981485,24.1224643 3.92173846,25.6008683 5.66870312,25.6008683 L18.3312969,25.6008683 C20.0783415,25.6008683 21.4301851,24.1226083 21.5281054,22.49766 L22.4031157,4.8000128 L23.1999979,4.8000128 C23.643199,4.8000128 24,4.44321185 24,4.00001067 C24,3.55680948 23.643199,3.20000853 23.1999979,3.20000853 L15.9999787,3.20000853 L15.9999787,1.60000427 C15.9999787,0.713601903 15.2863768,-7.10544631e-16 14.3999744,-7.10544631e-16 L9.5999616,-7.10544631e-16 L9.6000256,-7.10544631e-16 Z M9.6000256,1.60000427 L14.4000384,1.60000427 L14.4000384,3.20000853 L9.6000256,3.20000853 L9.6000256,1.60000427 Z M3.19994453,4.8000128 L20.8000555,4.8000128 L19.9313012,22.4000597 C19.877973,23.2848621 19.2176992,24.000064 18.3312969,24.000064 L5.66870312,24.000064 C4.78230075,24.000064 4.12202699,23.2848621 4.06869885,22.4000597 L3.19994453,4.8000128 L3.19994453,4.8000128 Z M7.2000192,8.00002133 C6.75681802,8.00002133 6.40001707,8.35682228 6.40001707,8.80002347 L6.40001707,20.0000533 C6.40001707,20.4432545 6.75681802,20.8000555 7.2000192,20.8000555 C7.64322038,20.8000555 8.00002133,20.4432545 8.00002133,20.0000533 L8.00002133,8.80002347 C8.00002133,8.35682228 7.64322038,8.00002133 7.2000192,8.00002133 Z M12.000032,8.00002133 C11.5568308,8.00002133 11.2000299,8.35682228 11.2000299,8.80002347 L11.2000299,20.0000533 C11.2000299,20.4432545 11.5568308,20.8000555 12.000032,20.8000555 C12.4432332,20.8000555 12.8000341,20.4432545 12.8000341,20.0000533 L12.8000341,8.80002347 C12.8000341,8.35682228 12.4432332,8.00002133 12.000032,8.00002133 Z M16.8000448,8.00002133 C16.3568436,8.00002133 16.0000427,8.35682228 16.0000427,8.80002347 L16.0000427,20.0000533 C16.0000427,20.4432545 16.3568436,20.8000555 16.8000448,20.8000555 C17.243246,20.8000555 17.6000469,20.4432545 17.6000469,20.0000533 L17.6000469,8.80002347 C17.6000469,8.35682228 17.243246,8.00002133 16.8000448,8.00002133 Z" id="形状"></path>
        </g>
    </g>
</svg>