<?xml version="1.0" encoding="UTF-8"?>
<svg width="24px" height="24px" viewBox="0 0 24 24" version="1.1" xmlns="http://www.w3.org/2000/svg" xmlns:xlink="http://www.w3.org/1999/xlink">
    <title>user-trash</title>
    <g id="页面-1" stroke="none" stroke-width="1" fill="none" fill-rule="evenodd">
        <g id="user-trash">
            <path d="M10.500016,4.5 C9.94601452,4.5 9.50001333,4.95992313 9.50001333,5.53121777 L9.50001333,6.56243555 L5,6.56243555 C4.72300059,6.56243555 4.5,6.79239711 4.5,7.07804444 C4.5,7.36369176 4.72300059,7.59365332 5,7.59365332 L5.49805266,7.59365332 L6.04493412,18.9999531 C6.10613428,20.0471548 6.95108654,21 8.04293945,21 L15.9570606,21 C17.0489635,21 17.8938657,20.0472476 17.9550659,18.9999531 L18.5019473,7.59365332 L19,7.59365332 C19.2769994,7.59365332 19.5,7.36369176 19.5,7.07804444 C19.5,6.79239711 19.2769994,6.56243555 19,6.56243555 L14.4999867,6.56243555 L14.4999867,5.53121777 C14.4999867,4.95992313 14.0539855,4.5 13.499984,4.5 L10.499976,4.5 L10.500016,4.5 Z M10.500016,5.53121777 L13.500016,5.53121777 L13.500016,6.56243555 L10.500016,6.56243555 L10.500016,5.53121777 Z M6.49996533,7.59365332 L17.5000347,7.59365332 L16.9570632,18.9370488 C16.9237331,19.5073123 16.511062,19.9682666 15.9570606,19.9682666 L8.04293945,19.9682666 C7.48893797,19.9682666 7.07626687,19.5073123 7.04293678,18.9370488 L6.49996533,7.59365332 L6.49996533,7.59365332 Z M9.00001067,9.65608887 C8.72301126,9.65608887 8.50001067,9.88605044 8.50001067,10.1716978 L8.50001067,17.3902222 C8.50001067,17.6758695 8.72301126,17.9058311 9.00001067,17.9058311 C9.27701274,17.9058311 9.50001067,17.6758695 9.50001067,17.3902222 L9.50001067,10.1716978 C9.50001067,9.88605044 9.27701274,9.65608887 9.00001067,9.65608887 Z M12.0000187,9.65608887 C11.7230193,9.65608887 11.5000187,9.88605044 11.5000187,10.1716978 L11.5000187,17.3902222 C11.5000187,17.6758695 11.7230193,17.9058311 12.0000187,17.9058311 C12.2770207,17.9058311 12.5000187,17.6758695 12.5000187,17.3902222 L12.5000187,10.1716978 C12.5000187,9.88605044 12.2770207,9.65608887 12.0000187,9.65608887 Z M15.0000267,9.65608887 C14.7230273,9.65608887 14.5000267,9.88605044 14.5000267,10.1716978 L14.5000267,17.3902222 C14.5000267,17.6758695 14.7230273,17.9058311 15.0000267,17.9058311 C15.2770287,17.9058311 15.5000267,17.6758695 15.5000267,17.3902222 L15.5000267,10.1716978 C15.5000267,9.88605044 15.2770287,9.65608887 15.0000267,9.65608887 Z" id="形状" fill="#000000" fill-rule="nonzero"></path>
            <rect id="矩形" x="0" y="0" width="24" height="24"></rect>
        </g>
    </g>
</svg>