<?xml version="1.0" encoding="UTF-8"?>
<svg width="16px" height="16px" viewBox="0 0 16 16" version="1.1" xmlns="http://www.w3.org/2000/svg" xmlns:xlink="http://www.w3.org/1999/xlink">
    <title>desktop</title>
    <g id="页面-1" stroke="none" stroke-width="1" fill="none" fill-rule="evenodd">
        <g id="desktop">
            <rect id="矩形" x="0" y="0" width="16" height="16"></rect>
            <g id="编组-11" transform="translate(3.000000, 4.000000)" fill="#000000">
                <path d="M10.0294118,0 C10.5654528,0 11,0.434547155 11,0.970588235 L11,6.79411765 C11,7.33015873 10.5654528,7.76470588 10.0294118,7.76470588 L0.970588235,7.76470588 C0.434547155,7.76470588 0,7.33015873 0,6.79411765 L0,0.970588235 C0,0.434547155 0.434547155,0 0.970588235,0 L10.0294118,0 Z M10.0294118,0.161764706 L0.970588235,0.161764706 C0.541755371,0.161764706 0.190869841,0.495496921 0.163485132,0.917407866 L0.161764706,0.970588235 L0.161764706,6.79411765 C0.161764706,7.22295051 0.495496921,7.57383604 0.917407866,7.60122075 L0.970588235,7.60294118 L10.0294118,7.60294118 C10.4582446,7.60294118 10.8091302,7.26920896 10.8365149,6.84729802 L10.8382353,6.79411765 L10.8382353,0.970588235 C10.8382353,0.541755371 10.5045031,0.190869841 10.0825921,0.163485132 L10.0294118,0.161764706 Z" id="矩形" stroke="#000000" stroke-width="0.4" fill-rule="nonzero"></path>
                <path d="M0.0808823529,1.77941176 L10.9191176,1.77941176 C10.9637877,1.77941176 11,1.81562403 11,1.86029412 C11,1.90496421 10.9637877,1.94117647 10.9191176,1.94117647 L0.0808823529,1.94117647 C0.0362122629,1.94117647 5.47050828e-18,1.90496421 0,1.86029412 C-5.47050828e-18,1.81562403 0.0362122629,1.77941176 0.0808823529,1.77941176 Z" id="矩形" stroke="#000000" stroke-width="0.4"></path>
                <rect id="矩形" x="1.29411765" y="5.82352941" width="8.08823529" height="1" rx="0.5"></rect>
            </g>
        </g>
    </g>
</svg>