<?xml version="1.0" encoding="UTF-8"?>
<svg width="16px" height="16px" viewBox="0 0 16 16" version="1.1" xmlns="http://www.w3.org/2000/svg" xmlns:xlink="http://www.w3.org/1999/xlink">
    <title>desktop</title>
    <g id="页面-1" stroke="none" stroke-width="1" fill="none" fill-rule="evenodd">
        <g id="desktop">
            <path d="M2.75,3 C1.7805,3 1,3.75476923 1,4.69230769 L1,12.3076923 C1,13.2452308 1.7805,14 2.75,14 L13.25,14 C14.2195,14 15,13.2452308 15,12.3076923 L15,4.69230769 C15,3.75476923 14.2195,3 13.25,3 L2.75,3 Z M2.75,3.84615385 L13.25,3.84615385 C13.73475,3.84615385 14.125,4.22353846 14.125,4.69230769 L1.875,4.69230769 C1.875,4.22353846 2.26525,3.84615385 2.75,3.84615385 Z M1.875,5.53846154 L14.125,5.53846154 L14.125,12.3076923 C14.125,12.7764615 13.73475,13.1538462 13.25,13.1538462 L2.75,13.1538462 C2.26525,13.1538462 1.875,12.7764615 1.875,12.3076923 L1.875,5.53846154 Z M4.5,10.6153846 C4.01525,10.6153846 3.625,10.9927692 3.625,11.4615385 C3.625,11.9303077 4.01525,12.3076923 4.5,12.3076923 L11.5,12.3076923 C11.98475,12.3076923 12.375,11.9303077 12.375,11.4615385 C12.375,10.9927692 11.98475,10.6153846 11.5,10.6153846 L4.5,10.6153846 Z" id="形状" fill="#000000" fill-rule="nonzero"></path>
            <rect id="矩形" x="0" y="0" width="16" height="16"></rect>
        </g>
    </g>
</svg>