<?xml version="1.0" encoding="UTF-8"?>
<svg width="16px" height="13px" viewBox="0 0 16 13" version="1.1" xmlns="http://www.w3.org/2000/svg" xmlns:xlink="http://www.w3.org/1999/xlink">
    <title>desktop</title>
    <g id="页面-1" stroke="none" stroke-width="1" fill="none" fill-rule="evenodd">
        <g id="desktop" fill="#000000" fill-rule="nonzero">
            <path d="M2,0 C0.892,0 0,0.892 0,2 L0,11 C0,12.108 0.892,13 2,13 L14,13 C15.108,13 16,12.108 16,11 L16,2 C16,0.892 15.108,0 14,0 L2,0 Z M2,1 L14,1 C14.554,1 15,1.446 15,2 L1,2 C1,1.446 1.446,1 2,1 Z M1,3 L15,3 L15,11 C15,11.554 14.554,12 14,12 L2,12 C1.446,12 1,11.554 1,11 L1,3 Z M4,9 C3.446,9 3,9.446 3,10 C3,10.554 3.446,11 4,11 L12,11 C12.554,11 13,10.554 13,10 C13,9.446 12.554,9 12,9 L4,9 Z" id="形状"></path>
        </g>
    </g>
</svg>