<?xml version="1.0" encoding="UTF-8"?>
<svg width="17px" height="15px" viewBox="0 0 17 15" version="1.1" xmlns="http://www.w3.org/2000/svg" xmlns:xlink="http://www.w3.org/1999/xlink">
    <title>folder-public</title>
    <g id="页面-1" stroke="none" stroke-width="1" fill="none" fill-rule="evenodd">
        <g id="folder-public" transform="translate(1.000000, 1.000000)" fill="#000000" fill-rule="nonzero">
            <path d="M6.29999991,0.5 C4.20130392,0.5 2.5,2.20151665 2.5,4.30041255 L2.50673565,4.52775332 C2.56041381,5.43178445 2.93243437,6.26816474 3.5333594,6.90485184 L3.59,6.961 L3.36619566,7.0560727 C1.06358237,8.07611209 -0.499356397,10.379674 -0.5,12.9998772 C-0.5,13.2760675 -0.276190337,13.5 -3.30480199e-10,13.5 L12,13.5 C12.2809652,13.5 12.5067694,13.2685632 12.4998483,12.9876833 L12.4925053,12.6896856 L12.4747905,12.4320999 C12.2784003,10.2139646 10.9700328,8.2885641 9.06986349,7.27078111 L8.819,7.144 L8.85161989,7.1172144 C9.63045447,6.41139198 10.1,5.39795515 10.1,4.30041255 C10.1,2.20151667 8.39869593,0.5 6.29999991,0.5 Z M6.29999991,1.5 C7.8463832,1.5 9.09999996,2.75377344 9.09999996,4.30041255 C9.09999996,5.37909591 8.48499831,6.34709091 7.53413338,6.81495491 C7.12733933,7.01511404 7.17555908,7.60990211 7.60928288,7.74192006 L7.83454156,7.81585014 C9.76673981,8.49671437 11.1701673,10.2120209 11.4491187,12.2506718 L11.477,12.5 L0.523,12.5 L0.543561417,12.3078537 C0.830661338,10.0365368 2.50936559,8.15980559 4.75925969,7.64117925 C5.20183255,7.53916114 5.29012833,6.94756084 4.89663137,6.72076011 C4.03940654,6.22667949 3.5,5.31118988 3.5,4.30041255 C3.5,2.75377341 4.75361666,1.5 6.29999991,1.5 Z" id="形状结合"></path>
            <path d="M10.1062739,-0.488575331 C11.8422556,-0.110968092 13.099747,1.43887313 13.099747,3.24605464 C13.099747,4.3489924 12.6305844,5.3677111 11.8520318,6.07743676 L11.816,6.108 L11.8394723,6.11970243 C13.8640935,7.10759054 15.270653,9.10936029 15.4748012,11.4288998 L15.4925064,11.6878987 L15.4998501,11.9877584 C15.506611,12.263818 15.2883012,12.4930893 15.0122416,12.4998501 C14.7668553,12.5058598 14.5584375,12.3340358 14.5104036,12.1018931 L14.5001499,12.0122416 L14.4932517,11.7245344 C14.378894,9.38335834 12.80778,7.37950929 10.6080176,6.70582736 C10.1754845,6.57336318 10.1271937,5.9803494 10.5325963,5.7796497 C11.4839118,5.30868887 12.099747,4.33342818 12.099747,3.24605464 C12.099747,1.91064406 11.1714232,0.766497426 9.89372608,0.488575331 C9.62389338,0.429881865 9.4527312,0.163558784 9.51142467,-0.10627392 C9.56359664,-0.346125213 9.77982164,-0.508014603 10.0167397,-0.4998066 L10.1062739,-0.488575331 Z" id="路径"></path>
        </g>
    </g>
</svg>