<?xml version="1.0" encoding="UTF-8"?>
<svg width="16px" height="16px" viewBox="0 0 16 16" version="1.1" xmlns="http://www.w3.org/2000/svg" xmlns:xlink="http://www.w3.org/1999/xlink">
    <title>folder-public</title>
    <g id="页面-1" stroke="none" stroke-width="1" fill="none" fill-rule="evenodd">
        <g id="folder-public">
            <rect id="矩形" x="0" y="0" width="16" height="16"></rect>
            <g id="编组-9" transform="translate(3.000000, 3.000000)" fill="#000000" fill-rule="nonzero">
                <path d="M5.09558823,0 C6.56970118,0 7.76470588,1.19500467 7.76470588,2.66911768 C7.76470588,3.72017824 7.15718167,4.62934395 6.27413272,5.06461541 C8.23655607,5.66449581 9.67036343,7.47502894 9.70523215,9.62563008 L9.70588235,9.70588235 L0,9.70588235 C0,7.40324427 1.60369627,5.47516957 3.75510696,4.97764003 C2.96057549,4.51538265 2.42647059,3.65462361 2.42647059,2.66911768 C2.42647059,1.19500467 3.62147527,0 5.09558823,0 Z M5.09558823,0.161764706 C3.71081544,0.161764706 2.58823529,1.28434486 2.58823529,2.66911768 C2.58823529,3.57244711 3.06979458,4.39177555 3.83645535,4.83781779 C3.9631386,4.91152194 3.93434951,5.10222283 3.79155433,5.13524526 C1.75067911,5.60721266 0.262053864,7.38863375 0.166632993,9.49101313 L0.164676471,9.54411765 L9.54088235,9.54411765 L9.54052735,9.52084512 C9.46402076,7.5564952 8.16974822,5.86030852 6.32785021,5.25144148 L6.22684398,5.21931381 C6.08671553,5.17647886 6.07118259,4.98430428 6.20261247,4.91952001 C7.05297317,4.50036121 7.60294118,3.63411964 7.60294118,2.66911768 C7.60294118,1.28434486 6.48036102,0.161764706 5.09558823,0.161764706 Z" id="形状结合"></path>
                <path d="M6.38970587,-0.0808823529 C7.90848893,-0.0808823529 9.13970588,1.15033459 9.13970588,2.66911768 C9.13970588,3.63120077 8.64117557,4.50388615 7.8499524,4.99993484 L7.77214706,5.04641176 L7.79962953,5.05583849 C9.68348881,5.72440489 10.9988961,7.4827182 11.0771898,9.51391645 L11.0802295,9.6249748 L11.0808824,9.70522707 C11.0812416,9.74989569 11.0453239,9.78640015 11.0006553,9.78676476 C10.9623679,9.78707225 10.9300787,9.76072806 10.9214066,9.7250653 L10.9191203,9.70653764 L10.9184781,9.62694129 C10.8847393,7.54603233 9.50722214,5.74190394 7.544606,5.14196461 C7.47454177,5.12054713 7.4667753,5.02445984 7.53249024,4.99206771 C8.41022195,4.55941722 8.97794118,3.66521612 8.97794118,2.66911768 C8.97794118,1.23967477 7.81914875,0.0808823529 6.38970587,0.0808823529 C6.34503578,0.0808823529 6.30882352,0.0446700901 6.30882352,-1.38777878e-17 C6.30882352,-0.0446700901 6.34503578,-0.0808823529 6.38970587,-0.0808823529 Z" id="路径"></path>
            </g>
        </g>
    </g>
</svg>