<?xml version="1.0" encoding="UTF-8"?>
<svg width="11px" height="11px" viewBox="0 0 11 11" version="1.1" xmlns="http://www.w3.org/2000/svg" xmlns:xlink="http://www.w3.org/1999/xlink">
    <title>folder-html</title>
    <g id="页面-1" stroke="none" stroke-width="1" fill="none" fill-rule="evenodd">
        <g id="folder-html" transform="translate(5.500000, 5.500000) rotate(-360.000000) translate(-5.500000, -5.500000) ">
            <path d="M5.5,0 C8.53756612,0 11,2.46243388 11,5.5 C11,8.53756612 8.53756612,11 5.5,11 C2.46243388,11 0,8.53756612 0,5.5 C0,2.46243388 2.46243388,0 5.5,0 Z M5.5,0.6875 C2.84212964,0.6875 0.6875,2.84212964 0.6875,5.5 C0.6875,8.15787036 2.84212964,10.3125 5.5,10.3125 C8.15787036,10.3125 10.3125,8.15787036 10.3125,5.5 C10.3125,2.84212964 8.15787036,0.6875 5.5,0.6875 Z" id="椭圆形" fill="#000000" fill-rule="nonzero"></path>
            <path d="M4.50040314,0 C7.06263546,0.491491311 9,2.76705235 9,5.5 C9,8.23294765 7.06263546,10.5085087 4.50040314,11 C1.93771502,10.5089203 0,8.23319484 0,5.5 C0,2.81649062 1.86790574,0.573969532 4.36116784,0.0284164216 L4.50040314,0 Z M4.49930769,0.714131946 L4.33877574,0.752525242 C2.21541197,1.29826307 0.692307692,3.24236828 0.692307692,5.5 C0.692307692,7.80408817 2.27788323,9.77669097 4.46031274,10.2769011 L4.50069231,10.2851683 L4.54034175,10.2768979 C6.66649107,9.78917758 8.22600503,7.90402247 8.30458224,5.67654542 L8.30769231,5.5 C8.30769231,3.19616398 6.72244237,1.22365716 4.54034175,0.723102101 L4.49930769,0.714131946 Z" id="形状结合" fill="#000000" fill-rule="nonzero"></path>
            <path d="M6.50040314,0 C9.06263546,0.491491311 11,2.76705235 11,5.5 C11,8.23294765 9.06263546,10.5085087 6.50040314,11 C3.93771502,10.5089203 2,8.23319484 2,5.5 C2,2.81649062 3.86790574,0.573969532 6.36116784,0.0284164216 L6.50040314,0 Z M6.49930769,0.714131946 L6.33877574,0.752525242 C4.21541197,1.29826307 2.69230769,3.24236828 2.69230769,5.5 C2.69230769,7.80408817 4.27788323,9.77669097 6.46031274,10.2769011 L6.50069231,10.2851683 L6.54034175,10.2768979 C8.66649107,9.78917758 10.226005,7.90402247 10.3045822,5.67654542 L10.3076923,5.5 C10.3076923,3.19616398 8.72244237,1.22365716 6.54034175,0.723102101 L6.49930769,0.714131946 Z" id="形状结合" fill="#000000" fill-rule="nonzero"></path>
            <rect id="矩形" stroke="#000000" x="0.5" y="5.5" width="10" height="1" rx="0.5"></rect>
        </g>
    </g>
</svg>