<?xml version="1.0" encoding="UTF-8"?>
<svg width="16px" height="15px" viewBox="0 0 16 15" version="1.1" xmlns="http://www.w3.org/2000/svg" xmlns:xlink="http://www.w3.org/1999/xlink">
    <title>folder-home</title>
    <g id="页面-1" stroke="none" stroke-width="1" fill="none" fill-rule="evenodd">
        <g id="folder-home" fill="#000000" fill-rule="nonzero">
            <path d="M7.5707225,8.8817842e-16 C7.4429125,8.8817842e-16 7.3151425,0.04855 7.2172025,0.14648 L0.1469025,7.21878 C-0.0489675,7.41465 -0.0489675,7.72994 0.1469025,7.92581 C0.3427725,8.12168 0.6580625,8.12168 0.8539325,7.92581 L1.5707325,7.20901 L1.5707325,12.99421 C1.5707325,14.10221 2.4627325,14.99421 3.5707325,14.99421 L11.5707325,14.99421 C12.6787325,14.99421 13.5707325,14.10221 13.5707325,12.99421 L13.5707325,7.20901 L14.2875325,7.92581 C14.4834025,8.12168 14.7986925,8.12168 14.9945625,7.92581 C15.1904325,7.72994 15.1904325,7.41465 14.9945625,7.21878 L7.9242625,0.14648 C7.8263325,0.048546 7.6985525,8.8817842e-16 7.5707425,8.8817842e-16 L7.5707225,8.8817842e-16 Z M7.5707225,1.209 L12.5707225,6.209 L12.5707225,12.9942 C12.5707225,13.5482 12.1247225,13.9942 11.5707225,13.9942 L9.5707225,13.9942 L9.5707225,10.9942 C9.5707225,9.8862 8.6787225,8.9942 7.5707225,8.9942 C6.4627225,8.9942 5.5707225,9.8862 5.5707225,10.9942 L5.5707225,13.9942 L3.5707225,13.9942 C3.0167225,13.9942 2.5707225,13.5482 2.5707225,12.9942 L2.5707225,6.209 L7.5707225,1.209 Z" id="形状"></path>
        </g>
    </g>
</svg>