<?xml version="1.0" encoding="UTF-8"?>
<svg width="16px" height="16px" viewBox="0 0 16 16" version="1.1" xmlns="http://www.w3.org/2000/svg" xmlns:xlink="http://www.w3.org/1999/xlink">
    <title>folder-home</title>
    <g id="页面-1" stroke="none" stroke-width="1" fill="none" fill-rule="evenodd">
        <g id="folder-home">
            <rect id="矩形" x="0" y="0" width="16" height="16"></rect>
            <path d="M7.5,3 C7.40714109,3 7.3143185,3.03561708 7.24316686,3.10746015 L2.106722,8.29581619 C1.964426,8.43950965 1.964426,8.6708116 2.106722,8.81450507 C2.24901801,8.95819853 2.47807048,8.95819853 2.62036649,8.81450507 L3.1411087,8.28864875 L3.1411087,12.532767 C3.1411087,13.3456141 3.78913054,14 4.59407247,14 L10.4059275,14 C11.2108695,14 11.8588913,13.3456141 11.8588913,12.532767 L11.8588913,8.28864875 L12.3796335,8.81450507 C12.5219295,8.95819853 12.750982,8.95819853 12.893278,8.81450507 C13.035574,8.6708116 13.035574,8.43950965 12.893278,8.29581619 L7.75683314,3.10746015 C7.68568877,3.03561415 7.59285891,3 7.5,3 L7.5,3 Z M7.49999274,3.88694236 L11.1324021,7.55502491 L11.1324021,12.5327596 C11.1324021,12.9391832 10.8083912,13.2663762 10.4059203,13.2663762 L8.9529565,13.2663762 L8.9529565,11.0655266 C8.9529565,10.2526795 8.30493466,9.59829361 7.49999274,9.59829361 C6.69505081,9.59829361 6.04702897,10.2526795 6.04702897,11.0655266 L6.04702897,13.2663762 L4.5940652,13.2663762 C4.19159424,13.2663762 3.86758332,12.9391832 3.86758332,12.5327596 L3.86758332,7.55502491 L7.49999274,3.88694236 Z" id="形状" fill="#000000" fill-rule="nonzero"></path>
        </g>
    </g>
</svg>