<?xml version="1.0" encoding="UTF-8"?>
<svg width="16px" height="16px" viewBox="0 0 16 16" version="1.1" xmlns="http://www.w3.org/2000/svg" xmlns:xlink="http://www.w3.org/1999/xlink">
    <title>folder-Documents</title>
    <g id="页面-1" stroke="none" stroke-width="1" fill="none" fill-rule="evenodd">
        <g id="folder-Documents">
            <rect id="矩形" x="0" y="0" width="16" height="16"></rect>
            <g id="编组-4" transform="translate(2.909091, 2.181818)" fill="#000000" fill-rule="nonzero">
                <path d="M5,0 L5.69071361,0.6875 L1.68141615,0.6875 C1.17542144,0.6875 0.759591728,1.06240919 0.712421432,1.54178069 L0.70796522,1.63282099 L0.70796522,9.36718871 C0.70796522,9.85855907 1.09402813,10.2623662 1.58766633,10.3081726 L1.68141615,10.3125 L8.31858385,10.3125 C8.82458112,10.3125 9.24040857,9.93759705 9.2875786,9.4582285 L9.29203478,9.36718871 L9.29203478,4.11820418 L10,4.8125 L10,9.36718871 C10,10.2313915 9.30863038,10.938784 8.43370392,10.9962331 L8.31858385,11 L1.68141615,11 C0.791488173,11 0.0630382225,10.3286159 0.0038790738,9.478981 L0,9.36718871 L0,1.63282099 C0,0.768617238 0.691370611,0.0612166779 1.5662962,0.00376698489 L1.68141615,0 L5,0 Z" id="路径"></path>
                <path d="M5,0 L10,5 L6.42877554,5 C5.6396846,5 5,4.36040679 5,3.57142857 L5,0 Z M8.27475354,4.28571429 L5.71438777,1.725 L5.71438777,3.57142857 C5.71438777,3.93773989 5.99017016,4.23964797 6.34546283,4.28090876 L6.42877554,4.28571429 L8.27475354,4.28571429 Z" id="形状结合"></path>
            </g>
        </g>
    </g>
</svg>