<?xml version="1.0" encoding="UTF-8"?>
<svg width="16px" height="16px" viewBox="0 0 16 16" version="1.1" xmlns="http://www.w3.org/2000/svg" xmlns:xlink="http://www.w3.org/1999/xlink">
    <title>folder-download</title>
    <g id="页面-1" stroke="none" stroke-width="1" fill="none" fill-rule="evenodd">
        <g id="folder-download">
            <rect id="矩形" x="0" y="0" width="16" height="16"></rect>
            <g id="编组-14" transform="translate(3.000000, 3.000000)" fill="#000000" stroke="#000000" stroke-width="0.4">
                <path d="M5,0 C7.76142375,0 10,2.23857625 10,5 C10,7.76142375 7.76142375,10 5,10 C2.23857625,10 0,7.76142375 0,5 C0,2.23857625 2.23857625,0 5,0 Z M5,0.166666667 C2.33062371,0.166666667 0.166666667,2.33062371 0.166666667,5 C0.166666667,7.66937629 2.33062371,9.83333333 5,9.83333333 C7.66937629,9.83333333 9.83333333,7.66937629 9.83333333,5 C9.83333333,2.33062371 7.66937629,0.166666667 5,0.166666667 Z" id="椭圆形" fill-rule="nonzero"></path>
                <path d="M4.88534918,2 C4.92737061,2 4.96143572,2.03406511 4.96143572,2.07608654 L4.96143572,2.07608654 L4.96043975,7.768 L6.78563045,5.94441413 C6.8126837,5.91736088 6.85654567,5.91736088 6.88359891,5.94441413 C6.91065216,5.97146737 6.91065216,6.01532934 6.88359891,6.04238259 L4.83603558,8.08994592 C4.820357,8.1056245 4.79903282,8.11221664 4.7786068,8.10972232 C4.75861226,8.10858956 4.7381547,8.10097744 4.72261976,8.08544249 L3.12228526,6.485108 C3.09182458,6.45464731 3.09182458,6.40526079 3.12228526,6.37480011 C3.15274594,6.34433943 3.20213247,6.34433943 3.23259315,6.37480011 L4.79317897,7.9367986 L4.81965068,7.909794 C4.81304765,7.89852192 4.80926264,7.88539881 4.80926264,7.87139166 L4.80926264,7.87139166 L4.80926264,2.07608654 C4.80926264,2.03406511 4.84332774,2 4.88534918,2 Z" id="形状结合"></path>
            </g>
        </g>
    </g>
</svg>