<?xml version="1.0" encoding="UTF-8"?>
<svg width="14px" height="16px" viewBox="0 0 14 16" version="1.1" xmlns="http://www.w3.org/2000/svg" xmlns:xlink="http://www.w3.org/1999/xlink">
    <title>folder-Documents</title>
    <g id="页面-1" stroke="none" stroke-width="1" fill="none" fill-rule="evenodd">
        <g id="folder-Documents" fill="#000000" fill-rule="nonzero">
            <path d="M7,0 L7.96699905,1 L2.35398261,1 C1.64559002,1 1.06342842,1.54532246 0.997390004,2.24259009 L0.991151309,2.37501234 L0.991151309,13.6250018 C0.991151309,14.3397223 1.53163938,14.927078 2.22273286,14.9937056 L2.35398261,15 L11.6460174,15 C12.3544136,15 12.936572,14.4546866 13.00261,13.7574233 L13.0088487,13.6250018 L13.0088487,5.99011517 L14,7 L14,13.6250018 C14,14.8820239 13.0320825,15.9109586 11.8071855,15.9945208 L11.6460174,16 L2.35398261,16 C1.10808344,16 0.0882535115,15.0234413 0.00543070331,13.7876087 L0,13.6250018 L0,2.37501234 C0,1.11798871 0.967918856,0.0890424405 2.19281468,0.00547925076 L2.35398261,0 L7,0 Z" id="路径"></path>
            <path d="M7,0 L13.999,7 L9,7 C7.8954305,7 7,6.1045695 7,5 L7,0 Z M11.584,6 L8,2.415 L8,5 C8,5.51283584 8.38604019,5.93550716 8.88337887,5.99327227 L9,6 L11.584,6 Z" id="形状结合"></path>
        </g>
    </g>
</svg>