<?xml version="1.0" encoding="UTF-8"?>
<svg width="16px" height="16px" viewBox="0 0 16 16" version="1.1" xmlns="http://www.w3.org/2000/svg" xmlns:xlink="http://www.w3.org/1999/xlink">
    <title>folder-public</title>
    <g id="页面-1" stroke="none" stroke-width="1" fill="none" fill-rule="evenodd">
        <g id="folder-public">
            <rect id="矩形" x="0" y="0" width="16" height="16"></rect>
            <g id="编组-8" transform="translate(1.333333, 2.666667)" fill="#000000" fill-rule="nonzero">
                <path d="M5.75384465,0 C3.9780254,0 2.53846091,1.43974486 2.53846091,3.2157337 L2.5441603,3.40809896 C2.58958027,4.17304838 2.90436682,4.88075478 3.41284172,5.41949002 L3.46076837,5.467 L3.27139551,5.54744613 C1.32303091,6.41055639 0.00054458757,8.35972418 0,10.5768192 C0,10.8105187 0.18937736,11 0.423076818,11 L10.5769204,11 C10.8146602,11 11.0057252,10.8041689 10.9998689,10.5665012 L10.9936556,10.3143493 L10.9786662,10.0963922 C10.8124899,8.21950855 9.70540992,6.59032347 8.09757479,5.72912248 L7.88530573,5.62184615 L7.91290717,5.59918141 C8.57192087,5.00194706 8.9692285,4.14442359 8.9692285,3.2157337 C8.9692285,1.43974487 7.52966391,0 5.75384465,0 Z M5.75384465,0.846153846 C7.06232249,0.846153846 8.12307487,1.90703907 8.12307487,3.2157337 C8.12307487,4.12846577 7.60268898,4.94753846 6.79811117,5.34342339 C6.4539009,5.5127888 6.49470222,6.01607102 6.86169919,6.12777852 L7.05230264,6.19033474 C8.68723921,6.76645062 9.87475451,8.21786381 10.1107902,9.9428761 L10.1343821,10.1538462 L0.865615169,10.1538462 L0.883013287,9.99126081 C1.12594393,8.06937727 2.54638563,6.48137396 4.45014171,6.04253629 C4.82462634,5.95621327 4.89933813,5.4556284 4.56637925,5.26372009 C3.84103534,4.84565187 3.38461454,4.07100682 3.38461454,3.2157337 C3.38461454,1.90703904 4.44536683,0.846153846 5.75384465,0.846153846 Z" id="形状结合"></path>
                <path d="M8.50530664,0.00975576149 C9.95193203,0.329266925 10.9998227,1.64066014 10.9998227,3.16980103 C10.9998227,4.10304831 10.6088609,4.96503389 9.96007866,5.56556601 L9.93005274,5.59142699 L9.94961262,5.60132897 C11.6367666,6.43722735 12.8088785,8.13101845 12.9789988,10.0936894 L12.9937529,10.3128405 L12.9998726,10.5665659 C13.0055065,10.8001528 12.823585,10.99415 12.5935395,10.9998706 C12.3890546,11.0049557 12.2153762,10.8595674 12.1753486,10.6631405 L12.1668041,10.5872822 L12.1610557,10.3438397 C12.0657593,8.36286103 10.7565212,6.66731053 8.92341888,6.09727671 C8.56298111,5.98519256 8.52273949,5.48341584 8.86056891,5.31359443 C9.65331758,4.91509242 10.1665043,4.08987869 10.1665043,3.16980103 C10.1665043,2.03984762 9.39291505,1.07173158 8.32818663,0.836568685 C8.10333009,0.786905396 7.96069751,0.561556968 8.00960785,0.333238884 C8.05308371,0.130289475 8.23326797,-0.00669271722 8.43069611,0.000252459047 L8.50530664,0.00975576149 Z" id="路径"></path>
            </g>
        </g>
    </g>
</svg>