<?xml version="1.0" encoding="UTF-8"?>
<svg width="16px" height="16px" viewBox="0 0 16 16" version="1.1" xmlns="http://www.w3.org/2000/svg" xmlns:xlink="http://www.w3.org/1999/xlink">
    <title>folder-home</title>
    <g id="页面-1" stroke="none" stroke-width="1" fill="none" fill-rule="evenodd">
        <g id="folder-home">
            <rect id="矩形" x="0" y="0" width="16" height="16"></rect>
            <g id="编组-10" transform="translate(2.283594, 2.570450)">
                <path d="M5.6159134,7.17260173 C6.35229306,7.17260173 6.94924673,7.7695554 6.94924673,8.50593506 L6.94924673,11.1726017 L6.94924673,11.1726017 L4.28258006,11.1726017 L4.28258006,8.50593506 C4.28258006,7.7695554 4.87953373,7.17260173 5.6159134,7.17260173 Z" id="矩形" fill="#000000"></path>
                <path d="M10.281959,4.68485835 L10.2825801,9.17260173 C10.2825801,10.2771712 9.38714956,11.1726017 8.28258006,11.1726017 L2.94924673,11.1726017 C1.84467723,11.1726017 0.755013977,10.2771712 0.755013977,9.17260173 L0.754392882,4.8094025" id="路径" stroke="#000000" stroke-width="0.6"></path>
                <path d="M0.150181448,5.5 C0.115825364,5.53435608 0.0601231465,5.53435608 0.0257670628,5.5 C-0.00858902093,5.46564392 -0.00858902093,5.4099417 0.0257670628,5.37558562 L5.37558562,0.0257670628 C5.4099417,-0.00858902093 5.46564392,-0.00858902093 5.5,0.0257670628 C5.49941021,0.0263609954 5.49970383,0.0260632359 5.5,0.0257670628 C5.53435608,-0.00858902093 5.5900583,-0.00858902093 5.62441438,0.0257670628 L10.9742329,5.37558562 C11.008589,5.4099417 11.008589,5.46564392 10.9742329,5.5 C10.9398769,5.53435608 10.8841746,5.53435608 10.8498186,5.5 L5.5,0.150181448 L5.50088086,0.149288197 L0.150181448,5.5 Z" id="形状结合" stroke="#000000" stroke-width="0.4"></path>
            </g>
        </g>
    </g>
</svg>