<?xml version="1.0" encoding="UTF-8"?>
<svg width="16px" height="16px" viewBox="0 0 16 16" version="1.1" xmlns="http://www.w3.org/2000/svg" xmlns:xlink="http://www.w3.org/1999/xlink">
    <title>folder-pictures</title>
    <g id="页面-1" stroke="none" stroke-width="1" fill="none" fill-rule="evenodd">
        <g id="folder-pictures">
            <rect id="矩形" x="0" y="0" width="16" height="16"></rect>
            <g id="编组-3" transform="translate(0.000000, 2.181818)" fill="#000000" fill-rule="nonzero">
                <path d="M9.92176895,4.77481264 C10.1886904,4.44760053 10.7002378,4.44761355 10.9671417,4.77483927 L10.9671417,4.77483927 L15.1893639,9.95130986 C15.5353581,10.3755009 15.2240899,11 14.6666667,11 L14.6666667,11 L2,11 C1.43205039,11 1.12421027,10.3547719 1.49159272,9.93438634 L1.49159272,9.93438634 L4.50746573,6.48340595 C4.77374675,6.17870793 5.25809642,6.17873856 5.5243365,6.48347029 L5.5243365,6.48347029 L7.07733333,8.261 L9.92176895,4.77481264 Z" id="形状结合"></path>
                <path d="M14.6666667,0 C15.4030463,0 16,0.579396206 16,1.29411765 L16,9.70588235 C16,10.4206038 15.4030463,11 14.6666667,11 L1.33333333,11 C0.596953667,11 0,10.4206038 0,9.70588235 L0,1.29411765 C0,0.579396206 0.596953667,0 1.33333333,0 L14.6666667,0 Z M14.3106061,1 L1.68939394,1 C1.33584802,1 1.04446097,1.25887401 1.00463806,1.59238347 L1,1.67058823 L1,9.32941177 C1,9.67331344 1.26613377,9.95675185 1.60899605,9.99548845 L1.68939394,10 L14.3106061,10 C14.664152,10 14.955539,9.74112598 14.9953619,9.40761652 L15,9.32941177 L15,1.67058823 C15,1.32668655 14.7338662,1.04324814 14.391004,1.00451154 L14.3106061,1 Z" id="形状"></path>
                <ellipse id="椭圆形" cx="4" cy="3.23529412" rx="1.66666667" ry="1.61764706"></ellipse>
            </g>
        </g>
    </g>
</svg>