<?xml version="1.0" encoding="UTF-8"?>
<svg width="16px" height="16px" viewBox="0 0 16 16" version="1.1" xmlns="http://www.w3.org/2000/svg" xmlns:xlink="http://www.w3.org/1999/xlink">
    <title>folder-public</title>
    <g id="页面-1" stroke="none" stroke-width="1" fill="none" fill-rule="evenodd">
        <g id="folder-public">
            <rect id="矩形" x="0" y="0" width="16" height="16"></rect>
            <g id="编组-9" transform="translate(-0.000000, 1.000000)" fill="#000000" fill-rule="nonzero">
                <path d="M7.34999999,0 C9.47629625,0 11.2,1.7237037 11.2,3.85000005 C11.2,5.36607527 10.3236923,6.67747794 9.04996114,7.30532404 C11.8806081,8.17060607 13.9487666,10.782163 13.9990621,13.8842422 L14,14 L0,14 C0,10.678619 2.31321037,7.89751732 5.41645731,7.17986865 C4.27040585,6.51309741 3.5,5.27151769 3.5,3.85000005 C3.5,1.7237037 5.22370372,0 7.34999999,0 Z M7.34999999,0.233333333 C5.35257015,0.233333333 3.73333333,1.85257016 3.73333333,3.85000005 C3.73333333,5.15298432 4.42794613,6.33480352 5.53379621,6.97818566 C5.71652719,7.08449831 5.67500111,7.3595699 5.46902988,7.40720226 C2.52522199,8.08797947 0.377992846,10.6575444 0.240355469,13.6900674 L0.237533333,13.7666667 L13.762,13.7666667 L13.7614879,13.7330978 C13.651133,10.8996719 11.7842429,8.45305108 9.12744455,7.5748065 L8.98175071,7.52846477 C8.77962604,7.46667859 8.75722094,7.18948132 8.94679859,7.09603493 C10.1733795,6.49143011 10.9666667,5.24194226 10.9666667,3.85000005 C10.9666667,1.85257017 9.34742983,0.233333333 7.34999999,0.233333333 Z" id="形状结合"></path>
                <path d="M9.11864381,-8.8817842e-16 C11.3464994,-8.8817842e-16 13.1525332,1.7468216 13.1525332,3.90163526 C13.1525332,5.26661609 12.4212546,6.50476155 11.260634,7.20854374 L11.1465038,7.2744841 L11.1868169,7.28785851 C13.9501915,8.23640478 15.8797215,10.7310583 15.9945682,13.6128745 L15.9990269,13.7704415 L15.9999847,13.8843015 C16.0005116,13.9476763 15.947825,13.999468 15.882302,13.9999853 C15.8261394,14.0004215 15.7787754,13.963045 15.7660546,13.9124475 L15.7627009,13.8861609 L15.7617588,13.7732315 C15.7122685,10.8208869 13.6916314,8.26123202 10.8127309,7.41005223 C10.7099558,7.37966562 10.6985634,7.24333924 10.7949586,7.19738204 C12.082476,6.58354772 12.9152456,5.31487626 12.9152456,3.90163526 C12.9152456,1.87357534 11.2154491,0.229507954 9.11864381,0.229507954 C9.05311864,0.229507954 9,0.178130848 9,0.114753977 C9,0.0513771055 9.05311864,-8.8817842e-16 9.11864381,-8.8817842e-16 Z" id="路径"></path>
            </g>
        </g>
    </g>
</svg>