<?xml version="1.0" encoding="UTF-8"?>
<svg width="16px" height="16px" viewBox="0 0 16 16" version="1.1" xmlns="http://www.w3.org/2000/svg" xmlns:xlink="http://www.w3.org/1999/xlink">
    <title>folder-public</title>
    <g id="页面-1" stroke="none" stroke-width="1" fill="none" fill-rule="evenodd">
        <g id="folder-public">
            <rect id="矩形" x="0" y="0" width="16" height="16"></rect>
            <g id="编组-9" transform="translate(3.000000, 3.000000)" fill="#000000" fill-rule="nonzero">
                <g id="yonghu">
                    <path d="M7.80166694,5.36908645 C8.71246201,4.89593186 9.33528543,3.94291484 9.33528543,2.84351595 C9.33528543,1.27301635 8.06534854,0 6.49894011,0 C4.9324554,0 3.66252941,1.27307098 3.66252941,2.84351595 C3.66252941,3.92971764 4.27029278,4.87335023 5.16328169,5.35220758 C3.26644579,5.92095447 1.85993322,7.69834859 1.90702039,9.71916987 C1.90702039,10.1174893 2.44414757,10.0627231 2.44414757,9.73892197 C2.44414757,7.50117717 4.25366352,5.68708653 6.48581978,5.68708653 C8.71791065,5.68708653 10.5274375,7.5012318 10.5274375,9.73892197 C10.5274375,10.010426 10.9989521,9.96943598 10.9989521,9.71916987 C11.0434131,7.7175326 9.6681539,5.95613244 7.80166694,5.36909737 L7.80166694,5.36908645 Z M6.45307344,5.16162384 C6.39828189,5.16162384 6.34393713,5.16387435 6.28953788,5.16588452 C5.10441456,5.06592229 4.1734922,4.0705606 4.1734922,2.85659298 C4.1734922,1.57630069 5.20874516,0.538485098 6.48581978,0.538485098 C7.7628944,0.538485098 8.85583759,1.57635531 8.85583759,2.85660391 C8.85583759,4.07626337 7.86382505,5.07521932 6.66575575,5.16717365 C6.59491529,5.16364206 6.52400125,5.16179524 6.45307344,5.16163476 L6.45307344,5.16162384 Z M3.58915799,5.48925963 C3.59284127,5.48925963 3.59645917,5.48953275 3.60009886,5.48953275 C3.93311989,5.48953275 3.94032299,4.94719118 3.58915799,4.94719118 C3.58017862,4.94719118 3.57130823,4.94668864 3.56231797,4.94656847 L3.5618167,4.9363319 C3.51506735,4.9363319 3.46886286,4.93829837 3.42272375,4.94007912 C2.42992661,4.86126736 1.60283358,4.08483936 1.60283358,3.07476193 C1.60283358,2.00864009 2.52404646,1.14444198 3.58915799,1.14444198 C3.94088965,1.14444198 3.84820824,0.695999364 3.48459854,0.695999364 C2.17801407,0.695999364 1.11887426,1.75614532 1.11887426,3.06379339 C1.11887426,3.93286399 1.63792284,4.71762763 2.36944668,5.14671144 C0.918963567,5.67902401 -0.0369571652,7.15717598 0.00109615378,8.7891387 C0.00109615378,9.12094778 0.506762867,9.07524919 0.506762867,8.80558057 C0.506762867,6.94221893 1.72742224,5.48952182 3.58916888,5.48952182 L3.58916888,5.4892487 L3.58915799,5.48925963 Z" id="形状"></path>
                </g>
            </g>
        </g>
    </g>
</svg>