<?xml version="1.0" encoding="UTF-8"?>
<svg width="16px" height="16px" viewBox="0 0 16 16" version="1.1" xmlns="http://www.w3.org/2000/svg" xmlns:xlink="http://www.w3.org/1999/xlink">
    <title>folder-download</title>
    <g id="页面-1" stroke="none" stroke-width="1" fill="none" fill-rule="evenodd">
        <g id="folder-download">
            <rect id="矩形" x="0" y="0" width="16" height="16"></rect>
            <g id="编组-14" transform="translate(3.000000, 3.000000)" fill="#000000">
                <path d="M5.5,0 C8.53756612,0 11,2.46243388 11,5.5 C11,8.53756612 8.53756612,11 5.5,11 C2.46243388,11 0,8.53756612 0,5.5 C0,2.46243388 2.46243388,0 5.5,0 Z M5.5,0.183333333 C2.56368608,0.183333333 0.183333333,2.56368608 0.183333333,5.5 C0.183333333,8.43631392 2.56368608,10.8166667 5.5,10.8166667 C8.43631392,10.8166667 10.8166667,8.43631392 10.8166667,5.5 C10.8166667,2.56368608 8.43631392,0.183333333 5.5,0.183333333 Z" id="椭圆形" fill-rule="nonzero"></path>
                <path d="M5.57813656,2.0625 C5.6212902,2.0625 5.65627313,2.09748293 5.65627313,2.14063656 L5.65627313,2.14063656 L5.65598989,8.6665 L7.61423053,6.71119981 C7.64523546,6.68019487 7.69550439,6.68019487 7.72650933,6.71119981 C7.75751426,6.74220474 7.75751426,6.79247367 7.72650933,6.8234786 L5.63544865,8.91453927 C5.61963614,8.93035179 5.59881306,8.93809992 5.57809019,8.93778367 C5.55466377,8.94079398 5.53051869,8.93312691 5.5126883,8.91529652 L3.66545093,7.06805915 C3.63416954,7.03677776 3.63416954,6.9860606 3.66545093,6.95477921 C3.69673232,6.92349781 3.74744948,6.92349781 3.77873087,6.95477921 L5.49998989,8.6765 L5.5,2.14063656 C5.5,2.10827134 5.5196779,2.08050213 5.54772229,2.06864036 Z" id="形状结合"></path>
            </g>
        </g>
    </g>
</svg>