<?xml version="1.0" encoding="UTF-8"?>
<svg width="16px" height="16px" viewBox="0 0 16 16" version="1.1" xmlns="http://www.w3.org/2000/svg" xmlns:xlink="http://www.w3.org/1999/xlink">
    <title>folder-templates</title>
    <g id="页面-1" stroke="none" stroke-width="1" fill="none" fill-rule="evenodd">
        <g id="folder-templates">
            <rect id="矩形" x="0" y="0" width="16" height="16"></rect>
            <g id="编组-8" transform="translate(3.000000, 3.000000)" fill="#000000">
                <path d="M6.74193548,0 C6.93790749,0 7.09677419,0.158866702 7.09677419,0.35483871 L7.09677419,3.90322581 C7.09677419,4.09919781 6.93790749,4.25806452 6.74193548,4.25806452 L0.35483871,4.25806452 C0.158866702,4.25806452 0,4.09919781 0,3.90322581 L0,0.35483871 C0,0.158866702 0.158866702,0 0.35483871,0 L6.74193548,0 Z M6.74193548,0.177419355 L0.35483871,0.177419355 C0.267740039,0.177419355 0.195300256,0.240181509 0.180277818,0.322947356 L0.177419355,0.35483871 L0.177419355,3.90322581 C0.177419355,3.99032448 0.240181509,4.06276426 0.322947356,4.0777867 L0.35483871,4.08064516 L6.74193548,4.08064516 C6.82903415,4.08064516 6.90147394,4.01788301 6.91649638,3.93511716 L6.91935484,3.90322581 L6.91935484,0.35483871 C6.91935484,0.267740039 6.85659268,0.195300256 6.77382684,0.180277818 L6.74193548,0.177419355 Z" id="矩形" fill-rule="nonzero"></path>
                <rect id="矩形备份-5" x="0" y="4.96774194" width="4.25806452" height="4.25806452" rx="1"></rect>
                <rect id="矩形备份-6" x="4.96774194" y="4.96774194" width="6.03225806" height="4.25806452" rx="1"></rect>
                <path d="M10.6451613,0 C10.8411333,0 11,0.158866702 11,0.35483871 L11,3.90322581 C11,4.09919781 10.8411333,4.25806452 10.6451613,4.25806452 L8.16129032,4.25806452 C7.96531831,4.25806452 7.80645161,4.09919781 7.80645161,3.90322581 L7.80645161,0.35483871 C7.80645161,0.158866702 7.96531831,0 8.16129032,0 L10.6451613,0 Z M10.6451613,0.177419355 L8.16129032,0.177419355 C8.07419165,0.177419355 8.00175187,0.240181509 7.98672943,0.322947356 L7.98387097,0.35483871 L7.98387097,3.90322581 C7.98387097,3.99032448 8.04663312,4.06276426 8.12939897,4.0777867 L8.16129032,4.08064516 L10.6451613,4.08064516 C10.73226,4.08064516 10.8046997,4.01788301 10.8197222,3.93511716 L10.8225806,3.90322581 L10.8225806,0.35483871 C10.8225806,0.267740039 10.7598185,0.195300256 10.6770526,0.180277818 L10.6451613,0.177419355 Z" id="矩形备份-4" fill-rule="nonzero"></path>
            </g>
        </g>
    </g>
</svg>