<?xml version="1.0" encoding="UTF-8"?>
<svg width="16px" height="16px" viewBox="0 0 16 16" version="1.1" xmlns="http://www.w3.org/2000/svg" xmlns:xlink="http://www.w3.org/1999/xlink">
    <title>folder-camera</title>
    <g id="页面-1" stroke="none" stroke-width="1" fill="none" fill-rule="evenodd">
        <g id="folder-camera">
            <rect id="矩形" x="0" y="0" width="16" height="16" rx="1"></rect>
            <g id="编组-18" transform="translate(3.000000, 4.000000)" fill="#000000">
                <path d="M10.604615,9.15933995e-15 C10.799192,9.15933995e-15 10.9569279,0.157735847 10.9569279,0.352312876 L10.9569279,7.39857039 C10.9569279,7.59314741 10.799192,7.75088326 10.604615,7.75088326 L0.38754161,7.75088326 C0.192964581,7.75088326 0.035228734,7.59314741 0.035228734,7.39857039 L0.035228734,0.352312876 C0.035228734,0.157735847 0.192964581,9.15933995e-15 0.38754161,9.15933995e-15 L10.604615,9.15933995e-15 Z M10.604615,0.176156438 L0.38754161,0.176156438 C0.30106293,0.176156438 0.229138792,0.238471834 0.214223288,0.320648533 L0.211385172,0.352312876 L0.211385172,7.39857039 C0.211385172,7.48504906 0.273700568,7.5569732 0.355877267,7.57188871 L0.38754161,7.57472682 L10.604615,7.57472682 C10.6910937,7.57472682 10.7630178,7.51241143 10.7779333,7.43023473 L10.7807714,7.39857039 L10.7807714,0.352312876 C10.7807714,0.265834196 10.718456,0.193910058 10.6362793,0.178994554 L10.604615,0.176156438 Z" id="矩形" fill-rule="nonzero"></path>
                <path d="M8.41359476,4.50473239 L10.3533694,6.93930876 C10.5254472,7.15528058 10.4898641,7.46985699 10.2738923,7.64193483 C10.185361,7.71247311 10.0755143,7.75088326 9.96231781,7.75088326 L4.26298324,7.75088326 L4.26298324,7.75088326 L6.84938848,4.50473239 C7.19354417,4.07278876 7.82269698,4.00162256 8.25464062,4.34577825 C8.31343121,4.39262028 8.36675274,4.44594181 8.41359476,4.50473239 Z" id="三角形"></path>
                <path d="M3.47110736,5.46902791 L5.42209286,7.75088326 L5.42209286,7.75088326 L1.08534182,7.75088326 C0.809199442,7.75088326 0.585341817,7.52702564 0.585341817,7.25088326 C0.585341817,7.13174036 0.62788612,7.01651322 0.705311353,6.92595735 L1.9509855,5.46902791 C2.30988875,5.04925785 2.94112819,4.99991555 3.36089825,5.3588188 C3.40044588,5.39263201 3.43729414,5.42948027 3.47110736,5.46902791 Z" id="三角形备份"></path>
                <circle id="椭圆形" cx="2.50141886" cy="2.46619013" r="1.05693863"></circle>
            </g>
        </g>
    </g>
</svg>