<?xml version="1.0" encoding="UTF-8"?>
<svg width="16px" height="16px" viewBox="0 0 16 16" version="1.1" xmlns="http://www.w3.org/2000/svg" xmlns:xlink="http://www.w3.org/1999/xlink">
    <title>folder-download</title>
    <g id="页面-1" stroke="none" stroke-width="1" fill="none" fill-rule="evenodd">
        <g id="folder-download">
            <rect id="矩形" x="0" y="0" width="16" height="16"></rect>
            <g id="编组-5" transform="translate(3.000000, 3.000000)" fill="#000000">
                <path d="M5.5,0 C8.53756612,0 11,2.46243388 11,5.5 C11,8.53756612 8.53756612,11 5.5,11 C2.46243388,11 0,8.53756612 0,5.5 C0,2.46243388 2.46243388,0 5.5,0 Z M5.5,0.6875 C2.84212964,0.6875 0.6875,2.84212964 0.6875,5.5 C0.6875,8.15787036 2.84212964,10.3125 5.5,10.3125 C8.15787036,10.3125 10.3125,8.15787036 10.3125,5.5 C10.3125,2.84212964 8.15787036,0.6875 5.5,0.6875 Z" id="椭圆形" fill-rule="nonzero"></path>
                <path d="M5.5,2 C5.77614237,2 6,2.22385763 6,2.5 L5.99917066,7.058 L6.81532061,6.24272503 C6.9608957,6.09714993 7.19691957,6.09714993 7.34249466,6.24272503 C7.48806976,6.38830012 7.48806976,6.62432399 7.34249466,6.76989908 L5.76097249,8.35142126 C5.61539739,8.49699636 5.37937353,8.49699636 5.23379843,8.35142126 L5.22774497,8.34384268 C5.22577223,8.34195344 5.22381515,8.34003832 5.22187415,8.33809732 L3.64035198,6.75657514 C3.49477688,6.61100005 3.49477688,6.37497618 3.64035198,6.22940108 C3.78592707,6.08382599 4.02195094,6.08382599 4.16752604,6.22940108 L4.99917066,7.062 L5,2.5 C5,2.22385763 5.22385763,2 5.5,2 Z" id="形状结合"></path>
            </g>
        </g>
    </g>
</svg>