<?xml version="1.0" encoding="UTF-8"?>
<svg width="16px" height="16px" viewBox="0 0 16 16" version="1.1" xmlns="http://www.w3.org/2000/svg" xmlns:xlink="http://www.w3.org/1999/xlink">
    <title>folder-html</title>
    <g id="页面-1" stroke="none" stroke-width="1" fill="none" fill-rule="evenodd">
        <g id="folder-html">
            <rect id="矩形" x="0" y="0" width="16" height="16"></rect>
            <g id="编组-16" transform="translate(3.500000, 3.000000)" stroke="#000000">
                <path d="M5,0 C7.76142375,0 10,2.23857625 10,5 C10,7.76142375 7.76142375,10 5,10 C2.23857625,10 0,7.76142375 0,5 C0,2.23857625 2.23857625,0 5,0 Z M5,0.166666667 C2.33062371,0.166666667 0.166666667,2.33062371 0.166666667,5 C0.166666667,7.66937629 2.33062371,9.83333333 5,9.83333333 C7.66937629,9.83333333 9.83333333,7.66937629 9.83333333,5 C9.83333333,2.33062371 7.66937629,0.166666667 5,0.166666667 Z" id="椭圆形" stroke-width="0.4" fill="#000000" fill-rule="nonzero"></path>
                <path d="M4.87439023,0.109199524 C6.45931111,1.18913091 7.5,2.93747989 7.5,5 C7.5,7.07083269 6.45090562,8.84336732 4.8552006,9.92165804" id="形状" stroke-width="0.65" fill-rule="nonzero"></path>
                <path d="M2.87439023,0.0824687481 C4.45931111,1.16240014 5.5,2.93747989 5.5,5 C5.5,6.38055513 4.6184002,8.02110781 2.8552006,9.92165804" id="形状" stroke-width="0.65" fill-rule="nonzero" transform="translate(4.177600, 5.002063) scale(-1, 1) translate(-4.177600, -5.002063) "></path>
                <path d="M5.00474453,0.0702943802 C5.0469413,0.0702943802 5.08114853,0.104501618 5.08114853,0.146698384 L5.08114853,9.85330162 C5.08114853,9.89549838 5.0469413,9.92970562 5.00474453,9.92970562 C4.96254776,9.92970562 4.92834053,9.89549838 4.92834053,9.85330162 L4.92834053,0.146698384 C4.92834053,0.104501618 4.96254776,0.0702943802 5.00474453,0.0702943802 Z" id="矩形" stroke-width="0.4" fill="#000000" transform="translate(5.004745, 5.000000) rotate(-270.000000) translate(-5.004745, -5.000000) "></path>
            </g>
        </g>
    </g>
</svg>