<?xml version="1.0" encoding="UTF-8"?>
<svg width="16px" height="16px" viewBox="0 0 16 16" version="1.1" xmlns="http://www.w3.org/2000/svg" xmlns:xlink="http://www.w3.org/1999/xlink">
    <title>folder-txt</title>
    <g id="页面-1" stroke="none" stroke-width="1" fill="none" fill-rule="evenodd">
        <g id="folder-txt">
            <rect id="矩形" x="0" y="0" width="16" height="16" rx="1"></rect>
            <g id="编组-13" transform="translate(3.000000, 3.042807)" fill="#000000" fill-rule="nonzero" stroke="#000000" stroke-width="0.4">
                <path d="M5.72310273,0.0220128915 L5.67064173,0 L0.543486996,0.000433358865 C0.243330198,0.000433358603 0,0.243763557 0,0.543926568 L0,10.4136994 C0,10.7138624 0.243330198,10.9571926 0.543493209,10.9571926 L9.47328771,10.9571926 C9.77345072,10.9571926 10.0167809,10.7138624 10.0167809,10.4136994 L10.0167809,4.42609516 L9.99573168,4.37460402 L5.72310273,0.0220128915 Z M5.63981682,0.146833028 L9.86953244,4.45593299 L9.86977287,10.4136994 C9.86977287,10.6326721 9.69226041,10.8101846 9.47328771,10.8101846 L0.543493209,10.8101846 C0.324520502,10.8101846 0.14700805,10.6326721 0.14700805,10.4136994 L0.14700805,0.543926568 C0.14700805,0.324953861 0.324520502,0.147441408 0.543493209,0.147441408 L5.63981682,0.146833028 Z" id="路径"></path>
                <path d="M5.67064794,0.2998576 L5.85164794,0.4838576 L5.85188259,3.20269615 C5.85188259,3.67818256 6.28801456,4.15377714 6.74926113,4.20733526 C6.93014213,4.22833844 7.34517295,4.23998938 7.99435357,4.24228805 L8.41195992,4.24254499 C8.74390056,4.24190053 9.1225957,4.23938863 9.54804535,4.2350093 L9.70183311,4.38929262 L6.87936423,4.38929262 C6.21180866,4.38929262 5.67064794,3.84820921 5.67064794,3.180749 L5.67064794,0.2998576 Z" id="形状结合"></path>
            </g>
        </g>
    </g>
</svg>