<?xml version="1.0" encoding="UTF-8"?>
<svg width="16px" height="17px" viewBox="0 0 16 17" version="1.1" xmlns="http://www.w3.org/2000/svg" xmlns:xlink="http://www.w3.org/1999/xlink">
    <title>folder-music</title>
    <g id="页面-1" stroke="none" stroke-width="1" fill="none" fill-rule="evenodd">
        <g id="folder-music" transform="translate(0.000000, 0.814328)">
            <path d="M6,4.185672 C9.3137085,4.185672 12,6.8719635 12,10.185672 C12,13.4993805 9.3137085,16.185672 6,16.185672 C2.6862915,16.185672 0,13.4993805 0,10.185672 C0,6.8719635 2.6862915,4.185672 6,4.185672 Z M6,5.185672 C3.23857625,5.185672 1,7.42424825 1,10.185672 C1,12.9470957 3.23857625,15.185672 6,15.185672 C8.76142375,15.185672 11,12.9470957 11,10.185672 C11,7.42424825 8.76142375,5.185672 6,5.185672 Z" id="形状" fill="#000000" fill-rule="nonzero"></path>
            <rect id="矩形" stroke="#000000" x="11.5" y="0.685671998" width="1" height="9" rx="0.5"></rect>
            <rect id="矩形备份" stroke="#000000" transform="translate(12.967616, 2.121320) rotate(-45.000000) translate(-12.967616, -2.121320) " x="12.9676155" y="0.121320344" width="1" height="4" rx="0.5"></rect>
        </g>
    </g>
</svg>