<?xml version="1.0" encoding="UTF-8"?>
<svg width="11px" height="11px" viewBox="0 0 11 11" version="1.1" xmlns="http://www.w3.org/2000/svg" xmlns:xlink="http://www.w3.org/1999/xlink">
    <title>folder-videos</title>
    <g id="页面-1" stroke="none" stroke-width="1" fill="none" fill-rule="evenodd">
        <g id="folder-videos">
            <path d="M5.5,0 C8.53756612,0 11,2.46243388 11,5.5 C11,8.53756612 8.53756612,11 5.5,11 C2.46243388,11 0,8.53756612 0,5.5 C0,2.46243388 2.46243388,0 5.5,0 Z M5.5,0.785714286 C2.89637189,0.785714286 0.785714286,2.89637189 0.785714286,5.5 C0.785714286,8.10362811 2.89637189,10.2142857 5.5,10.2142857 C8.10362811,10.2142857 10.2142857,8.10362811 10.2142857,5.5 C10.2142857,2.89637189 8.10362811,0.785714286 5.5,0.785714286 Z" id="椭圆形" fill="#000000" fill-rule="nonzero"></path>
            <path d="" id="矩形" stroke="#000000"></path>
            <path d="M5.5,2 C6.32842712,2 7,2.67157288 7,3.5 C7,4.32842712 6.32842712,5 5.5,5 C4.67157288,5 4,4.32842712 4,3.5 C4,2.67157288 4.67157288,2 5.5,2 Z M5.5,2.75 C5.08578644,2.75 4.75,3.08578644 4.75,3.5 C4.75,3.91421356 5.08578644,4.25 5.5,4.25 C5.91421356,4.25 6.25,3.91421356 6.25,3.5 C6.25,3.08578644 5.91421356,2.75 5.5,2.75 Z" id="椭圆形" fill="#000000" fill-rule="nonzero"></path>
            <path d="M7.5,4 C8.32842712,4 9,4.67157288 9,5.5 C9,6.32842712 8.32842712,7 7.5,7 C6.67157288,7 6,6.32842712 6,5.5 C6,4.67157288 6.67157288,4 7.5,4 Z M7.5,4.75 C7.08578644,4.75 6.75,5.08578644 6.75,5.5 C6.75,5.91421356 7.08578644,6.25 7.5,6.25 C7.91421356,6.25 8.25,5.91421356 8.25,5.5 C8.25,5.08578644 7.91421356,4.75 7.5,4.75 Z" id="椭圆形备份" fill="#000000" fill-rule="nonzero"></path>
            <path d="M5.5,6 C6.32842712,6 7,6.67157288 7,7.5 C7,8.32842712 6.32842712,9 5.5,9 C4.67157288,9 4,8.32842712 4,7.5 C4,6.67157288 4.67157288,6 5.5,6 Z M5.5,6.75 C5.08578644,6.75 4.75,7.08578644 4.75,7.5 C4.75,7.91421356 5.08578644,8.25 5.5,8.25 C5.91421356,8.25 6.25,7.91421356 6.25,7.5 C6.25,7.08578644 5.91421356,6.75 5.5,6.75 Z" id="椭圆形备份-2" fill="#000000" fill-rule="nonzero"></path>
            <path d="M3.5,4 C4.32842712,4 5,4.67157288 5,5.5 C5,6.32842712 4.32842712,7 3.5,7 C2.67157288,7 2,6.32842712 2,5.5 C2,4.67157288 2.67157288,4 3.5,4 Z M3.5,4.75 C3.08578644,4.75 2.75,5.08578644 2.75,5.5 C2.75,5.91421356 3.08578644,6.25 3.5,6.25 C3.91421356,6.25 4.25,5.91421356 4.25,5.5 C4.25,5.08578644 3.91421356,4.75 3.5,4.75 Z" id="椭圆形备份-3" fill="#000000" fill-rule="nonzero"></path>
        </g>
    </g>
</svg>