<?xml version="1.0" encoding="UTF-8"?>
<svg width="16px" height="16px" viewBox="0 0 16 16" version="1.1" xmlns="http://www.w3.org/2000/svg" xmlns:xlink="http://www.w3.org/1999/xlink">
    <title>folder-video</title>
    <g id="页面-1" stroke="none" stroke-width="1" fill="none" fill-rule="evenodd">
        <g id="folder-video">
            <rect id="矩形" x="0" y="0" width="16" height="16" rx="1"></rect>
            <g id="编组-12" transform="translate(3.000000, 3.000000)" fill="#000000" stroke="#000000">
                <path d="M5.15625,0 C8.00396824,0 10.3125,2.30853176 10.3125,5.15625 C10.3125,8.00396824 8.00396824,10.3125 5.15625,10.3125 C2.30853176,10.3125 0,8.00396824 0,5.15625 C0,2.30853176 2.30853176,0 5.15625,0 Z M5.15625,0.171875 C2.4034557,0.171875 0.171875,2.4034557 0.171875,5.15625 C0.171875,7.9090443 2.4034557,10.140625 5.15625,10.140625 C7.9090443,10.140625 10.140625,7.9090443 10.140625,5.15625 C10.140625,2.4034557 7.9090443,0.171875 5.15625,0.171875 Z" id="椭圆形" stroke-width="0.4" fill-rule="nonzero"></path>
                <path d="" id="矩形" stroke-width="0.25"></path>
                <path d="M5.15625,2.0625 C5.72579365,2.0625 6.1875,2.52420635 6.1875,3.09375 C6.1875,3.66329365 5.72579365,4.125 5.15625,4.125 C4.58670635,4.125 4.125,3.66329365 4.125,3.09375 C4.125,2.52420635 4.58670635,2.0625 5.15625,2.0625 Z M5.15625,2.234375 C4.68163029,2.234375 4.296875,2.61913029 4.296875,3.09375 C4.296875,3.56836971 4.68163029,3.953125 5.15625,3.953125 C5.63086971,3.953125 6.015625,3.56836971 6.015625,3.09375 C6.015625,2.61913029 5.63086971,2.234375 5.15625,2.234375 Z" id="椭圆形" stroke-width="0.25" fill-rule="nonzero"></path>
                <path d="M3.09375,4.125 C3.66329365,4.125 4.125,4.58670635 4.125,5.15625 C4.125,5.72579365 3.66329365,6.1875 3.09375,6.1875 C2.52420635,6.1875 2.0625,5.72579365 2.0625,5.15625 C2.0625,4.58670635 2.52420635,4.125 3.09375,4.125 Z M3.09375,4.296875 C2.61913029,4.296875 2.234375,4.68163029 2.234375,5.15625 C2.234375,5.63086971 2.61913029,6.015625 3.09375,6.015625 C3.56836971,6.015625 3.953125,5.63086971 3.953125,5.15625 C3.953125,4.68163029 3.56836971,4.296875 3.09375,4.296875 Z" id="椭圆形备份-5" stroke-width="0.25" fill-rule="nonzero"></path>
                <path d="M7.21875,4.125 C7.78829365,4.125 8.25,4.58670635 8.25,5.15625 C8.25,5.72579365 7.78829365,6.1875 7.21875,6.1875 C6.64920635,6.1875 6.1875,5.72579365 6.1875,5.15625 C6.1875,4.58670635 6.64920635,4.125 7.21875,4.125 Z M7.21875,4.296875 C6.74413029,4.296875 6.359375,4.68163029 6.359375,5.15625 C6.359375,5.63086971 6.74413029,6.015625 7.21875,6.015625 C7.69336971,6.015625 8.078125,5.63086971 8.078125,5.15625 C8.078125,4.68163029 7.69336971,4.296875 7.21875,4.296875 Z" id="椭圆形备份-6" stroke-width="0.25" fill-rule="nonzero"></path>
                <path d="M5.15625,6.1875 C5.72579365,6.1875 6.1875,6.64920635 6.1875,7.21875 C6.1875,7.78829365 5.72579365,8.25 5.15625,8.25 C4.58670635,8.25 4.125,7.78829365 4.125,7.21875 C4.125,6.64920635 4.58670635,6.1875 5.15625,6.1875 Z M5.15625,6.359375 C4.68163029,6.359375 4.296875,6.74413029 4.296875,7.21875 C4.296875,7.69336971 4.68163029,8.078125 5.15625,8.078125 C5.63086971,8.078125 6.015625,7.69336971 6.015625,7.21875 C6.015625,6.74413029 5.63086971,6.359375 5.15625,6.359375 Z" id="椭圆形备份-4" stroke-width="0.25" fill-rule="nonzero"></path>
            </g>
        </g>
    </g>
</svg>