<?xml version="1.0" encoding="UTF-8"?>
<svg width="16px" height="16px" viewBox="0 0 16 16" version="1.1" xmlns="http://www.w3.org/2000/svg" xmlns:xlink="http://www.w3.org/1999/xlink">
    <title>folder-music</title>
    <g id="页面-1" stroke="none" stroke-width="1" fill="none" fill-rule="evenodd">
        <g id="folder-music">
            <rect id="矩形" x="0" y="0" width="16" height="16"></rect>
            <g id="编组-15" transform="translate(4.000000, 3.000000)" fill="#000000">
                <path d="M3.3,4.4 C5.12253967,4.4 6.6,5.87746033 6.6,7.7 C6.6,9.52253967 5.12253967,11 3.3,11 C1.47746033,11 0,9.52253967 0,7.7 C0,5.87746033 1.47746033,4.4 3.3,4.4 Z M3.3,4.59411765 C1.58466854,4.59411765 0.194117647,5.98466854 0.194117647,7.7 C0.194117647,9.41533146 1.58466854,10.8058824 3.3,10.8058824 C5.01533146,10.8058824 6.40588235,9.41533146 6.40588235,7.7 C6.40588235,5.98466854 5.01533146,4.59411765 3.3,4.59411765 Z" id="椭圆形" fill-rule="nonzero"></path>
                <path d="M6.39049455,0 C6.44858148,-1.06703958e-17 6.49589031,0.0466696581 6.4966804,0.104751214 L6.49597139,0.117 L8.05089125,2.63950843 C8.07914104,2.68536915 8.06486455,2.74544759 8.01900383,2.77369738 C8.01745136,2.77465369 8.01587236,2.77556628 8.01426872,2.77643406 C7.96336011,2.80398242 7.89979875,2.78698212 7.86944004,2.73769776 L6.50197139,0.518 L6.59857505,7.59524879 C6.5993514,7.65231966 6.55371567,7.69921409 6.49664479,7.69999044 C6.49617625,7.69999681 6.49570768,7.7 6.49523909,7.7 C6.43715217,7.7 6.38984333,7.65333034 6.38905324,7.59524879 L6.28715859,0.104751214 C6.28657634,0.0619480598 6.31210087,0.0248691513 6.3489763,0.00867737337 L6.38908885,9.56054731e-06 C6.38955739,3.18692281e-06 6.39002597,8.6077188e-20 6.39049455,0 Z" id="形状结合"></path>
            </g>
        </g>
    </g>
</svg>