<?xml version="1.0" encoding="UTF-8"?>
<svg width="16px" height="16px" viewBox="0 0 16 16" version="1.1" xmlns="http://www.w3.org/2000/svg" xmlns:xlink="http://www.w3.org/1999/xlink">
    <title>folder-camera</title>
    <g id="页面-1" stroke="none" stroke-width="1" fill="none" fill-rule="evenodd">
        <g id="folder-camera">
            <rect id="矩形" x="0" y="0" width="16" height="16" rx="1"></rect>
            <g id="编组-18" transform="translate(2.807318, 4.000000)" fill="#000000">
                <path d="M10.7972973,0 C10.9918743,0 11.1496101,0.157735847 11.1496101,0.352312876 L11.1496101,7.39857039 C11.1496101,7.59314741 10.9918743,7.75088326 10.7972973,7.75088326 L0.580223876,7.75088326 C0.385646847,7.75088326 0.227911,7.59314741 0.227911,7.39857039 L0.227911,0.352312876 C0.227911,0.157735847 0.385646847,0 0.580223876,0 L10.7972973,0 Z M10.7972973,0.176156438 L0.580223876,0.176156438 C0.493745197,0.176156438 0.421821058,0.238471834 0.406905554,0.320648533 L0.404067438,0.352312876 L0.404067438,7.39857039 C0.404067438,7.48504906 0.466382834,7.5569732 0.548559533,7.57188871 L0.580223876,7.57472682 L10.7972973,7.57472682 C10.8837759,7.57472682 10.9557001,7.51241143 10.9706156,7.43023473 L10.9734537,7.39857039 L10.9734537,0.352312876 C10.9734537,0.265834196 10.9111383,0.193910058 10.8289616,0.178994554 L10.7972973,0.176156438 Z" id="矩形" stroke="#000000" stroke-width="0.4" fill-rule="nonzero"></path>
                <path d="M8.60878484,4.4778864 L10.9626155,7.34215664 C11.0502778,7.44882893 11.0348672,7.60636822 10.9281949,7.69403051 C10.8834652,7.73078895 10.8273641,7.75088326 10.7694683,7.75088326 L4.45566551,7.75088326 L4.45566551,7.75088326 L7.05409269,4.48964387 C7.39824838,4.05770023 8.02740119,3.98653403 8.45934483,4.33068972 C8.51418065,4.37438074 8.56426947,4.42371765 8.60878484,4.4778864 Z" id="三角形"></path>
                <path d="M3.63808653,5.4389658 L5.61477512,7.75088326 L5.61477512,7.75088326 L0.567931924,7.75088326 C0.429860737,7.75088326 0.317931924,7.63895445 0.317931924,7.50088326 C0.317931924,7.43837753 0.341346672,7.37813926 0.383560792,7.33204225 L2.14054107,5.41345359 C2.51353432,5.00615213 3.14608817,4.97833983 3.55338963,5.35133309 C3.58337734,5.37879484 3.61166215,5.40806008 3.63808653,5.4389658 Z" id="三角形备份"></path>
                <circle id="椭圆形" cx="2.69410113" cy="2.46619013" r="1.05693863"></circle>
            </g>
        </g>
    </g>
</svg>