<?xml version="1.0" encoding="UTF-8"?>
<svg width="16px" height="16px" viewBox="0 0 16 16" version="1.1" xmlns="http://www.w3.org/2000/svg" xmlns:xlink="http://www.w3.org/1999/xlink">
    <title>folder-html</title>
    <g id="页面-1" stroke="none" stroke-width="1" fill="none" fill-rule="evenodd">
        <g id="folder-html">
            <path d="M8,0 C12.418278,0 16,3.581722 16,8 C16,12.418278 12.418278,16 8,16 C3.581722,16 0,12.418278 0,8 C0,3.581722 3.581722,0 8,0 Z M8,1 C4.13400675,1 1,4.13400675 1,8 C1,11.8659932 4.13400675,15 8,15 C11.8659932,15 15,11.8659932 15,8 C15,4.13400675 11.8659932,1 8,1 Z" id="椭圆形" fill="#000000" fill-rule="nonzero"></path>
            <path d="M6.50058232,0.140506262 C10.2015846,0.842846786 13,4.09462092 13,8 C13,11.9053791 10.2015846,15.1571532 6.50058232,15.8594937 C2.7989217,15.1577414 0,11.9057323 0,8 C0,4.16526815 2.69808606,0.96070807 6.29946465,0.181113296 L6.50058232,0.140506262 Z M6.499,1.161 L6.26712051,1.21586398 C3.20003951,1.9957227 1,4.77384684 1,8 C1,11.2925394 3.29027577,14.1113865 6.44267396,14.8261862 L6.501,14.838 L6.55827141,14.8261817 C9.629376,14.1292299 11.8820073,11.4353454 11.9955077,8.2522832 L12,8 C12,4.70782094 9.71019454,1.88911095 6.55827141,1.17381834 L6.499,1.161 Z" id="形状结合" fill="#000000" fill-rule="nonzero"></path>
            <path d="M9.50058232,0.140506262 C13.2015846,0.842846786 16,4.09462092 16,8 C16,11.9053791 13.2015846,15.1571532 9.50058232,15.8594937 C5.7989217,15.1577414 3,11.9057323 3,8 C3,4.16526815 5.69808606,0.96070807 9.29946465,0.181113296 L9.50058232,0.140506262 Z M9.499,1.161 L9.26712051,1.21586398 C6.20003951,1.9957227 4,4.77384684 4,8 C4,11.2925394 6.29027577,14.1113865 9.44267396,14.8261862 L9.501,14.838 L9.55827141,14.8261817 C12.629376,14.1292299 14.8820073,11.4353454 14.9955077,8.2522832 L15,8 C15,4.70782094 12.7101945,1.88911095 9.55827141,1.17381834 L9.499,1.161 Z" id="形状结合" fill="#000000" fill-rule="nonzero"></path>
            <rect id="矩形" stroke="#000000" x="0.5" y="8.5" width="15" height="1" rx="0.5"></rect>
        </g>
    </g>
</svg>