<?xml version="1.0" encoding="UTF-8"?>
<svg width="16px" height="16px" viewBox="0 0 16 16" version="1.1" xmlns="http://www.w3.org/2000/svg" xmlns:xlink="http://www.w3.org/1999/xlink">
    <title>folder-public</title>
    <g id="页面-1" stroke="none" stroke-width="1" fill="none" fill-rule="evenodd">
        <g id="folder-public">
            <rect id="矩形" x="0" y="0" width="16" height="16"></rect>
            <path d="M7.75384465,2 C5.9780254,2 4.53846091,3.43974486 4.53846091,5.2157337 L4.5441603,5.40809896 C4.58958027,6.17304838 4.90436682,6.88075478 5.41284172,7.41949002 L5.46076837,7.467 L5.27139551,7.54744613 C3.32303091,8.41055639 2.00054459,10.3597242 2,12.5768192 C2,12.8105187 2.18937736,13 2.42307682,13 L12.5769204,13 C12.8146602,13 13.0057252,12.8041689 12.9998689,12.5665012 L12.9936556,12.3143493 L12.9786662,12.0963922 C12.8124899,10.2195085 11.7054099,8.59032347 10.0975748,7.72912248 L9.88530573,7.62184615 L9.91290717,7.59918141 C10.5719209,7.00194706 10.9692285,6.14442359 10.9692285,5.2157337 C10.9692285,3.43974487 9.52966391,2 7.75384465,2 Z M7.75384465,2.84615385 C9.06232249,2.84615385 10.1230749,3.90703907 10.1230749,5.2157337 C10.1230749,6.12846577 9.60268898,6.94753846 8.79811117,7.34342339 C8.4539009,7.5127888 8.49470222,8.01607102 8.86169919,8.12777852 L9.05230264,8.19033474 C10.6872392,8.76645062 11.8747545,10.2178638 12.1107902,11.9428761 L12.1343821,12.1538462 L2.86561517,12.1538462 L2.88301329,11.9912608 C3.12594393,10.0693773 4.54638563,8.48137396 6.45014171,8.04253629 C6.82462634,7.95621327 6.89933813,7.4556284 6.56637925,7.26372009 C5.84103534,6.84565187 5.38461454,6.07100682 5.38461454,5.2157337 C5.38461454,3.90703904 6.44536683,2.84615385 7.75384465,2.84615385 Z" id="形状结合" fill="#000000" fill-rule="nonzero"></path>
            <path d="M10.5053066,2.00975576 C11.951932,2.32926692 12.9998227,3.64066014 12.9998227,5.16980103 C12.9998227,6.10304831 12.6088609,6.96503389 11.9600787,7.56556601 L11.9300527,7.59142699 L11.9496126,7.60132897 C13.6367666,8.43722735 14.8088785,10.1310185 14.9789988,12.0936894 L14.9937529,12.3128405 L14.9998726,12.5665659 C15.0055065,12.8001528 14.823585,12.99415 14.5935395,12.9998706 C14.3890546,13.0049557 14.2153762,12.8595674 14.1753486,12.6631405 L14.1668041,12.5872822 L14.1610557,12.3438397 C14.0657593,10.362861 12.7565212,8.66731053 10.9234189,8.09727671 C10.5629811,7.98519256 10.5227395,7.48341584 10.8605689,7.31359443 C11.6533176,6.91509242 12.1665043,6.08987869 12.1665043,5.16980103 C12.1665043,4.03984762 11.3929151,3.07173158 10.3281866,2.83656868 C10.1033301,2.7869054 9.96069751,2.56155697 10.0096079,2.33323888 C10.0530837,2.13028948 10.233268,1.99330728 10.4306961,2.00025246 L10.5053066,2.00975576 Z" id="路径" fill="#000000" fill-rule="nonzero"></path>
        </g>
    </g>
</svg>