<?xml version="1.0" encoding="UTF-8"?>
<svg width="14px" height="14px" viewBox="0 0 14 14" version="1.1" xmlns="http://www.w3.org/2000/svg" xmlns:xlink="http://www.w3.org/1999/xlink">
    <title>folder-videos</title>
    <g id="页面-1" stroke="none" stroke-width="1" fill="none" fill-rule="evenodd">
        <g id="folder-videos">
            <path d="M7,0 C10.8659932,0 14,3.13400675 14,7 C14,10.8659932 10.8659932,14 7,14 C3.13400675,14 0,10.8659932 0,7 C0,3.13400675 3.13400675,0 7,0 Z M7,1 C3.6862915,1 1,3.6862915 1,7 C1,10.3137085 3.6862915,13 7,13 C10.3137085,13 13,10.3137085 13,7 C13,3.6862915 10.3137085,1 7,1 Z" id="椭圆形" fill="#000000" fill-rule="nonzero"></path>
            <rect id="矩形" stroke="#000000" x="7.5" y="13.5" width="6" height="1" rx="0.5"></rect>
            <path d="M7,2 C8.1045695,2 9,2.8954305 9,4 C9,5.1045695 8.1045695,6 7,6 C5.8954305,6 5,5.1045695 5,4 C5,2.8954305 5.8954305,2 7,2 Z M7,3 C6.44771525,3 6,3.44771525 6,4 C6,4.55228475 6.44771525,5 7,5 C7.55228475,5 8,4.55228475 8,4 C8,3.44771525 7.55228475,3 7,3 Z" id="椭圆形" fill="#000000" fill-rule="nonzero"></path>
            <path d="M10,5 C11.1045695,5 12,5.8954305 12,7 C12,8.1045695 11.1045695,9 10,9 C8.8954305,9 8,8.1045695 8,7 C8,5.8954305 8.8954305,5 10,5 Z M10,6 C9.44771525,6 9,6.44771525 9,7 C9,7.55228475 9.44771525,8 10,8 C10.5522847,8 11,7.55228475 11,7 C11,6.44771525 10.5522847,6 10,6 Z" id="椭圆形备份" fill="#000000" fill-rule="nonzero"></path>
            <path d="M7,8 C8.1045695,8 9,8.8954305 9,10 C9,11.1045695 8.1045695,12 7,12 C5.8954305,12 5,11.1045695 5,10 C5,8.8954305 5.8954305,8 7,8 Z M7,9 C6.44771525,9 6,9.44771525 6,10 C6,10.5522847 6.44771525,11 7,11 C7.55228475,11 8,10.5522847 8,10 C8,9.44771525 7.55228475,9 7,9 Z" id="椭圆形备份-2" fill="#000000" fill-rule="nonzero"></path>
            <path d="M4,5 C5.1045695,5 6,5.8954305 6,7 C6,8.1045695 5.1045695,9 4,9 C2.8954305,9 2,8.1045695 2,7 C2,5.8954305 2.8954305,5 4,5 Z M4,6 C3.44771525,6 3,6.44771525 3,7 C3,7.55228475 3.44771525,8 4,8 C4.55228475,8 5,7.55228475 5,7 C5,6.44771525 4.55228475,6 4,6 Z" id="椭圆形备份-3" fill="#000000" fill-rule="nonzero"></path>
        </g>
    </g>
</svg>