<?xml version="1.0" encoding="UTF-8"?>
<svg width="16px" height="14px" viewBox="0 0 16 14" version="1.1" xmlns="http://www.w3.org/2000/svg" xmlns:xlink="http://www.w3.org/1999/xlink">
    <title>folder-templates</title>
    <g id="页面-1" stroke="none" stroke-width="1" fill="none" fill-rule="evenodd">
        <g id="folder-templates" fill="#000000" fill-rule="nonzero">
            <path d="M9.95238095,0 C10.530965,0 11,0.44771525 11,1 L11,5 C11,5.55228475 10.530965,6 9.95238095,6 L1.04761905,6 C0.469035024,6 0,5.55228475 0,5 L0,1 C0,0.44771525 0.469035024,0 1.04761905,0 L9.95238095,0 Z M9.42857144,1 L1.57142857,1 C1.30280027,1 1.08140101,1.1930201 1.0511431,1.44168944 L1.04761905,1.5 L1.04761905,4.5 C1.04761905,4.75641792 1.24983058,4.96775358 1.51034132,4.99663613 L1.57142857,5 L9.42857144,5 C9.69719972,5 9.91859899,4.8069799 9.9488569,4.55831057 L9.95238095,4.5 L9.95238095,1.5 C9.95238095,1.24358208 9.75016943,1.03224642 9.48965868,1.00336387 L9.42857144,1 Z" id="形状"></path>
            <path d="M15.1111111,0 C15.6020309,0 16,0.44771525 16,1 L16,5 C16,5.55228475 15.6020309,6 15.1111111,6 L12.8888889,6 C12.3979691,6 12,5.55228475 12,5 L12,1 C12,0.44771525 12.3979691,0 12.8888889,0 L15.1111111,0 Z M14.6666667,1 L13.3333333,1 C13.1054063,1 12.9175524,1.1930201 12.891879,1.44168944 L12.8888889,1.5 L12.8888889,4.5 C12.8888889,4.75641792 13.0604623,4.96775358 13.2815017,4.99663613 L13.3333333,5 L14.6666667,5 C14.8945937,5 15.0824476,4.8069799 15.108121,4.55831057 L15.1111111,4.5 L15.1111111,1.5 C15.1111111,1.24358208 14.9395377,1.03224642 14.7184983,1.00336387 L14.6666667,1 Z" id="形状"></path>
            <path d="M8.28571429,7 L14.7142857,7 C15.4243661,7 16,7.62680135 16,8.4 L16,12.6 C16,13.3731986 15.4243661,14 14.7142857,14 L8.28571429,14 C7.57563389,14 7,13.3731986 7,12.6 L7,8.4 C7,7.62680135 7.57563389,7 8.28571429,7 Z" id="矩形"></path>
            <path d="M1.5,7 L4.5,7 C5.32842712,7 6,7.62680135 6,8.4 L6,12.6 C6,13.3731986 5.32842712,14 4.5,14 L1.5,14 C0.671572875,14 0,13.3731986 0,12.6 L0,8.4 C0,7.62680135 0.671572875,7 1.5,7 Z" id="矩形备份-10"></path>
        </g>
    </g>
</svg>