<?xml version="1.0" encoding="utf-8"?>
<!-- Generator: Adobe Illustrator 25.2.1, SVG Export Plug-In . SVG Version: 6.00 Build 0)  -->
<svg version="1.1" id="Layer_1" xmlns="http://www.w3.org/2000/svg" xmlns:xlink="http://www.w3.org/1999/xlink" x="0px" y="0px"
	 viewBox="0 0 16 16" style="enable-background:new 0 0 16 16;" xml:space="preserve">
<style type="text/css">
	.st0{fill:none;}
</style>
<g id="页面-1">
	<g id="folder-public">
		<rect id="矩形" x="0" y="-0.5" class="st0" width="16" height="16"/>
		<g id="编组-9" transform="translate(3.000000, 3.000000)">
			<path id="形状结合" d="M5.1-0.5c1.5,0,2.7,1.2,2.7,2.7c0,1.1-0.6,2-1.5,2.4c2,0.6,3.4,2.4,3.4,4.6l0,0.1H0
				C0,6.9,1.6,5,3.8,4.5C3,4,2.4,3.2,2.4,2.2C2.4,0.7,3.6-0.5,5.1-0.5z M5.1-0.3c-1.4,0-2.5,1.1-2.5,2.5c0,0.9,0.5,1.7,1.2,2.2
				c0.1,0.1,0.1,0.3,0,0.3C1.8,5.1,0.3,6.9,0.2,9l0,0.1h9.4l0,0c-0.1-2-1.4-3.7-3.2-4.3l-0.1,0c-0.1,0-0.2-0.2,0-0.3
				C7.1,4,7.6,3.1,7.6,2.2C7.6,0.8,6.5-0.3,5.1-0.3z"/>
			<path id="路径" d="M6.4-0.6c1.5,0,2.8,1.2,2.8,2.8c0,1-0.5,1.8-1.3,2.3l-0.1,0l0,0C9.7,5.2,11,7,11.1,9l0,0.1l0,0.1
				c0,0,0,0.1-0.1,0.1c0,0-0.1,0-0.1-0.1l0,0l0-0.1c0-2.1-1.4-3.9-3.4-4.5c-0.1,0-0.1-0.1,0-0.1C8.4,4.1,9,3.2,9,2.2
				c0-1.4-1.2-2.6-2.6-2.6C6.3-0.4,6.3-0.5,6.4-0.6C6.3-0.5,6.3-0.6,6.4-0.6z"/>
		</g>
	</g>
</g>
</svg>
