<?xml version="1.0" encoding="UTF-8"?>
<svg width="16px" height="16px" viewBox="0 0 16 16" version="1.1" xmlns="http://www.w3.org/2000/svg" xmlns:xlink="http://www.w3.org/1999/xlink">
    <title>folder-html</title>
    <g id="页面-1" stroke="none" stroke-width="1" fill="none" fill-rule="evenodd">
        <g id="folder-html">
            <rect id="矩形" x="0" y="0" width="16" height="16"></rect>
            <g id="编组-16" transform="translate(3.000000, 2.000000)" fill="#000000">
                <path d="M5.5,6.10622664e-16 C8.53756612,6.10622664e-16 11,2.46243388 11,5.5 C11,8.53756612 8.53756612,11 5.5,11 C2.46243388,11 0,8.53756612 0,5.5 C0,2.46243388 2.46243388,6.10622664e-16 5.5,6.10622664e-16 Z M5.5,0.183333333 C2.56368608,0.183333333 0.183333333,2.56368608 0.183333333,5.5 C0.183333333,8.43631392 2.56368608,10.8166667 5.5,10.8166667 C8.43631392,10.8166667 10.8166667,8.43631392 10.8166667,5.5 C10.8166667,2.56368608 8.43631392,0.183333333 5.5,0.183333333 Z" id="椭圆形" fill-rule="nonzero"></path>
                <path d="M8.43333333,5.5 C8.43333333,7.79573552 7.26120394,9.81770556 5.48275064,11.0001046 C2.4529134,10.9904682 -4.88498131e-15,8.53168839 -4.88498131e-15,5.5 C-4.88498131e-15,2.50088408 2.40048834,0.062432252 5.38492968,0.00117984485 L5.48313333,-8.54871729e-15 L5.59346422,0.0751298133 C7.30968881,1.26693566 8.43333333,3.25224721 8.43333333,5.5 Z M5.49027563,0.226666035 L5.4274,0.1837 L5.3886916,0.184474578 C2.49953284,0.243771414 0.183333333,2.60514821 0.183333333,5.5 C0.183333333,8.39144509 2.49188254,10.7447946 5.36799083,10.8151786 L5.4274,10.8159333 L5.49623547,10.7691954 C7.16829946,9.60508997 8.2032843,7.71440927 8.24845792,5.64160349 L8.25,5.5 C8.25,3.41800339 7.25132318,1.50461146 5.6036206,0.307192359 L5.49027563,0.226666035 Z" id="形状结合" fill-rule="nonzero"></path>
                <path d="M5.8658718,0.0119760757 C8.7328593,0.200269045 11,2.58537498 11,5.5 C11,8.41450058 8.73305288,10.7995273 5.866239,10.9879998 C4.09756012,9.80404706 2.93333333,7.7879834 2.93333333,5.5 C2.93333333,3.280207 4.0291977,1.31636683 5.70943421,0.119971726 L5.8658718,0.0119760757 Z M5.91543333,0.199466667 L5.81043979,0.273099209 C4.13482849,1.46829376 3.11666667,3.39792421 3.11666667,5.5 C3.11666667,7.62089364 4.15325355,9.56555074 5.85386813,10.7573201 L5.91616667,10.8001667 L5.97147769,10.7960623 C8.66009772,10.5600785 10.7560392,8.33002303 10.8153746,5.61820413 L10.8166667,5.5 C10.8166667,2.73490487 8.6988699,0.443144949 5.97112925,0.203907092 L5.91543333,0.199466667 Z" id="形状结合" fill-rule="nonzero"></path>
                <path d="M5.49989247,0.426427078 C5.54630936,0.426427078 5.58393768,0.464055398 5.58393768,0.510472282 L5.58393768,11.2308418 C5.58393768,11.2772587 5.54630936,11.314887 5.49989247,11.314887 C5.45347559,11.314887 5.41584727,11.2772587 5.41584727,11.2308418 L5.41584727,0.510472282 C5.41584727,0.464055398 5.45347559,0.426427078 5.49989247,0.426427078 Z" id="矩形" transform="translate(5.499892, 5.870657) rotate(-270.000000) translate(-5.499892, -5.870657) "></path>
            </g>
        </g>
    </g>
</svg>