<?xml version="1.0" encoding="UTF-8"?>
<svg width="16px" height="16px" viewBox="0 0 16 16" version="1.1" xmlns="http://www.w3.org/2000/svg" xmlns:xlink="http://www.w3.org/1999/xlink">
    <title>folder-home</title>
    <g id="页面-1" stroke="none" stroke-width="1" fill="none" fill-rule="evenodd">
        <g id="folder-home">
            <rect id="矩形" x="0" y="0" width="16" height="16"></rect>
            <path d="M8.23704375,3.10746015 L3.10059889,8.29581619 C2.97916529,8.41844237 2.97916529,8.45308454 3.03988209,8.51470302 C3.10059889,8.5763215 3.22105906,8.43810672 3.61424338,8.04106102 C3.87636626,7.77636389 4.049947,7.60107845 4.13498559,7.51520471 L4.13498559,12.532767 C4.13498559,13.3456141 4.78300743,14 5.58794936,14 L11.3998044,14 C12.2047463,14 12.8527682,13.3456141 12.8527682,12.532767 L12.8527682,7.46678723 C12.9594668,7.57453366 13.1330475,7.7498191 13.3735104,7.99264355 C13.7342048,8.35688022 13.8587409,8.53061339 13.9260842,8.49110613 C13.9934274,8.45159886 13.9662557,8.38691992 13.9063536,8.32642957 L8.75071003,3.10746015 C8.67956566,3.03561415 8.5867358,3 8.49388415,3 C8.40101797,3 8.30819538,3.03561708 8.23704375,3.10746015 Z M8.49387689,3.12048699 L12.7375886,7.38172575 L12.7375886,12.5660613 C12.7375886,13.2543027 12.1036351,13.8941874 11.4978429,13.8941874 L10.0733641,13.8941874 L10.0733641,11.2242979 C10.0733641,10.3345608 9.36891279,9.61827425 8.49387689,9.61827425 C7.61884099,9.61827425 6.91438971,10.3345608 6.91438971,11.2242979 L6.91438971,13.8941874 L5.49664153,13.8941874 C4.91127483,13.8941874 4.27097961,13.2713853 4.27097961,12.6700186 L4.27097961,7.38172575 L8.49387689,3.12048699 Z" id="形状" fill="#000000" fill-rule="nonzero"></path>
        </g>
    </g>
</svg>