<?xml version="1.0" encoding="UTF-8"?>
<svg width="16px" height="16px" viewBox="0 0 16 16" version="1.1" xmlns="http://www.w3.org/2000/svg" xmlns:xlink="http://www.w3.org/1999/xlink">
    <title>folder-download</title>
    <g id="页面-1" stroke="none" stroke-width="1" fill="none" fill-rule="evenodd">
        <g id="folder-download" fill="#000000" fill-rule="nonzero">
            <path d="M8,0 C12.418278,0 16,3.581722 16,8 C16,12.418278 12.418278,16 8,16 C3.581722,16 0,12.418278 0,8 C0,3.581722 3.581722,0 8,0 Z M8,1 C4.13400675,1 1,4.13400675 1,8 C1,11.8659932 4.13400675,15 8,15 C11.8659932,15 15,11.8659932 15,8 C15,4.13400675 11.8659932,1 8,1 Z" id="椭圆形"></path>
            <path d="M8.01087413,3 C7.58834954,3 7.24582569,3.34252385 7.24582569,3.76504844 L7.24582569,3.76504844 L7.245718,10.3884553 L5.30601935,8.44815495 C5.00724938,8.14938498 4.52284749,8.14938498 4.22407752,8.44815495 C3.92530749,8.74692511 3.92530749,9.23132682 4.22407752,9.53009698 L4.22407752,9.53009698 L7.46990321,12.7759225 C7.6192881,12.9253076 7.81508102,13 8.01087413,13 L8.01087413,13 L8.1569936,12.9859952 C8.30166311,12.9579855 8.43980618,12.8879613 8.55184504,12.7759225 L8.55184504,12.7759225 L11.7976707,9.53009698 C12.0964407,9.23132682 12.0964407,8.74692511 11.7976707,8.44815495 C11.4989006,8.14938498 11.0144989,8.14938498 10.7157287,8.44815495 L10.7157287,8.44815495 L8.77581489,10.3865427 L8.77592257,3.76504844 C8.77592257,3.34252385 8.43339871,3 8.01087413,3 Z" id="形状结合-path"></path>
        </g>
    </g>
</svg>