<?xml version="1.0" encoding="UTF-8"?>
<svg width="16px" height="16px" viewBox="0 0 16 16" version="1.1" xmlns="http://www.w3.org/2000/svg" xmlns:xlink="http://www.w3.org/1999/xlink">
    <title>folder-txt</title>
    <g id="页面-1" stroke="none" stroke-width="1" fill="none" fill-rule="evenodd">
        <g id="folder-txt">
            <rect id="矩形" x="0" y="0" width="16" height="16" rx="1"></rect>
            <g id="编组-13" transform="translate(3.000000, 3.000000)" fill="#000000" fill-rule="nonzero">
                <path d="M5.72310273,0.0648202483 L5.67064173,0.0428073568 L0.543486996,0.0432407157 C0.243330198,0.0432407154 -4.27435864e-15,0.286570913 -4.27435864e-15,0.586733924 L-4.27435864e-15,10.4565068 C-4.27435864e-15,10.7566698 0.243330198,11 0.543493209,11 L9.47328771,11 C9.77345072,11 10.0167809,10.7566698 10.0167809,10.4565068 L10.0167809,4.46890251 L9.99573168,4.41741138 L5.72310273,0.0648202483 Z M5.63981682,0.189640384 L9.86953244,4.49874034 L9.86977287,10.4565068 C9.86977287,10.6754795 9.69226041,10.852992 9.47328771,10.852992 L0.543493209,10.852992 C0.324520502,10.852992 0.14700805,10.6754795 0.14700805,10.4565068 L0.14700805,0.586733924 C0.14700805,0.367761217 0.324520502,0.190248765 0.543493209,0.190248765 L5.63981682,0.189640384 Z" id="路径"></path>
                <path d="M5.67064794,-2.44249065e-15 L10.0700514,4.43209998 L6.87936423,4.43209998 C6.21180866,4.43209998 5.67064794,3.89101657 5.67064794,3.22355636 L5.67064794,-2.44249065e-15 Z M5.85188259,0.40873253 L5.85188259,3.2455035 C5.85188259,3.72098992 6.28801456,4.1965845 6.74926113,4.25014262 C6.93014213,4.2711458 7.34517295,4.28279673 7.99435357,4.28509541 L8.41195992,4.28535235 C8.7833802,4.28463124 9.21333793,4.28157206 9.70183311,4.27617482 L5.85188259,0.40873253 Z" id="形状结合"></path>
            </g>
        </g>
    </g>
</svg>