<?xml version="1.0" encoding="UTF-8"?>
<svg width="16px" height="16px" viewBox="0 0 16 16" version="1.1" xmlns="http://www.w3.org/2000/svg" xmlns:xlink="http://www.w3.org/1999/xlink">
    <title>user-trash-full</title>
    <g id="页面-1" stroke="none" stroke-width="1" fill="none" fill-rule="evenodd">
        <g id="user-trash-full">
            <rect id="矩形" x="0" y="0" width="16" height="16"></rect>
            <g id="changyong_lajitong" transform="translate(3.000000, 2.000000)" fill-rule="nonzero">
                <path d="M9.51015351,2.05242772 L9.95,10.1428571 C9.95,10.6396433 9.73991985,11.0911549 9.4017973,11.4185434 C9.10071512,11.7100674 8.69810319,11.9032428 8.25142493,11.9425716 L8.08196721,11.95 L2.91803279,11.95 C2.4041362,11.95 1.93692016,11.7465079 1.5982027,11.4185434 C1.29764932,11.1275314 1.09826525,10.7384468 1.05766821,10.3066675 L1.05,10.1428571 L1.05,2.47612999 L9.51015351,2.05242772 Z M9.1647541,2.80714286 L1.8352459,2.80714286 L1.8352459,10.1428571 L1.84257117,10.2649477 C1.87159785,10.505388 1.9852349,10.7217692 2.15384648,10.8850281 C2.34996509,11.0749207 2.62045397,11.1928571 2.91803279,11.1928571 L2.91803279,11.1928571 L8.08196721,11.1928571 L8.20770458,11.1857706 C8.45531081,11.1576925 8.67805185,11.0477932 8.84615352,10.8850281 C9.04286703,10.6945594 9.1647541,10.4317853 9.1647541,10.1428571 L9.1647541,10.1428571 L9.1647541,2.80714286 Z" id="形状" stroke="#FFFFFF" stroke-width="0.1" fill="#000000"></path>
                <path d="M5.53395062,9 C5.30987654,9 5.12654321,8.81470588 5.12654321,8.58823529 L5.12654321,5.15686275 C5.12654321,4.93039216 5.30987654,4.74509804 5.53395062,4.74509804 C5.75802469,4.74509804 5.94135802,4.93039216 5.94135802,5.15686275 L5.94135802,8.58823529 C5.94135802,8.81470588 5.75802469,9 5.53395062,9 L5.53395062,9 Z M3.7345679,9 C3.51049383,9 3.32716049,8.81470588 3.32716049,8.58823529 L3.32716049,5.15686275 C3.32716049,4.93039216 3.51049383,4.74509804 3.7345679,4.74509804 C3.95864198,4.74509804 4.14197531,4.93039216 4.14197531,5.15686275 L4.14197531,8.58823529 C4.14197531,8.81470588 3.95864198,9 3.7345679,9 Z M7.33333333,9 C7.10925926,9 6.92592593,8.81470588 6.92592593,8.58823529 L6.92592593,5.15686275 C6.92592593,4.93039216 7.10925926,4.74509804 7.33333333,4.74509804 C7.55740741,4.74509804 7.74074074,4.93039216 7.74074074,5.15686275 L7.74074074,8.58823529 C7.74074074,8.81470588 7.55740741,9 7.33333333,9 Z M10.5925926,2.82352941 L0.407407407,2.82352941 C0.183333333,2.82352941 0,2.63823529 0,2.41176471 C0,2.18529412 0.183333333,2 0.407407407,2 L10.5925926,2 C10.8166667,2 11,2.18529412 11,2.41176471 C11,2.63823529 10.8166667,2.82352941 10.5925926,2.82352941 Z" id="形状" fill="#000000"></path>
                <path d="M3.5,0 L7.5,0 C7.77614237,-1.61748834e-16 8,0.223857625 8,0.5 L8,2.41176471 L8,2.41176471 L3,2.41176471 L3,0.5 C3,0.223857625 3.22385763,-4.7846199e-18 3.5,0 Z" id="矩形" stroke="#000000" stroke-width="0.6"></path>
            </g>
        </g>
    </g>
</svg>