<?xml version="1.0" encoding="UTF-8"?>
<svg width="16px" height="16px" viewBox="0 0 16 16" version="1.1" xmlns="http://www.w3.org/2000/svg" xmlns:xlink="http://www.w3.org/1999/xlink">
    <title>user-trash</title>
    <g id="页面-1" stroke="none" stroke-width="1" fill="none" fill-rule="evenodd">
        <g id="user-trash">
            <path d="M7.00001067,3 C6.63067635,3 6.33334222,3.30661542 6.33334222,3.68747852 L6.33334222,4.37495703 L3.33333422,4.37495703 C3.14866706,4.37495703 3,4.52826474 3,4.71869629 C3,4.90912784 3.14866706,5.06243555 3.33333422,5.06243555 L3.66536844,5.06243555 L4.02995608,12.6666354 C4.07075619,13.3647699 4.63405769,14 5.36195963,14 L10.6380404,14 C11.3659756,14 11.9292438,13.3648317 11.9700439,12.6666354 L12.3346316,5.06243555 L12.6666658,5.06243555 C12.8513329,5.06243555 13,4.90912784 13,4.71869629 C13,4.52826474 12.8513329,4.37495703 12.6666658,4.37495703 L9.66665778,4.37495703 L9.66665778,3.68747852 C9.66665778,3.30661542 9.36932365,3 8.99998933,3 L6.999984,3 L7.00001067,3 Z M7.00001067,3.68747852 L9.00001067,3.68747852 L9.00001067,4.37495703 L7.00001067,4.37495703 L7.00001067,3.68747852 Z M4.33331022,5.06243555 L11.6666898,5.06243555 L11.3047088,12.6246992 C11.2824888,13.0048748 11.0073747,13.3121777 10.6380404,13.3121777 L5.36195963,13.3121777 C4.99262531,13.3121777 4.71751125,13.0048748 4.69529119,12.6246992 L4.33331022,5.06243555 L4.33331022,5.06243555 Z M6.000008,6.43739258 C5.81534084,6.43739258 5.66667378,6.59070029 5.66667378,6.78113184 L5.66667378,11.5934815 C5.66667378,11.783913 5.81534084,11.9372207 6.000008,11.9372207 C6.18467516,11.9372207 6.33334222,11.783913 6.33334222,11.5934815 L6.33334222,6.78113184 C6.33334222,6.59070029 6.18467516,6.43739258 6.000008,6.43739258 Z M8.00001333,6.43739258 C7.81534617,6.43739258 7.66667911,6.59070029 7.66667911,6.78113184 L7.66667911,11.5934815 C7.66667911,11.783913 7.81534617,11.9372207 8.00001333,11.9372207 C8.18468049,11.9372207 8.33334756,11.783913 8.33334756,11.5934815 L8.33334756,6.78113184 C8.33334756,6.59070029 8.18468049,6.43739258 8.00001333,6.43739258 Z M10.0000187,6.43739258 C9.81535151,6.43739258 9.66668444,6.59070029 9.66668444,6.78113184 L9.66668444,11.5934815 C9.66668444,11.783913 9.81535151,11.9372207 10.0000187,11.9372207 C10.1846858,11.9372207 10.3333529,11.783913 10.3333529,11.5934815 L10.3333529,6.78113184 C10.3333529,6.59070029 10.1846858,6.43739258 10.0000187,6.43739258 Z" id="形状" fill="#000000" fill-rule="nonzero"></path>
            <rect id="矩形" x="0" y="0" width="16" height="16"></rect>
        </g>
    </g>
</svg>