<?xml version="1.0" encoding="UTF-8"?>
<svg width="15px" height="16px" viewBox="0 0 15 16" version="1.1" xmlns="http://www.w3.org/2000/svg" xmlns:xlink="http://www.w3.org/1999/xlink">
    <title>user-trash</title>
    <g id="页面-1" stroke="none" stroke-width="1" fill="none" fill-rule="evenodd">
        <g id="user-trash" fill="#000000" fill-rule="nonzero">
            <path d="M6,-4.4408921e-16 C5.446,-4.4408921e-16 5,0.446 5,1 L5,2 L0.5,2 C0.223,2 0,2.223 0,2.5 C0,2.777 0.223,3 0.5,3 L0.99805,3 L1.54493,14.061 C1.60613,15.0765 2.45108,16.0005 3.54293,16.0005 L11.45703,16.0005 C12.54893,16.0005 13.39383,15.07659 13.45503,14.061 L14.00191,3 L14.49996,3 C14.77696,3 14.99996,2.777 14.99996,2.5 C14.99996,2.223 14.77696,2 14.49996,2 L9.99996,2 L9.99996,1 C9.99996,0.446 9.55396,-4.4408921e-16 8.99996,-4.4408921e-16 L5.99996,-4.4408921e-16 L6,-4.4408921e-16 Z M6,1 L9,1 L9,2 L6,2 L6,1 Z M1.99996,3 L13,3 L12.45703,14 C12.4237,14.553 12.01103,15 11.45703,15 L3.54293,15 C2.98893,15 2.57626,14.553 2.54293,14 L1.99996,3 L1.99996,3 Z M4.5,5 C4.223,5 4,5.223 4,5.5 L4,12.5 C4,12.777 4.223,13 4.5,13 C4.777,13 5,12.777 5,12.5 L5,5.5 C5,5.223 4.777,5 4.5,5 Z M7.5,5 C7.223,5 7,5.223 7,5.5 L7,12.5 C7,12.777 7.223,13 7.5,13 C7.777,13 8,12.777 8,12.5 L8,5.5 C8,5.223 7.777,5 7.5,5 Z M10.5,5 C10.223,5 10,5.223 10,5.5 L10,12.5 C10,12.777 10.223,13 10.5,13 C10.777,13 11,12.777 11,12.5 L11,5.5 C11,5.223 10.777,5 10.5,5 Z" id="形状"></path>
        </g>
    </g>
</svg>