<?xml version="1.0" encoding="UTF-8"?>
<svg width="16px" height="16px" viewBox="0 0 16 16" version="1.1" xmlns="http://www.w3.org/2000/svg" xmlns:xlink="http://www.w3.org/1999/xlink">
    <title>user-trash-full</title>
    <g id="页面-1" stroke="none" stroke-width="1" fill="none" fill-rule="evenodd">
        <g id="user-trash-full">
            <rect id="矩形" x="0" y="0" width="16" height="16"></rect>
            <path d="M6.3000088,3.68747852 L6.3000088,4.85681893 L3.33000088,4.85681893 C3.14718039,4.85681893 3,4.82154446 3,4.95431932 C3,5.08709417 3.14718039,5.06243555 3.33000088,5.06243555 L3.65871476,5.06243555 L4.01965652,12.6666354 C4.06004863,13.3647699 4.61771711,14 5.33834004,14 L10.56166,14 C11.2823159,14 11.8399514,13.3648317 11.8803435,12.6666354 L12.2412852,5.06243555 L12.5699991,5.06243555 C12.7528196,5.06243555 12.9,5.06784565 12.9,4.95431932 C12.9,4.84079298 12.7528196,4.85681893 12.5699991,4.85681893 L9.5999912,4.85681893 L9.5999912,3.68747852 C9.5999912,3.30661542 9.30563042,3 8.93998944,3 L6.95998416,3 C6.59436958,3 6.3000088,3.30661542 6.3000088,3.68747852 Z M6.60848838,3.29872976 C6.67055031,3.24789293 6.74997163,3.16892654 6.94472095,3.15256503 C7.25692891,3.15256503 8.42172681,3.13391014 8.9997551,3.15256503 C9.13880013,3.15705247 9.27292941,3.21630406 9.32897237,3.29872976 C9.39214703,3.39164448 9.43221032,3.50127865 9.43221032,3.65584531 C9.43221032,3.84419483 9.43221032,4.24458395 9.43221032,4.85701265 L6.45195937,4.85701265 C6.44469039,4.47320339 6.44469039,4.0783858 6.45195937,3.6725599 C6.45195937,3.53144525 6.50859452,3.38055589 6.60848838,3.29872976 Z M4.46669333,5.03271701 L12.0685491,5.03271701 L11.7065704,12.7100829 C11.7065704,13.2406141 11.1841139,13.8465098 10.6113969,13.8465098 C10.2295856,13.8465098 8.43731216,13.8465098 5.23457671,13.8465098 C4.76964601,13.8465098 4.22892277,13.3018083 4.20049715,12.8262482 L3.83851847,5.03271701 L4.46669333,5.03271701 Z M5.93333333,6.3 C5.7302,6.3 6.13964488,6.4533125 6.13964488,6.64375 L6.13964488,11.45625 C6.13964488,11.6466875 5.7302,11.8 5.93333333,11.8 C6.13646667,11.8 6.3,11.6466875 6.3,11.45625 L6.3,6.64375 C6.3,6.4533125 6.13646667,6.3 5.93333333,6.3 Z M8.13333333,6.3 C7.9302,6.3 8.31112283,6.4533125 8.31112283,6.64375 L8.31112283,11.45625 C8.31112283,11.6466875 7.9302,11.8 8.13333333,11.8 C8.33646667,11.8 8.5,11.6466875 8.5,11.45625 L8.5,6.64375 C8.5,6.4533125 8.33646667,6.3 8.13333333,6.3 Z M9.96666667,6.3 C9.76353333,6.3 10.1666294,6.4533125 10.1666294,6.64375 L10.1666294,11.45625 C10.1666294,11.6466875 9.76353333,11.8 9.96666667,11.8 C10.1698,11.8 10.3333333,11.6466875 10.3333333,11.45625 L10.3333333,6.64375 C10.3333333,6.4533125 10.1698,6.3 9.96666667,6.3 Z" id="形状" fill="#000000" fill-rule="nonzero"></path>
        </g>
    </g>
</svg>