<?xml version="1.0" encoding="UTF-8"?>
<svg width="10px" height="11px" viewBox="0 0 10 11" version="1.1" xmlns="http://www.w3.org/2000/svg" xmlns:xlink="http://www.w3.org/1999/xlink">
    <title>user-trash</title>
    <g id="页面-1" stroke="none" stroke-width="1" fill="none" fill-rule="evenodd">
        <g id="user-trash" fill="#000000" fill-rule="nonzero">
            <path d="M4.00001067,0 C3.63067635,0 3.33334222,0.306615418 3.33334222,0.687478516 L3.33334222,1.37495703 L0.333334222,1.37495703 C0.148667063,1.37495703 0,1.52826474 0,1.71869629 C0,1.90912784 0.148667063,2.06243555 0.333334222,2.06243555 L0.665368441,2.06243555 L1.02995608,9.66663542 C1.07075619,10.3647699 1.63405769,11 2.36195963,11 L7.63804037,11 C8.36597564,11 8.92924381,10.3648317 8.97004392,9.66663542 L9.33463156,2.06243555 L9.66666578,2.06243555 C9.85133294,2.06243555 10,1.90912784 10,1.71869629 C10,1.52826474 9.85133294,1.37495703 9.66666578,1.37495703 L6.66665778,1.37495703 L6.66665778,0.687478516 C6.66665778,0.306615418 6.36932365,0 5.99998933,0 L3.999984,0 L4.00001067,0 Z M4.00001067,0.687478516 L6.00001067,0.687478516 L6.00001067,1.37495703 L4.00001067,1.37495703 L4.00001067,0.687478516 Z M1.33331022,2.06243555 L8.66668978,2.06243555 L8.30470881,9.62469923 C8.28248875,10.0048748 8.00737469,10.3121777 7.63804037,10.3121777 L2.36195963,10.3121777 C1.99262531,10.3121777 1.71751125,10.0048748 1.69529119,9.62469923 L1.33331022,2.06243555 L1.33331022,2.06243555 Z M3.000008,3.43739258 C2.81534084,3.43739258 2.66667378,3.59070029 2.66667378,3.78113184 L2.66667378,8.59348145 C2.66667378,8.783913 2.81534084,8.93722071 3.000008,8.93722071 C3.18467516,8.93722071 3.33334222,8.783913 3.33334222,8.59348145 L3.33334222,3.78113184 C3.33334222,3.59070029 3.18467516,3.43739258 3.000008,3.43739258 Z M5.00001333,3.43739258 C4.81534617,3.43739258 4.66667911,3.59070029 4.66667911,3.78113184 L4.66667911,8.59348145 C4.66667911,8.783913 4.81534617,8.93722071 5.00001333,8.93722071 C5.18468049,8.93722071 5.33334756,8.783913 5.33334756,8.59348145 L5.33334756,3.78113184 C5.33334756,3.59070029 5.18468049,3.43739258 5.00001333,3.43739258 Z M7.00001867,3.43739258 C6.81535151,3.43739258 6.66668444,3.59070029 6.66668444,3.78113184 L6.66668444,8.59348145 C6.66668444,8.783913 6.81535151,8.93722071 7.00001867,8.93722071 C7.18468583,8.93722071 7.33335289,8.783913 7.33335289,8.59348145 L7.33335289,3.78113184 C7.33335289,3.59070029 7.18468583,3.43739258 7.00001867,3.43739258 Z" id="形状"></path>
        </g>
    </g>
</svg>