<?xml version="1.0" encoding="UTF-8"?>
<svg width="471px" height="471px" viewBox="0 0 471 471" version="1.1" xmlns="http://www.w3.org/2000/svg" xmlns:xlink="http://www.w3.org/1999/xlink">
    <title>外置硬盘图标</title>
    <defs>
        <linearGradient x1="50%" y1="-40.4420873%" x2="50%" y2="86.8398887%" id="linearGradient-1">
            <stop stop-color="#9EA6A9" offset="0%"></stop>
            <stop stop-color="#C0D4DB" offset="100%"></stop>
        </linearGradient>
        <linearGradient x1="50.0000704%" y1="0%" x2="50.0000704%" y2="132.911715%" id="linearGradient-2">
            <stop stop-color="#898D8B" offset="0%"></stop>
            <stop stop-color="#656866" offset="50.1336611%"></stop>
            <stop stop-color="#C0D4DB" offset="100%"></stop>
            <stop stop-color="#C0D4DB" offset="100%"></stop>
        </linearGradient>
        <linearGradient x1="50%" y1="0%" x2="50%" y2="100%" id="linearGradient-3">
            <stop stop-color="#C8C8C8" offset="0%"></stop>
            <stop stop-color="#979797" offset="100%"></stop>
        </linearGradient>
        <linearGradient x1="50%" y1="0%" x2="50%" y2="159.44592%" id="linearGradient-4">
            <stop stop-color="#E2F1F7" offset="0%"></stop>
            <stop stop-color="#ACB3B6" offset="100%"></stop>
        </linearGradient>
        <radialGradient cx="100%" cy="50%" fx="100%" fy="50%" r="134.730539%" gradientTransform="translate(1.000000,0.500000),scale(0.742222,1.000000),translate(-1.000000,-0.500000)" id="radialGradient-5">
            <stop stop-color="#A8B0B4" offset="0%"></stop>
            <stop stop-color="#E7F2F6" offset="28.9637248%"></stop>
            <stop stop-color="#BCC4C8" offset="89.3700802%"></stop>
            <stop stop-color="#ABB4B8" offset="100%"></stop>
        </radialGradient>
        <ellipse id="path-6" cx="235.5" cy="245.5" rx="112.5" ry="83.5"></ellipse>
        <filter x="-3.1%" y="-3.0%" width="106.2%" height="108.4%" filterUnits="objectBoundingBox" id="filter-7">
            <feOffset dx="0" dy="2" in="SourceAlpha" result="shadowOffsetOuter1"></feOffset>
            <feMorphology radius="6" operator="erode" in="SourceAlpha" result="shadowInner"></feMorphology>
            <feOffset dx="0" dy="2" in="shadowInner" result="shadowInner"></feOffset>
            <feComposite in="shadowOffsetOuter1" in2="shadowInner" operator="out" result="shadowOffsetOuter1"></feComposite>
            <feGaussianBlur stdDeviation="2" in="shadowOffsetOuter1" result="shadowBlurOuter1"></feGaussianBlur>
            <feColorMatrix values="0 0 0 0 0.666666667   0 0 0 0 0.71372549   0 0 0 0 0.729411765  0 0 0 1 0" type="matrix" in="shadowBlurOuter1"></feColorMatrix>
        </filter>
        <filter x="-4.7%" y="-5.1%" width="109.3%" height="112.6%" filterUnits="objectBoundingBox" id="filter-8">
            <feGaussianBlur stdDeviation="3" in="SourceAlpha" result="shadowBlurInner1"></feGaussianBlur>
            <feOffset dx="-2" dy="7" in="shadowBlurInner1" result="shadowOffsetInner1"></feOffset>
            <feComposite in="shadowOffsetInner1" in2="SourceAlpha" operator="arithmetic" k2="-1" k3="1" result="shadowInnerInner1"></feComposite>
            <feColorMatrix values="0 0 0 0 0.666666667   0 0 0 0 0.71372549   0 0 0 0 0.733333333  0 0 0 1 0" type="matrix" in="shadowInnerInner1"></feColorMatrix>
        </filter>
        <radialGradient cx="29.7595323%" cy="59.2204669%" fx="29.7595323%" fy="59.2204669%" r="74.2143838%" gradientTransform="translate(0.297595,0.592205),scale(0.742657,1.000000),rotate(26.798010),translate(-0.297595,-0.592205)" id="radialGradient-9">
            <stop stop-color="#DFEDF2" offset="0%"></stop>
            <stop stop-color="#C4CED2" offset="100%"></stop>
        </radialGradient>
        <linearGradient x1="12.9541016%" y1="40.0390453%" x2="74.9937609%" y2="54.1421787%" id="linearGradient-10">
            <stop stop-color="#B2C1C6" offset="0%"></stop>
            <stop stop-color="#EFEFEF" offset="100%"></stop>
        </linearGradient>
        <radialGradient cx="77.8688665%" cy="50%" fx="77.8688665%" fy="50%" r="130.508475%" gradientTransform="translate(0.778689,0.500000),scale(0.766234,1.000000),scale(1.000000,1.485865),translate(-0.778689,-0.500000)" id="radialGradient-11">
            <stop stop-color="#B3BCC0" offset="0%"></stop>
            <stop stop-color="#E7F2F6" offset="28.9637248%"></stop>
            <stop stop-color="#B2B9BD" offset="75.1896785%"></stop>
            <stop stop-color="#B3BBC0" offset="100%"></stop>
        </radialGradient>
        <ellipse id="path-12" cx="38.5" cy="29.5" rx="38.5" ry="29.5"></ellipse>
        <filter x="-9.1%" y="-8.5%" width="118.2%" height="123.7%" filterUnits="objectBoundingBox" id="filter-13">
            <feOffset dx="0" dy="2" in="SourceAlpha" result="shadowOffsetOuter1"></feOffset>
            <feMorphology radius="6" operator="erode" in="SourceAlpha" result="shadowInner"></feMorphology>
            <feOffset dx="0" dy="2" in="shadowInner" result="shadowInner"></feOffset>
            <feComposite in="shadowOffsetOuter1" in2="shadowInner" operator="out" result="shadowOffsetOuter1"></feComposite>
            <feGaussianBlur stdDeviation="2" in="shadowOffsetOuter1" result="shadowBlurOuter1"></feGaussianBlur>
            <feColorMatrix values="0 0 0 0 0.540424292   0 0 0 0 0.540424292   0 0 0 0 0.540424292  0 0 0 0.5 0" type="matrix" in="shadowBlurOuter1"></feColorMatrix>
        </filter>
        <filter x="-13.6%" y="-14.4%" width="127.3%" height="135.6%" filterUnits="objectBoundingBox" id="filter-14">
            <feGaussianBlur stdDeviation="3" in="SourceAlpha" result="shadowBlurInner1"></feGaussianBlur>
            <feOffset dx="-2" dy="7" in="shadowBlurInner1" result="shadowOffsetInner1"></feOffset>
            <feComposite in="shadowOffsetInner1" in2="SourceAlpha" operator="arithmetic" k2="-1" k3="1" result="shadowInnerInner1"></feComposite>
            <feColorMatrix values="0 0 0 0 0.666666667   0 0 0 0 0.71372549   0 0 0 0 0.733333333  0 0 0 1 0" type="matrix" in="shadowInnerInner1"></feColorMatrix>
        </filter>
        <linearGradient x1="-20.3791659%" y1="31.6824298%" x2="100%" y2="57.3029636%" id="linearGradient-15">
            <stop stop-color="#979797" offset="0%"></stop>
            <stop stop-color="#C8C8C8" offset="100%"></stop>
        </linearGradient>
        <path d="M185,355 L285,355 L285,362 C285,362.552285 284.552285,363 284,363 L186,363 C185.447715,363 185,362.552285 185,362 L185,355 L185,355 Z" id="path-16"></path>
        <filter x="-11.0%" y="-125.0%" width="122.0%" height="375.0%" filterUnits="objectBoundingBox" id="filter-17">
            <feMorphology radius="1" operator="dilate" in="SourceAlpha" result="shadowSpreadOuter1"></feMorphology>
            <feOffset dx="0" dy="1" in="shadowSpreadOuter1" result="shadowOffsetOuter1"></feOffset>
            <feGaussianBlur stdDeviation="2.5" in="shadowOffsetOuter1" result="shadowBlurOuter1"></feGaussianBlur>
            <feColorMatrix values="0 0 0 0 0.368627451   0 0 0 0 0.729411765   0 0 0 0 1  0 0 0 1 0" type="matrix" in="shadowBlurOuter1"></feColorMatrix>
        </filter>
    </defs>
    <g id="页面-1" stroke="none" stroke-width="1" fill="none" fill-rule="evenodd">
        <g id="外置硬盘图标">
            <rect id="矩形" fill="#5B5B5B" x="0" y="0" width="471" height="471" rx="99"></rect>
            <path d="M116.963623,84 L357.928369,84 C363.30792,84 367.723491,88.255858 367.921587,93.6317603 L377,340 L377,340 L94,340 L106.97745,93.4743142 C107.257039,88.1631075 111.645062,84 116.963623,84 Z" id="矩形" fill="url(#linearGradient-1)"></path>
            <path d="M94,340 L377,340 L377,377 C377,382.522847 372.522847,387 367,387 L104,387 C98.4771525,387 94,382.522847 94,377 L94,340 L94,340 Z" id="矩形" fill="url(#linearGradient-2)"></path>
            <ellipse id="椭圆形" fill="#F1F1F1" cx="123.5" cy="105" rx="7.5" ry="6"></ellipse>
            <ellipse id="椭圆形备份-5" fill="#F1F1F1" cx="115.5" cy="201.5" rx="7.5" ry="6.5"></ellipse>
            <circle id="椭圆形备份-7" fill="#F1F1F1" cx="107.5" cy="317.5" r="7.5"></circle>
            <ellipse id="椭圆形备份-4" fill="#F1F1F1" cx="346.5" cy="105" rx="7.5" ry="6"></ellipse>
            <ellipse id="椭圆形备份-6" fill="#F1F1F1" cx="354.5" cy="201.5" rx="7.5" ry="6.5"></ellipse>
            <circle id="椭圆形备份-8" fill="#F1F1F1" cx="362.5" cy="317.5" r="7.5"></circle>
            <ellipse id="椭圆形" fill="#545454" cx="123.5" cy="104" rx="7.5" ry="6"></ellipse>
            <ellipse id="椭圆形备份-5" fill="#545454" cx="115.5" cy="199.5" rx="7.5" ry="6.5"></ellipse>
            <path d="M115.107143,196.5 C115.555194,196.27711 115.706015,196.279732 115.801603,196.34056 C115.863485,196.37994 115.892857,196.436083 115.892857,196.499936 L115.892857,196.499936 L115.891936,200.106989 L119.5,200.107143 C119.569036,200.107143 119.631536,200.135125 119.676777,200.180366 C119.722018,200.225607 119.75,200.288107 119.75,200.357143 L119.75,200.357143 L119.75,200.642857 C119.75,200.711893 119.722018,200.774393 119.676777,200.819634 C119.631536,200.864875 119.569036,200.892857 119.500064,200.892857 L119.500064,200.892857 L115.891936,200.891936 L115.892857,204.5 C115.892857,204.569036 115.864875,204.631536 115.819634,204.676777 C115.774393,204.722018 115.711893,204.75 115.642857,204.75 L115.642857,204.75 L115.357143,204.75 C115.288107,204.75 115.225607,204.722018 115.180366,204.676777 C115.135125,204.631536 115.107143,204.569036 115.107143,204.499989 L115.107143,204.499989 L115.106989,200.891936 L111.5,200.892857 C111.430964,200.892857 111.368464,200.864875 111.323223,200.819634 C111.277982,200.774393 111.25,200.711893 111.25,200.642857 L111.25,200.642857 L111.25,200.357143 C111.25,200.288107 111.277982,200.225607 111.323223,200.180366 C111.368464,200.135125 111.430964,200.107143 111.500011,200.107143 L111.500011,200.107143 L115.106989,200.106989 Z" id="形状结合" stroke="url(#linearGradient-3)" stroke-width="0.5" fill="#050505"></path>
            <circle id="椭圆形备份-7" fill="#545454" cx="107.5" cy="316.5" r="7.5"></circle>
            <path d="M107.107143,312.5 C107.555194,312.27711 107.706015,312.279732 107.801603,312.34056 C107.863485,312.37994 107.892857,312.436083 107.892857,312.499936 L107.892857,312.499936 L107.891936,316.106989 L111.5,316.107143 C111.569036,316.107143 111.631536,316.135125 111.676777,316.180366 C111.722018,316.225607 111.75,316.288107 111.75,316.357143 L111.75,316.357143 L111.75,316.642857 C111.75,316.711893 111.722018,316.774393 111.676777,316.819634 C111.631536,316.864875 111.569036,316.892857 111.500064,316.892857 L111.500064,316.892857 L107.891936,316.891936 L107.892857,320.5 C107.892857,320.569036 107.864875,320.631536 107.819634,320.676777 C107.774393,320.722018 107.711893,320.75 107.642857,320.75 L107.642857,320.75 L107.357143,320.75 C107.288107,320.75 107.225607,320.722018 107.180366,320.676777 C107.135125,320.631536 107.107143,320.569036 107.107143,320.499989 L107.107143,320.499989 L107.106989,316.891936 L103.5,316.892857 C103.430964,316.892857 103.368464,316.864875 103.323223,316.819634 C103.277982,316.774393 103.25,316.711893 103.25,316.642857 L103.25,316.642857 L103.25,316.357143 C103.25,316.288107 103.277982,316.225607 103.323223,316.180366 C103.368464,316.135125 103.430964,316.107143 103.500011,316.107143 L103.500011,316.107143 L107.106989,316.106989 Z" id="形状结合" stroke="url(#linearGradient-3)" stroke-width="0.5" fill="#050505"></path>
            <ellipse id="椭圆形备份-4" fill="#545454" cx="346.5" cy="104" rx="7.5" ry="6"></ellipse>
            <path d="M346.107143,99.5 C346.555194,99.2771104 346.706015,99.2797315 346.801603,99.3405601 C346.863485,99.3799399 346.892857,99.4360833 346.892857,99.4999362 L346.892857,99.4999362 L346.891936,103.106989 L350.5,103.107143 C350.569036,103.107143 350.631536,103.135125 350.676777,103.180366 C350.722018,103.225607 350.75,103.288107 350.75,103.357143 L350.75,103.357143 L350.75,103.642857 C350.75,103.711893 350.722018,103.774393 350.676777,103.819634 C350.631536,103.864875 350.569036,103.892857 350.500064,103.892857 L350.500064,103.892857 L346.891936,103.891936 L346.892857,107.5 C346.892857,107.569036 346.864875,107.631536 346.819634,107.676777 C346.774393,107.722018 346.711893,107.75 346.642857,107.75 L346.642857,107.75 L346.357143,107.75 C346.288107,107.75 346.225607,107.722018 346.180366,107.676777 C346.135125,107.631536 346.107143,107.569036 346.107143,107.499989 L346.107143,107.499989 L346.106989,103.891936 L342.5,103.892857 C342.430964,103.892857 342.368464,103.864875 342.323223,103.819634 C342.277982,103.774393 342.25,103.711893 342.25,103.642857 L342.25,103.642857 L342.25,103.357143 C342.25,103.288107 342.277982,103.225607 342.323223,103.180366 C342.368464,103.135125 342.430964,103.107143 342.500011,103.107143 L342.500011,103.107143 L346.106989,103.106989 Z" id="形状结合" stroke="url(#linearGradient-3)" stroke-width="0.5" fill="#050505"></path>
            <ellipse id="椭圆形备份-6" fill="#545454" cx="354.5" cy="199.5" rx="7.5" ry="6.5"></ellipse>
            <path d="M354.107143,196.5 C354.555194,196.27711 354.706015,196.279732 354.801603,196.34056 C354.863485,196.37994 354.892857,196.436083 354.892857,196.499936 L354.892857,196.499936 L354.891936,200.106989 L358.5,200.107143 C358.569036,200.107143 358.631536,200.135125 358.676777,200.180366 C358.722018,200.225607 358.75,200.288107 358.75,200.357143 L358.75,200.357143 L358.75,200.642857 C358.75,200.711893 358.722018,200.774393 358.676777,200.819634 C358.631536,200.864875 358.569036,200.892857 358.500064,200.892857 L358.500064,200.892857 L354.891936,200.891936 L354.892857,204.5 C354.892857,204.569036 354.864875,204.631536 354.819634,204.676777 C354.774393,204.722018 354.711893,204.75 354.642857,204.75 L354.642857,204.75 L354.357143,204.75 C354.288107,204.75 354.225607,204.722018 354.180366,204.676777 C354.135125,204.631536 354.107143,204.569036 354.107143,204.499989 L354.107143,204.499989 L354.106989,200.891936 L350.5,200.892857 C350.430964,200.892857 350.368464,200.864875 350.323223,200.819634 C350.277982,200.774393 350.25,200.711893 350.25,200.642857 L350.25,200.642857 L350.25,200.357143 C350.25,200.288107 350.277982,200.225607 350.323223,200.180366 C350.368464,200.135125 350.430964,200.107143 350.500011,200.107143 L350.500011,200.107143 L354.106989,200.106989 Z" id="形状结合" stroke="url(#linearGradient-3)" stroke-width="0.5" fill="#050505"></path>
            <circle id="椭圆形备份-8" fill="#545454" cx="362.5" cy="316.5" r="7.5"></circle>
            <path d="M362.107143,312.5 C362.555194,312.27711 362.706015,312.279732 362.801603,312.34056 C362.863485,312.37994 362.892857,312.436083 362.892857,312.499936 L362.892857,312.499936 L362.891936,316.106989 L366.5,316.107143 C366.569036,316.107143 366.631536,316.135125 366.676777,316.180366 C366.722018,316.225607 366.75,316.288107 366.75,316.357143 L366.75,316.357143 L366.75,316.642857 C366.75,316.711893 366.722018,316.774393 366.676777,316.819634 C366.631536,316.864875 366.569036,316.892857 366.500064,316.892857 L366.500064,316.892857 L362.891936,316.891936 L362.892857,320.5 C362.892857,320.569036 362.864875,320.631536 362.819634,320.676777 C362.774393,320.722018 362.711893,320.75 362.642857,320.75 L362.642857,320.75 L362.357143,320.75 C362.288107,320.75 362.225607,320.722018 362.180366,320.676777 C362.135125,320.631536 362.107143,320.569036 362.107143,320.499989 L362.107143,320.499989 L362.106989,316.891936 L358.5,316.892857 C358.430964,316.892857 358.368464,316.864875 358.323223,316.819634 C358.277982,316.774393 358.25,316.711893 358.25,316.642857 L358.25,316.642857 L358.25,316.357143 C358.25,316.288107 358.277982,316.225607 358.323223,316.180366 C358.368464,316.135125 358.430964,316.107143 358.500011,316.107143 L358.500011,316.107143 L362.106989,316.106989 Z" id="形状结合" stroke="url(#linearGradient-3)" stroke-width="0.5" fill="#050505"></path>
            <path d="M123.107143,99.5 C123.555194,99.2771104 123.706015,99.2797315 123.801603,99.3405601 C123.863485,99.3799399 123.892857,99.4360833 123.892857,99.4999362 L123.892857,99.4999362 L123.891936,103.106989 L127.5,103.107143 C127.569036,103.107143 127.631536,103.135125 127.676777,103.180366 C127.722018,103.225607 127.75,103.288107 127.75,103.357143 L127.75,103.357143 L127.75,103.642857 C127.75,103.711893 127.722018,103.774393 127.676777,103.819634 C127.631536,103.864875 127.569036,103.892857 127.500064,103.892857 L127.500064,103.892857 L123.891936,103.891936 L123.892857,107.5 C123.892857,107.569036 123.864875,107.631536 123.819634,107.676777 C123.774393,107.722018 123.711893,107.75 123.642857,107.75 L123.642857,107.75 L123.357143,107.75 C123.288107,107.75 123.225607,107.722018 123.180366,107.676777 C123.135125,107.631536 123.107143,107.569036 123.107143,107.499989 L123.107143,107.499989 L123.106989,103.891936 L119.5,103.892857 C119.430964,103.892857 119.368464,103.864875 119.323223,103.819634 C119.277982,103.774393 119.25,103.711893 119.25,103.642857 L119.25,103.642857 L119.25,103.357143 C119.25,103.288107 119.277982,103.225607 119.323223,103.180366 C119.368464,103.135125 119.430964,103.107143 119.500011,103.107143 L119.500011,103.107143 L123.106989,103.106989 Z" id="形状结合" stroke="url(#linearGradient-3)" stroke-width="0.5" fill="#050505"></path>
            <ellipse id="椭圆形" fill="url(#linearGradient-4)" cx="236" cy="245" rx="105" ry="76"></ellipse>
            <g id="椭圆形">
                <use fill="black" fill-opacity="1" filter="url(#filter-7)" xlink:href="#path-6"></use>
                <use fill="black" fill-opacity="1" filter="url(#filter-8)" xlink:href="#path-6"></use>
                <ellipse stroke="url(#radialGradient-5)" stroke-width="6" stroke-linejoin="square" cx="235.5" cy="245.5" rx="109.5" ry="80.5"></ellipse>
            </g>
            <g id="编组-5" transform="translate(196.000000, 216.000000)">
                <ellipse id="椭圆形" stroke="url(#linearGradient-10)" fill="url(#radialGradient-9)" cx="38.6052632" cy="29.5" rx="32" ry="23.6363636"></ellipse>
                <g id="椭圆形">
                    <use fill="black" fill-opacity="1" filter="url(#filter-13)" xlink:href="#path-12"></use>
                    <use fill="black" fill-opacity="1" filter="url(#filter-14)" xlink:href="#path-12"></use>
                    <ellipse stroke="url(#radialGradient-11)" stroke-width="6" stroke-linejoin="square" cx="38.5" cy="29.5" rx="35.5" ry="26.5"></ellipse>
                </g>
            </g>
            <path d="M204.496589,115 C205.022028,115 205.502657,115.203323 205.861013,115.537692 C206.219369,115.87206 206.455452,116.337473 206.491798,116.861654 L206.491798,116.861654 L208.779989,149.861654 C208.818192,150.412616 208.629457,150.926903 208.293431,151.313001 C207.963735,151.691825 207.492244,151.947244 206.95419,151.992817 L206.95419,151.992817 L117.215221,152 C116.662936,152 116.162936,151.776142 115.801007,151.414214 C115.445883,151.059089 115.223687,150.571037 115.215457,150.031094 L115.215457,150.031094 L117.508202,116.861654 C117.544548,116.337473 117.780631,115.87206 118.138987,115.537692 C118.497343,115.203323 118.977972,115 119.503411,115 L119.503411,115 Z" id="矩形" stroke="url(#linearGradient-15)" stroke-width="2" fill="#545454"></path>
            <g id="矩形">
                <use fill="black" fill-opacity="1" filter="url(#filter-17)" xlink:href="#path-16"></use>
                <use fill="#5EBAFF" fill-rule="evenodd" xlink:href="#path-16"></use>
            </g>
        </g>
    </g>
</svg>