<?xml version="1.0" encoding="utf-8"?>
<!-- Generator: Adobe Illustrator 25.2.1, SVG Export Plug-In . SVG Version: 6.00 Build 0)  -->
<svg version="1.1" id="Layer_1" xmlns="http://www.w3.org/2000/svg" xmlns:xlink="http://www.w3.org/1999/xlink" x="0px" y="0px"
	 viewBox="0 0 431 430" style="enable-background:new 0 0 431 430;" xml:space="preserve">
<style type="text/css">
	.st0{fill-rule:evenodd;clip-rule:evenodd;fill:#4A4C4A;}
	.st1{fill-rule:evenodd;clip-rule:evenodd;fill:#5B6172;}
	.st2{filter:url(#filter-2);}
	.st3{fill-rule:evenodd;clip-rule:evenodd;}
	.st4{fill-rule:evenodd;clip-rule:evenodd;fill:#7E8094;}
	.st5{fill-rule:evenodd;clip-rule:evenodd;fill:#49494E;}
	.st6{fill:none;}
	.st7{font-family:'MyriadPro-Regular';}
	.st8{font-size:12px;}
</style>
<filter  filterUnits="objectBoundingBox" height="106.9%" id="filter-2" width="106.0%" x="-3.0%" y="-2.8%">
	<feOffset  dx="0" dy="2" in="SourceAlpha" result="shadowOffsetOuter1"></feOffset>
	<feGaussianBlur  in="shadowOffsetOuter1" result="shadowBlurOuter1" stdDeviation="3"></feGaussianBlur>
	<feColorMatrix  in="shadowBlurOuter1" type="matrix" values="0 0 0 0 0   0 0 0 0 0   0 0 0 0 0  0 0 0 0.5 0"></feColorMatrix>
</filter>
<g id="页面-1">
	<g id="编组-6" transform="translate(6.712938, 6.000000)">
		<circle id="椭圆形" class="st0" cx="211.3" cy="208" r="175"/>
		<circle id="椭圆形_1_" class="st1" cx="209.3" cy="210" r="140"/>
		<g id="形状结合" transform="translate(209.086848, 251.648938) scale(1, -1) translate(-209.086848, -251.648938) ">
			<g class="st2">
				<path id="path-1_2_" class="st3" d="M211.7,107c2.6,0,4.7,2,5,4.6l13.2,146.5c0.1,0.9-0.1,1.7-0.4,2.4
					c10.9,6.7,18.3,18.6,18.8,32.2c0.6,0.1,1.3,0.3,1.9,0.6c0.1,0,0.2,0.1,0.2,0.1l122.1,80.1c2.2,1.5,2.9,4.4,1.6,6.7l-4.9,8.4
					c-1.3,2.2-4.1,3.1-6.4,2l-133.1-61.2c-0.6-0.3-1-0.6-1.5-1c-5.8,3.3-12.4,5.1-19.5,5.1c-6.8,0-13.3-1.7-18.9-4.8
					c-0.3,0.2-0.5,0.4-0.8,0.6c-0.1,0.1-0.2,0.1-0.3,0.1L55.5,395.7c-2.4,1.2-5.2,0.3-6.6-2l-4.9-8.4c-1.3-2.3-0.7-5.1,1.5-6.6
					l122.3-85.1c0.4-0.3,0.9-0.5,1.4-0.7c0.4-13.9,8-26,19.3-32.7c-0.2-0.5-0.3-1.1-0.3-1.7c0-0.1,0-0.2,0-0.3l8.7-146.5
					c0.2-2.6,2.3-4.7,5-4.7H211.7z"/>
			</g>
			<g>
				<path id="path-1_1_" class="st4" d="M211.7,107c2.6,0,4.7,2,5,4.6l13.2,146.5c0.1,0.9-0.1,1.7-0.4,2.4
					c10.9,6.7,18.3,18.6,18.8,32.2c0.6,0.1,1.3,0.3,1.9,0.6c0.1,0,0.2,0.1,0.2,0.1l122.1,80.1c2.2,1.5,2.9,4.4,1.6,6.7l-4.9,8.4
					c-1.3,2.2-4.1,3.1-6.4,2l-133.1-61.2c-0.6-0.3-1-0.6-1.5-1c-5.8,3.3-12.4,5.1-19.5,5.1c-6.8,0-13.3-1.7-18.9-4.8
					c-0.3,0.2-0.5,0.4-0.8,0.6c-0.1,0.1-0.2,0.1-0.3,0.1L55.5,395.7c-2.4,1.2-5.2,0.3-6.6-2l-4.9-8.4c-1.3-2.3-0.7-5.1,1.5-6.6
					l122.3-85.1c0.4-0.3,0.9-0.5,1.4-0.7c0.4-13.9,8-26,19.3-32.7c-0.2-0.5-0.3-1.1-0.3-1.7c0-0.1,0-0.2,0-0.3l8.7-146.5
					c0.2-2.6,2.3-4.7,5-4.7H211.7z"/>
			</g>
		</g>
		
			<image style="overflow:visible;enable-background:new    ;" width="182" height="182" id="位图" xlink:href="B07BAA55C7DFDD94.png"  transform="matrix(1 0 0 1 118.2869 120)">
		</image>
		
			<image style="overflow:visible;enable-background:new    ;" width="430" height="430" id="位图_2_" xlink:href="B07BAA55C7DFDD95.png"  transform="matrix(1 0 0 1 -6 -6)">
		</image>
		<circle id="椭圆形_2_" class="st5" cx="209.3" cy="210" r="21"/>
		<circle id="椭圆形_3_" class="st6" cx="209.3" cy="210" r="12"/>
	</g>
</g>
<text transform="matrix(1 0 0 1 34 46)" class="st7 st8">233333</text>
<text transform="matrix(1 0 0 1 39 116)" class="st7 st8">23333333333333333333333333dxcvbnm,.xcvbm,./xcvbm,/dxcvbn,./xcvbnm,./</text>
</svg>
