<?xml version="1.0" encoding="UTF-8"?>
<svg width="56px" height="56px" viewBox="0 0 56 56" version="1.1" xmlns="http://www.w3.org/2000/svg" xmlns:xlink="http://www.w3.org/1999/xlink">
    <title>设置2.0</title>
    <defs>
        <linearGradient x1="50.0016241%" y1="-13.1184969%" x2="50.0016241%" y2="111.929114%" id="linearGradient-1">
            <stop stop-color="#E0E0E0" offset="0%"></stop>
            <stop stop-color="#B8B8B8" offset="100%"></stop>
        </linearGradient>
        <linearGradient x1="50%" y1="0%" x2="50%" y2="100%" id="linearGradient-2">
            <stop stop-color="#D7D7D7" offset="0%"></stop>
            <stop stop-color="#FDFDFD" offset="100%"></stop>
        </linearGradient>
    </defs>
    <g id="页面-1" stroke="none" stroke-width="1" fill="none" fill-rule="evenodd">
        <g id="settings" transform="translate(0.000000, -416.000000)">
            <g id="设置2.0" transform="translate(0.000000, 416.000000)">
                <circle id="椭圆形" fill="#4A4C4A" cx="27.5" cy="27.5" r="22.5"></circle>
                <ellipse id="椭圆形" fill="#5B6172" cx="27" cy="28.5" rx="17" ry="16.5"></ellipse>
                <path d="M21.7060571,11.0172298 C22.3615777,11.0172298 22.9092289,11.516483 22.9697085,12.1692077 L24.337183,26.9276314 C24.4025778,27.6334024 24.1490802,28.2951915 23.6951135,28.770389 C25.4890551,29.4469409 26.7599419,31.1381921 26.7599419,33.1173004 C26.7599419,33.3244627 26.7460171,33.528471 26.7190256,33.7284931 C27.3177161,33.5845911 27.9712814,33.6653914 28.5424962,34.0054642 C28.5632179,34.0178008 28.5837563,34.0304429 28.6041045,34.0433863 L41.4135777,42.1914257 C41.9450179,42.5294721 42.1114336,43.228761 41.7892336,43.7699553 C41.4593235,44.3241001 40.7669973,44.5437835 40.1779415,44.2812375 L26.1992359,38.0508374 C25.6072402,37.786981 25.185919,37.2980192 24.9911594,36.7297168 C24.1626915,37.388117 23.1036113,37.7821863 21.9496219,37.7821863 C20.8375721,37.7821863 19.8136584,37.4162401 18.9989445,36.8017511 C18.8264749,37.2945999 18.4860092,37.7325101 18.0015935,38.0209069 C17.9430737,38.0557467 17.8830406,38.0879795 17.8216704,38.1175107 L3.78818002,44.870397 C3.21142193,45.1479317 2.51820105,44.9390598 2.19077581,44.3890888 C1.86615021,43.8438202 2.02365738,43.1399581 2.54971993,42.7850528 L15.4231004,34.1000949 C15.9596068,33.7381437 16.5904279,33.6237111 17.1806346,33.7305826 C17.1533651,33.5304941 17.1393019,33.3254899 17.1393019,33.1173004 C17.1393019,31.1219608 18.43112,29.4192193 20.2479407,28.7527077 C19.8266145,28.3177559 19.5679409,27.7241983 19.5679409,27.0702242 C19.5679409,27.0206067 19.5694626,26.9710009 19.5725037,26.9214768 L20.4782351,12.171967 C20.5180814,11.523084 21.0559518,11.0172298 21.7060571,11.0172298 Z" id="形状结合" fill="#7E8094" transform="translate(21.987772, 28.005002) scale(1, -1) rotate(-90.000000) translate(-21.987772, -28.005002) "></path>
                <g id="编组" transform="translate(14.000000, 14.000000)" fill="#DCDCDC">
                    <path d="M12.9054521,0 L12.5699124,0.0113586021 L12.3846593,1.56034863 C12.1485035,1.57865443 12.0212373,1.60456142 11.7890158,1.63617548 L11.3638594,0.168380016 L11.0321543,0.220372922 L11.0392385,1.76128051 C10.8047759,1.80842396 10.5730212,1.86196548 10.3435823,1.92213954 L9.74847416,0.533996204 L9.4260632,0.62553136 L9.61951475,2.13608353 C9.39092245,2.21178698 9.16515635,2.2943204 8.94240942,2.38306064 L8.18991799,1.09128957 L7.88115248,1.22181787 L8.25549331,2.68202447 C8.10011656,2.75546346 7.94635385,2.83221095 7.79431219,2.91221355 L6.91775429,1.71632118 L6.6237672,1.87772315 L7.14619097,3.27944005 C6.93774313,3.40616775 6.73308015,3.53940458 6.53360269,3.6780585 L5.5253837,2.60728968 L5.25433614,2.80281065 L5.93797783,4.11944601 C5.74573704,4.27135301 5.5582139,4.42903381 5.37566978,4.59226864 L4.25378026,3.65957995 L4.00842373,3.88651754 L4.84121909,5.09974705 C4.6679174,5.27477852 4.50007178,5.45503579 4.33791886,5.64026473 L3.12090964,4.85762558 L2.90505391,5.11271597 L3.87231167,6.20569606 C3.76403209,6.34629347 3.65885884,6.48935263 3.55644331,6.63465759 L2.27276316,5.98689027 L2.08532506,6.26310606 L3.15529715,7.24287032 C3.02462977,7.45508017 2.90069969,7.67129368 2.78368915,7.89119292 L1.44099494,7.40698701 L1.28852952,7.70379758 L2.46233646,8.54110116 C2.35881287,8.76821768 2.26224272,8.99895586 2.17270072,9.23329104 L0.78960554,8.91699007 L0.674845617,9.2300519 L1.93611537,9.91576349 C1.86117315,10.155154 1.79392462,10.3968442 1.73447158,10.6404682 L0.328965995,10.4947746 L0.253555,10.8186582 L1.58585327,11.3456517 C1.5539558,11.523126 1.52575605,11.7021366 1.501696,11.8823935 L0.0907123187,11.8829592 L0.0497261873,12.2128091 L1.42902405,12.5984401 C1.41111553,12.849016 1.40109238,13.1000842 1.39896921,13.3512791 L0,13.5224294 L0,13.8549878 L1.41484325,14.0705483 C1.42799691,14.3231646 1.4488697,14.5741335 1.47768574,14.8223384 L0.111522865,15.1608445 L0.151961187,15.4906944 L1.58205596,15.5340249 C1.61381361,15.712831 1.64970876,15.8908911 1.68971303,16.0680643 L0.366192159,16.5452243 L0.442150965,16.8696447 L1.86950669,16.7645668 C1.9399365,17.006179 2.01812212,17.2455038 2.10394437,17.4821763 L0.84703219,18.1169253 L0.961792113,18.4299872 L2.37003674,18.1521364 C2.47075904,18.3845157 2.57882697,18.6132055 2.69355577,18.837848 L1.51483098,19.6112941 L1.66511139,19.9091782 L3.04328873,19.4715666 C3.13505601,19.6265938 3.23034737,19.7795452 3.32908981,19.9303036 L2.23508878,20.825048 L2.41542403,21.1056012 L3.74498325,20.5260657 C3.89435376,20.726352 4.0499908,20.9219722 4.21166738,21.1126409 L3.23077663,22.1373831 L3.44444734,22.3941084 L4.69911848,21.6542877 C4.81501283,21.7753331 4.93344228,21.8939692 5.05432954,22.0101186 L4.11496028,23.3392169 L4.36469306,23.5618233 L5.63467797,22.5333176 C5.80995462,22.6811758 5.98945625,22.8240423 6.17296333,22.9617424 L5.39968003,24.4040566 L5.67510384,24.5952525 L6.81666471,23.4129337 C6.9758112,23.516919 7.13742746,23.6171427 7.30137676,23.7135202 L6.64942088,25.1655827 L6.93740697,25.3372574 L7.98664944,24.0867006 C8.19372388,24.1913106 8.40382739,24.2899231 8.61669294,24.3824129 L8.1467344,25.9081428 L8.45385025,26.0430023 L9.34516166,24.6694814 C9.49674216,24.7238112 9.64941734,24.7750928 9.80309328,24.8232945 L9.49543584,26.3961617 L9.81457239,26.4990678 L10.5599672,25.0329381 C10.7836674,25.0872181 11.0089028,25.1350828 11.2353917,25.1764724 L11.1222628,26.7850627 L11.4517766,26.848445 L12.0157281,25.292915 C12.1731623,25.3111554 12.3309434,25.3263237 12.4889797,25.3384111 L12.5469044,26.9600197 L12.881336,26.9892645 L13.2797182,25.3736407 C13.4252623,25.3752833 13.5708243,25.3743577 13.7163351,25.3708643 L14.118527,27 L14.4529587,26.9712919 L14.5114311,25.3269785 C14.6667165,25.3132198 14.8209686,25.2965675 14.9742806,25.277145 L15.5475262,26.8597604 L15.87704,26.795866 L15.7617323,25.1505037 C15.9830474,25.1075002 16.202302,25.0580862 16.4191662,25.0031935 L17.1853529,26.5099821 L17.5044895,26.407076 L17.1864299,24.7817039 C17.3325765,24.7341194 17.4777815,24.6837397 17.6219635,24.6305931 L18.546019,26.0545213 L18.8525933,25.9191065 L18.3629634,24.3294575 C18.566649,24.2385147 18.7673715,24.142019 18.9651744,24.0402296 L20.0619145,25.3482273 L20.3504422,25.1770894 L19.6646217,23.6502489 C19.8196269,23.5570664 19.9720426,23.4608484 20.1220179,23.3610395 L21.3247717,24.6062286 L21.6001955,24.4150327 L20.7821536,22.8893028 C20.9542157,22.7575714 21.1223061,22.6217802 21.2865308,22.4814728 L22.6352011,23.5733423 L22.8843923,23.350736 L21.8843905,21.933903 C21.9929502,21.8277084 22.0997233,21.7192927 22.2040748,21.6089212 L23.5554842,22.4056275 L23.7691424,22.1489021 L22.7084458,21.0407443 C22.8586659,20.8608358 23.0035447,20.6766111 23.1428963,20.4883065 L24.5845075,21.1171326 L24.7648303,20.8365794 L23.5746513,19.8632934 C23.6637151,19.7251527 23.7498952,19.5852062 23.8331366,19.4435434 L25.3348201,19.9201666 L25.4845527,19.6222825 L24.1970753,18.7768348 C24.3030797,18.5666081 24.4027586,18.3533063 24.4959802,18.1372116 L26.038127,18.4410619 L26.1523328,18.1285616 L24.7741555,17.4314975 C24.8527175,17.2115839 24.9246988,16.989415 24.990005,16.7652825 L26.5577992,16.8811946 L26.6332102,16.5567741 L25.1785263,16.0314095 C25.2141157,15.8715888 25.2463646,15.7110553 25.275252,15.5499121 L26.8474661,15.5022566 L26.8884522,15.1718699 L25.3845899,14.7997878 C25.4110683,14.5684199 25.4307459,14.3363371 25.4435977,14.1038343 L27,13.8661366 L27,13.5335782 L25.4605923,13.3456399 C25.4586625,13.1113047 25.4497668,12.878765 25.4343846,12.6480206 L26.9497634,12.2239332 L26.9087772,11.8940834 L25.3595338,11.8935182 C25.3378891,11.7307404 25.3131816,11.5690731 25.285206,11.4082388 L26.7464886,10.8303383 L26.6710776,10.5059178 L25.1316699,10.665691 C25.0765403,10.4380192 25.0149428,10.2132472 24.9469708,9.99083824 L26.3251482,9.24120751 L26.2104007,8.92870714 L24.7021185,9.27317942 C24.6192996,9.05410832 24.5305731,8.83810979 24.4354472,8.6254121 L25.7114705,7.71493469 L25.5590051,7.41866089 L24.1037608,7.94295199 C23.9946346,7.73580095 23.8798187,7.53276517 23.758927,7.33310427 L24.9147434,6.27424316 L24.7267513,5.99856415 L23.3458349,6.69562817 C23.2520972,6.56084272 23.1557947,6.42787736 23.0567656,6.29698504 L24.0950519,5.12379754 L23.8792024,4.86924393 L22.57859,5.70549864 C22.4257592,5.52856109 22.2677611,5.35607289 22.1047967,5.18825345 L22.9917506,3.89759295 L22.7458338,3.67065536 L21.5578336,4.65856376 C21.3847497,4.50109071 21.207074,4.34864844 21.0250326,4.20143093 L21.7458382,2.81378117 L21.474249,2.6182602 L20.4168517,3.74153402 C20.2257532,3.60620563 20.0302598,3.47634367 19.8310438,3.35212092 L20.3764071,1.88870601 L20.0823951,1.72730404 L19.1719726,2.96866784 C19.0270396,2.89046562 18.8800772,2.81545936 18.7315211,2.74335907 L19.1183993,1.2328069 L18.8096338,1.10282155 L18.0352922,2.43087103 C17.8181728,2.34158169 17.5984388,2.25854235 17.3751815,2.18172833 L17.5740924,0.636501881 L17.2511399,0.544429954 L16.6462023,1.956944 C16.4201374,1.8951041 16.1912089,1.83921188 15.9603818,1.79012495 L15.967466,0.231386633 L15.6357609,0.179393727 L15.2084133,1.65527162 C14.977057,1.62144261 14.7434659,1.59374638 14.5079015,1.57294798 L14.32319,0.023402669 L13.9876503,0.0120255575 L13.744485,1.53016659 C13.6398471,1.52769867 13.5354645,1.52584773 13.4302601,1.52584773 C13.3723479,1.52584773 13.2081108,1.52504565 13.15046,1.52584773 L12.9054521,0 Z M13.4171807,5.41100773 C18.059279,5.41187995 21.8222238,9.14139045 21.8231038,13.7422431 C21.824579,15.9529245 20.9396606,18.0735862 19.3631302,19.6374395 C17.7865998,21.2012928 15.6476808,22.0801533 13.4171807,22.0805729 C11.1854405,22.0820363 9.04468179,21.2040069 7.4666028,19.6399494 C5.8885238,18.0758918 5.00262308,15.9541541 5.00409956,13.7422431 C5.00452292,11.5315613 5.89126229,9.4116469 7.46913518,7.84912417 C9.04700807,6.28660145 11.186681,5.40954563 13.4171807,5.41100773 Z" id="形状"></path>
                </g>
                <g id="编组" fill="url(#linearGradient-1)">
                    <path d="M26.7668636,0 L26.0709294,0.0235585821 L25.6867008,3.23627864 C25.1968961,3.27424622 24.9329366,3.32797924 24.451292,3.39354914 L23.5694861,0.349232627 L22.8815052,0.457069765 L22.8961983,3.65302625 C22.4099056,3.75080524 21.9292292,3.86185434 21.4533559,3.9866598 L20.2190575,1.10754768 L19.5503533,1.29739838 L19.9515862,4.43039548 C19.4774688,4.58741004 19.0092132,4.75859046 18.5472195,4.94264428 L16.9864966,2.26341541 L16.346094,2.53414076 L17.1225047,5.56271742 C16.8002417,5.71503532 16.4813265,5.8742153 16.1659808,6.04014662 L14.3479348,3.55977726 L13.7381838,3.89453691 L14.8217294,6.80180159 C14.3893931,7.06464422 13.964907,7.34098728 13.5511759,7.62856578 L11.4600551,5.40771193 L10.8978824,5.8132369 L12.3158059,8.54403616 C11.9170842,8.85910254 11.5281474,9.1861442 11.1495373,9.52470533 L8.82265535,7.5902399 L8.31376773,8.06092527 L10.041047,10.5772531 C9.68160646,10.9402814 9.33348222,11.3141483 8.99716504,11.6983268 L6.47299777,10.0750753 L6.02529701,10.6041516 L8.03146125,12.8710733 C7.80688138,13.1626828 7.58874426,13.459398 7.37632687,13.7607713 L4.71387914,12.4172539 L4.32511865,12.9901459 L6.54432002,15.0222496 C6.27330619,15.4623885 6.01626603,15.9108313 5.77357749,16.3669187 L2.98873024,15.3626397 L2.67250567,15.9782468 L5.10706822,17.7148765 C4.89235261,18.185933 4.69205897,18.6645011 4.50634224,19.1505296 L1.63770038,18.4944979 L1.3996798,19.1438113 L4.0156467,20.566028 C3.86021099,21.0625416 3.72073255,21.563825 3.59742253,22.0691193 L0.682299842,21.7669398 L0.525891851,22.4386985 L3.28917716,23.531722 C3.22301945,23.8998169 3.16453107,24.2710981 3.11462873,24.6449642 L0.188144068,24.6461377 L0.103135796,25.3302707 L2.96390173,26.130098 C2.92675813,26.6498109 2.90596939,27.1705451 2.90156578,27.6915419 L0,28.0465202 L0,28.736271 L2.9344897,29.1833594 C2.96177136,29.7073043 3.00506309,30.2278325 3.06482969,30.7426278 L0.231306683,31.4447145 L0.315178758,32.1288475 L3.28130124,32.2187182 C3.34716897,32.5895755 3.42161816,32.9588852 3.50458998,33.3263555 L0.759509664,34.3160207 L0.917053853,34.9888927 L3.87749535,34.7709534 C4.02357199,35.2720749 4.18573477,35.7684522 4.36373647,36.2593286 L1.7568075,37.5758451 L1.99482809,38.2251585 L4.91563176,37.6488754 C5.12453727,38.1308474 5.34867816,38.605167 5.58663418,39.0710921 L3.14187166,40.6752767 L3.45356436,41.2931104 L6.31200626,40.3854716 C6.50233839,40.7070094 6.69997974,41.0242419 6.90477886,41.336926 L4.6357397,43.1926923 L5.00976835,43.7745803 L7.76737267,42.5725807 C8.07717817,42.9879894 8.39998092,43.3937202 8.73531012,43.7891812 L6.70087004,45.9145723 L7.14403893,46.4470397 L9.74631981,44.9125967 C9.98669327,45.1636539 10.2323247,45.4097139 10.4830539,45.6506163 L8.53473243,48.4072648 L9.05269672,48.8689669 L11.6867395,46.7357699 C12.0502762,47.0424387 12.4225759,47.3387543 12.8031832,47.6243546 L11.1993364,50.6158211 L11.7705858,51.0123756 L14.1382676,48.5601588 C14.4683492,48.7758319 14.8035533,48.9837034 15.1435963,49.1835975 L13.7913915,52.1952826 L14.3886959,52.5513486 L16.5649025,49.9576012 C16.9943903,50.1745701 17.4301605,50.3790998 17.8716594,50.5709305 L16.8969306,53.7354073 L17.5339116,54.0151159 L19.3825575,51.1663318 C19.6969467,51.2790159 20.0136063,51.3853776 20.3323416,51.4853516 L19.6942373,54.7475945 L20.3561501,54.9610294 L21.9021542,51.920168 C22.366125,52.0327486 22.83328,52.1320236 23.3030347,52.2178686 L23.0683969,55.5542041 L23.7518329,55.6856638 L24.9215101,52.4593793 C25.2480403,52.4972113 25.5752899,52.5286715 25.903069,52.5537416 L26.0232091,55.9170779 L26.7168451,55.9777339 L27.5431193,52.6268103 C27.8449884,52.6302173 28.1468948,52.6282975 28.4486949,52.6210518 L29.2828709,56 L29.9765069,55.9404573 L30.0977831,52.5300294 C30.4198565,52.501493 30.7397867,52.4669549 31.0577672,52.4266711 L32.246721,55.7091328 L32.930157,55.5766109 L32.6910002,52.1640076 C33.1500243,52.0748152 33.6047746,51.972327 34.054567,51.8584755 L35.6436949,54.9836666 L36.3056078,54.7702318 L35.6459286,51.3990895 C35.9490475,51.3003958 36.2502134,51.1959046 36.5492577,51.0856746 L38.4658172,54.0390072 L39.101675,53.7581469 L38.0861463,50.4610971 C38.5086054,50.2724749 38.9249187,50.0723357 39.3351766,49.861217 L41.6098967,52.574101 L42.2083245,52.2191483 L40.785882,49.0523681 C41.1073744,48.8591007 41.4234957,48.6595374 41.7345557,48.4525264 L44.229156,51.0351408 L44.8004054,50.6385862 L43.103726,47.4741095 C43.4605955,47.2008888 43.8092276,46.9192479 44.1498417,46.6282399 L46.9470838,48.8928582 L47.4639248,48.4311561 L45.3898469,45.4925396 C45.6150078,45.2722842 45.8364631,45.0474219 46.0528959,44.8185031 L48.855819,46.470931 L49.2989621,45.9384636 L47.0989986,43.6400622 C47.4105664,43.2669187 47.7110557,42.8848231 48.0000812,42.4942654 L50.9900896,43.7984972 L51.3640925,43.2166091 L48.8955731,41.1979419 C49.080298,40.9114278 49.2590419,40.6211685 49.4316907,40.3273493 L52.5462936,41.3159012 L52.8568501,40.6980675 L50.1865265,38.9445463 C50.4063875,38.5085205 50.613129,38.0661167 50.8064774,37.6179204 L54.0050041,38.2481285 L54.2418755,37.5999795 L51.3834336,36.1542171 C51.546377,35.6980998 51.6956716,35.2373052 51.8311215,34.7724378 L55.0828429,35.012848 L55.2392508,34.339976 L52.2221286,33.2503308 C52.2959437,32.9188508 52.3628302,32.5858925 52.422745,32.2516695 L55.6836334,32.1528284 L55.7686417,31.4675821 L52.6495198,30.6958562 C52.704438,30.215982 52.7452508,29.7346252 52.7719064,29.2523971 L56,28.7593945 L56,28.0696437 L52.8071544,27.6798458 C52.8031518,27.1938173 52.7847015,26.7115126 52.7527976,26.2329317 L55.8958055,25.353343 L55.8107972,24.66921 L52.5975516,24.6680378 C52.5526589,24.3304245 52.5014138,23.9951146 52.4433902,23.6615323 L55.4741985,22.4629238 L55.3177905,21.7900518 L52.1249449,22.1214331 C52.0106021,21.649225 51.8828443,21.1830312 51.7418654,20.7217386 L54.6003073,19.1669489 L54.3623125,18.5188 L51.2340236,19.233261 C51.0622511,18.7788913 50.8782258,18.3308944 50.6809276,17.8897436 L53.3274943,16.001346 L53.0112698,15.3868522 L49.9929855,16.4742708 C49.7666496,16.0446242 49.5285129,15.6235129 49.2777746,15.2094014 L51.6750234,13.0132451 L51.2851138,12.4414664 L48.4209909,13.8872288 C48.2265719,13.6076738 48.0268335,13.3318938 47.8214398,13.0604134 L49.9749225,10.6271356 L49.5272346,10.0991726 L46.829668,11.8336268 C46.5126857,11.4666452 46.184986,11.1088919 45.8469858,10.760822 L47.6865938,8.08389649 L47.1765442,7.61321111 L44.7125437,9.66220632 C44.3535549,9.33559554 43.9850423,9.01941898 43.6074749,8.71407896 L45.1024792,5.83599058 L44.5391832,5.43046561 L42.3460627,7.76021871 C41.9497103,7.47953759 41.5442426,7.21019428 41.1310538,6.95254708 L42.2621777,3.91731618 L41.652375,3.58255653 L39.7640913,6.15723699 C39.4634895,5.9950398 39.1586785,5.83947126 38.8505623,5.68992993 L39.6529763,2.55693283 L39.0125738,2.28733358 L37.406532,5.04180659 C36.9562103,4.85661387 36.5004657,4.68438412 36.0374134,4.52506617 L36.4499695,1.32015205 L35.780142,1.12918805 L34.5254566,4.05884682 C34.0565812,3.93058627 33.5817666,3.81466167 33.1030141,3.71285174 L33.1177072,0.479913016 L32.4297263,0.372075877 L31.5433757,3.43315596 C31.0635256,3.36299208 30.5790405,3.30554804 30.0904624,3.26241063 L29.7073571,0.0485388691 L29.0114228,0.024941897 L28.50708,3.17367885 C28.2900533,3.1685602 28.0735559,3.16472121 27.8553542,3.16472121 C27.73524,3.16472121 27.3946001,3.16305765 27.2750282,3.16472121 L26.7668636,0 Z M27.854954,6.90275415 C37.0946973,6.90275415 44.9895953,12.6104317 48.1464183,20.6629624 C48.7040979,22.2044435 48.9828925,23.244809 48.9828925,23.782523 C48.9828925,25.2203516 48.1123969,26.9458481 43.4700079,26.9458481 L31.8977016,26.9458481 C30.1178732,26.9458481 29.4440303,26.7712254 28.9757359,26.4807805 C28.6275428,26.2651062 28.0262358,25.5392818 27.6745309,24.92164 L27.3401659,24.2757049 C27.3280292,24.250406 27.3155698,24.2246592 27.3050341,24.1981957 L21.3275995,14.3387819 C18.9366772,10.3949908 19.980301,8.76649265 21.2233275,8.0255682 C21.4328269,7.90133859 21.7592514,7.77145287 22.2025882,7.63800969 C24.0461491,7.14884174 25.9465608,6.90183515 27.8550444,6.90332999 L27.854954,6.90275415 Z M14.6272846,12.3497645 C15.7651999,12.329789 17.1953504,13.1072734 18.8390933,15.818673 L24.5858023,25.2964915 C25.2177608,26.4473685 25.5333528,27.408702 25.5333528,28.1835375 C25.5333528,29.1422988 25.1462837,30.3881396 24.3727523,31.9220708 L24.4305434,31.8535576 L18.8395452,41.0774912 C16.448623,45.0212823 14.5089522,44.8732253 13.26559,44.1329407 C12.7682709,43.8361615 11.609194,42.7971013 10.4456239,41.366183 L10.9794949,42.0907533 C7.92467154,38.3770455 6.09317775,33.6364087 6.09317775,28.4713079 C6.08678459,23.7915946 7.62304526,19.2379166 10.4682058,15.5032106 C11.6238354,14.0870084 12.77146,13.0586718 13.265448,12.7644775 C13.6540793,12.5329738 14.1106115,12.3590293 14.6278527,12.3499693 L14.6272846,12.3497645 Z M27.8213845,27.1567362 C28.574973,27.1568778 29.1858416,27.7623187 29.1859845,28.5092115 C29.186224,28.8680889 29.0425682,29.2123527 28.7866375,29.4662254 C28.5307069,29.7200981 28.1834792,29.8627704 27.8213845,29.8628386 C27.4590885,29.8630761 27.1115622,29.7205387 26.8553801,29.4666328 C26.5991981,29.212727 26.4553828,28.8682885 26.4556225,28.5092115 C26.4556912,28.1503341 26.5996426,27.8061916 26.8557912,27.5525349 C27.1119398,27.2988782 27.4592898,27.1564988 27.8213845,27.1567362 Z M31.9107937,29.8213772 L43.4679937,29.8213772 C48.1103957,29.8213772 48.9808783,31.5468738 48.9808783,32.9847023 C48.9808783,33.3067933 48.8862511,33.926201 48.6907088,34.7123743 C45.99056,43.5813295 37.6834028,50.0388946 27.8543859,50.0388946 C26.6265121,50.0397479 25.4007391,49.9382887 24.1900181,49.7355836 C22.6614443,49.4273002 21.6724356,49.1391842 21.2227336,48.8717092 C19.9933156,48.139013 18.9647981,46.5340222 21.25558,42.6832625 L27.2740727,32.7841792 C28.2066331,31.1829378 28.4932907,30.8068451 29.015038,30.4836024 C29.5367595,30.1603725 30.2048181,29.8208397 31.9109228,29.8208397 L31.9107937,29.8213772 Z" id="形状"></path>
                </g>
                <circle id="椭圆形" fill="#49494E" cx="27" cy="28" r="2"></circle>
                <circle id="椭圆形" fill="url(#linearGradient-2)" cx="27" cy="28" r="1"></circle>
            </g>
        </g>
    </g>
</svg>
