<?xml version="1.0" encoding="UTF-8"?>
<svg width="432px" height="431px" viewBox="0 0 432 431" version="1.1" xmlns="http://www.w3.org/2000/svg" xmlns:xlink="http://www.w3.org/1999/xlink">
    <title>编组 6</title>
    <defs>
        <path d="M213.612881,-1.08002496e-12 C216.243727,-1.07817158e-12 218.424542,2.03870457 218.601551,4.66358886 L219.58907,19.2745396 C223.48441,19.4826741 227.348598,19.8081371 231.178163,20.2474584 L234.624149,6.02265907 C235.245593,3.4580719 237.753042,1.8179056 240.351759,2.27612954 L249.837672,3.94875183 C252.428549,4.40559341 254.222215,6.79202002 253.940729,9.40776374 L252.381198,23.9081458 C256.190377,24.7914967 259.955643,25.7894051 263.67317,26.8980445 L269.517688,13.5375332 C270.575027,11.1198204 273.329195,9.93998598 275.808862,10.842511 L284.860214,14.1369338 C287.3324,15.036736 288.684418,17.6983743 287.952989,20.2254994 L283.905608,34.2126196 C287.491305,35.7453699 291.020289,37.3852323 294.488539,39.1281849 L302.561627,26.9872544 C304.022734,24.7898771 306.939936,24.1062232 309.225209,25.4256264 L317.566981,30.2417503 C319.84536,31.5571733 320.714649,34.4131507 319.555501,36.7748717 L313.132704,49.8636338 C316.385454,51.9905699 319.569009,54.2145408 322.679259,56.5314357 L332.751943,45.9631599 C334.572422,44.0528842 337.56402,43.8861832 339.585463,45.5823753 L346.964193,51.7738649 C348.979538,53.46494 349.339685,56.4284791 347.788039,58.5530365 L339.182539,70.3370847 C342.02366,72.999645 344.782911,75.7485175 347.456107,78.5795187 L359.213197,69.9180015 C361.337736,68.3528702 364.312832,68.7081873 366.009024,70.7296304 L372.200514,78.1083603 C373.891589,80.1237052 373.731651,83.1047604 371.834652,84.9276003 L361.322431,95.0285681 C364.318124,99.0183762 367.160425,103.129946 369.840582,107.354524 L383.016502,101.105571 C385.400648,99.9745767 388.253285,100.891041 389.532604,103.198993 L394.202411,111.623547 C395.47787,113.924536 394.752059,116.820304 392.542099,118.247689 L380.317355,126.144005 C382.009866,129.631207 383.598868,133.177963 385.080364,136.780278 L399.121339,132.920259 C401.665659,132.220449 404.315817,133.618345 405.174928,136.113386 L408.310881,145.220855 C409.167401,147.708369 407.949772,150.434107 405.525523,151.456051 L392.114496,157.109269 C393.172125,160.842937 394.118466,164.623364 394.949708,168.446742 L409.465406,167.082119 C412.092593,166.834758 414.459746,168.671612 414.872546,171.277931 L416.379362,180.791589 C416.790917,183.390045 415.118467,185.862934 412.553589,186.448387 L398.318632,189.697272 C398.706297,193.539452 398.979489,197.415426 399.134745,201.321729 L413.722034,202.503554 C416.352262,202.716157 418.364486,204.936157 418.318433,207.574561 L418.150327,217.205342 C418.104412,219.835787 416.027958,221.98069 413.400384,222.111861 L398.790446,222.843409 C398.510291,226.734133 398.112983,230.592407 397.60203,234.414722 L411.761888,238.1083 C414.315239,238.774407 415.911394,241.3101 415.407886,243.900424 L413.569967,253.3557 C413.067978,255.93821 410.650611,257.689954 408.040178,257.362859 L393.543826,255.547173 C392.589854,259.335309 391.522129,263.07823 390.344495,266.772093 L403.639182,272.865372 C406.038074,273.964745 407.169662,276.739084 406.223998,279.202622 L402.772109,288.1951 C401.829298,290.651206 399.144469,291.956566 396.630494,291.181144 L382.648257,286.87005 C381.507346,289.406117 380.312421,291.912632 379.064946,294.38813 L391.272667,302.505436 C393.470045,303.966543 394.153699,306.883744 392.834295,309.169018 L388.018171,317.510789 C387.128326,319.052046 385.533505,319.948485 383.863605,320.008381 L383.645418,320.011434 C382.917053,320.005691 382.179674,319.840235 381.48505,319.49931 L377.589,317.587 L368.303021,313.02955 C366.178342,316.270667 363.957242,319.442897 361.643799,322.542163 L372.296762,332.695751 C374.207038,334.516231 374.373738,337.507829 372.677546,339.529272 L366.486057,346.908002 C364.794982,348.923347 361.831443,349.283494 359.706885,347.731848 L347.81098,339.043638 C345.155173,341.871524 342.413757,344.618065 339.590868,347.279124 L348.34192,359.157006 C349.907052,361.281544 349.551734,364.25664 347.530291,365.952833 L340.151561,372.144322 C338.136217,373.835397 335.155161,373.67546 333.332321,371.778461 L323.113845,361.14387 C320.018694,363.463236 316.850436,365.690362 313.613151,367.821171 L320.17215,381.049036 C321.344582,383.41308 320.478042,386.281277 318.192769,387.600681 L309.850998,392.416805 C307.572618,393.732228 304.664625,393.057065 303.198888,390.872353 L294.980308,378.623782 C291.53948,380.365511 288.038487,382.005624 284.481277,383.540173 L288.643377,397.706663 C289.387484,400.238382 288.036052,402.912533 285.556385,403.815058 L276.505033,407.10948 C274.032847,408.009283 271.286273,406.83941 270.222175,404.433366 L264.249767,390.929 C260.554488,392.043868 256.811716,393.04923 253.025227,393.941314 L254.667248,408.645361 C254.960422,411.267831 253.16516,413.666681 250.566443,414.124905 L241.080531,415.797527 C238.489654,416.254369 235.987953,414.625331 235.357826,412.071062 L231.807124,397.679328 C226.911442,398.257459 221.958754,398.649453 216.956331,398.848041 L215.756368,413.665842 C215.543765,416.29607 213.323765,418.308295 210.68536,418.262241 L201.05458,418.094136 C198.424134,418.048221 196.279232,415.971766 196.14806,413.344193 L195.404638,398.500571 C191.53801,398.221357 187.703446,397.826435 183.904393,397.31925 L180.151622,411.705697 C179.485515,414.259047 176.949822,415.855203 174.359498,415.351695 L164.904222,413.513775 C162.321712,413.011786 160.569968,410.594419 160.897062,407.983987 L162.741892,393.257268 C158.976368,392.309035 155.255519,391.248402 151.583121,390.079146 L145.39455,403.582991 C144.295177,405.981882 141.520838,407.11347 139.0573,406.167806 L130.064822,402.715918 C127.608716,401.773107 126.303356,399.088278 127.078778,396.574303 L131.456029,382.378742 C127.927728,380.792411 124.456599,379.101542 121.046585,377.310079 L112.590373,389.558622 C111.09114,391.730165 108.162451,392.362802 105.900552,391.003716 L97.6441044,386.042742 C95.3890293,384.687756 94.5697166,381.817043 95.7699055,379.475911 L102.565813,366.218535 C99.3793146,364.051306 96.2621437,361.789738 93.2183168,359.437847 L82.7358316,370.058713 C80.8822902,371.936926 77.8882384,372.051391 75.8967059,370.320178 L68.6271562,364.000855 C66.6416316,362.274865 66.3332602,359.305491 67.9217488,357.208338 L76.9298441,345.3144 C74.1606218,342.625074 71.4730758,339.852101 68.8712833,336.999559 L56.6966768,345.645707 C54.5451466,347.173522 51.5767046,346.766336 49.9160498,344.715598 L43.8542799,337.229936 C42.1986349,335.185384 42.4105747,332.207575 44.3390974,330.418119 L55.2659523,320.277822 C53.6540316,318.050627 52.0892347,315.787089 50.5730242,313.488672 L38.453,319.499 L37.2135665,320.114411 C36.5877901,320.424761 35.9266881,320.592241 35.268338,320.628357 L35.0490421,320.635545 C33.296326,320.654386 31.5932649,319.748164 30.6619214,318.13503 L25.8457975,309.793259 C24.5303746,307.514879 25.205537,304.606886 27.3902489,303.141149 L37.546,296.327 L39.7441206,294.852761 C37.5045991,290.438884 35.4323742,285.925793 33.5357906,281.321836 L19.1875522,285.26725 C16.6432318,285.96706 13.9930744,284.569164 13.133963,282.074123 L9.99800984,272.966654 C9.14149022,270.47914 10.3591194,267.753402 12.7833677,266.731458 L26.4786666,260.957892 C25.4311922,257.265289 24.4925818,253.526913 23.6665239,249.74645 L8.85194625,251.139324 C6.22475913,251.386685 3.85760573,249.549831 3.44480545,246.943513 L1.93798991,237.429854 C1.52643495,234.831398 3.19888507,232.358509 5.76376235,231.773057 L20.2716236,228.46194 C19.8829031,224.641396 19.6073775,220.787374 19.4484539,216.903283 L4.59717405,215.700231 C1.96694598,215.487628 -0.0452786668,213.267627 0.000774856721,210.629223 L0.168880761,200.998442 C0.214795352,198.367997 2.29124988,196.223094 4.91882363,196.091923 L19.7700134,195.347696 C20.0449658,191.475146 20.4359736,187.63467 20.9395789,183.829724 L6.55608111,180.077772 C4.00273024,179.411664 2.40657477,176.875972 2.91008279,174.285647 L4.74800233,164.830371 C5.24999138,162.247861 7.6673583,160.496117 10.277791,160.823212 L24.9774618,162.663146 C25.9192861,158.905006 26.9730408,155.191259 28.1349772,151.525653 L14.669147,145.354317 C12.2702556,144.254945 11.1386677,141.480606 12.0843314,139.017068 L15.5362203,130.02459 C16.4790311,127.568483 19.16386,126.263124 21.677835,127.038546 L35.8068017,131.395159 C37.3941272,127.852225 39.0867988,124.366774 40.8808312,120.94279 L28.703953,112.535776 C26.5324101,111.036542 25.8997725,108.107854 27.2588583,105.845955 L32.2198327,97.589507 C33.5748185,95.334432 36.4455321,94.5151192 38.7866635,95.7153081 L51.9451236,102.460417 C53.4945952,100.176553 55.0924881,97.9282053 56.7373273,95.7168486 L46.032438,85.5156878 C44.1221623,83.6952081 43.9554614,80.70361 45.6516535,78.6821669 L51.8431431,71.303437 C53.5342182,69.2880922 56.4977573,68.927945 58.6223146,70.4795913 L70.5467868,79.1871195 C73.1956528,76.3572556 75.930093,73.6084841 78.7459804,70.944932 L69.9872797,59.0544332 C68.4221483,56.9298948 68.7774655,53.9547984 70.7989086,52.2586063 L78.1776385,46.0671168 C80.1929833,44.3760416 83.1740385,44.5359791 84.9968785,46.4329779 L95.2009844,57.0507783 C98.2945809,54.7243548 101.461518,52.4902081 104.697706,50.3524264 L98.1570495,37.1624032 C96.9846182,34.7983591 97.8511574,31.9301614 100.136431,30.6107581 L108.478202,25.7946342 C110.756581,24.4792113 113.664575,25.1543738 115.130311,27.3390857 L123.304255,39.5231045 C126.750534,37.7711854 130.257399,36.121294 133.820872,34.5774076 L129.685823,20.5047761 C128.941716,17.9730566 130.293148,15.2989062 132.772815,14.3963812 L141.824167,11.1019584 C144.296353,10.2021561 147.042927,11.3720292 148.107024,13.7780729 L154.026148,27.1612388 C157.733312,26.0360968 161.488442,25.0212162 165.28772,24.1204147 L163.661952,9.56607827 C163.368778,6.94360833 165.164039,4.54475793 167.762757,4.08653399 L177.248669,2.41391171 C179.839546,1.95707012 182.341247,3.58610765 182.971373,6.14037674 L186.477768,20.3550515 C190.305326,19.8971147 194.167849,19.5529698 198.061856,19.3260967 L198.990616,4.68420043 C199.157283,2.05066252 201.341827,-1.0759875e-12 203.980634,-1.08002496e-12 L213.612881,-1.08002496e-12 Z M228.17284,243.923078 C222.447007,247.155462 215.832442,249 208.787062,249 C201.941714,249 195.503065,247.258715 189.889891,244.194922 C189.640636,244.41928 189.362739,244.621263 189.059579,244.796292 C188.968347,244.848965 188.875473,244.898741 188.781097,244.945547 L79.5056195,299.139922 C108.04625,340.155037 155.531667,367 209.287062,367 C263.191609,367 310.791337,340.005859 339.305638,298.798186 L229.567269,244.937097 C229.031942,244.674355 228.564499,244.328641 228.17284,243.923078 Z M51.287062,209 C51.287062,233.290194 56.7683252,256.30017 66.5614379,276.860515 L167.92191,208.857598 C168.359817,208.563803 168.827372,208.348422 169.307997,208.20819 C169.753912,194.313273 177.377333,182.230177 188.59229,175.545577 C188.399703,175.015646 188.295015,174.442931 188.295015,173.845764 C188.295015,173.740419 188.298344,173.6351 188.304998,173.529965 L196.02395,51.5487908 C114.969388,58.2853293 51.287062,126.205762 51.287062,209 Z M221.76041,51.4851333 L229.987672,173.509353 C230.04495,174.358746 229.886606,175.172873 229.559415,175.898194 C240.410541,182.618448 247.764037,194.450055 248.260285,208.031896 C248.897424,208.113233 249.530261,208.320203 250.122257,208.661991 C250.213488,208.714664 250.303033,208.770207 250.390756,208.828537 L352.178917,276.510407 C361.867805,256.039091 367.287062,233.152413 367.287062,209 C367.287062,125.937044 303.190688,57.8445985 221.76041,51.4851333 Z" id="path-1"></path>
        <filter x="-2.2%" y="-2.2%" width="104.3%" height="104.3%" filterUnits="objectBoundingBox" id="filter-2">
            <feOffset dx="0" dy="0" in="SourceAlpha" result="shadowOffsetOuter1"></feOffset>
            <feGaussianBlur stdDeviation="3" in="shadowOffsetOuter1" result="shadowBlurOuter1"></feGaussianBlur>
            <feColorMatrix values="0 0 0 0 0.190119204   0 0 0 0 0.190119204   0 0 0 0 0.190119204  0 0 0 0.5 0" type="matrix" in="shadowBlurOuter1"></feColorMatrix>
        </filter>
    </defs>
    <g id="页面-1" stroke="none" stroke-width="1" fill="none" fill-rule="evenodd">
        <g id="编组-6" transform="translate(6.712938, 6.000000)">
            <circle id="椭圆形" fill="#4A4C4A" cx="211.287062" cy="208" r="175"></circle>
            <circle id="椭圆形" fill="#5B6172" cx="209.287062" cy="210" r="140"></circle>
            <path d="M211.716161,107.029322 C214.304181,107.029322 216.464482,109.004212 216.696097,111.581846 L229.858045,258.060331 C229.935709,258.924648 229.788562,259.757322 229.464872,260.500553 C240.359274,267.206602 247.751001,279.054108 248.259101,292.66191 C248.902209,292.742511 249.541378,292.950147 250.138935,293.295147 C250.221114,293.342592 250.301925,293.392368 250.38127,293.444413 L372.500903,373.545845 C374.717514,374.999778 375.414146,377.930956 374.088695,380.226706 L369.228431,388.644929 C367.937464,390.88095 365.156287,391.766302 362.810269,390.688067 L229.751402,329.533944 C229.192048,329.276863 228.702762,328.929547 228.292881,328.517205 C222.538786,331.791818 215.881331,333.662043 208.787062,333.662043 C201.942121,333.662043 195.503831,331.920966 189.890892,328.857512 C189.640772,329.082576 189.363064,329.284389 189.060129,329.459288 C188.969195,329.511789 188.876629,329.561413 188.78257,329.608085 L55.4923599,395.746674 C53.1282015,396.91977 50.2593934,396.053369 48.9397915,393.767751 L44.0849044,385.35884 C42.7857189,383.108585 43.4266476,380.238237 45.5596385,378.754363 L167.89787,293.646389 C168.340393,293.338536 168.815279,293.112092 169.30476,292.963869 C169.719801,279.036052 177.344779,266.91917 188.575496,260.217636 C188.381242,259.685106 188.275193,259.108841 188.275193,258.507808 C188.275193,258.408666 188.278142,258.309546 188.284036,258.210579 L197.006972,111.732094 C197.164264,109.09079 199.352147,107.029322 201.99813,107.029322 L211.716161,107.029322 Z" id="形状结合" fill="#7E8094" transform="translate(209.086848, 251.648938) scale(1, -1) translate(-209.086848, -251.648938) "></path>
            <path d="M211.083026,125 C212.135371,125 213.0077,125.815492 213.078495,126.865454 L213.475518,132.741829 C215.039991,132.82543 216.591952,132.956163 218.130008,133.132633 L219.515626,127.411561 C219.764177,126.385695 220.767174,125.729595 221.806685,125.912889 L225.631121,126.58724 C226.667461,126.769975 227.384925,127.724529 227.272347,128.770817 L226.644411,134.602798 C228.174373,134.957629 229.686697,135.358482 231.179843,135.803822 L233.530373,130.43048 C233.953276,129.463339 235.054979,128.991357 236.046882,129.35238 L239.696206,130.680626 C240.685054,131.040537 241.225863,132.10515 240.933335,133.115984 L239.304572,138.741443 C240.744683,139.357094 242.162017,140.015772 243.554958,140.715861 L246.802195,135.8334 C247.38661,134.954373 248.553546,134.680861 249.467696,135.208646 L252.831057,137.150483 C253.742373,137.676632 254.090103,138.818961 253.626511,139.763637 L251.043214,145.028158 C252.349605,145.882502 253.628205,146.775824 254.877362,147.706474 L258.927842,143.456149 C259.656018,142.691953 260.852726,142.625228 261.661343,143.303738 L264.636546,145.80023 C265.442646,146.476629 265.586735,147.661974 264.966159,148.511796 L261.504785,153.251278 C262.645709,154.320624 263.753759,155.424632 264.827255,156.561623 L269.555711,153.078888 C270.405526,152.452752 271.595636,152.594849 272.274145,153.403464 L274.770759,156.378812 C275.447156,157.184911 275.383224,158.377265 274.62451,159.106416 L270.39682,163.169381 C271.599972,164.772016 272.741514,166.423564 273.81793,168.120507 L279.11601,165.606968 C280.069682,165.154503 281.210798,165.521076 281.722545,166.444292 L283.60566,169.841521 C284.115821,170.761876 283.825548,171.920129 282.941638,172.491112 L278.025512,175.667696 C278.705192,177.068306 279.343305,178.492833 279.938248,179.939674 L285.584287,178.386916 C286.602032,178.106949 287.662137,178.666106 288.00579,179.664148 L289.270419,183.336898 C289.613015,184.331868 289.12601,185.422129 288.156364,185.830939 L282.762829,188.103867 C283.187702,189.603903 283.56786,191.122731 283.90177,192.658818 L289.7388,192.10969 C290.789683,192.010731 291.73656,192.745475 291.901682,193.788012 L292.509346,197.624654 C292.673965,198.664014 292.005016,199.653154 290.979094,199.88736 L285.254676,201.193913 C285.410382,202.737316 285.520106,204.294295 285.582458,205.863459 L291.448363,206.338418 C292.500445,206.42347 293.305322,207.311466 293.286901,208.36682 L293.219107,212.250721 C293.200741,213.302894 292.370167,214.160853 291.319143,214.213328 L285.444115,214.508318 C285.331623,216.070567 285.172111,217.61979 284.966989,219.154579 L290.661158,220.640812 C291.682465,220.907282 292.320892,221.92154 292.119494,222.957645 L291.378305,226.77073 C291.177507,227.803747 290.21054,228.504447 289.166356,228.373589 L283.337116,227.643267 C282.953962,229.164951 282.525116,230.668471 282.052121,232.152282 L287.398762,234.602741 C288.358261,235.042522 288.810848,236.15222 288.432596,237.137599 L287.040569,240.763955 C286.663434,241.746425 285.589457,242.268566 284.58385,241.95835 L278.961269,240.224736 C278.503037,241.243443 278.02311,242.250278 277.522076,243.244653 L282.431803,246.509185 C283.310679,247.093656 283.58409,248.260481 283.056352,249.17455 L282.372351,250.361473 C282.289265,250.600315 282.182728,250.834606 282.052023,251.061283 C281.920762,251.288922 281.770674,251.499354 281.604798,251.691652 L281.114242,252.538384 C280.588052,253.449771 279.445598,253.797472 278.500898,253.333745 L277.956341,253.067147 C277.534782,253.008916 277.115745,252.883427 276.714233,252.686111 L273.08593,250.903 L272.553008,251.702957 C271.898533,252.668975 271.222501,253.619196 270.525605,254.552928 L274.810142,258.636654 C275.574166,259.364861 275.640803,260.561432 274.962359,261.36997 L272.465744,264.34532 C271.789283,265.151495 270.603795,265.295524 269.753972,264.674782 L264.970617,261.180478 C263.904079,262.31628 262.803163,263.419413 261.66953,264.488213 L265.188646,269.266102 C265.814616,270.115918 265.672459,271.305885 264.863919,271.98433 L261.888715,274.480823 C261.082538,275.157286 259.890047,275.093267 259.160926,274.334382 L255.05108,270.058076 C253.808175,270.989552 252.535916,271.883987 251.235942,272.739744 L253.874206,278.060005 C254.34311,279.00561 253.99648,280.152827 253.082406,280.680567 L249.719044,282.622405 C248.807651,283.148598 247.644398,282.878482 247.058131,282.004521 L243.753273,277.07846 C242.371119,277.778193 240.964792,278.437094 239.535878,279.053576 L241.21064,284.751147 C241.508239,285.763819 240.967664,286.833436 239.975823,287.194436 L236.326499,288.522682 C235.337588,288.882616 234.238922,288.414619 233.813315,287.452145 L231.410402,282.021369 C229.926464,282.469106 228.423456,282.872866 226.902894,283.231133 L227.564158,289.144907 C227.681411,290.193885 226.963308,291.153408 225.923833,291.336695 L222.099396,292.011047 C221.063021,292.193788 220.062323,291.542139 219.810299,290.520399 L218.382414,284.732339 C216.416053,284.964576 214.426793,285.122033 212.417555,285.201788 L211.935747,291.161041 C211.850717,292.213141 210.962712,293.018043 209.907342,292.999622 L206.024531,292.931847 C204.972347,292.913481 204.114384,292.082891 204.061922,291.031856 L203.763415,285.062226 C202.210007,284.950046 200.669486,284.791359 199.143236,284.587549 L197.635299,290.373648 C197.368884,291.395021 196.354588,292.033519 195.318433,291.832111 L191.506341,291.091116 C190.47335,290.890322 189.772655,289.923395 189.903474,288.879233 L190.64537,282.956161 C189.132902,282.575241 187.638381,282.149161 186.163323,281.67944 L183.675368,287.110565 C183.235652,288.07018 182.125878,288.522864 181.140426,288.144584 L177.514827,286.752847 C176.532412,286.375733 176.010265,285.301847 176.320388,284.296273 L178.079891,278.586296 C176.663022,277.949163 175.269111,277.270047 173.89974,276.550534 L170.499849,281.476812 C169.900183,282.345507 168.728651,282.598613 167.82385,282.054953 L164.494877,280.054705 C163.592882,279.512732 163.265142,278.36451 163.745148,277.428069 L166.478061,272.09564 C165.19808,271.224966 163.945954,270.316385 162.723295,269.37151 L158.509067,273.643575 C157.767664,274.394947 156.569974,274.440776 155.773322,273.748257 L152.842128,271.200209 C152.047955,270.509845 151.924576,269.322167 152.559887,268.483304 L156.18278,263.699512 C155.070539,262.61922 153.991105,261.505325 152.946116,260.359465 L148.050733,263.836797 C147.19012,264.448005 146.002671,264.28516 145.338379,263.464827 L142.89406,260.446345 C142.231835,259.628564 142.316566,258.437507 143.08789,257.721709 L147.482597,253.643614 C146.862652,252.786931 146.260062,251.916862 145.675344,251.033922 L141.856784,252.929853 C141.526369,253.093928 141.183822,253.209004 140.837623,253.277641 L140.225585,253.580849 C139.279956,254.04989 138.132613,253.703289 137.604831,252.789144 L137.327348,252.310619 C137.017061,252.03124 136.745185,251.699325 136.525991,251.319187 C136.306954,250.939321 136.155496,250.538106 136.068291,250.129868 L135.662722,249.425311 C135.136576,248.514 135.406591,247.350858 136.2804,246.764536 L141.24857,243.430864 C140.349277,241.658206 139.517155,239.845707 138.755553,237.99672 L132.985694,239.582756 C131.967949,239.862723 130.907844,239.303565 130.56419,238.305524 L129.299561,234.632774 C128.956965,233.637803 129.443971,232.547542 130.413616,232.138733 L135.921102,229.816706 C135.500412,228.333475 135.123445,226.831857 134.791684,225.313334 L128.834798,225.873577 C127.783915,225.972536 126.837039,225.237792 126.671917,224.195255 L126.064252,220.358613 C125.899634,219.319253 126.568582,218.330113 127.594504,218.095907 L133.428316,216.764523 C133.272166,215.229645 133.161495,213.681314 133.097671,212.120901 L127.125778,211.637623 C126.073696,211.552571 125.268818,210.664575 125.28724,209.609221 L125.355034,205.725319 C125.373399,204.673146 126.203973,203.815188 127.254997,203.762712 L133.226836,203.463652 C133.337267,201.908068 133.494314,200.365368 133.696589,198.836942 L127.912761,197.328339 C126.891454,197.061869 126.253027,196.047611 126.454426,195.011506 L127.195615,191.198421 C127.396413,190.165404 128.363379,189.464704 129.407563,189.595561 L135.318073,190.335932 C135.69631,188.826418 136.1195,187.334735 136.586137,185.862389 L131.170993,183.379856 C130.211494,182.940075 129.758907,181.830377 130.137159,180.844999 L131.529186,177.218642 C131.906321,176.236173 132.980299,175.714032 133.985905,176.024247 L139.66734,177.776308 C140.304714,176.353491 140.984381,174.953755 141.704741,173.578699 L136.808017,170.196615 C135.939477,169.596895 135.686472,168.425476 136.230082,167.520758 L138.230595,164.191345 C138.772611,163.289279 139.92096,162.961569 140.857424,163.441715 L146.148557,166.154426 C146.770801,165.237137 147.412488,164.334112 148.073028,163.445943 L143.767995,159.342629 C143.003971,158.614422 142.937334,157.417851 143.615778,156.609313 L146.112393,153.633964 C146.788854,152.827788 147.974341,152.683759 148.824165,153.304501 L153.619058,156.806496 C154.682999,155.669699 155.781316,154.565482 156.912351,153.495503 L153.38949,148.713182 C152.763521,147.863366 152.905678,146.673399 153.714218,145.994953 L156.689422,143.498461 C157.495599,142.821997 158.68809,142.886016 159.417211,143.644902 L163.519978,147.915444 C164.762374,146.981006 166.034223,146.083632 167.333884,145.224963 L164.703931,139.919279 C164.235027,138.973673 164.581657,137.826457 165.495731,137.298716 L168.859093,135.356878 C169.770486,134.830685 170.933738,135.100801 171.520005,135.974762 L174.806705,140.875013 C176.19055,140.171434 177.598719,139.508823 179.029616,138.888778 L177.367497,133.228136 C177.069898,132.215464 177.610473,131.145848 178.602314,130.784847 L182.251638,129.456602 C183.240549,129.096668 184.339215,129.564665 184.764822,130.527138 L187.144927,135.909658 C188.633518,135.457799 190.141366,135.050215 191.666939,134.688437 L191.013979,128.834376 C190.896726,127.785398 191.614828,126.825876 192.654304,126.642588 L196.478741,125.968237 C197.515116,125.785496 198.515814,126.437145 198.767838,127.458884 L200.176983,133.17594 C201.690222,132.99485 203.217069,132.858055 204.756191,132.766886 L205.006835,128.809634 C205.023456,128.546668 205.064818,128.290847 205.128566,128.04438 L205.203615,126.873697 C205.270273,125.820275 206.144094,125 207.199623,125 L211.083026,125 Z M217.911086,222.483691 C215.383618,224.18575 212.340094,225.179071 209.064862,225.179071 C205.894407,225.179071 202.941072,224.248287 200.462553,222.644745 C200.042742,223.525113 199.36067,224.291387 198.451819,224.815445 C198.362085,224.867188 198.270764,224.916129 198.177989,224.962198 L157.294191,245.263446 C168.764617,261.675287 187.798031,272.409638 209.33825,272.409638 C230.914737,272.409638 249.975971,261.639109 261.440185,245.180498 L220.280521,224.952841 C219.181525,224.412761 218.368951,223.522958 217.911086,222.483691 Z M145.884315,208.947178 C145.884315,218.738206 148.101271,228.011366 152.060524,236.291936 L189.984479,210.815759 C190.971675,210.1526 192.109898,209.888173 193.208962,209.985135 C193.198251,209.754135 193.193198,209.521264 193.193198,209.287211 C193.193198,203.022514 196.813533,197.604469 202.073645,195.016153 C201.416775,194.171252 201.025706,193.108409 201.025706,191.954227 C201.025706,191.849015 201.029026,191.74383 201.035663,191.638827 L203.937782,145.711333 C171.420892,148.452255 145.884315,175.717122 145.884315,208.947178 Z M214.274875,145.673936 L217.368792,191.618242 C217.457508,192.93549 217.02766,194.167881 216.253724,195.115739 C221.406484,197.740584 224.936526,203.10113 224.936526,209.287211 C224.936526,209.527662 224.931193,209.766867 224.920638,210.004712 C226.001107,209.839433 227.143693,210.02726 228.165018,210.616173 C228.25792,210.669742 228.349076,210.726286 228.438342,210.785718 L266.647876,236.22512 C270.587135,227.961495 272.792186,218.71188 272.792186,208.947178 C272.792186,175.559277 247.012431,148.193369 214.274875,145.673936 Z" id="形状结合" fill=""></path>
            <g id="形状结合">
                <use fill="black" fill-opacity="1" filter="url(#filter-2)" xlink:href="#path-1"></use>
                <use fill="" fill-rule="evenodd" xlink:href="#path-1"></use>
            </g>
            <circle id="椭圆形" fill="#49494E" cx="209.287062" cy="210" r="21"></circle>
            <circle id="椭圆形" fill="" cx="209.287062" cy="210" r="12"></circle>
        </g>
    </g>
</svg>