<?xml version="1.0" standalone="no"?><!DOCTYPE svg PUBLIC "-//W3C//DTD SVG 1.1//EN" "http://www.w3.org/Graphics/SVG/1.1/DTD/svg11.dtd"><svg class="icon" width="200px" height="197.30px" viewBox="0 0 1038 1024" version="1.1" xmlns="http://www.w3.org/2000/svg"><path d="M920.353753 0H118.185801A118.185801 118.185801 0 0 0 0 118.185801v787.628398a118.185801 118.185801 0 0 0 118.185801 118.185801h802.167952A118.185801 118.185801 0 0 0 1038.539554 905.814199V118.185801A118.185801 118.185801 0 0 0 920.353753 0z" fill="#E7EAEC" /><path d="M519.269777 514.492495m-419.777688 0a419.777688 419.777688 0 1 0 839.555376 0 419.777688 419.777688 0 1 0-839.555376 0Z" fill="#C9CBD2" /><path d="M519.269777 514.492495m-355.803651 0a355.803651 355.803651 0 1 0 711.607302 0 355.803651 355.803651 0 1 0-711.607302 0Z" fill="#57555E" /><path d="M519.269777 872.373225a358.296146 358.296146 0 1 1 358.296146-357.88073A358.711562 358.711562 0 0 1 519.269777 872.373225z m0-710.984178a353.103448 353.103448 0 1 0 353.103448 353.103448 353.103448 353.103448 0 0 0-353.103448-353.103448z" fill="#6B6A6A" /><path d="M920.353753 994.920892H118.185801A118.185801 118.185801 0 0 1 0 876.735091v29.079108a118.185801 118.185801 0 0 0 118.185801 118.185801h802.167952A118.185801 118.185801 0 0 0 1038.539554 905.814199v-29.079108a118.185801 118.185801 0 0 1-118.185801 118.185801z" fill="#979797" /><path d="M920.353753 29.079108H118.185801A118.185801 118.185801 0 0 0 0 147.264909v-29.079108A118.185801 118.185801 0 0 1 118.185801 0h802.167952A118.185801 118.185801 0 0 1 1038.539554 118.185801v29.079108a118.185801 118.185801 0 0 0-118.185801-118.185801z" fill="#FFFFFF" /><path d="M519.269777 514.492495m-69.789858 0a69.789858 69.789858 0 1 0 139.579716 0 69.789858 69.789858 0 1 0-139.579716 0Z" fill="#EBECF0" /><path d="M270.020284 557.280325H300.968763l1.453955 1.038539 1.453955 1.869371 1.246248 2.492495v1.453956A215.185396 215.185396 0 0 0 332.332657 624.785396v2.077079a15.370385 15.370385 0 0 1 0 4.777282 15.578093 15.578093 0 0 1-4.569574 11.008519l-16.201217 16.201217a31.156187 31.156187 0 0 0 0 44.034077l16.408925 16.408925a31.156187 31.156187 0 0 0 44.034077 0l16.201217-16.201217 2.077079-1.453955H405.65355a215.600811 215.600811 0 0 0 56.081136 23.263286 15.370385 15.370385 0 0 1 11.008519 14.747261v22.84787a31.156187 31.156187 0 0 0 31.156186 30.948479h23.263286a31.156187 31.156187 0 0 0 30.948479-31.156187v-22.84787a15.370385 15.370385 0 0 1 10.800812-14.747261 215.185396 215.185396 0 0 0 55.873428-23.263286l2.700202-1.246248h9.554564l2.077079 1.03854 2.492495 2.077079 16.201217 16.201217a31.156187 31.156187 0 0 0 44.034077 0l16.408925-16.408925a31.156187 31.156187 0 0 0 0-44.034077l-9.346856-15.162678a15.370385 15.370385 0 0 1-3.738742-15.785801v-1.869371a215.393103 215.393103 0 0 0 23.263286-55.873428v-1.453955l1.246247-2.492495 1.453956-1.869372 1.453955-1.246247H768.51927a31.156187 31.156187 0 0 0 30.948478-31.156187V502.653144A31.156187 31.156187 0 0 0 768.51927 471.704665h-22.84787a15.370385 15.370385 0 0 1-14.747262-10.800811A215.600811 215.600811 0 0 0 706.206897 403.991886v-5.192697a15.162677 15.162677 0 0 1 0-1.661664v-1.453955a15.370385 15.370385 0 0 1 0-1.661663v-6.854361l1.038539-1.246248 16.201217-16.201217a31.156187 31.156187 0 0 0 0-44.034077l-16.408925-16.408925a31.156187 31.156187 0 0 0-44.034077 0l-16.201217 16.201217a15.578093 15.578093 0 0 1-15.993509 3.738743h-2.284787a215.393103 215.393103 0 0 0-55.873428-23.263286c-9.554564-2.907911-12.670183-6.438945-12.877891-15.162678v-22.84787a31.156187 31.156187 0 0 0-31.156186-30.948479h-21.186207a31.156187 31.156187 0 0 0-30.948479 31.156187v22.84787a15.370385 15.370385 0 0 1 0 2.284787V299.099391h-1.246247l-2.284787 1.246248h-1.453956a215.185396 215.185396 0 0 0-54.211764 22.224746 15.578093 15.578093 0 0 1-20.770791 0L373.874239 308.653955a31.156187 31.156187 0 0 0-44.034077 0l-16.408925 16.408925a31.156187 31.156187 0 0 0 0 44.034077l16.201217 16.201217a15.370385 15.370385 0 0 1 1.03854 20.770792 215.185396 215.185396 0 0 0-22.224747 54.211764v5.400406H270.020284a31.156187 31.156187 0 0 0-30.948479 31.156187v23.263286A31.156187 31.156187 0 0 0 270.020284 557.280325z m249.249493-143.733875a100.946045 100.946045 0 1 1-100.946045 100.946045A100.946045 100.946045 0 0 1 519.269777 413.54645z" fill="#EBECF0" /><path d="M519.269777 587.190264a72.697769 72.697769 0 0 1 0-145.395538 72.697769 72.697769 0 0 1 0 145.395538z m0-139.787424A67.089655 67.089655 0 0 0 519.269777 581.58215a67.089655 67.089655 0 0 0 0-133.971602z" fill="#666666" /><path d="M507.638134 796.767546a33.856389 33.856389 0 0 1-33.85639-33.85639v-22.84787a12.462475 12.462475 0 0 0-8.93144-12.047059 217.054767 217.054767 0 0 1-56.496551-23.470994l-2.492495-1.038539h-10.593104l-1.661663 1.246247-16.201217 16.201217a34.064097 34.064097 0 0 1-47.980528 0L311.561866 706.206897a34.064097 34.064097 0 0 1 0-47.980528l16.201217-16.201217a12.462475 12.462475 0 0 0 3.738743-8.93144 13.085598 13.085598 0 0 0 0-3.94645v-2.077079a217.885598 217.885598 0 0 1-23.470994-56.496552v-1.03854l-1.03854-1.869371-1.453955-1.661663H270.020284a33.856389 33.856389 0 0 1-33.856389-33.85639v-29.286815A33.856389 33.856389 0 0 1 270.020284 469.004462H299.514807l1.453956-1.038539v-2.284787a219.962677 219.962677 0 0 1 22.640162-55.250304 12.670183 12.670183 0 0 0 0-16.824341l-16.408925-16.616633a34.064097 34.064097 0 0 1 0-47.980527l16.408925-16.408925a34.064097 34.064097 0 0 1 47.980527 0l16.201217 16.201217a12.670183 12.670183 0 0 0 16.824341 1.246247 218.924138 218.924138 0 0 1 55.250304-22.84787h1.453956l2.284787-1.246247 1.038539-1.661664v-2.700203a17.655172 17.655172 0 0 0 0-2.077079v-22.84787A33.856389 33.856389 0 0 1 498.498986 242.810548h23.263286a34.064097 34.064097 0 0 1 33.856389 33.856389v22.84787c0 7.062069 2.284787 9.762272 10.800812 12.254767a216.639351 216.639351 0 0 1 56.496551 23.470994h2.284787a12.670183 12.670183 0 0 0 13.085599-2.907911l16.201217-16.201217a34.064097 34.064097 0 0 1 47.980527 0l16.408925 16.408925a34.064097 34.064097 0 0 1 0 47.980527l-16.824341 17.032049v3.94645a14.95497 14.95497 0 0 0 0 1.453956 16.824341 16.824341 0 0 0 0 1.661663v2.907911a218.093306 218.093306 0 0 1 23.470994 56.70426 12.462475 12.462475 0 0 0 12.047059 8.723732H768.51927a33.856389 33.856389 0 0 1 33.856389 33.856389v23.263286A34.064097 34.064097 0 0 1 768.51927 560.811359H737.778499l-1.661663 1.869371-1.246248 2.284787v1.246248a217.885598 217.885598 0 0 1-23.470994 56.704259v1.661664a12.87789 12.87789 0 0 0 2.907911 13.085598l16.201217 16.201217A34.064097 34.064097 0 0 1 726.977688 706.206897l-16.408925 16.408925a34.064097 34.064097 0 0 1-47.980528 0l-15.993509-16.408925-2.077079-1.661664-2.077079-1.246247h-1.453955a12.254767 12.254767 0 0 0-5.400406 0h-2.284787A217.262475 217.262475 0 0 1 574.520081 726.977688a12.670183 12.670183 0 0 0-8.723732 12.047058v22.847871a33.856389 33.856389 0 0 1-33.85639 33.856389h-24.301825z m-106.554158-100.115213H405.861258l2.700202 1.038539a211.654361 211.654361 0 0 0 55.250305 22.84787 18.278296 18.278296 0 0 1 12.87789 17.447465v22.84787a28.248276 28.248276 0 0 0 28.248276 28.248276h23.263286a28.248276 28.248276 0 0 0 28.248276-28.248276v-22.84787a18.278296 18.278296 0 0 1 12.87789-17.447465 212.692901 212.692901 0 0 0 55.458013-23.055578l3.115618-1.246247h1.246248a17.655172 17.655172 0 0 1 7.8929 0h1.661664l2.284787 1.246247 2.90791 2.492495 16.201217 16.201217a28.455984 28.455984 0 0 0 39.879919 0l16.408925-16.408925a28.248276 28.248276 0 0 0 0-39.879919l-10.177687-14.331845a18.278296 18.278296 0 0 1-4.361867-18.693712 18.90142 18.90142 0 0 1 1.246248-2.907911A212.069777 212.069777 0 0 0 726.977688 568.081136v-2.700203a18.693712 18.693712 0 0 1 1.661663-2.907911l1.661663-1.869371 1.869371-1.661663H768.51927a28.248276 28.248276 0 0 0 28.248276-28.248276V502.653144A28.248276 28.248276 0 0 0 768.51927 474.612576h-22.84787a18.278296 18.278296 0 0 1-17.447465-12.87789 212.692901 212.692901 0 0 0-23.055578-55.250305v-5.192697a17.032049 17.032049 0 0 1 0-1.869372 14.747262 14.747262 0 0 1 0-1.661663 13.501014 13.501014 0 0 1 0-1.661663v-8.100609l1.246247-1.453955 16.201218-16.201217a28.248276 28.248276 0 0 0 0-39.879919L706.206897 311.561866a28.248276 28.248276 0 0 0-39.879919 0l-16.201217 16.201217a18.278296 18.278296 0 0 1-18.90142 4.361866l-2.907911-1.246247a215.808519 215.808519 0 0 0-55.873428-23.263286c-10.800811-3.323327-14.95497-8.100609-14.95497-17.862881v-22.84787a28.248276 28.248276 0 0 0-28.248275-28.040568h-21.809331a28.248276 28.248276 0 0 0-28.248276 28.248276v22.84787a18.693712 18.693712 0 0 1 0 2.700203 20.770791 20.770791 0 0 1 0 2.492495v5.608114l-1.246247 1.453955h-2.492495l-2.700203 1.453956h-1.869371a212.900609 212.900609 0 0 0-53.380933 22.017038 18.278296 18.278296 0 0 1-23.678702-1.453955l-16.616633-16.616633A28.248276 28.248276 0 0 0 332.332657 311.561866l-16.408925 16.408925a28.248276 28.248276 0 0 0 0 39.879919l16.201217 16.201217a18.070588 18.070588 0 0 1 0.207708 23.678702 212.692901 212.692901 0 0 0-20.770791 53.173225v5.192698l-1.246247 1.453955v1.03854l-1.453956 1.246247H270.020284a28.248276 28.248276 0 0 0-28.248276 28.248276v23.263286A28.248276 28.248276 0 0 0 270.020284 554.372414H302.422718l1.661663 1.246247 1.661664 2.077079a15.993509 15.993509 0 0 1 1.869371 3.323327v1.869371a212.277485 212.277485 0 0 0 27.002028 60.235294l1.03854 2.492495a20.770791 20.770791 0 0 1 1.246247 6.231238 18.278296 18.278296 0 0 1-5.400405 13.085598l-16.201217 16.201217a28.248276 28.248276 0 0 0 0 39.879919l16.408924 16.408925a28.455984 28.455984 0 0 0 39.879919 0l17.032049-16.824341 2.492495-1.869371h1.246247l2.700203-1.03854h4.98499zM519.269777 618.138742a103.853955 103.853955 0 0 1 0-207.70791 103.853955 103.853955 0 0 1 0 207.70791zM519.269777 415.415822a98.038134 98.038134 0 0 0 0 196.076267A98.038134 98.038134 0 0 0 519.269777 415.415822z" fill="#666666" /><path d="M920.353753 0H118.185801A118.185801 118.185801 0 0 0 0 118.185801v787.836106a118.185801 118.185801 0 0 0 118.185801 117.978093h802.167952A118.185801 118.185801 0 0 0 1038.539554 906.021907V118.185801A118.185801 118.185801 0 0 0 920.353753 0z" fill="#E7EAEC" /><path d="M519.269777 514.492495m-419.777688 0a419.777688 419.777688 0 1 0 839.555376 0 419.777688 419.777688 0 1 0-839.555376 0Z" fill="#C9CBD2" /><path d="M521.762272 515.115619m-355.803651 0a355.803651 355.803651 0 1 0 711.607302 0 355.803651 355.803651 0 1 0-711.607302 0Z" fill="#57555E" /><path d="M519.269777 872.373225a358.296146 358.296146 0 1 1 358.296146-357.88073A358.711562 358.711562 0 0 1 519.269777 872.373225z m0-710.984178a353.103448 353.103448 0 1 0 353.103448 353.103448 353.103448 353.103448 0 0 0-353.103448-353.103448z" fill="#6B6A6A" /><path d="M920.353753 994.920892H118.185801A118.185801 118.185801 0 0 1 0 876.942799v29.079108a118.185801 118.185801 0 0 0 118.185801 117.978093h802.167952A118.185801 118.185801 0 0 0 1038.539554 906.021907v-29.079108a118.185801 118.185801 0 0 1-118.185801 117.978093z" fill="#979797" /><path d="M920.353753 29.079108H118.185801A118.185801 118.185801 0 0 0 0 147.264909v-29.079108A118.185801 118.185801 0 0 1 118.185801 0h802.167952A118.185801 118.185801 0 0 1 1038.539554 118.185801v29.079108a118.185801 118.185801 0 0 0-118.185801-118.185801z" fill="#FFFFFF" /><path d="M453.426369 514.492495A65.843408 65.843408 0 1 0 519.269777 448.649087a65.843408 65.843408 0 0 0-65.843408 65.843408z" fill="#312242" /><path d="M763.118864 470.043002h-22.432454a12.462475 12.462475 0 0 1-12.047059-8.516024v-1.03854A214.146856 214.146856 0 0 0 706.206897 405.445842v-4.569574-2.907911V388.413793l15.162677-15.162677a33.233266 33.233266 0 0 0 0-46.73428L706.206897 311.561866a33.233266 33.233266 0 0 0-46.941988 0l-15.785801 16.616633a12.047059 12.047059 0 0 1-13.293307 2.492495h-2.077079a213.108316 213.108316 0 0 0-55.458012-23.055578c-8.516024-2.492495-10.800811-5.192698-10.800811-12.254767V270.020284a33.025558 33.025558 0 0 0-31.987019-33.233266h-22.84787a33.025558 33.025558 0 0 0-32.194726 33.233266v22.640162a13.91643 13.91643 0 0 1 0 2.284787v4.154158c0 2.492495-7.477485 3.94645-7.477485 3.946451a213.108316 213.108316 0 0 0-53.796349 22.224746c-7.477485 4.569574-12.047059 5.815822-17.239756 1.661664l-16.616633-16.408925A33.025558 33.025558 0 0 0 332.332657 311.561866l-16.616633 16.408925a33.440974 33.440974 0 0 0 0 46.941988l16.616633 15.993509a12.254767 12.254767 0 0 1 0 16.616633 214.354564 214.354564 0 0 0-22.224746 54.004057v4.777282l-2.700203 2.700202h-31.987018a33.025558 33.025558 0 0 0-33.025558 33.025558v24.509534a33.233266 33.233266 0 0 0 33.025558 33.233265H304.915213l1.661663 1.869372v3.738742A214.354564 214.354564 0 0 0 332.332657 621.254361l2.907911 4.569574a12.462475 12.462475 0 0 1-3.115619 12.877891l-15.578093 17.032048a33.440974 33.440974 0 0 0 0 46.941988l16.408925 16.201217a33.233266 33.233266 0 0 0 46.941988 0l15.162677-15.162677 1.869371-1.453956h12.877891a214.354564 214.354564 0 0 0 54.834888 22.640163 12.254767 12.254767 0 0 1 8.931441 12.254766v20.770791a33.025558 33.025558 0 0 0 33.025557 33.025558h23.470994a32.81785 32.81785 0 0 0 22.84787-9.139148 33.233266 33.233266 0 0 0 10.177688-23.88641v-22.224746a12.254767 12.254767 0 0 1 8.516024-12.047059h1.03854a212.900609 212.900609 0 0 0 55.250304-22.224746h11.008519l18.90142 18.070588a33.233266 33.233266 0 0 0 46.941988 0l16.201217-16.201217a33.233266 33.233266 0 0 0 0-46.73428l-14.539554-15.993509a12.047059 12.047059 0 0 1-3.115618-11.839351v-1.661663a213.939148 213.939148 0 0 0 23.055578-55.665721V567.873428l1.038539-1.453955h31.571603a33.025558 33.025558 0 0 0 33.025558-33.025558v-30.325355a33.233266 33.233266 0 0 0-28.8714-33.025558zM519.269777 619.592698a105.100203 105.100203 0 0 1-105.100203-105.100203A105.100203 105.100203 0 1 1 519.269777 619.592698z" fill="#6B6A6A" /><path d="M519.269777 585.113185a70.62069 70.62069 0 0 1-70.62069-70.62069 70.62069 70.62069 0 1 1 70.62069 70.62069z m0-136.048682a65.6357 65.6357 0 0 0-65.427992 65.427992A65.427992 65.427992 0 1 0 519.269777 449.064503z" fill="#6B6A6A" /><path d="M277.290061 556.449493h30.117647l1.246247 1.246247 2.907911 3.115619 1.246248 2.284787v2.284787a209.78499 209.78499 0 0 0 22.640162 54.419473l3.115619 5.192697a14.95497 14.95497 0 0 1-3.738743 15.370386l-15.578093 16.824341a30.325355 30.325355 0 0 0 0 42.995537l16.408925 15.993509a30.325355 30.325355 0 0 0 42.995537 0l15.785802-15.785801 1.869371-1.453955h14.747261a210.200406 210.200406 0 0 0 54.419473 22.640162 14.747262 14.747262 0 0 1 10.800811 14.747262v20.770791a30.325355 30.325355 0 0 0 30.325355 30.325355h22.640163A30.325355 30.325355 0 0 0 560.811359 757.095335v-22.84787a14.747262 14.747262 0 0 1 10.593103-14.747262 209.78499 209.78499 0 0 0 54.419473-21.809331l2.700203-1.246247h12.047059l2.284787 1.869371 15.785801 15.785801a30.325355 30.325355 0 0 0 42.995538 0l15.993509-15.993509a30.325355 30.325355 0 0 0 0-42.995537l-14.331846-15.785802a14.747262 14.747262 0 0 1-3.738743-14.747261v-1.869372a209.78499 209.78499 0 0 0 22.640163-54.419472v-1.246248l1.246247-2.284787 3.531035-1.869371 1.453955-1.246247h32.81785a30.325355 30.325355 0 0 0 30.325355-30.325355v-28.040568a30.325355 30.325355 0 0 0-30.325355-30.325355h-22.224747a14.747262 14.747262 0 0 1-14.747261-10.593104 210.200406 210.200406 0 0 0-21.809331-54.419472v-5.192698a14.747262 14.747262 0 0 1 0-1.661663v-2.284787a14.747262 14.747262 0 0 1 0-1.453956v-9.139148l15.785801-15.785801a30.325355 30.325355 0 0 0 0-42.78783l-15.578093-15.785801a30.325355 30.325355 0 0 0-42.995537 0l-15.785802 16.408925a14.747262 14.747262 0 0 1-16.201217 2.907911h-2.284787a209.78499 209.78499 0 0 0-54.419472-22.640162c-9.346856-2.700203-12.462475-6.231237-12.462475-14.747262v-23.263286a30.325355 30.325355 0 0 0-29.286815-30.325355h-21.186207A30.325355 30.325355 0 0 0 477.728195 272.512779v22.432454a14.747262 14.747262 0 0 1 0 2.284787 14.747262 14.747262 0 0 1 0 1.661664v3.323326c0 3.323327-7.477485 5.192698-9.346856 5.608114a233.048276 233.048276 0 0 0-52.75781 20.770791c-8.516024 5.192698-14.539554 7.062069-20.770791 1.869371h-1.038539l-16.408925-16.408925a30.325355 30.325355 0 0 0-41.541582 0l-16.408925 16.408925a30.325355 30.325355 0 0 0 0 42.995538l16.408925 15.785801a14.747262 14.747262 0 0 1 0 19.732251 209.78499 209.78499 0 0 0-20.770791 52.965518v6.231237H277.290061A30.325355 30.325355 0 0 0 246.964706 498.498986V522.800811a30.325355 30.325355 0 0 0 30.117647 30.325355zM519.269777 415.415822a98.245842 98.245842 0 1 1-98.245842 98.453549A98.245842 98.245842 0 0 1 519.269777 415.415822z" fill="#EBECF0" /><path d="M519.269777 585.5286a71.243813 71.243813 0 0 1-71.036106-71.036105A71.036105 71.036105 0 1 1 519.269777 585.5286z m0-137.087221a66.051116 66.051116 0 0 0-66.051116 65.843408A66.051116 66.051116 0 1 0 519.269777 448.441379z" fill="#6B6A6A" /><path d="M519.269777 613.569168a99.284381 99.284381 0 0 1-99.076674-99.076673A99.076673 99.076673 0 1 1 519.269777 613.569168z m0-191.091278a92.014604 92.014604 0 0 0-92.014605 92.014605A92.014604 92.014604 0 1 0 519.269777 422.47789z" fill="#6B6A6A" /></svg>