<?xml version="1.0" encoding="UTF-8"?>
<svg width="661px" height="663px" viewBox="0 0 661 663" version="1.1" xmlns="http://www.w3.org/2000/svg" xmlns:xlink="http://www.w3.org/1999/xlink">
    <title>设置2.0</title>
    <defs>
        <filter x="-1.9%" y="-1.9%" width="103.9%" height="103.8%" filterUnits="objectBoundingBox" id="filter-1">
            <feGaussianBlur stdDeviation="3" in="SourceGraphic"></feGaussianBlur>
        </filter>
        <path d="M320.091808,222.121703 C322.679827,222.121703 324.840128,224.096593 325.071744,226.674227 L338.233691,373.152712 C338.311355,374.017029 338.164208,374.849703 337.840518,375.592934 C348.734921,382.298983 356.126648,394.146489 356.634748,407.754291 C357.277855,407.834892 357.917025,408.042528 358.514581,408.387528 C358.59676,408.434973 358.677571,408.484749 358.756917,408.536794 L480.876549,488.638226 C483.09316,490.092159 483.789792,493.023338 482.464341,495.319087 L477.604078,503.73731 C476.31311,505.973331 473.531933,506.858683 471.185915,505.780448 L338.127049,444.626325 C337.567694,444.369245 337.078409,444.021928 336.668527,443.609587 C330.914432,446.884199 324.256977,448.754425 317.162708,448.754425 C310.317767,448.754425 303.879477,447.013347 298.266538,443.949894 C298.016418,444.174957 297.73871,444.37677 297.435775,444.551669 C297.344841,444.60417 297.252275,444.653794 297.158216,444.700466 L163.868006,510.839056 C161.503848,512.012151 158.63504,511.14575 157.315438,508.860132 L152.460551,500.451221 C151.161365,498.200966 151.802294,495.330618 153.935285,493.846744 L276.273516,408.73877 C276.716039,408.430917 277.190925,408.204473 277.680406,408.056251 C278.095447,394.128433 285.720426,382.011551 296.951143,375.310017 C296.756888,374.777487 296.65084,374.201222 296.65084,373.600189 C296.65084,373.501047 296.653788,373.401927 296.659682,373.30296 L305.382618,226.824475 C305.53991,224.183171 307.727793,222.121703 310.373776,222.121703 L320.091808,222.121703 Z" id="path-2"></path>
        <filter x="-3.0%" y="-2.8%" width="106.0%" height="106.9%" filterUnits="objectBoundingBox" id="filter-3">
            <feOffset dx="0" dy="2" in="SourceAlpha" result="shadowOffsetOuter1"></feOffset>
            <feGaussianBlur stdDeviation="3" in="shadowOffsetOuter1" result="shadowBlurOuter1"></feGaussianBlur>
            <feColorMatrix values="0 0 0 0 0   0 0 0 0 0   0 0 0 0 0  0 0 0 0.5 0" type="matrix" in="shadowBlurOuter1"></feColorMatrix>
        </filter>
        <linearGradient x1="50.0016241%" y1="-13.1184969%" x2="50.0016241%" y2="111.929114%" id="linearGradient-4">
            <stop stop-color="#F7F7F7" offset="0%"></stop>
            <stop stop-color="#B8B8B8" offset="100%"></stop>
        </linearGradient>
        <linearGradient x1="50.0016241%" y1="-13.1184969%" x2="50.0016241%" y2="111.929114%" id="linearGradient-5">
            <stop stop-color="#F7F7F7" offset="0%"></stop>
            <stop stop-color="#B8B8B8" offset="100%"></stop>
        </linearGradient>
        <linearGradient x1="50%" y1="0%" x2="50%" y2="100%" id="linearGradient-6">
            <stop stop-color="#F9F9F9" offset="0%"></stop>
            <stop stop-color="#B1B1B2" offset="44.0241033%"></stop>
            <stop stop-color="#BBBABF" offset="95.2164657%"></stop>
            <stop stop-color="#FDFDFD" offset="100%"></stop>
        </linearGradient>
    </defs>
    <g id="页面-1" stroke="none" stroke-width="1" fill="none" fill-rule="evenodd">
        <g id="settings" transform="translate(12.337292, -526.000000)">
            <g id="设置2.0" transform="translate(-0.000000, 538.907619)">
                <path d="M307.540845,84.5461906 L301.779589,84.7430858 L298.598772,111.593988 C294.54395,111.911309 292.358775,112.360393 288.371504,112.908406 L281.07152,87.4649669 L275.376106,88.3662357 L275.497742,115.077034 C271.471992,115.89424 267.492738,116.822353 263.553245,117.865438 L253.335169,93.8027253 L247.799336,95.3894376 L251.120921,121.574041 C247.195965,122.886319 243.319535,124.316991 239.494944,125.855255 L226.574579,103.463104 L221.27304,105.725741 L227.700515,131.037631 C225.032678,132.310656 222.392555,133.641032 219.781982,135.027834 L204.731382,114.297688 L199.683589,117.095504 L208.653666,141.393506 C205.074592,143.590262 201.560505,145.899851 198.135454,148.303341 L180.824218,129.742144 L176.1703,133.131394 L187.908507,155.954554 C184.60771,158.58778 181.387916,161.321091 178.253612,164.150678 L158.99064,147.983025 L154.77784,151.916866 L169.077032,172.947541 C166.101422,175.981617 163.219494,179.106279 160.435309,182.317123 L139.53912,168.750497 L135.832852,173.172351 L152.44078,192.118568 C150.581607,194.555748 148.77577,197.035601 147.017284,199.554384 L124.976347,188.325688 L121.758013,193.113739 L140.129558,210.097422 C137.885984,213.775965 135.75809,217.523909 133.749005,221.335743 L110.694791,212.942296 L108.076942,218.087346 L128.231343,232.60155 C126.45383,236.538492 124.79571,240.538213 123.258263,244.600286 L99.5103593,239.11738 L97.5399181,244.544137 L119.196066,256.430576 C117.909299,260.580281 116.754634,264.76985 115.733818,268.99294 L91.601125,266.467419 L90.3063095,272.081767 L113.182025,281.216913 C112.634342,284.293334 112.150149,287.396386 111.737035,290.521041 L87.5102819,290.530848 L86.8065453,296.248617 L110.489249,302.933321 C110.181758,307.276918 110.009659,311.62905 109.973204,315.983378 L85.9527409,318.950175 L85.9527409,324.714894 L110.245763,328.451518 C110.471613,332.830485 110.830001,337.180896 111.324776,341.483393 L87.8676014,347.351213 L88.561932,353.068981 L113.116824,353.820092 C113.662107,356.9196 114.278431,360.006175 114.965309,363.077375 L92.2403026,371.348685 L93.544524,376.972338 L118.052387,375.15087 C119.261675,379.339086 120.604131,383.487651 122.077709,387.590241 L100.496381,398.593272 L102.466823,404.020029 L126.646546,399.203636 C128.375959,403.231806 130.231498,407.19602 132.201405,411.090075 L111.962564,424.497345 L114.542896,429.661004 L138.20636,422.075245 C139.782015,424.762557 141.418179,427.413886 143.113598,430.027202 L124.329474,445.537111 L127.425851,450.400348 L150.254536,440.354414 C152.819245,443.826269 155.491551,447.217239 158.267557,450.522378 L141.425549,468.285727 L145.0943,472.735923 L166.637148,459.911531 C168.627068,462.009788 170.660515,464.06628 172.736163,466.079667 L156.607084,489.118866 L160.895025,492.977627 L182.700813,475.149039 C185.710333,477.712079 188.792397,480.188593 191.943235,482.57555 L178.665871,507.577284 L183.39493,510.891562 L202.995662,490.396706 C205.728225,492.199235 208.503195,493.936559 211.318224,495.60721 L200.124066,520.777926 L205.06882,523.753814 L223.084435,502.07609 C226.639927,503.889448 230.247428,505.598843 233.902355,507.202103 L225.833112,533.649804 L231.106327,535.98752 L246.410247,512.178279 C249.012901,513.120058 251.634352,514.008996 254.272986,514.844546 L248.990472,542.109346 L254.470083,543.893167 L267.268598,518.478605 C271.109557,519.419519 274.976875,520.249227 278.865716,520.966693 L276.923279,548.850734 L282.581069,549.949433 L292.264181,522.985163 C294.967344,523.301351 297.676463,523.564285 300.389966,523.773814 L301.384539,551.883519 L307.126769,552.390463 L313.967038,524.384499 C316.466046,524.412974 318.965362,524.396928 321.463799,524.336371 L328.369482,552.576556 L334.111712,552.078917 L335.115691,523.575635 C337.781959,523.337136 340.430484,523.048478 343.06287,522.711799 L352.905563,550.14558 L358.563353,549.038004 L356.583506,520.51654 C360.383512,519.771098 364.14814,518.914534 367.871723,517.962999 L381.027237,544.082362 L386.506848,542.298541 L381.045728,514.123595 C383.555082,513.298744 386.048269,512.42544 388.523892,511.504173 L404.390031,536.187196 L409.653947,533.839854 L401.246945,506.28415 C404.744251,504.707705 408.190679,503.035005 411.586978,501.270541 L430.418132,523.943971 L435.372185,520.977388 L423.596568,494.510437 C426.258026,492.895169 428.87502,491.227281 431.450115,489.497149 L452.101535,511.081826 L456.830594,507.767549 L442.784721,481.319848 C445.739046,479.036355 448.625179,476.68249 451.444935,474.250337 L474.60176,493.177303 L478.880402,489.318542 L461.710255,464.758512 C463.574237,462.917686 465.407544,461.038358 467.199272,459.125127 L490.403127,472.935599 L494.071664,468.485403 L475.85938,449.276088 C478.438677,446.157472 480.926262,442.964037 483.318945,439.699879 L508.071576,450.600238 L511.167739,445.737001 L490.732229,428.865616 C492.261465,426.471021 493.741187,424.045126 495.170451,421.589477 L520.954531,429.851483 L523.525457,424.687823 L501.41932,410.032445 C503.239428,406.388279 504.950927,402.690807 506.551552,398.944924 L533.03039,404.212004 L534.991319,398.79498 L511.327854,386.711752 C512.676773,382.899668 513.9127,379.048492 515.034015,375.163276 L541.953223,377.172548 L543.248039,371.548896 L518.270947,362.441985 C518.882022,359.67158 519.435739,356.888819 519.93174,354.095489 L546.926837,353.269406 L547.630574,347.542333 L521.809084,341.09249 C522.263721,337.081853 522.601588,333.058824 522.822255,329.028514 L549.545862,324.908153 L549.545862,319.143434 L523.114053,315.885625 C523.080919,311.823552 522.928179,307.792601 522.664064,303.792773 L548.683293,296.441448 L547.979556,290.723679 L521.378868,290.713883 C521.007226,287.892217 520.582996,285.089803 520.102651,282.301826 L545.193041,272.284234 L543.898226,266.660582 L517.466417,269.430163 C516.519836,265.483596 515.4622,261.587295 514.295113,257.731956 L537.958578,244.737514 L535.98835,239.320489 L510.090971,245.29173 C508.668961,241.494251 507.145517,237.750033 505.512194,234.063034 L527.421661,218.280402 L524.803812,213.144656 L499.817101,222.232958 C497.943391,218.642107 495.971988,215.122592 493.896264,211.661578 L513.741765,193.306795 L510.513918,188.528049 L486.803424,200.611276 C485.193937,198.274843 483.540412,195.969961 481.840072,193.701013 L499.667567,173.364444 L495.961406,168.951895 L473.62974,183.447917 C471.005618,180.380801 468.292773,177.390811 465.494656,174.481752 L480.723756,152.108852 L476.501336,148.175012 L456.103235,165.299868 C453.131365,162.570158 450.080652,159.927654 446.95498,157.375718 L459.331296,133.321562 L454.668079,129.932312 L436.512444,149.403655 C433.231261,147.057811 429.874617,144.806724 426.454055,142.65339 L435.818006,117.285886 L430.769786,114.48807 L415.137727,136.006438 C412.64921,134.650845 410.125848,133.350653 407.575123,132.100833 L414.217867,105.91623 L408.916327,103.663004 L395.620793,126.684022 C391.892827,125.13624 388.11997,123.696798 384.286615,122.365269 L387.701939,95.5796057 L382.156807,93.9835887 L371.769958,118.468754 C367.888397,117.396793 363.957669,116.427932 359.994341,115.577036 L360.115977,88.5571524 L354.420563,87.6558836 L347.082954,113.239427 C343.110541,112.653019 339.099755,112.17292 335.055087,111.812391 L331.883569,84.9518631 L326.122313,84.7546471 L321.947137,111.070799 C320.150493,111.028019 318.35823,110.995934 316.551859,110.995934 C315.557499,110.995934 312.737529,110.98203 311.747659,110.995934 L307.540845,84.5461906 Z" id="路径" fill="#B1B1B1" filter="url(#filter-1)" transform="translate(317.749301, 318.561373) rotate(-330.000000) translate(-317.749301, -318.561373) "></path>
                <circle id="椭圆形" fill="#4A4C4A" cx="320.662708" cy="318.092381" r="186"></circle>
                <circle id="椭圆形" fill="#5B6172" cx="317.662708" cy="325.092381" r="140"></circle>
                <g id="形状结合" transform="translate(317.462494, 366.741320) scale(1, -1) translate(-317.462494, -366.741320) ">
                    <use fill="black" fill-opacity="1" filter="url(#filter-3)" xlink:href="#path-2"></use>
                    <use fill="#7E8094" fill-rule="evenodd" xlink:href="#path-2"></use>
                </g>
                <g id="编组" transform="translate(205.890299, 204.092381)" fill="url(#linearGradient-4)">
                    <path d="M108.979373,0 L106.145927,0.0967584624 L104.581567,13.2918587 C102.587363,13.447797 101.512671,13.6684862 99.5516887,13.9377911 L95.961479,1.43434829 L93.1604142,1.87725082 L93.2202361,15.0035007 C91.2403299,15.405093 89.2832905,15.8611874 87.3458063,16.3737813 L82.3204484,4.54885656 L79.597867,5.32860047 L81.2314579,18.1962671 C79.3011229,18.8411484 77.3946536,19.5442108 75.5136796,20.3001462 L69.1593075,9.29617045 L66.5519543,10.4080781 L69.7130547,22.8468751 C68.4009842,23.4724665 67.1025436,24.1262414 65.8186362,24.807745 L58.4165918,14.6205138 L55.9340341,15.9954194 L60.3456126,27.9359708 C58.5853864,29.015503 56.8571213,30.1504835 55.1726449,31.3316095 L46.6587957,22.2102454 L44.3699496,23.8757944 L50.1429239,35.0915771 C48.5195572,36.3855997 46.9360285,37.7288065 45.3945448,39.1193255 L35.9208111,31.1741996 L33.8489115,33.1073716 L40.8814056,43.4422896 C39.4179692,44.9332985 38.0006062,46.4688234 36.6313148,48.0466995 L26.3543481,41.3797734 L24.5315664,43.5527656 L32.6995208,52.8633368 C31.7851599,54.0610185 30.8970302,55.2796705 30.032188,56.5174536 L19.1922222,50.9994356 L17.6094116,53.3523849 L26.6447315,61.698525 C25.541318,63.5062385 24.4947974,65.3480573 23.5067084,67.2212731 L12.1684017,63.096556 L10.8809159,65.6249424 L20.7930635,72.7575284 C19.9188642,74.6922247 19.103383,76.6577722 18.3472505,78.6539607 L6.66778012,75.959545 L5.69869632,78.626368 L16.3494187,84.4676149 C15.7165733,86.5068675 15.1486968,88.5657098 14.6466489,90.6410256 L2.77793507,89.3999314 L2.14113111,92.1589404 L13.3916499,96.6481441 C13.1222935,98.1599622 12.8841622,99.6848672 12.6809884,101.220389 L0.766015136,101.225208 L0.419910026,104.03504 L12.0673142,107.320045 C11.9160867,109.45458 11.8314468,111.59331 11.8135178,113.733118 L0,115.191065 L0,118.02397 L11.9475652,119.860226 C12.0586405,122.012143 12.2348997,124.150026 12.4782352,126.264364 L0.941748638,129.147935 L1.2832278,131.957767 L13.3595836,132.326878 C13.6277594,133.850042 13.9308739,135.36685 14.2686878,136.876103 L3.09228935,140.940799 L3.73371926,143.704381 L15.7869453,142.809273 C16.381686,144.867451 17.0419202,146.906143 17.7666413,148.922242 L7.15271627,154.329364 L8.12180006,156.996187 L20.0136436,154.62931 C20.8641874,156.608838 21.7767611,158.556936 22.745582,160.470557 L12.7919061,167.059172 L14.0609406,169.596703 L25.6988826,165.868901 C26.4738063,167.189503 27.2784889,168.492422 28.1123139,169.776661 L18.8740831,177.398557 L20.396914,179.788455 L31.624303,174.851671 C32.885654,176.557814 34.1999223,178.224208 35.5651912,179.848423 L27.2821137,188.577708 L29.0864442,190.764627 L39.6814449,184.462451 C40.6601083,185.493578 41.6601792,186.504182 42.681005,187.493603 L34.7485535,198.815552 L36.8574081,200.711828 L47.5817251,191.950484 C49.061839,193.210016 50.5776305,194.427027 52.1272459,195.600028 L45.597298,207.886408 L47.9230991,209.515114 L57.5629465,199.443509 C58.9068501,200.32931 60.2716097,201.183068 61.6560705,202.004061 L56.1506652,214.373482 L58.5825477,215.835896 L67.4428175,205.183005 C69.1914461,206.074127 70.9656535,206.91416 72.7631848,207.702036 L68.794646,220.698994 L71.3880688,221.847797 L78.9146985,210.147434 C80.1947116,210.610244 81.4839687,211.047087 82.7816766,211.457694 L80.1836804,224.856192 L82.8786113,225.732799 L89.1730562,213.243547 C91.0620804,213.705932 92.9640685,214.113668 94.8766414,214.466246 L93.9213303,228.169052 L96.7038913,228.708976 L101.466148,215.458165 C102.795593,215.613546 104.127966,215.742758 105.462495,215.845724 L105.951637,229.659427 L108.775726,229.90855 L112.139843,216.145828 C113.368881,216.159821 114.598072,216.151936 115.826829,216.122177 L119.223117,230 L122.047207,229.75545 L122.540974,215.748335 C123.852273,215.631132 125.154846,215.489279 126.449481,215.323828 L131.290221,228.805367 L134.072782,228.261081 L133.099072,214.245031 C134.967956,213.878705 136.81944,213.457772 138.650737,212.990167 L145.120758,225.825774 L147.815689,224.949166 L145.129852,211.103403 C146.363979,210.698054 147.590155,210.268894 148.807692,209.816164 L156.610827,221.945922 L159.199677,220.792389 L155.065024,207.250934 C156.785036,206.476236 158.480026,205.654236 160.150362,204.787141 L169.411722,215.929343 L171.848178,214.471502 L166.056805,201.465083 C167.365739,200.671306 168.652804,199.851671 169.919263,199.001448 L180.07585,209.608614 L182.401651,207.979908 L175.493742,194.98295 C176.94671,193.860793 178.366141,192.704054 179.752927,191.508842 L191.141698,200.809953 L193.24598,198.913677 L184.801519,186.844359 C185.718246,185.939739 186.619885,185.016197 187.501076,184.075995 L198.912978,190.862752 L200.717203,188.675832 L191.760209,179.23597 C193.028735,177.703416 194.252155,176.134095 195.428902,174.530019 L207.602508,179.886685 L209.125234,177.496788 L199.074833,169.205833 C199.826928,168.029078 200.554671,166.836942 201.257598,165.630185 L213.938481,169.690308 L215.20289,167.152777 L204.330858,159.950815 C205.226006,158.159995 206.06774,156.342979 206.854944,154.502173 L219.877517,157.090528 L220.841922,154.428487 L209.20398,148.490535 C209.867392,146.617196 210.475234,144.724646 211.026709,142.81537 L224.26586,143.802768 L224.902664,141.039187 L212.618666,136.563858 C212.9192,135.202423 213.191523,133.834915 213.435462,132.462214 L226.711936,132.05626 L227.058041,129.241855 L214.358759,126.072266 C214.582355,124.101355 214.748521,122.124353 214.857047,120.143774 L228,118.118941 L228,115.286037 L215.000557,113.685081 C214.984261,111.688892 214.909142,109.707998 214.779247,107.742398 L227.575779,104.129802 L227.229674,101.31997 L214.147175,101.315155 C213.964397,99.9285293 213.755756,98.5513636 213.519517,97.1812932 L225.859237,92.2584371 L225.222433,89.4948556 L212.22299,90.8558861 C211.757451,88.9164597 211.237295,87.0017353 210.663309,85.1071405 L222.301251,78.7213973 L221.332272,76.0593571 L208.595668,78.9937506 C207.896308,77.1275894 207.147062,75.2876019 206.343776,73.4757327 L217.119084,65.719814 L215.831598,63.1960001 L203.542869,67.6621837 C202.621359,65.8975637 201.651802,64.1679996 200.630939,62.4671845 L210.391167,53.4472566 L208.803678,51.0988798 L197.142606,57.0368326 C196.351043,55.8886602 195.537822,54.7559923 194.701576,53.6409837 L203.469327,43.6471643 L201.646598,41.4787446 L190.663648,48.6023958 C189.373078,47.0951501 188.038872,45.6258061 186.662728,44.1962331 L194.15256,33.2017177 L192.07593,31.2685456 L182.043928,39.6840617 C180.582331,38.3426245 179.081958,37.0440422 177.544719,35.7899672 L183.631522,23.969247 L181.338103,22.303698 L172.40897,31.8723269 C170.795249,30.7195294 169.144416,29.6132979 167.462148,28.5551041 L172.067438,16.0889772 L169.58467,14.7140715 L161.896658,25.2886519 C160.672779,24.6224849 159.431763,23.9835427 158.177289,23.3693551 L161.444261,10.5016884 L158.836908,9.39440578 L152.298023,20.7074199 C150.46457,19.946807 148.609039,19.2394348 146.723754,18.5850932 L148.403447,5.42205306 L145.676292,4.63773664 L140.56793,16.6702637 C138.658938,16.1434793 136.725764,15.6673604 134.776557,15.2492125 L134.836379,1.97107132 L132.035314,1.52816878 L128.426601,14.100462 C126.472926,13.8122889 124.500379,13.576358 122.511168,13.3991865 L120.951382,0.199356069 L118.117936,0.102439934 L116.06454,13.0347524 C115.180931,13.0137294 114.299478,12.9979621 113.411085,12.9979621 C112.922049,12.9979621 111.535158,12.9911296 111.048329,12.9979621 L108.979373,0 Z M113.300637,46.0937696 C152.500578,46.1011995 184.276556,77.8711038 184.283988,117.063553 C184.296445,135.895283 176.8238,153.960179 163.510877,167.281892 C150.197954,180.603605 132.135971,188.090195 113.300637,188.09377 C94.4548307,188.106235 76.3773129,180.626726 63.0513125,167.303272 C49.7253121,153.979819 42.2443727,135.905757 42.2568407,117.063553 C42.2604158,98.2318183 49.7484371,80.1732884 63.0726971,66.8629096 C76.396957,53.5525308 94.4653065,46.0813146 113.300637,46.0937696 Z" id="形状"></path>
                </g>
                <g id="编组" transform="translate(319.686859, 319.107564) rotate(-330.000000) translate(-319.686859, -319.107564) translate(87.890299, 85.092381)" fill="url(#linearGradient-5)">
                    <path d="M221.588104,9.09494702e-13 L215.826848,0.196895211 L212.646032,27.0477978 C208.591209,27.3651189 206.406034,27.8142025 202.418763,28.3622151 L195.118779,2.91877632 L189.423365,3.82004517 L189.545001,30.5308431 C185.519251,31.3480491 181.539997,32.2761625 177.600504,33.3192472 L167.382428,9.25653477 L161.846595,10.8432471 L165.16818,37.0278503 C161.243224,38.3401285 157.366794,39.7708006 153.542203,41.3090645 L140.621839,18.9169133 L135.320299,21.1795505 L141.747774,46.4914406 C139.079938,47.7644656 136.439814,49.0948417 133.829241,50.4816434 L118.778641,29.7514974 L113.730848,32.5493131 L122.700925,56.8473158 C119.121851,59.0440717 115.607764,61.3536601 112.182713,63.7571506 L94.8714767,45.1959535 L90.2175588,48.5852035 L101.955766,71.4083637 C98.6549691,74.0415894 95.4351752,76.7749005 92.3008714,79.6044879 L73.0378987,63.4368349 L68.8250987,67.370675 L83.1242913,88.4013509 C80.1486813,91.4354268 77.2667527,94.5600888 74.4825682,97.770932 L53.5863793,84.2043065 L49.8801115,88.6261601 L66.488039,107.572378 C64.6288661,110.009558 62.8230292,112.489411 61.0645428,115.008193 L39.0236061,103.779498 L35.8052723,108.567549 L54.1768169,125.551231 C51.9332427,129.229774 49.805349,132.977718 47.7962644,136.789552 L24.7420497,128.396105 L22.1242008,133.541156 L42.2786017,148.055359 C40.5010896,151.992301 38.842969,155.992022 37.3055225,160.054096 L13.5576184,154.57119 L11.5871773,159.997947 L33.2433248,171.884386 C31.9565582,176.034091 30.8018931,180.223659 29.7810774,184.446749 L5.64838416,181.921229 L4.35356865,187.535576 L27.229284,196.670723 C26.6816008,199.747144 26.1974078,202.850195 25.7842938,205.97485 L1.557541,205.984658 L0.853804384,211.702426 L24.5365081,218.387131 C24.2290167,222.730728 24.0569182,227.08286 24.0204631,231.437187 L-7.27595761e-12,234.403984 L-7.27595761e-12,240.168704 L24.2930221,243.905328 C24.5188719,248.284294 24.8772603,252.634705 25.372035,256.937203 L1.91486048,262.805022 L2.60919114,268.522791 L27.1640836,269.273901 C27.7093662,272.37341 28.32569,275.459984 29.012568,278.531185 L6.28756171,286.802495 L7.59178317,292.426147 L32.0996459,290.604679 C33.3089339,294.792895 34.6513901,298.94146 36.124968,303.04405 L14.5436406,314.047081 L16.5140817,319.473838 L40.6938048,314.657445 C42.4232183,318.685616 44.2787571,322.64983 46.2486638,326.543884 L26.009823,339.951154 L28.590155,345.114814 L52.2536193,337.529054 C53.829274,340.216366 55.4654378,342.867696 57.1608568,345.481011 L38.3767328,360.990921 L41.4731097,365.854157 L64.3017953,355.808224 C66.8665042,359.280079 69.5388101,362.671049 72.3148157,365.976188 L55.4728081,383.739537 L59.1415589,388.189732 L80.6844074,375.365341 C82.6743268,377.463597 84.7077742,379.52009 86.7834224,381.533476 L70.6543436,404.572676 L74.9422843,408.431437 L96.7480721,390.602848 C99.7575923,393.165889 102.839656,395.642402 105.990494,398.029359 L92.7131302,423.031094 L97.442189,426.345372 L117.042921,405.850516 C119.775485,407.653044 122.550455,409.390369 125.365483,411.06102 L114.171325,436.231736 L119.11608,439.207623 L137.131694,417.529899 C140.687186,419.343257 144.294688,421.052652 147.949614,422.655913 L139.880371,449.103613 L145.153586,451.441329 L160.457506,427.632089 C163.060161,428.573867 165.681611,429.462805 168.320245,430.298356 L163.037731,457.563155 L168.517342,459.346977 L181.315857,433.932415 C185.156816,434.873328 189.024134,435.703037 192.912975,436.420503 L190.970538,464.304544 L196.628328,465.403243 L206.31144,438.438973 C209.014603,438.755161 211.723723,439.018095 214.437225,439.227623 L215.431798,467.337329 L221.174028,467.844273 L228.014297,439.838308 C230.513305,439.866783 233.012621,439.850738 235.511058,439.790181 L242.416741,468.030366 L248.158971,467.532727 L249.16295,439.029445 C251.829218,438.790946 254.477743,438.502287 257.110129,438.165608 L266.952822,465.599389 L272.610612,464.491813 L270.630765,435.97035 C274.430771,435.224907 278.195399,434.368343 281.918982,433.416808 L295.074496,459.536172 L300.554107,457.75235 L295.092987,429.577405 C297.602341,428.752553 300.095528,427.879249 302.571151,426.957982 L318.43729,451.641005 L323.701206,449.293664 L315.294204,421.737959 C318.79151,420.161514 322.237938,418.488814 325.634237,416.724351 L344.465391,439.397781 L349.419444,436.431198 L337.643827,409.964246 C340.305286,408.348978 342.922279,406.681091 345.497374,404.950958 L366.148794,426.535636 L370.877853,423.221358 L356.83198,396.773657 C359.786305,394.490165 362.672438,392.136299 365.492194,389.704146 L388.649019,408.631113 L392.927661,404.772352 L375.757514,380.212321 C377.621497,378.371495 379.454803,376.492167 381.246531,374.578936 L404.450386,388.389408 L408.118923,383.939213 L389.906639,364.729898 C392.485936,361.611282 394.973522,358.417847 397.366204,355.153689 L422.118835,366.054047 L425.214999,361.19081 L404.779488,344.319426 C406.308724,341.92483 407.788446,339.498935 409.21771,337.043287 L435.00179,345.305292 L437.572716,340.141632 L415.466579,325.486254 C417.286687,321.842088 418.998186,318.144617 420.598811,314.398733 L447.07765,319.665814 L449.038578,314.248789 L425.375114,302.165562 C426.724032,298.353477 427.959959,294.502301 429.081274,290.617086 L456.000483,292.626358 L457.295298,287.002706 L432.318206,277.895794 C432.929282,275.125389 433.482998,272.342628 433.978999,269.549298 L460.974096,268.723215 L461.677833,262.996142 L435.856343,256.5463 C436.31098,252.535663 436.648847,248.512634 436.869514,244.482324 L463.593121,240.361963 L463.593121,234.597243 L437.161312,231.339435 C437.128178,227.277361 436.975438,223.246411 436.711323,219.246582 L462.730552,211.895257 L462.026815,206.177489 L435.426127,206.167692 C435.054485,203.346027 434.630255,200.543612 434.14991,197.755636 L459.2403,187.738044 L457.945485,182.114391 L431.513676,184.883972 C430.567095,180.937405 429.509459,177.041104 428.342372,173.185766 L452.005837,160.191323 L450.035609,154.774299 L424.13823,160.745539 C422.716221,156.94806 421.192776,153.203843 419.559453,149.516844 L441.46892,133.734211 L438.851071,128.598465 L413.86436,137.686768 C411.99065,134.095917 410.019247,130.576401 407.943523,127.115388 L427.789024,108.760605 L424.561178,103.981858 L400.850684,116.065085 C399.241196,113.728653 397.587672,111.42377 395.887331,109.154823 L413.714826,88.8182533 L410.008665,84.4057043 L387.676999,98.9017265 C385.052877,95.83461 382.340032,92.8446206 379.541915,89.9355614 L394.771015,67.5626612 L390.548595,63.6288211 L370.150494,80.7536778 C367.178624,78.0239678 364.127912,75.3814637 361.002239,72.8295279 L373.378555,48.7753715 L368.715338,45.3861215 L350.559703,64.8574644 C347.27852,62.5116199 343.921876,60.2605334 340.501314,58.1071992 L349.865265,32.7396951 L344.817045,29.9418794 L329.184986,51.4602479 C326.696469,50.1046548 324.173107,48.804462 321.622382,47.5546426 L328.265126,21.3700394 L322.963586,19.1168138 L309.668052,42.1378318 C305.940087,40.5900494 302.167229,39.1506074 298.333874,37.8190781 L301.749198,11.0334151 L296.204066,9.43739816 L285.817217,33.9225636 C281.935656,32.8506024 278.004928,31.881741 274.0416,31.0308457 L274.163236,4.01096186 L268.467822,3.10969302 L261.130214,28.6932364 C257.1578,28.1068288 253.147014,27.6267296 249.102346,27.2662007 L245.930828,0.405672583 L240.169572,0.208456521 L235.994396,26.5246084 C234.197752,26.4818284 232.405489,26.4497433 230.599118,26.4497433 C229.604759,26.4497433 226.784789,26.4358398 225.794918,26.4497433 L221.588104,9.09494702e-13 Z M230.595804,57.6910455 C307.086545,57.6910455 372.444052,105.394017 398.577649,172.694533 C403.19437,185.577747 405.502357,194.272794 405.502357,198.766839 C405.502357,210.783757 398.296004,225.204914 359.864225,225.204914 L264.063483,225.204914 C249.329265,225.204914 243.750891,223.745472 239.87414,221.318025 C236.991642,219.515487 232.013753,213.449275 229.102181,208.287219 L226.334158,202.888697 C226.233685,202.677257 226.13054,202.462073 226.043321,202.2409 L176.559436,119.839024 C156.766309,86.8780601 165.405894,73.267585 175.696225,67.0751718 C177.430556,66.0368998 180.132844,64.9513559 183.802985,63.8360798 C199.064809,59.7477681 214.79727,57.6833648 230.596553,57.6958583 L230.595804,57.6910455 Z M121.091224,103.215443 C130.511397,103.048494 142.350825,109.546463 155.958466,132.207487 L203.5323,211.42011 C208.763937,221.038778 211.376548,229.0733 211.376548,235.549131 C211.376548,243.562157 208.172216,253.974502 201.768577,266.794615 L202.246998,266.222004 L155.962207,343.312736 C136.16908,376.2737 120.111615,375.036287 109.818505,368.849221 C105.701474,366.368834 96.1061155,357.684696 86.4735603,345.725531 L90.8931844,351.781262 C65.6039859,320.743261 50.4420588,281.122512 50.4420588,237.954226 C50.3891333,198.842656 63.1069882,160.784449 86.6605037,129.570952 C96.2273241,117.73478 105.727875,109.140267 109.817329,106.681483 C113.034594,104.746648 116.813972,103.292875 121.095927,103.217154 L121.091224,103.215443 Z M230.317901,226.967449 C236.556445,226.968633 241.613489,232.028718 241.614672,238.271012 C241.616655,241.270397 240.427407,244.147645 238.308699,246.269433 C236.18999,248.391221 233.315484,249.583632 230.317901,249.584201 C227.318652,249.586186 224.441674,248.394903 222.320884,246.272838 C220.200094,244.150773 219.009526,241.272065 219.011511,238.271012 C219.01208,235.271628 220.203774,232.395393 222.324287,230.275411 C224.4448,228.155428 227.320319,226.965466 230.317901,226.967449 Z M264.171865,249.23768 L359.847551,249.23768 C398.279437,249.23768 405.485683,263.658837 405.485683,275.675755 C405.485683,278.36769 404.702316,283.544505 403.08353,290.115094 C380.730486,364.239029 311.960113,418.209324 230.591101,418.209324 C220.426211,418.216455 210.278713,417.368491 200.255821,415.674346 C187.601602,413.09781 179.414144,410.689828 175.691309,408.454356 C165.513635,402.330712 156.999106,388.916704 175.963226,356.733268 L225.787009,273.999846 C233.507162,260.617175 235.880242,257.47391 240.199501,254.77235 C244.518545,252.070896 250.049034,249.233188 264.172934,249.233188 L264.171865,249.23768 Z" id="形状"></path>
                </g>
                <circle id="椭圆形" fill="#49494E" cx="316.662708" cy="322.092381" r="16"></circle>
                <circle id="椭圆形" fill="url(#linearGradient-6)" cx="316.662708" cy="322.092381" r="9.14285714"></circle>
            </g>
        </g>
    </g>
</svg>