<?xml version="1.0" encoding="UTF-8"?>
<svg xmlns="http://www.w3.org/2000/svg" xmlns:xlink="http://www.w3.org/1999/xlink" width="64pt" height="64pt" viewBox="0 0 64 64" version="1.1">
<defs>
<linearGradient id="linear0" gradientUnits="userSpaceOnUse" x1="192.01" y1="352.57" x2="341.96" y2="352.57" gradientTransform="matrix(0.235182,0,0,0.235182,-30.956969,-36.279131)">
<stop offset="0" style="stop-color:rgb(13.333333%,75.686275%,97.647059%);stop-opacity:1;"/>
<stop offset="0.25" style="stop-color:rgb(12.54902%,77.254902%,96.078431%);stop-opacity:1;"/>
<stop offset="0.52" style="stop-color:rgb(9.411765%,82.352941%,90.980392%);stop-opacity:1;"/>
<stop offset="0.8" style="stop-color:rgb(4.705882%,90.196078%,82.352941%);stop-opacity:1;"/>
<stop offset="1" style="stop-color:rgb(0.392157%,97.647059%,74.509804%);stop-opacity:1;"/>
</linearGradient>
<linearGradient id="linear1" gradientUnits="userSpaceOnUse" x1="146.82" y1="358.33" x2="233.87" y2="207.55" gradientTransform="matrix(0.235182,0,0,0.235182,-30.956969,-36.279131)">
<stop offset="0" style="stop-color:rgb(100%,90.588235%,4.705882%);stop-opacity:1;"/>
<stop offset="0.19" style="stop-color:rgb(100%,84.705882%,8.235294%);stop-opacity:1;"/>
<stop offset="1" style="stop-color:rgb(99.607843%,61.568627%,22.745098%);stop-opacity:1;"/>
</linearGradient>
<linearGradient id="linear2" gradientUnits="userSpaceOnUse" x1="192.98" y1="227.99" x2="342.93" y2="227.99" gradientTransform="matrix(0.235182,0,0,0.235182,-30.956969,-36.279131)">
<stop offset="0" style="stop-color:rgb(99.607843%,49.019608%,70.196078%);stop-opacity:1;"/>
<stop offset="1" style="stop-color:rgb(100%,37.647059%,30.980392%);stop-opacity:1;"/>
</linearGradient>
<linearGradient id="linear3" gradientUnits="userSpaceOnUse" x1="192.01" y1="352.5" x2="341.96" y2="352.5" gradientTransform="matrix(0.235182,0,0,0.235182,-30.956969,-36.279131)">
<stop offset="0" style="stop-color:rgb(0.392157%,97.647059%,74.509804%);stop-opacity:1;"/>
<stop offset="0.01" style="stop-color:rgb(1.176471%,97.647059%,74.901961%);stop-opacity:1;"/>
<stop offset="0.23" style="stop-color:rgb(17.254902%,98.431373%,82.745098%);stop-opacity:1;"/>
<stop offset="0.44" style="stop-color:rgb(29.803922%,98.823529%,89.019608%);stop-opacity:1;"/>
<stop offset="0.64" style="stop-color:rgb(38.823529%,99.215686%,93.333333%);stop-opacity:1;"/>
<stop offset="0.83" style="stop-color:rgb(44.313725%,99.607843%,96.078431%);stop-opacity:1;"/>
<stop offset="1" style="stop-color:rgb(46.27451%,99.607843%,96.862745%);stop-opacity:1;"/>
</linearGradient>
<linearGradient id="linear4" gradientUnits="userSpaceOnUse" x1="268.15" y1="358.71" x2="395.07" y2="231.79" gradientTransform="matrix(0.235182,0,0,0.235182,-30.956969,-36.279131)">
<stop offset="0" style="stop-color:rgb(18.823529%,59.607843%,88.627451%);stop-opacity:1;"/>
<stop offset="0.01" style="stop-color:rgb(19.215686%,59.215686%,88.627451%);stop-opacity:1;"/>
<stop offset="0.33" style="stop-color:rgb(34.117647%,40.392157%,86.666667%);stop-opacity:1;"/>
<stop offset="0.62" style="stop-color:rgb(45.098039%,26.666667%,85.098039%);stop-opacity:1;"/>
<stop offset="0.85" style="stop-color:rgb(51.764706%,18.431373%,84.313725%);stop-opacity:1;"/>
<stop offset="1" style="stop-color:rgb(54.117647%,15.294118%,83.921569%);stop-opacity:1;"/>
</linearGradient>
<linearGradient id="linear5" gradientUnits="userSpaceOnUse" x1="273.97" y1="364.65" x2="401.29" y2="237.33" gradientTransform="matrix(0.235182,0,0,0.235182,-30.956969,-36.279131)">
<stop offset="0" style="stop-color:rgb(18.823529%,59.607843%,88.627451%);stop-opacity:1;"/>
<stop offset="0.01" style="stop-color:rgb(19.215686%,59.215686%,88.627451%);stop-opacity:1;"/>
<stop offset="0.33" style="stop-color:rgb(34.117647%,40.392157%,86.666667%);stop-opacity:1;"/>
<stop offset="0.62" style="stop-color:rgb(45.098039%,26.666667%,85.098039%);stop-opacity:1;"/>
<stop offset="0.85" style="stop-color:rgb(51.764706%,18.431373%,84.313725%);stop-opacity:1;"/>
<stop offset="1" style="stop-color:rgb(54.117647%,15.294118%,83.921569%);stop-opacity:1;"/>
</linearGradient>
<linearGradient id="linear6" gradientUnits="userSpaceOnUse" x1="238.05" y1="417.6" x2="312.8" y2="342.85" gradientTransform="matrix(0.235182,0,0,0.235182,-30.956969,-36.279131)">
<stop offset="0" style="stop-color:rgb(0.392157%,97.647059%,74.509804%);stop-opacity:1;"/>
<stop offset="0.29" style="stop-color:rgb(3.137255%,92.941176%,79.215686%);stop-opacity:1;"/>
<stop offset="0.81" style="stop-color:rgb(10.196078%,80.784314%,92.156863%);stop-opacity:1;"/>
<stop offset="1" style="stop-color:rgb(13.333333%,75.686275%,97.647059%);stop-opacity:1;"/>
</linearGradient>
<linearGradient id="linear7" gradientUnits="userSpaceOnUse" x1="332.27" y1="-4.38" x2="378.74" y2="-84.87" gradientTransform="matrix(-0.235182,0.000000000000000029,-0.000000000000000029,-0.235182,114.321831,0.479771)">
<stop offset="0" style="stop-color:rgb(99.607843%,49.019608%,70.196078%);stop-opacity:1;"/>
<stop offset="0.17" style="stop-color:rgb(99.607843%,48.235294%,67.058824%);stop-opacity:1;"/>
<stop offset="0.42" style="stop-color:rgb(99.607843%,45.882353%,59.215686%);stop-opacity:1;"/>
<stop offset="0.72" style="stop-color:rgb(100%,41.960784%,45.882353%);stop-opacity:1;"/>
<stop offset="1" style="stop-color:rgb(100%,37.647059%,30.980392%);stop-opacity:1;"/>
</linearGradient>
<linearGradient id="linear8" gradientUnits="userSpaceOnUse" x1="490.41" y1="243.33" x2="594.41" y2="183.29" gradientTransform="matrix(0.000000000000000014,0.235182,-0.235182,0.000000000000000014,60.063058,-92.892074)">
<stop offset="0" style="stop-color:rgb(100%,90.588235%,4.705882%);stop-opacity:1;"/>
<stop offset="0.21" style="stop-color:rgb(100%,88.235294%,5.882353%);stop-opacity:1;"/>
<stop offset="0.47" style="stop-color:rgb(100%,82.352941%,9.803922%);stop-opacity:1;"/>
<stop offset="0.76" style="stop-color:rgb(99.607843%,72.156863%,16.078431%);stop-opacity:1;"/>
<stop offset="1" style="stop-color:rgb(99.607843%,61.568627%,22.745098%);stop-opacity:1;"/>
</linearGradient>
<linearGradient id="linear9" gradientUnits="userSpaceOnUse" x1="77.01" y1="129.87" x2="151.92" y2="54.97" gradientTransform="matrix(0.000000000000000014,-0.235182,0.235182,0.000000000000000014,31.439092,56.692904)">
<stop offset="0" style="stop-color:rgb(18.823529%,59.607843%,88.627451%);stop-opacity:1;"/>
<stop offset="0.33" style="stop-color:rgb(29.411765%,46.27451%,87.058824%);stop-opacity:1;"/>
<stop offset="1" style="stop-color:rgb(54.117647%,15.294118%,83.921569%);stop-opacity:1;"/>
</linearGradient>
</defs>
<g id="surface1">
<path style=" stroke:none;fill-rule:nonzero;fill:url(#linear0);" d="M 49.335938 53.15625 C 49.050781 51.527344 48.285156 50.019531 47.140625 48.824219 C 45.238281 46.867188 42.507812 46.117188 40.050781 46.429688 L 39.964844 46.457031 C 39.476562 46.585938 38.953125 46.710938 38.398438 46.816406 C 37.90625 46.980469 37.429688 47.203125 36.988281 47.472656 C 36.042969 48.058594 35.027344 48.523438 33.96875 48.855469 C 29.027344 50.351562 22.550781 48.882812 18.945312 43.425781 C 18.199219 42.324219 17.628906 41.117188 17.253906 39.839844 C 16.59375 37.277344 15.984375 33.820312 18.136719 29.425781 C 18.136719 29.425781 12.800781 36.636719 14.550781 45.515625 C 16.703125 56.949219 27.25 66.953125 42.394531 62.957031 C 43.953125 62.570312 45.402344 61.828125 46.628906 60.78125 C 48.324219 59.285156 49.945312 56.820312 49.335938 53.15625 Z M 49.335938 53.15625 "/>
<path style=" stroke:none;fill-rule:nonzero;fill:url(#linear1);" d="M 0.890625 42.886719 C 1.277344 44.445312 2.019531 45.894531 3.058594 47.121094 C 4.546875 48.824219 7 50.460938 10.652344 49.84375 C 17.296875 48.566406 18.773438 41.402344 16.3125 37.453125 C 15.722656 36.503906 15.257812 35.484375 14.9375 34.410156 C 13.449219 29.453125 14.910156 22.949219 20.34375 19.328125 C 21.4375 18.582031 22.644531 18.007812 23.914062 17.632812 C 26.464844 16.972656 29.90625 16.359375 34.285156 18.519531 C 34.285156 18.519531 27.101562 13.160156 18.261719 14.921875 C 6.875 17.089844 -3.089844 27.691406 0.890625 42.886719 Z M 0.890625 42.886719 "/>
<path style=" stroke:none;fill-rule:nonzero;fill:url(#linear2);" d="M 21.488281 1.019531 C 19.925781 1.40625 18.476562 2.152344 17.253906 3.199219 C 15.554688 4.695312 13.929688 7.15625 14.542969 10.824219 C 15.84375 17.496094 22.964844 18.988281 26.898438 16.507812 C 27.839844 15.914062 28.859375 15.449219 29.925781 15.125 C 34.867188 13.632812 41.34375 15.097656 44.949219 20.558594 C 45.695312 21.660156 46.265625 22.867188 46.640625 24.140625 C 47.296875 26.703125 47.90625 30.160156 45.753906 34.554688 C 45.753906 34.554688 51.089844 27.34375 49.339844 18.464844 C 47.1875 7.03125 36.636719 -2.972656 21.488281 1.019531 Z M 21.488281 1.019531 "/>
<path style=" stroke:none;fill-rule:nonzero;fill:url(#linear3);" d="M 40.050781 46.429688 C 39.492188 46.5 38.9375 46.628906 38.40625 46.816406 C 38.960938 46.710938 39.480469 46.582031 39.972656 46.457031 Z M 40.050781 46.429688 "/>
<path style=" stroke:none;fill-rule:nonzero;fill:url(#linear4);" d="M 38.398438 46.816406 C 36.058594 47.253906 33.132812 47.320312 29.59375 45.570312 C 31.339844 46.773438 33.246094 47.722656 35.257812 48.386719 C 35.859375 48.128906 36.441406 47.828125 36.996094 47.480469 C 37.4375 47.207031 37.90625 46.984375 38.398438 46.816406 Z M 38.398438 46.816406 "/>
<path style=" stroke:none;fill-rule:nonzero;fill:url(#linear5);" d="M 62.992188 21.214844 C 62.605469 19.652344 61.863281 18.199219 60.824219 16.972656 C 59.332031 15.265625 56.882812 13.632812 53.226562 14.25 C 46.585938 15.527344 45.109375 22.6875 47.570312 26.636719 C 48.160156 27.585938 48.625 28.609375 48.945312 29.679688 C 50.433594 34.640625 48.96875 41.144531 43.535156 44.761719 C 42.46875 45.492188 41.292969 46.054688 40.054688 46.429688 C 42.507812 46.117188 45.242188 46.867188 47.144531 48.824219 C 57.875 46.035156 66.792969 35.734375 62.992188 21.214844 Z M 62.992188 21.214844 "/>
<path style=" stroke:none;fill-rule:nonzero;fill:url(#linear6);" d="M 16.042969 50.4375 C 16.042969 50.4375 19.554688 58.140625 28.691406 55.398438 C 29.652344 54.914062 32.09375 54.589844 35.664062 49.515625 C 36.933594 47.710938 38.910156 46.480469 41.105469 46.367188 C 42.277344 46.289062 43.445312 46.523438 44.5 47.042969 C 44.5 47.042969 50.570312 49.375 49.203125 56.761719 C 47.644531 63.09375 37.542969 65.898438 28.5625 62.628906 C 19.582031 59.359375 16.917969 52.183594 16.042969 50.4375 Z M 16.042969 50.4375 "/>
<path style=" stroke:none;fill-rule:nonzero;fill:url(#linear7);" d="M 47.785156 13.5625 C 47.785156 13.5625 44.277344 5.855469 35.128906 8.601562 C 34.164062 9.085938 31.726562 9.410156 28.15625 14.484375 C 26.886719 16.289062 24.910156 17.519531 22.714844 17.632812 C 21.542969 17.710938 20.375 17.476562 19.324219 16.957031 C 19.324219 16.957031 13.25 14.625 14.617188 7.238281 C 16.175781 0.90625 26.277344 -1.898438 35.257812 1.371094 C 44.234375 4.640625 46.914062 11.816406 47.785156 13.5625 Z M 47.785156 13.5625 "/>
<path style=" stroke:none;fill-rule:nonzero;fill:url(#linear8);" d="M 13.503906 16.488281 C 13.503906 16.488281 5.832031 20.015625 8.566406 29.1875 C 9.050781 30.15625 9.371094 32.605469 14.429688 36.191406 C 16.226562 37.46875 17.453125 39.449219 17.5625 41.65625 C 17.640625 42.832031 17.410156 44.003906 16.894531 45.0625 C 16.894531 45.0625 14.570312 51.160156 7.210938 49.785156 C 0.90625 48.222656 -1.890625 38.078125 1.367188 29.0625 C 4.628906 20.042969 11.765625 17.367188 13.503906 16.488281 Z M 13.503906 16.488281 "/>
<path style=" stroke:none;fill-rule:nonzero;fill:url(#linear9);" d="M 50.492188 47.613281 C 50.492188 47.613281 58.164062 44.085938 55.433594 34.914062 C 54.949219 33.945312 54.625 31.496094 49.570312 27.910156 C 47.773438 26.632812 46.542969 24.652344 46.433594 22.445312 C 46.355469 21.269531 46.585938 20.097656 47.105469 19.039062 C 47.105469 19.039062 49.429688 12.941406 56.785156 14.316406 C 63.089844 15.878906 65.886719 26.023438 62.628906 35.039062 C 59.371094 44.054688 52.230469 46.738281 50.492188 47.613281 Z M 50.492188 47.613281 "/>
</g>
</svg>
